<?xml version="1.0" standalone="no"?>
<!DOCTYPE svg PUBLIC "-//W3C//DTD SVG 20010904//EN"
 "http://www.w3.org/TR/2001/REC-SVG-20010904/DTD/svg10.dtd">
<svg version="1.0" xmlns="http://www.w3.org/2000/svg"
 width="266.000000pt" height="266.000000pt" viewBox="0 0 266.000000 266.000000"
 preserveAspectRatio="xMidYMid meet">
<metadata>
Created by potrace 1.11, written by Peter Selinger 2001-2013
</metadata>
<g transform="translate(0.000000,266.000000) scale(0.100000,-0.100000)"
fill="#000000" stroke="none">
<path d="M1130 2644 c-119 -21 -131 -23 -215 -51 -83 -26 -221 -92 -297 -139
-212 -133 -396 -346 -500 -579 l-27 -60 432 -3 c337 -2 434 1 443 10 6 7 53
90 104 183 51 94 103 188 115 210 12 22 59 108 105 190 45 83 95 173 111 202
l30 51 -113 0 c-62 0 -147 -7 -188 -14z"/>
<path d="M1669 2607 c-1 -7 -2 -378 -3 -824 l-1 -813 472 0 472 0 12 43 c29
108 38 203 34 357 -4 153 -5 161 -36 282 -97 383 -346 692 -698 869 -105 52
-251 102 -252 86z"/>
<path d="M1492 2523 c-27 -49 -66 -119 -87 -158 -21 -38 -68 -124 -105 -190
-37 -66 -86 -156 -110 -200 -24 -44 -53 -98 -65 -120 -12 -22 -37 -67 -55
-100 -18 -33 -41 -73 -50 -90 -10 -16 -35 -61 -55 -100 -21 -38 -46 -85 -57
-102 -19 -32 -19 -33 -1 -34 18 -1 553 -1 608 0 l30 1 0 590 c0 325 -1 590 -2
590 -1 0 -24 -39 -51 -87z"/>
<path d="M39 1648 c-61 -227 -43 -552 44 -783 39 -103 138 -287 169 -313 14
-11 26 10 207 343 24 44 78 143 121 220 43 77 95 172 116 210 21 39 75 136
120 218 l82 147 -424 0 -423 0 -12 -42z"/>
<path d="M803 1273 c-29 -54 -57 -106 -267 -486 -102 -187 -186 -343 -186
-348 0 -13 105 -114 170 -163 114 -87 265 -169 360 -197 25 -7 50 -16 55 -20
6 -4 60 -18 120 -30 89 -19 141 -23 275 -23 91 0 176 3 190 6 l25 5 0 644 0
644 -361 3 -360 2 -21 -37z"/>
<path d="M1669 848 c-1 -2 -2 -184 -3 -404 l-1 -401 46 13 c365 109 672 377
832 728 15 32 27 60 27 62 0 4 -899 6 -901 2z"/>
</g>
</svg>
