<?xml version="1.0" encoding="utf-8"?>
<!-- Generator: Adobe Illustrator 16.0.0, SVG Export Plug-In . SVG Version: 6.00 Build 0)  -->
<!DOCTYPE svg PUBLIC "-//W3C//DTD SVG 1.1//EN" "http://www.w3.org/Graphics/SVG/1.1/DTD/svg11.dtd">
<svg version="1.1" id="レイヤー_1" xmlns="http://www.w3.org/2000/svg" xmlns:xlink="http://www.w3.org/1999/xlink" x="0px"
	 y="0px" width="730.125px" height="726.029px" viewBox="230.212 57.931 730.125 726.029"
	 enable-background="new 230.212 57.931 730.125 726.029" xml:space="preserve">
<g id="レイヤー_2">
</g>
<g id="レイヤー_3">
</g>
<g id="レイヤー_1_1_">
	<g>
		<path fill="#054B68" d="M588.388,396.252l-146.512,84.785l146.512,84.79l146.513-84.79L588.388,396.252z M428.354,673.524
			l146.511,84.789v-169.58l-146.511-84.788V673.524z M601.909,589.849v168.465l146.514-84.789V505.059L601.909,589.849z"/>
		<path fill="#054B68" d="M501.689,286.488l28.316,28.317c15.75-16.703,36.588-26.091,60.609-26.091
			c24.022,0,45.974,10.5,60.611,26.091l28.315-28.317c-23.065-23.065-54.405-38.656-88.926-38.656
			C556.094,248.786,524.757,263.422,501.689,286.488z M591.73,332.463c-11.454,0-23.066,5.249-30.386,13.521l30.386,30.383
			l30.384-30.383C613.681,337.712,603.182,332.463,591.73,332.463z M800.917,164.156c-115.015-115.014-302.25-115.014-417.423,0
			c-1.113,1.114-1.113,1.114-2.068,2.068l29.271,29.271c45.973-47.087,110.878-76.359,181.987-76.359
			c71.106,0,134.899,29.271,181.984,76.359l29.272-29.271C801.872,165.111,800.917,164.156,800.917,164.156z M591.73,162.088
			c-56.473,0-108.811,21.954-148.58,61.724c-1.114,1.114-1.114,1.114-2.068,2.068l30.384,30.385
			c30.385-31.338,73.176-51.224,120.266-51.224c47.087,0,89.879,19.886,120.264,51.224l30.384-30.384
			c-1.115-1.113-1.115-1.113-2.066-2.068C700.54,184.041,648.201,162.088,591.73,162.088z"/>
	</g>
</g>
<rect x="230.212" y="57.931" fill="none" width="730.125" height="726.029"/>
</svg>
