<?xml version="1.0" encoding="utf-8"?>
<!-- Generator: Adobe Illustrator 16.0.0, SVG Export Plug-In . SVG Version: 6.00 Build 0)  -->
<!DOCTYPE svg PUBLIC "-//W3C//DTD SVG 1.1//EN" "http://www.w3.org/Graphics/SVG/1.1/DTD/svg11.dtd">
<svg version="1.1" id="レイヤー_1" xmlns="http://www.w3.org/2000/svg" xmlns:xlink="http://www.w3.org/1999/xlink" x="0px"
	 y="0px" width="730.125px" height="726.029px" viewBox="237.682 53.431 730.125 726.029"
	 enable-background="new 237.682 53.431 730.125 726.029" xml:space="preserve">
<rect x="237.682" y="53.431" fill="none" width="730.125" height="726.029"/>
<g id="レイヤー_2">
</g>
<g id="レイヤー_3">
</g>
<g id="レイヤー_1_1_">
	<g id="eryZcf.tif_1_">
		<g>
			<path fill="#054B68" d="M919.345,761.161c-211.05,0-420.945,0-630.841,0c-4.613-2.307-5.767-5.767-5.767-11.533
				c0-16.146,0-33.444,0-49.591c0-5.766,4.613-9.226,9.227-9.226c9.226,0,19.605,0,28.831,0c1.153,0,2.307,0,2.307,0
				c0-119.94,0-239.881,0-359.822c-1.153,0-2.307,0-3.46,0c-17.299,0-34.598,0-51.896,0c-6.92,0-11.533-3.459-12.687-9.226v-1.153
				c0-1.153,0-3.46,0-4.613c1.153-4.613,4.613-8.073,8.073-10.379c6.92-4.613,13.839-9.226,19.605-13.839
				c98.028-69.196,196.057-139.546,294.085-208.743c6.919-5.766,13.839-10.379,20.759-13.839c1.153,0,2.307,0,4.613,0
				c2.307,1.153,4.612,2.307,6.919,3.46c26.525,18.452,51.897,36.905,78.423,55.357c83.036,58.817,166.071,118.787,249.107,177.604
				c3.46,2.306,6.92,5.766,9.227,10.379c0,1.153,0,3.46,0,4.613c-2.307,8.073-8.073,10.379-16.146,10.379
				c-13.839,0-28.832,0-42.671,0c-1.153,0-2.307,0-2.307,0c0,119.94,0,239.882,0,359.822c10.38,0,20.759,0,29.985,0
				c6.919,0,10.379,3.46,10.379,10.379c0,16.146,0,32.292,0,49.591C925.112,755.395,923.957,758.854,919.345,761.161z
				 M808.63,690.812c0-119.94,0-239.881,0-358.669c-136.086,0-272.173,0-408.259,0c0,119.94,0,239.882,0,358.669
				C535.304,690.812,671.391,690.812,808.63,690.812z"/>
			<path fill="#054B68" d="M767.113,642.374c-5.767-4.613-11.533-10.38-17.299-14.993c-13.84-10.379-29.985-19.605-47.284-23.065
				c-19.606-4.613-39.212-2.307-57.664,5.767c-9.227,3.46-18.452,9.227-27.679,14.992c-1.153,0-1.153,1.153-2.307,1.153
				c0-1.153,0-1.153,0-2.307c0-71.503,0-144.159,0-215.662c0-1.153,0-2.307,1.153-2.307c13.84-9.226,28.832-17.299,44.978-20.759
				c20.759-4.613,40.365-2.307,59.971,5.767c17.299,6.92,31.138,17.299,44.978,29.985c1.153,0,1.153,1.153,1.153,2.307v1.153
				c0,71.503,0,143.006,0,213.355C767.113,641.221,767.113,641.221,767.113,642.374z"/>
			<path fill="#054B68" d="M592.968,627.381c-8.073-4.613-17.299-10.379-25.372-13.839c-16.146-8.073-33.445-11.533-50.744-9.227
				c-17.299,1.153-32.291,6.92-46.131,16.146c-9.227,5.766-18.452,13.839-26.525,20.759c-1.153,1.153-2.307,1.153-3.46,2.307
				c0-1.153,0-2.307,0-2.307c0-71.503,0-143.006,0-215.662c0-1.153,0-2.307,1.153-3.46c13.84-12.687,28.832-23.065,47.284-29.985
				c12.687-4.613,26.525-8.073,40.365-6.92c17.299,0,32.291,5.767,47.284,13.84c5.766,2.307,10.379,5.766,14.992,9.226
				c1.153,1.153,1.153,2.307,1.153,3.46C592.968,483.222,592.968,555.878,592.968,627.381
				C592.968,626.228,592.968,626.228,592.968,627.381z"/>
		</g>
	</g>
</g>
</svg>
