<?xml version="1.0" encoding="utf-8"?>
<!-- Generator: Adobe Illustrator 16.0.0, SVG Export Plug-In . SVG Version: 6.00 Build 0)  -->
<!DOCTYPE svg PUBLIC "-//W3C//DTD SVG 1.1//EN" "http://www.w3.org/Graphics/SVG/1.1/DTD/svg11.dtd">
<svg version="1.1" id="レイヤー_1" xmlns="http://www.w3.org/2000/svg" xmlns:xlink="http://www.w3.org/1999/xlink" x="0px"
	 y="0px" width="365.376px" height="429.535px" viewBox="0 0 365.376 429.535" enable-background="new 0 0 365.376 429.535"
	 xml:space="preserve">
<g id="レイヤー_2">
</g>
<g id="レイヤー_3">
</g>
<g id="レイヤー_1_1_">
	<g>
		<path fill="#AD1E23" stroke="#FFFFFF" stroke-miterlimit="10" d="M228.431,233.756c0,1.962-1.604,3.567-3.566,3.567
			s-3.567-1.605-3.567-3.567s1.605-3.567,3.567-3.567S228.431,231.794,228.431,233.756z"/>
		<g opacity="0.6">
			<path fill="#004B68" stroke="#FFFFFF" stroke-miterlimit="10" d="M185.893,191.485c0,1.962-1.605,3.567-3.567,3.567
				s-3.567-1.605-3.567-3.567s1.605-3.567,3.567-3.567S185.893,189.523,185.893,191.485z"/>
			<path fill="#004B68" stroke="#FFFFFF" stroke-miterlimit="10" d="M185.893,198.62c0,1.962-1.605,3.567-3.567,3.567
				s-3.567-1.605-3.567-3.567s1.605-3.567,3.567-3.567S185.893,196.658,185.893,198.62z"/>
			<path fill="#004B68" stroke="#FFFFFF" stroke-miterlimit="10" d="M192.938,205.665c0,1.962-1.605,3.567-3.567,3.567
				s-3.566-1.605-3.566-3.567s1.604-3.567,3.566-3.567C191.422,202.097,192.938,203.703,192.938,205.665z"/>
			<path fill="#004B68" stroke="#FFFFFF" stroke-miterlimit="10" d="M185.893,205.665c0,1.962-1.605,3.567-3.567,3.567
				s-3.567-1.605-3.567-3.567s1.605-3.567,3.567-3.567S185.893,203.703,185.893,205.665z"/>
			<path fill="#004B68" stroke="#FFFFFF" stroke-miterlimit="10" d="M207.117,177.305c0,1.962-1.605,3.567-3.567,3.567
				s-3.567-1.605-3.567-3.567s1.605-3.567,3.567-3.567C205.601,173.738,207.117,175.343,207.117,177.305z"/>
			<path fill="#004B68" stroke="#FFFFFF" stroke-miterlimit="10" d="M221.297,184.44c0,1.962-1.605,3.567-3.567,3.567
				s-3.567-1.605-3.567-3.567s1.605-3.567,3.567-3.567S221.297,182.478,221.297,184.44z"/>
			<path fill="#004B68" stroke="#FFFFFF" stroke-miterlimit="10" d="M221.297,191.485c0,1.962-1.605,3.567-3.567,3.567
				s-3.567-1.605-3.567-3.567s1.605-3.567,3.567-3.567S221.297,189.523,221.297,191.485z"/>
			<path fill="#004B68" stroke="#FFFFFF" stroke-miterlimit="10" d="M214.251,191.485c0,1.962-1.604,3.567-3.566,3.567
				s-3.567-1.605-3.567-3.567s1.605-3.567,3.567-3.567S214.251,189.523,214.251,191.485z"/>
			<path fill="#004B68" stroke="#FFFFFF" stroke-miterlimit="10" d="M207.117,198.62c0,1.962-1.605,3.567-3.567,3.567
				s-3.567-1.605-3.567-3.567s1.605-3.567,3.567-3.567C205.601,195.052,207.117,196.658,207.117,198.62z"/>
			<path fill="#004B68" stroke="#FFFFFF" stroke-miterlimit="10" d="M207.117,205.665c0,1.962-1.605,3.567-3.567,3.567
				s-3.567-1.605-3.567-3.567s1.605-3.567,3.567-3.567C205.601,202.097,207.117,203.703,207.117,205.665z"/>
			<path fill="#004B68" stroke="#FFFFFF" stroke-miterlimit="10" d="M200.073,205.665c0,1.962-1.605,3.567-3.567,3.567
				s-3.567-1.605-3.567-3.567s1.605-3.567,3.567-3.567S200.073,203.703,200.073,205.665z"/>
			<path fill="#004B68" stroke="#FFFFFF" stroke-miterlimit="10" d="M221.297,198.62c0,1.962-1.605,3.567-3.567,3.567
				s-3.567-1.605-3.567-3.567s1.605-3.567,3.567-3.567S221.297,196.658,221.297,198.62z"/>
			<path fill="#004B68" stroke="#FFFFFF" stroke-miterlimit="10" d="M214.251,198.62c0,1.962-1.604,3.567-3.566,3.567
				s-3.567-1.605-3.567-3.567s1.605-3.567,3.567-3.567S214.251,196.658,214.251,198.62z"/>
			<path fill="#004B68" stroke="#FFFFFF" stroke-miterlimit="10" d="M221.297,205.665c0,1.962-1.605,3.567-3.567,3.567
				s-3.567-1.605-3.567-3.567s1.605-3.567,3.567-3.567S221.297,203.703,221.297,205.665z"/>
			<path fill="#004B68" stroke="#FFFFFF" stroke-miterlimit="10" d="M214.251,205.665c0,1.962-1.604,3.567-3.566,3.567
				s-3.567-1.605-3.567-3.567s1.605-3.567,3.567-3.567S214.251,203.703,214.251,205.665z"/>
			<path fill="#004B68" stroke="#FFFFFF" stroke-miterlimit="10" d="M256.79,21.419c0,1.962-1.605,3.567-3.566,3.567
				c-1.963,0-3.567-1.605-3.567-3.567s1.604-3.567,3.567-3.567C255.185,17.852,256.79,19.457,256.79,21.419z"/>
			<path fill="#004B68" stroke="#FFFFFF" stroke-miterlimit="10" d="M242.611,28.554c0,1.962-1.604,3.567-3.566,3.567
				s-3.567-1.605-3.567-3.567s1.605-3.567,3.567-3.567S242.611,26.592,242.611,28.554z"/>
			<path fill="#004B68" stroke="#FFFFFF" stroke-miterlimit="10" d="M256.79,28.554c0,1.962-1.605,3.567-3.566,3.567
				c-1.963,0-3.567-1.605-3.567-3.567s1.604-3.567,3.567-3.567C255.185,24.986,256.79,26.592,256.79,28.554z"/>
			<path fill="#004B68" stroke="#FFFFFF" stroke-miterlimit="10" d="M256.79,35.599c0,1.962-1.605,3.567-3.566,3.567
				c-1.963,0-3.567-1.605-3.567-3.567s1.604-3.567,3.567-3.567C255.185,32.032,256.79,33.637,256.79,35.599z"/>
			<path fill="#004B68" stroke="#FFFFFF" stroke-miterlimit="10" d="M256.79,42.733c0,1.962-1.605,3.567-3.566,3.567
				c-1.963,0-3.567-1.605-3.567-3.567c0-1.962,1.604-3.567,3.567-3.567C255.185,39.166,256.79,40.771,256.79,42.733z"/>
			<path fill="#004B68" stroke="#FFFFFF" stroke-miterlimit="10" d="M256.79,49.778c0,1.962-1.605,3.567-3.566,3.567
				c-1.963,0-3.567-1.605-3.567-3.567s1.604-3.567,3.567-3.567C255.185,46.211,256.79,47.816,256.79,49.778z"/>
			<path fill="#004B68" stroke="#FFFFFF" stroke-miterlimit="10" d="M256.79,56.913c0,1.962-1.605,3.567-3.566,3.567
				c-1.963,0-3.567-1.605-3.567-3.567s1.604-3.567,3.567-3.567C255.185,53.346,256.79,54.951,256.79,56.913z"/>
			<path fill="#004B68" stroke="#FFFFFF" stroke-miterlimit="10" d="M256.79,63.958c0,1.962-1.605,3.567-3.566,3.567
				c-1.963,0-3.567-1.605-3.567-3.567s1.604-3.566,3.567-3.566C255.185,60.391,256.79,61.996,256.79,63.958z"/>
			<path fill="#004B68" stroke="#FFFFFF" stroke-miterlimit="10" d="M242.611,71.003c0,1.962-1.604,3.567-3.566,3.567
				s-3.567-1.605-3.567-3.567s1.605-3.567,3.567-3.567C241.006,67.525,242.611,69.13,242.611,71.003z"/>
			<path fill="#004B68" stroke="#FFFFFF" stroke-miterlimit="10" d="M242.611,78.137c0,1.962-1.604,3.567-3.566,3.567
				s-3.567-1.605-3.567-3.567s1.605-3.566,3.567-3.566S242.611,76.175,242.611,78.137z"/>
			<path fill="#004B68" stroke="#FFFFFF" stroke-miterlimit="10" d="M235.477,78.137c0,1.962-1.605,3.567-3.567,3.567
				s-3.567-1.605-3.567-3.567s1.605-3.566,3.567-3.566S235.477,76.175,235.477,78.137z"/>
			<path fill="#004B68" stroke="#FFFFFF" stroke-miterlimit="10" d="M256.79,71.003c0,1.962-1.605,3.567-3.566,3.567
				c-1.963,0-3.567-1.605-3.567-3.567s1.604-3.567,3.567-3.567C255.185,67.436,256.79,69.13,256.79,71.003z"/>
			<path fill="#004B68" stroke="#FFFFFF" stroke-miterlimit="10" d="M249.656,71.003c0,1.962-1.605,3.567-3.567,3.567
				s-3.567-1.605-3.567-3.567s1.605-3.567,3.567-3.567C248.051,67.525,249.656,69.13,249.656,71.003z"/>
			<path fill="#004B68" stroke="#FFFFFF" stroke-miterlimit="10" d="M256.79,78.137c0,1.962-1.605,3.567-3.566,3.567
				c-1.963,0-3.567-1.605-3.567-3.567s1.604-3.566,3.567-3.566C255.185,74.571,256.79,76.175,256.79,78.137z"/>
			<path fill="#004B68" stroke="#FFFFFF" stroke-miterlimit="10" d="M249.656,78.137c0,1.962-1.605,3.567-3.567,3.567
				s-3.567-1.605-3.567-3.567s1.605-3.566,3.567-3.566S249.656,76.175,249.656,78.137z"/>
			<path fill="#004B68" stroke="#FFFFFF" stroke-miterlimit="10" d="M235.477,85.183c0,1.962-1.605,3.566-3.567,3.566
				s-3.567-1.604-3.567-3.566s1.605-3.567,3.567-3.567C233.871,81.705,235.477,83.221,235.477,85.183z"/>
			<path fill="#004B68" stroke="#FFFFFF" stroke-miterlimit="10" d="M235.477,92.317c0,1.962-1.605,3.567-3.567,3.567
				s-3.567-1.605-3.567-3.567s1.605-3.567,3.567-3.567S235.477,90.355,235.477,92.317z"/>
			<path fill="#004B68" stroke="#FFFFFF" stroke-miterlimit="10" d="M249.656,85.183c0,1.962-1.605,3.566-3.567,3.566
				s-3.567-1.604-3.567-3.566s1.605-3.567,3.567-3.567C248.051,81.705,249.656,83.221,249.656,85.183z"/>
			<path fill="#004B68" stroke="#FFFFFF" stroke-miterlimit="10" d="M242.611,99.363c0,1.962-1.604,3.566-3.566,3.566
				s-3.567-1.604-3.567-3.566c0-1.963,1.605-3.567,3.567-3.567S242.611,97.4,242.611,99.363z"/>
			<path fill="#004B68" stroke="#FFFFFF" stroke-miterlimit="10" d="M235.477,99.363c0,1.962-1.605,3.566-3.567,3.566
				s-3.567-1.604-3.567-3.566c0-1.963,1.605-3.567,3.567-3.567S235.477,97.4,235.477,99.363z"/>
			<path fill="#004B68" stroke="#FFFFFF" stroke-miterlimit="10" d="M235.477,106.497c0,1.962-1.605,3.567-3.567,3.567
				s-3.567-1.605-3.567-3.567s1.605-3.567,3.567-3.567S235.477,104.535,235.477,106.497z"/>
			<path fill="#004B68" stroke="#FFFFFF" stroke-miterlimit="10" d="M249.656,99.363c0,1.962-1.605,3.566-3.567,3.566
				s-3.567-1.604-3.567-3.566c0-1.963,1.605-3.567,3.567-3.567S249.656,97.4,249.656,99.363z"/>
			<path fill="#004B68" stroke="#FFFFFF" stroke-miterlimit="10" d="M263.836,28.554c0,1.962-1.605,3.567-3.567,3.567
				s-3.567-1.605-3.567-3.567s1.605-3.567,3.567-3.567S263.836,26.592,263.836,28.554z"/>
			<path fill="#004B68" stroke="#FFFFFF" stroke-miterlimit="10" d="M270.97,35.599c0,1.962-1.605,3.567-3.567,3.567
				s-3.566-1.605-3.566-3.567s1.604-3.567,3.566-3.567S270.97,33.637,270.97,35.599z"/>
			<path fill="#004B68" stroke="#FFFFFF" stroke-miterlimit="10" d="M263.836,35.599c0,1.962-1.605,3.567-3.567,3.567
				s-3.567-1.605-3.567-3.567s1.605-3.567,3.567-3.567S263.836,33.637,263.836,35.599z"/>
			<path fill="#004B68" stroke="#FFFFFF" stroke-miterlimit="10" d="M355.958,14.374c0,1.962-1.605,3.567-3.567,3.567
				s-3.566-1.605-3.566-3.567s1.604-3.567,3.566-3.567S355.958,12.412,355.958,14.374z"/>
			<path fill="#004B68" stroke="#FFFFFF" stroke-miterlimit="10" d="M348.913,21.419c0,1.962-1.605,3.567-3.567,3.567
				s-3.567-1.605-3.567-3.567s1.605-3.567,3.567-3.567S348.913,19.457,348.913,21.419z"/>
			<path fill="#004B68" stroke="#FFFFFF" stroke-miterlimit="10" d="M341.779,28.554c0,1.962-1.605,3.567-3.566,3.567
				c-1.963,0-3.567-1.605-3.567-3.567s1.604-3.567,3.567-3.567C340.173,24.986,341.779,26.592,341.779,28.554z"/>
			<path fill="#004B68" stroke="#FFFFFF" stroke-miterlimit="10" d="M334.734,35.599c0,1.962-1.605,3.567-3.567,3.567
				s-3.567-1.605-3.567-3.567s1.605-3.567,3.567-3.567S334.734,33.637,334.734,35.599z"/>
			<path fill="#004B68" stroke="#FFFFFF" stroke-miterlimit="10" d="M270.97,42.733c0,1.962-1.605,3.567-3.567,3.567
				s-3.566-1.605-3.566-3.567c0-1.962,1.604-3.567,3.566-3.567S270.97,40.771,270.97,42.733z"/>
			<path fill="#004B68" stroke="#FFFFFF" stroke-miterlimit="10" d="M263.836,42.733c0,1.962-1.605,3.567-3.567,3.567
				s-3.567-1.605-3.567-3.567c0-1.962,1.605-3.567,3.567-3.567S263.836,40.771,263.836,42.733z"/>
			<path fill="#004B68" stroke="#FFFFFF" stroke-miterlimit="10" d="M270.97,49.778c0,1.962-1.605,3.567-3.567,3.567
				s-3.566-1.605-3.566-3.567s1.604-3.567,3.566-3.567S270.97,47.816,270.97,49.778z"/>
			<path fill="#004B68" stroke="#FFFFFF" stroke-miterlimit="10" d="M263.836,49.778c0,1.962-1.605,3.567-3.567,3.567
				s-3.567-1.605-3.567-3.567s1.605-3.567,3.567-3.567S263.836,47.816,263.836,49.778z"/>
			<path fill="#004B68" stroke="#FFFFFF" stroke-miterlimit="10" d="M270.97,56.913c0,1.962-1.605,3.567-3.567,3.567
				s-3.566-1.605-3.566-3.567s1.604-3.567,3.566-3.567S270.97,54.951,270.97,56.913z"/>
			<path fill="#004B68" stroke="#FFFFFF" stroke-miterlimit="10" d="M263.836,56.913c0,1.962-1.605,3.567-3.567,3.567
				s-3.567-1.605-3.567-3.567s1.605-3.567,3.567-3.567S263.836,54.951,263.836,56.913z"/>
			<path fill="#004B68" stroke="#FFFFFF" stroke-miterlimit="10" d="M270.97,63.958c0,1.962-1.605,3.567-3.567,3.567
				s-3.566-1.605-3.566-3.567s1.604-3.566,3.566-3.566S270.97,61.996,270.97,63.958z"/>
			<path fill="#004B68" stroke="#FFFFFF" stroke-miterlimit="10" d="M263.836,63.958c0,1.962-1.605,3.567-3.567,3.567
				s-3.567-1.605-3.567-3.567s1.605-3.566,3.567-3.566S263.836,61.996,263.836,63.958z"/>
			<path fill="#004B68" stroke="#FFFFFF" stroke-miterlimit="10" d="M270.97,71.003c0,1.962-1.605,3.567-3.567,3.567
				s-3.566-1.605-3.566-3.567s1.604-3.567,3.566-3.567S270.97,69.13,270.97,71.003z"/>
			<path fill="#004B68" stroke="#FFFFFF" stroke-miterlimit="10" d="M263.836,71.003c0,1.962-1.605,3.567-3.567,3.567
				s-3.567-1.605-3.567-3.567s1.605-3.567,3.567-3.567S263.836,69.13,263.836,71.003z"/>
			<path fill="#004B68" stroke="#FFFFFF" stroke-miterlimit="10" d="M270.97,78.137c0,1.962-1.605,3.567-3.567,3.567
				s-3.566-1.605-3.566-3.567s1.604-3.566,3.566-3.566S270.97,76.175,270.97,78.137z"/>
			<path fill="#004B68" stroke="#FFFFFF" stroke-miterlimit="10" d="M263.836,78.137c0,1.962-1.605,3.567-3.567,3.567
				s-3.567-1.605-3.567-3.567s1.605-3.566,3.567-3.566S263.836,76.175,263.836,78.137z"/>
			<path fill="#004B68" stroke="#FFFFFF" stroke-miterlimit="10" d="M270.97,85.183c0,1.962-1.605,3.566-3.567,3.566
				s-3.566-1.604-3.566-3.566s1.604-3.567,3.566-3.567S270.97,83.221,270.97,85.183z"/>
			<path fill="#004B68" stroke="#FFFFFF" stroke-miterlimit="10" d="M278.015,42.733c0,1.962-1.604,3.567-3.566,3.567
				s-3.567-1.605-3.567-3.567c0-1.962,1.605-3.567,3.567-3.567S278.015,40.771,278.015,42.733z"/>
			<path fill="#004B68" stroke="#FFFFFF" stroke-miterlimit="10" d="M285.15,49.778c0,1.962-1.605,3.567-3.567,3.567
				s-3.567-1.605-3.567-3.567s1.605-3.567,3.567-3.567S285.15,47.816,285.15,49.778z"/>
			<path fill="#004B68" stroke="#FFFFFF" stroke-miterlimit="10" d="M278.015,49.778c0,1.962-1.604,3.567-3.566,3.567
				s-3.567-1.605-3.567-3.567s1.605-3.567,3.567-3.567S278.015,47.816,278.015,49.778z"/>
			<path fill="#004B68" stroke="#FFFFFF" stroke-miterlimit="10" d="M292.195,49.778c0,1.962-1.605,3.567-3.566,3.567
				c-1.963,0-3.567-1.605-3.567-3.567s1.604-3.567,3.567-3.567C290.59,46.211,292.195,47.816,292.195,49.778z"/>
			<path fill="#004B68" stroke="#FFFFFF" stroke-miterlimit="10" d="M285.15,56.913c0,1.962-1.605,3.567-3.567,3.567
				s-3.567-1.605-3.567-3.567s1.605-3.567,3.567-3.567S285.15,54.951,285.15,56.913z"/>
			<path fill="#004B68" stroke="#FFFFFF" stroke-miterlimit="10" d="M278.015,56.913c0,1.962-1.604,3.567-3.566,3.567
				s-3.567-1.605-3.567-3.567s1.605-3.567,3.567-3.567S278.015,54.951,278.015,56.913z"/>
			<path fill="#004B68" stroke="#FFFFFF" stroke-miterlimit="10" d="M285.15,63.958c0,1.962-1.605,3.567-3.567,3.567
				s-3.567-1.605-3.567-3.567s1.605-3.566,3.567-3.566S285.15,61.996,285.15,63.958z"/>
			<path fill="#004B68" stroke="#FFFFFF" stroke-miterlimit="10" d="M278.015,63.958c0,1.962-1.604,3.567-3.566,3.567
				s-3.567-1.605-3.567-3.567s1.605-3.566,3.567-3.566S278.015,61.996,278.015,63.958z"/>
			<path fill="#004B68" stroke="#FFFFFF" stroke-miterlimit="10" d="M299.24,56.913c0,1.962-1.605,3.567-3.567,3.567
				s-3.567-1.605-3.567-3.567s1.605-3.567,3.567-3.567S299.24,54.951,299.24,56.913z"/>
			<path fill="#004B68" stroke="#FFFFFF" stroke-miterlimit="10" d="M292.195,56.913c0,1.962-1.605,3.567-3.566,3.567
				c-1.963,0-3.567-1.605-3.567-3.567s1.604-3.567,3.567-3.567C290.59,53.346,292.195,54.951,292.195,56.913z"/>
			<path fill="#004B68" stroke="#FFFFFF" stroke-miterlimit="10" d="M299.24,63.958c0,1.962-1.605,3.567-3.567,3.567
				s-3.567-1.605-3.567-3.567s1.605-3.566,3.567-3.566S299.24,61.996,299.24,63.958z"/>
			<path fill="#004B68" stroke="#FFFFFF" stroke-miterlimit="10" d="M292.195,63.958c0,1.962-1.605,3.567-3.566,3.567
				c-1.963,0-3.567-1.605-3.567-3.567s1.604-3.566,3.567-3.566C290.59,60.391,292.195,61.996,292.195,63.958z"/>
			<path fill="#004B68" stroke="#FFFFFF" stroke-miterlimit="10" d="M306.374,49.778c0,1.962-1.605,3.567-3.567,3.567
				s-3.566-1.605-3.566-3.567s1.604-3.567,3.566-3.567S306.374,47.816,306.374,49.778z"/>
			<path fill="#004B68" stroke="#FFFFFF" stroke-miterlimit="10" d="M327.599,42.733c0,1.962-1.604,3.567-3.566,3.567
				s-3.567-1.605-3.567-3.567c0-1.962,1.605-3.567,3.567-3.567S327.599,40.771,327.599,42.733z"/>
			<path fill="#004B68" stroke="#FFFFFF" stroke-miterlimit="10" d="M320.554,49.778c0,1.962-1.605,3.567-3.567,3.567
				s-3.567-1.605-3.567-3.567s1.605-3.567,3.567-3.567S320.554,47.816,320.554,49.778z"/>
			<path fill="#004B68" stroke="#FFFFFF" stroke-miterlimit="10" d="M306.374,56.913c0,1.962-1.605,3.567-3.567,3.567
				s-3.566-1.605-3.566-3.567s1.604-3.567,3.566-3.567S306.374,54.951,306.374,56.913z"/>
			<path fill="#004B68" stroke="#FFFFFF" stroke-miterlimit="10" d="M313.419,63.958c0,1.962-1.604,3.567-3.566,3.567
				s-3.567-1.605-3.567-3.567s1.605-3.566,3.567-3.566S313.419,61.996,313.419,63.958z"/>
			<path fill="#004B68" stroke="#FFFFFF" stroke-miterlimit="10" d="M306.374,63.958c0,1.962-1.605,3.567-3.567,3.567
				s-3.566-1.605-3.566-3.567s1.604-3.566,3.566-3.566S306.374,61.996,306.374,63.958z"/>
			<path fill="#004B68" stroke="#FFFFFF" stroke-miterlimit="10" d="M285.15,71.003c0,1.962-1.605,3.567-3.567,3.567
				s-3.567-1.605-3.567-3.567s1.605-3.567,3.567-3.567C283.544,67.525,285.15,69.13,285.15,71.003z"/>
			<path fill="#004B68" stroke="#FFFFFF" stroke-miterlimit="10" d="M278.015,71.003c0,1.962-1.604,3.567-3.566,3.567
				s-3.567-1.605-3.567-3.567s1.605-3.567,3.567-3.567C276.41,67.525,278.015,69.13,278.015,71.003z"/>
			<path fill="#004B68" stroke="#FFFFFF" stroke-miterlimit="10" d="M285.15,78.137c0,1.962-1.605,3.567-3.567,3.567
				s-3.567-1.605-3.567-3.567s1.605-3.566,3.567-3.566S285.15,76.175,285.15,78.137z"/>
			<path fill="#004B68" stroke="#FFFFFF" stroke-miterlimit="10" d="M278.015,78.137c0,1.962-1.604,3.567-3.566,3.567
				s-3.567-1.605-3.567-3.567s1.605-3.566,3.567-3.566S278.015,76.175,278.015,78.137z"/>
			<path fill="#004B68" stroke="#FFFFFF" stroke-miterlimit="10" d="M299.24,71.003c0,1.962-1.605,3.567-3.567,3.567
				s-3.567-1.605-3.567-3.567s1.605-3.567,3.567-3.567S299.24,69.13,299.24,71.003z"/>
			<path fill="#004B68" stroke="#FFFFFF" stroke-miterlimit="10" d="M292.195,71.003c0,1.962-1.605,3.567-3.566,3.567
				c-1.963,0-3.567-1.605-3.567-3.567s1.604-3.567,3.567-3.567C290.59,67.525,292.195,69.13,292.195,71.003z"/>
			<path fill="#004B68" stroke="#FFFFFF" stroke-miterlimit="10" d="M278.015,85.183c0,1.962-1.604,3.566-3.566,3.566
				s-3.567-1.604-3.567-3.566s1.605-3.567,3.567-3.567C276.41,81.705,278.015,83.221,278.015,85.183z"/>
			<path fill="#004B68" stroke="#FFFFFF" stroke-miterlimit="10" d="M278.015,92.317c0,1.962-1.604,3.567-3.566,3.567
				s-3.567-1.605-3.567-3.567s1.605-3.567,3.567-3.567S278.015,90.355,278.015,92.317z"/>
			<path fill="#004B68" stroke="#FFFFFF" stroke-miterlimit="10" d="M334.734,49.778c0,1.962-1.605,3.567-3.567,3.567
				s-3.567-1.605-3.567-3.567s1.605-3.567,3.567-3.567S334.734,47.816,334.734,49.778z"/>
			<path fill="#004B68" stroke="#FFFFFF" stroke-miterlimit="10" d="M228.431,134.767c0,1.962-1.604,3.566-3.566,3.566
				s-3.567-1.604-3.567-3.566s1.605-3.567,3.567-3.567S228.431,132.894,228.431,134.767z"/>
			<path fill="#004B68" stroke="#FFFFFF" stroke-miterlimit="10" d="M242.611,120.676c0,1.962-1.604,3.567-3.566,3.567
				s-3.567-1.605-3.567-3.567s1.605-3.567,3.567-3.567S242.611,118.714,242.611,120.676z"/>
			<path fill="#004B68" stroke="#FFFFFF" stroke-miterlimit="10" d="M235.477,120.676c0,1.962-1.605,3.567-3.567,3.567
				s-3.567-1.605-3.567-3.567s1.605-3.567,3.567-3.567S235.477,118.714,235.477,120.676z"/>
			<path fill="#004B68" stroke="#FFFFFF" stroke-miterlimit="10" d="M249.656,113.542c0,1.962-1.605,3.567-3.567,3.567
				s-3.567-1.605-3.567-3.567s1.605-3.566,3.567-3.566S249.656,111.58,249.656,113.542z"/>
			<path fill="#004B68" stroke="#FFFFFF" stroke-miterlimit="10" d="M249.656,120.676c0,1.962-1.605,3.567-3.567,3.567
				s-3.567-1.605-3.567-3.567s1.605-3.567,3.567-3.567S249.656,118.714,249.656,120.676z"/>
			<path fill="#004B68" stroke="#FFFFFF" stroke-miterlimit="10" d="M242.611,127.721c0,1.962-1.604,3.567-3.566,3.567
				s-3.567-1.605-3.567-3.567s1.605-3.567,3.567-3.567S242.611,125.759,242.611,127.721z"/>
			<path fill="#004B68" stroke="#FFFFFF" stroke-miterlimit="10" d="M235.477,127.721c0,1.962-1.605,3.567-3.567,3.567
				s-3.567-1.605-3.567-3.567s1.605-3.567,3.567-3.567S235.477,125.759,235.477,127.721z"/>
			<path fill="#004B68" stroke="#FFFFFF" stroke-miterlimit="10" d="M242.611,134.767c0,1.962-1.604,3.566-3.566,3.566
				s-3.567-1.604-3.567-3.566s1.605-3.567,3.567-3.567C241.006,131.289,242.611,132.894,242.611,134.767z"/>
			<path fill="#004B68" stroke="#FFFFFF" stroke-miterlimit="10" d="M235.477,134.767c0,1.962-1.605,3.566-3.567,3.566
				s-3.567-1.604-3.567-3.566s1.605-3.567,3.567-3.567C233.871,131.289,235.477,132.894,235.477,134.767z"/>
			<path fill="#004B68" stroke="#FFFFFF" stroke-miterlimit="10" d="M256.79,127.721c0,1.962-1.605,3.567-3.566,3.567
				c-1.963,0-3.567-1.605-3.567-3.567s1.604-3.567,3.567-3.567C255.185,124.154,256.79,125.759,256.79,127.721z"/>
			<path fill="#004B68" stroke="#FFFFFF" stroke-miterlimit="10" d="M249.656,127.721c0,1.962-1.605,3.567-3.567,3.567
				s-3.567-1.605-3.567-3.567s1.605-3.567,3.567-3.567S249.656,125.759,249.656,127.721z"/>
			<path fill="#004B68" stroke="#FFFFFF" stroke-miterlimit="10" d="M256.79,134.767c0,1.962-1.605,3.566-3.566,3.566
				c-1.963,0-3.567-1.604-3.567-3.566s1.604-3.567,3.567-3.567C255.185,131.2,256.79,132.894,256.79,134.767z"/>
			<path fill="#004B68" stroke="#FFFFFF" stroke-miterlimit="10" d="M249.656,134.767c0,1.962-1.605,3.566-3.567,3.566
				s-3.567-1.604-3.567-3.566s1.605-3.567,3.567-3.567C248.051,131.289,249.656,132.894,249.656,134.767z"/>
			<path fill="#004B68" stroke="#FFFFFF" stroke-miterlimit="10" d="M228.431,170.26c0,1.962-1.604,3.567-3.566,3.567
				s-3.567-1.605-3.567-3.567s1.605-3.567,3.567-3.567S228.431,168.298,228.431,170.26z"/>
			<path fill="#004B68" stroke="#FFFFFF" stroke-miterlimit="10" d="M228.431,177.305c0,1.962-1.604,3.567-3.566,3.567
				s-3.567-1.605-3.567-3.567s1.605-3.567,3.567-3.567S228.431,175.343,228.431,177.305z"/>
			<path fill="#004B68" stroke="#FFFFFF" stroke-miterlimit="10" d="M228.431,184.44c0,1.962-1.604,3.567-3.566,3.567
				s-3.567-1.605-3.567-3.567s1.605-3.567,3.567-3.567S228.431,182.478,228.431,184.44z"/>
			<path fill="#004B68" stroke="#FFFFFF" stroke-miterlimit="10" d="M228.431,191.485c0,1.962-1.604,3.567-3.566,3.567
				s-3.567-1.605-3.567-3.567s1.605-3.567,3.567-3.567S228.431,189.523,228.431,191.485z"/>
			<path fill="#004B68" stroke="#FFFFFF" stroke-miterlimit="10" d="M228.431,198.62c0,1.962-1.604,3.567-3.566,3.567
				s-3.567-1.605-3.567-3.567s1.605-3.567,3.567-3.567S228.431,196.658,228.431,198.62z"/>
			<path fill="#004B68" stroke="#FFFFFF" stroke-miterlimit="10" d="M228.431,205.665c0,1.962-1.604,3.567-3.566,3.567
				s-3.567-1.605-3.567-3.567s1.605-3.567,3.567-3.567S228.431,203.703,228.431,205.665z"/>
			<path fill="#004B68" stroke="#FFFFFF" stroke-miterlimit="10" d="M242.611,141.901c0,1.962-1.604,3.567-3.566,3.567
				s-3.567-1.605-3.567-3.567s1.605-3.567,3.567-3.567S242.611,139.939,242.611,141.901z"/>
			<path fill="#004B68" stroke="#FFFFFF" stroke-miterlimit="10" d="M235.477,141.901c0,1.962-1.605,3.567-3.567,3.567
				s-3.567-1.605-3.567-3.567s1.605-3.567,3.567-3.567S235.477,139.939,235.477,141.901z"/>
			<path fill="#004B68" stroke="#FFFFFF" stroke-miterlimit="10" d="M242.611,148.947c0,1.962-1.604,3.566-3.566,3.566
				s-3.567-1.604-3.567-3.566c0-1.963,1.605-3.567,3.567-3.567C241.006,145.468,242.611,147.074,242.611,148.947z"/>
			<path fill="#004B68" stroke="#FFFFFF" stroke-miterlimit="10" d="M235.477,148.947c0,1.962-1.605,3.566-3.567,3.566
				s-3.567-1.604-3.567-3.566c0-1.963,1.605-3.567,3.567-3.567C233.871,145.468,235.477,147.074,235.477,148.947z"/>
			<path fill="#004B68" stroke="#FFFFFF" stroke-miterlimit="10" d="M256.79,141.901c0,1.962-1.605,3.567-3.566,3.567
				c-1.963,0-3.567-1.605-3.567-3.567s1.604-3.567,3.567-3.567C255.185,138.333,256.79,139.939,256.79,141.901z"/>
			<path fill="#004B68" stroke="#FFFFFF" stroke-miterlimit="10" d="M249.656,141.901c0,1.962-1.605,3.567-3.567,3.567
				s-3.567-1.605-3.567-3.567s1.605-3.567,3.567-3.567S249.656,139.939,249.656,141.901z"/>
			<path fill="#004B68" stroke="#FFFFFF" stroke-miterlimit="10" d="M256.79,148.947c0,1.962-1.605,3.566-3.566,3.566
				c-1.963,0-3.567-1.604-3.567-3.566c0-1.963,1.604-3.567,3.567-3.567C255.185,145.379,256.79,147.074,256.79,148.947z"/>
			<path fill="#004B68" stroke="#FFFFFF" stroke-miterlimit="10" d="M249.656,148.947c0,1.962-1.605,3.566-3.567,3.566
				s-3.567-1.604-3.567-3.566c0-1.963,1.605-3.567,3.567-3.567C248.051,145.468,249.656,147.074,249.656,148.947z"/>
			<path fill="#004B68" stroke="#FFFFFF" stroke-miterlimit="10" d="M242.611,156.081c0,1.962-1.604,3.567-3.566,3.567
				s-3.567-1.605-3.567-3.567s1.605-3.567,3.567-3.567S242.611,154.119,242.611,156.081z"/>
			<path fill="#004B68" stroke="#FFFFFF" stroke-miterlimit="10" d="M235.477,156.081c0,1.962-1.605,3.567-3.567,3.567
				s-3.567-1.605-3.567-3.567s1.605-3.567,3.567-3.567S235.477,154.119,235.477,156.081z"/>
			<path fill="#004B68" stroke="#FFFFFF" stroke-miterlimit="10" d="M242.611,163.125c0,1.962-1.604,3.567-3.566,3.567
				s-3.567-1.605-3.567-3.567s1.605-3.566,3.567-3.566C241.006,159.648,242.611,161.164,242.611,163.125z"/>
			<path fill="#004B68" stroke="#FFFFFF" stroke-miterlimit="10" d="M235.477,163.125c0,1.962-1.605,3.567-3.567,3.567
				s-3.567-1.605-3.567-3.567s1.605-3.566,3.567-3.566C233.871,159.648,235.477,161.164,235.477,163.125z"/>
			<path fill="#004B68" stroke="#FFFFFF" stroke-miterlimit="10" d="M256.79,156.081c0,1.962-1.605,3.567-3.566,3.567
				c-1.963,0-3.567-1.605-3.567-3.567s1.604-3.567,3.567-3.567C255.185,152.513,256.79,154.119,256.79,156.081z"/>
			<path fill="#004B68" stroke="#FFFFFF" stroke-miterlimit="10" d="M249.656,156.081c0,1.962-1.605,3.567-3.567,3.567
				s-3.567-1.605-3.567-3.567s1.605-3.567,3.567-3.567S249.656,154.119,249.656,156.081z"/>
			<path fill="#004B68" stroke="#FFFFFF" stroke-miterlimit="10" d="M256.79,163.125c0,1.962-1.605,3.567-3.566,3.567
				c-1.963,0-3.567-1.605-3.567-3.567s1.604-3.566,3.567-3.566C255.185,159.559,256.79,161.164,256.79,163.125z"/>
			<path fill="#004B68" stroke="#FFFFFF" stroke-miterlimit="10" d="M249.656,163.125c0,1.962-1.605,3.567-3.567,3.567
				s-3.567-1.605-3.567-3.567s1.605-3.566,3.567-3.566C248.051,159.648,249.656,161.164,249.656,163.125z"/>
			<path fill="#004B68" stroke="#FFFFFF" stroke-miterlimit="10" d="M242.611,170.26c0,1.962-1.604,3.567-3.566,3.567
				s-3.567-1.605-3.567-3.567s1.605-3.567,3.567-3.567S242.611,168.298,242.611,170.26z"/>
			<path fill="#004B68" stroke="#FFFFFF" stroke-miterlimit="10" d="M235.477,170.26c0,1.962-1.605,3.567-3.567,3.567
				s-3.567-1.605-3.567-3.567s1.605-3.567,3.567-3.567S235.477,168.298,235.477,170.26z"/>
			<path fill="#004B68" stroke="#FFFFFF" stroke-miterlimit="10" d="M242.611,177.305c0,1.962-1.604,3.567-3.566,3.567
				s-3.567-1.605-3.567-3.567s1.605-3.567,3.567-3.567S242.611,175.343,242.611,177.305z"/>
			<path fill="#004B68" stroke="#FFFFFF" stroke-miterlimit="10" d="M235.477,177.305c0,1.962-1.605,3.567-3.567,3.567
				s-3.567-1.605-3.567-3.567s1.605-3.567,3.567-3.567S235.477,175.343,235.477,177.305z"/>
			<path fill="#004B68" stroke="#FFFFFF" stroke-miterlimit="10" d="M256.79,170.26c0,1.962-1.605,3.567-3.566,3.567
				c-1.963,0-3.567-1.605-3.567-3.567s1.604-3.567,3.567-3.567C255.185,166.693,256.79,168.298,256.79,170.26z"/>
			<path fill="#004B68" stroke="#FFFFFF" stroke-miterlimit="10" d="M249.656,170.26c0,1.962-1.605,3.567-3.567,3.567
				s-3.567-1.605-3.567-3.567s1.605-3.567,3.567-3.567S249.656,168.298,249.656,170.26z"/>
			<path fill="#004B68" stroke="#FFFFFF" stroke-miterlimit="10" d="M249.656,177.305c0,1.962-1.605,3.567-3.567,3.567
				s-3.567-1.605-3.567-3.567s1.605-3.567,3.567-3.567S249.656,175.343,249.656,177.305z"/>
			<path fill="#004B68" stroke="#FFFFFF" stroke-miterlimit="10" d="M242.611,184.44c0,1.962-1.604,3.567-3.566,3.567
				s-3.567-1.605-3.567-3.567s1.605-3.567,3.567-3.567S242.611,182.478,242.611,184.44z"/>
			<path fill="#004B68" stroke="#FFFFFF" stroke-miterlimit="10" d="M235.477,184.44c0,1.962-1.605,3.567-3.567,3.567
				s-3.567-1.605-3.567-3.567s1.605-3.567,3.567-3.567S235.477,182.478,235.477,184.44z"/>
			<path fill="#004B68" stroke="#FFFFFF" stroke-miterlimit="10" d="M242.611,191.485c0,1.962-1.604,3.567-3.566,3.567
				s-3.567-1.605-3.567-3.567s1.605-3.567,3.567-3.567S242.611,189.523,242.611,191.485z"/>
			<path fill="#004B68" stroke="#FFFFFF" stroke-miterlimit="10" d="M235.477,191.485c0,1.962-1.605,3.567-3.567,3.567
				s-3.567-1.605-3.567-3.567s1.605-3.567,3.567-3.567S235.477,189.523,235.477,191.485z"/>
			<path fill="#004B68" stroke="#FFFFFF" stroke-miterlimit="10" d="M249.656,184.44c0,1.962-1.605,3.567-3.567,3.567
				s-3.567-1.605-3.567-3.567s1.605-3.567,3.567-3.567S249.656,182.478,249.656,184.44z"/>
			<path fill="#004B68" stroke="#FFFFFF" stroke-miterlimit="10" d="M249.656,191.485c0,1.962-1.605,3.567-3.567,3.567
				s-3.567-1.605-3.567-3.567s1.605-3.567,3.567-3.567S249.656,189.523,249.656,191.485z"/>
			<path fill="#004B68" stroke="#FFFFFF" stroke-miterlimit="10" d="M242.611,198.62c0,1.962-1.604,3.567-3.566,3.567
				s-3.567-1.605-3.567-3.567s1.605-3.567,3.567-3.567S242.611,196.658,242.611,198.62z"/>
			<path fill="#004B68" stroke="#FFFFFF" stroke-miterlimit="10" d="M235.477,198.62c0,1.962-1.605,3.567-3.567,3.567
				s-3.567-1.605-3.567-3.567s1.605-3.567,3.567-3.567S235.477,196.658,235.477,198.62z"/>
			<path fill="#004B68" stroke="#FFFFFF" stroke-miterlimit="10" d="M242.611,205.665c0,1.962-1.604,3.567-3.566,3.567
				s-3.567-1.605-3.567-3.567s1.605-3.567,3.567-3.567S242.611,203.703,242.611,205.665z"/>
			<path fill="#004B68" stroke="#FFFFFF" stroke-miterlimit="10" d="M235.477,205.665c0,1.962-1.605,3.567-3.567,3.567
				s-3.567-1.605-3.567-3.567s1.605-3.567,3.567-3.567S235.477,203.703,235.477,205.665z"/>
			<path fill="#004B68" stroke="#FFFFFF" stroke-miterlimit="10" d="M249.656,198.62c0,1.962-1.605,3.567-3.567,3.567
				s-3.567-1.605-3.567-3.567s1.605-3.567,3.567-3.567S249.656,196.658,249.656,198.62z"/>
			<path fill="#004B68" stroke="#FFFFFF" stroke-miterlimit="10" d="M263.836,134.767c0,1.962-1.605,3.566-3.567,3.566
				s-3.567-1.604-3.567-3.566s1.605-3.567,3.567-3.567S263.836,132.894,263.836,134.767z"/>
			<path fill="#004B68" stroke="#FFFFFF" stroke-miterlimit="10" d="M263.836,141.901c0,1.962-1.605,3.567-3.567,3.567
				s-3.567-1.605-3.567-3.567s1.605-3.567,3.567-3.567S263.836,139.939,263.836,141.901z"/>
			<path fill="#004B68" stroke="#FFFFFF" stroke-miterlimit="10" d="M263.836,148.947c0,1.962-1.605,3.566-3.567,3.566
				s-3.567-1.604-3.567-3.566c0-1.963,1.605-3.567,3.567-3.567S263.836,147.074,263.836,148.947z"/>
			<path fill="#004B68" stroke="#FFFFFF" stroke-miterlimit="10" d="M263.836,156.081c0,1.962-1.605,3.567-3.567,3.567
				s-3.567-1.605-3.567-3.567s1.605-3.567,3.567-3.567S263.836,154.119,263.836,156.081z"/>
			<path fill="#004B68" stroke="#FFFFFF" stroke-miterlimit="10" d="M122.129,219.844c0,1.962-1.605,3.567-3.567,3.567
				s-3.567-1.605-3.567-3.567s1.605-3.567,3.567-3.567S122.129,217.882,122.129,219.844z"/>
			<path fill="#004B68" stroke="#FFFFFF" stroke-miterlimit="10" d="M122.129,234.024c0,1.962-1.605,3.567-3.567,3.567
				s-3.567-1.605-3.567-3.567s1.605-3.567,3.567-3.567S122.129,232.062,122.129,234.024z"/>
			<path fill="#004B68" stroke="#FFFFFF" stroke-miterlimit="10" d="M114.994,234.024c0,1.962-1.604,3.567-3.567,3.567
				c-1.961,0-3.566-1.605-3.566-3.567s1.605-3.567,3.566-3.567C113.39,230.457,114.994,232.062,114.994,234.024z"/>
			<path fill="#004B68" stroke="#FFFFFF" stroke-miterlimit="10" d="M58.365,248.204c0,1.962-1.605,3.567-3.567,3.567
				s-3.566-1.605-3.566-3.567s1.604-3.567,3.566-3.567S58.365,246.242,58.365,248.204z"/>
			<path fill="#004B68" stroke="#FFFFFF" stroke-miterlimit="10" d="M58.365,255.249c0,1.962-1.605,3.567-3.567,3.567
				s-3.566-1.605-3.566-3.567s1.604-3.567,3.566-3.567S58.365,253.287,58.365,255.249z"/>
			<path fill="#004B68" stroke="#FFFFFF" stroke-miterlimit="10" d="M65.41,262.383c0,1.962-1.604,3.566-3.567,3.566
				c-1.961,0-3.566-1.604-3.566-3.566s1.605-3.567,3.566-3.567C63.806,258.816,65.41,260.421,65.41,262.383z"/>
			<path fill="#004B68" stroke="#FFFFFF" stroke-miterlimit="10" d="M93.77,255.249c0,1.962-1.605,3.567-3.567,3.567
				s-3.566-1.605-3.566-3.567s1.604-3.567,3.566-3.567S93.77,253.287,93.77,255.249z"/>
			<path fill="#004B68" stroke="#FFFFFF" stroke-miterlimit="10" d="M86.636,255.249c0,1.962-1.605,3.567-3.567,3.567
				s-3.567-1.605-3.567-3.567s1.605-3.567,3.567-3.567S86.636,253.287,86.636,255.249z"/>
			<path fill="#004B68" stroke="#FFFFFF" stroke-miterlimit="10" d="M93.77,262.383c0,1.962-1.605,3.566-3.567,3.566
				s-3.566-1.604-3.566-3.566s1.604-3.567,3.566-3.567S93.77,260.421,93.77,262.383z"/>
			<path fill="#004B68" stroke="#FFFFFF" stroke-miterlimit="10" d="M86.636,262.383c0,1.962-1.605,3.566-3.567,3.566
				s-3.567-1.604-3.567-3.566s1.605-3.567,3.567-3.567S86.636,260.421,86.636,262.383z"/>
			<path fill="#004B68" stroke="#FFFFFF" stroke-miterlimit="10" d="M51.232,276.473c0,1.962-1.605,3.567-3.567,3.567
				s-3.567-1.605-3.567-3.567s1.605-3.567,3.567-3.567C49.626,272.996,51.232,274.6,51.232,276.473z"/>
			<path fill="#004B68" stroke="#FFFFFF" stroke-miterlimit="10" d="M65.41,276.473c0,1.962-1.604,3.567-3.567,3.567
				c-1.961,0-3.566-1.605-3.566-3.567s1.605-3.567,3.566-3.567C63.806,272.996,65.41,274.6,65.41,276.473z"/>
			<path fill="#004B68" stroke="#FFFFFF" stroke-miterlimit="10" d="M51.232,283.608c0,1.962-1.605,3.567-3.567,3.567
				s-3.567-1.605-3.567-3.567s1.605-3.567,3.567-3.567S51.232,281.646,51.232,283.608z"/>
			<path fill="#004B68" stroke="#FFFFFF" stroke-miterlimit="10" d="M44.186,290.653c0,1.962-1.604,3.567-3.567,3.567
				c-1.962,0-3.566-1.605-3.566-3.567s1.604-3.567,3.566-3.567C42.581,287.085,44.186,288.78,44.186,290.653z"/>
			<path fill="#004B68" stroke="#FFFFFF" stroke-miterlimit="10" d="M65.41,283.608c0,1.962-1.604,3.567-3.567,3.567
				c-1.961,0-3.566-1.605-3.566-3.567s1.605-3.567,3.566-3.567C63.806,280.041,65.41,281.646,65.41,283.608z"/>
			<path fill="#004B68" stroke="#FFFFFF" stroke-miterlimit="10" d="M79.59,269.428c0,1.962-1.604,3.567-3.567,3.567
				c-1.961,0-3.566-1.605-3.566-3.567s1.605-3.567,3.566-3.567C77.986,265.861,79.59,267.466,79.59,269.428z"/>
			<path fill="#004B68" stroke="#FFFFFF" stroke-miterlimit="10" d="M72.545,269.428c0,1.962-1.605,3.567-3.567,3.567
				s-3.567-1.605-3.567-3.567s1.605-3.567,3.567-3.567S72.545,267.466,72.545,269.428z"/>
			<path fill="#004B68" stroke="#FFFFFF" stroke-miterlimit="10" d="M79.59,276.473c0,1.962-1.604,3.567-3.567,3.567
				c-1.961,0-3.566-1.605-3.566-3.567s1.605-3.567,3.566-3.567C77.986,272.996,79.59,274.6,79.59,276.473z"/>
			<path fill="#004B68" stroke="#FFFFFF" stroke-miterlimit="10" d="M72.545,276.473c0,1.962-1.605,3.567-3.567,3.567
				s-3.567-1.605-3.567-3.567s1.605-3.567,3.567-3.567C70.94,272.996,72.545,274.6,72.545,276.473z"/>
			<path fill="#004B68" stroke="#FFFFFF" stroke-miterlimit="10" d="M86.636,269.428c0,1.962-1.605,3.567-3.567,3.567
				s-3.567-1.605-3.567-3.567s1.605-3.567,3.567-3.567S86.636,267.466,86.636,269.428z"/>
			<path fill="#004B68" stroke="#FFFFFF" stroke-miterlimit="10" d="M93.77,276.473c0,1.962-1.605,3.567-3.567,3.567
				s-3.566-1.605-3.566-3.567s1.604-3.567,3.566-3.567C92.164,272.996,93.77,274.6,93.77,276.473z"/>
			<path fill="#004B68" stroke="#FFFFFF" stroke-miterlimit="10" d="M86.636,276.473c0,1.962-1.605,3.567-3.567,3.567
				s-3.567-1.605-3.567-3.567s1.605-3.567,3.567-3.567S86.636,274.6,86.636,276.473z"/>
			<path fill="#004B68" stroke="#FFFFFF" stroke-miterlimit="10" d="M79.59,283.608c0,1.962-1.604,3.567-3.567,3.567
				c-1.961,0-3.566-1.605-3.566-3.567s1.605-3.567,3.566-3.567C77.986,280.041,79.59,281.646,79.59,283.608z"/>
			<path fill="#004B68" stroke="#FFFFFF" stroke-miterlimit="10" d="M79.59,290.653c0,1.962-1.604,3.567-3.567,3.567
				c-1.961,0-3.566-1.605-3.566-3.567s1.605-3.567,3.566-3.567C77.986,287.175,79.59,288.78,79.59,290.653z"/>
			<path fill="#004B68" stroke="#FFFFFF" stroke-miterlimit="10" d="M93.77,283.608c0,1.962-1.605,3.567-3.567,3.567
				s-3.566-1.605-3.566-3.567s1.604-3.567,3.566-3.567S93.77,281.646,93.77,283.608z"/>
			<path fill="#004B68" stroke="#FFFFFF" stroke-miterlimit="10" d="M86.636,283.608c0,1.962-1.605,3.567-3.567,3.567
				s-3.567-1.605-3.567-3.567s1.605-3.567,3.567-3.567S86.636,281.646,86.636,283.608z"/>
			<path fill="#004B68" stroke="#FFFFFF" stroke-miterlimit="10" d="M93.77,290.653c0,1.962-1.605,3.567-3.567,3.567
				s-3.566-1.605-3.566-3.567s1.604-3.567,3.566-3.567C92.164,287.175,93.77,288.78,93.77,290.653z"/>
			<path fill="#004B68" stroke="#FFFFFF" stroke-miterlimit="10" d="M86.636,290.653c0,1.962-1.605,3.567-3.567,3.567
				s-3.567-1.605-3.567-3.567s1.605-3.567,3.567-3.567S86.636,288.78,86.636,290.653z"/>
			<path fill="#004B68" stroke="#FFFFFF" stroke-miterlimit="10" d="M58.365,304.833c0,1.962-1.605,3.567-3.567,3.567
				s-3.566-1.605-3.566-3.567s1.604-3.567,3.566-3.567C56.76,301.354,58.365,302.871,58.365,304.833z"/>
			<path fill="#004B68" stroke="#FFFFFF" stroke-miterlimit="10" d="M79.59,297.788c0,1.962-1.604,3.566-3.567,3.566
				c-1.961,0-3.566-1.604-3.566-3.566s1.605-3.567,3.566-3.567C77.986,294.22,79.59,295.826,79.59,297.788z"/>
			<path fill="#004B68" stroke="#FFFFFF" stroke-miterlimit="10" d="M72.545,297.788c0,1.962-1.605,3.566-3.567,3.566
				s-3.567-1.604-3.567-3.566s1.605-3.567,3.567-3.567S72.545,295.826,72.545,297.788z"/>
			<path fill="#004B68" stroke="#FFFFFF" stroke-miterlimit="10" d="M79.59,304.833c0,1.962-1.604,3.567-3.567,3.567
				c-1.961,0-3.566-1.605-3.566-3.567s1.605-3.567,3.566-3.567C77.986,301.354,79.59,302.871,79.59,304.833z"/>
			<path fill="#004B68" stroke="#FFFFFF" stroke-miterlimit="10" d="M72.545,304.833c0,1.962-1.605,3.567-3.567,3.567
				s-3.567-1.605-3.567-3.567s1.605-3.567,3.567-3.567C70.94,301.354,72.545,302.871,72.545,304.833z"/>
			<path fill="#004B68" stroke="#FFFFFF" stroke-miterlimit="10" d="M93.77,297.788c0,1.962-1.605,3.566-3.567,3.566
				s-3.566-1.604-3.566-3.566s1.604-3.567,3.566-3.567S93.77,295.826,93.77,297.788z"/>
			<path fill="#004B68" stroke="#FFFFFF" stroke-miterlimit="10" d="M86.636,297.788c0,1.962-1.605,3.566-3.567,3.566
				s-3.567-1.604-3.567-3.566s1.605-3.567,3.567-3.567S86.636,295.826,86.636,297.788z"/>
			<path fill="#004B68" stroke="#FFFFFF" stroke-miterlimit="10" d="M86.636,304.833c0,1.962-1.605,3.567-3.567,3.567
				s-3.567-1.605-3.567-3.567s1.605-3.567,3.567-3.567S86.636,302.871,86.636,304.833z"/>
			<path fill="#004B68" stroke="#FFFFFF" stroke-miterlimit="10" d="M107.949,241.069c0,1.962-1.605,3.567-3.567,3.567
				s-3.566-1.605-3.566-3.567s1.604-3.567,3.566-3.567C106.344,237.591,107.949,239.107,107.949,241.069z"/>
			<path fill="#004B68" stroke="#FFFFFF" stroke-miterlimit="10" d="M107.949,248.204c0,1.962-1.605,3.567-3.567,3.567
				s-3.566-1.605-3.566-3.567s1.604-3.567,3.566-3.567S107.949,246.242,107.949,248.204z"/>
			<path fill="#004B68" stroke="#FFFFFF" stroke-miterlimit="10" d="M100.816,248.204c0,1.962-1.605,3.567-3.567,3.567
				s-3.567-1.605-3.567-3.567s1.605-3.567,3.567-3.567S100.816,246.242,100.816,248.204z"/>
			<path fill="#004B68" stroke="#FFFFFF" stroke-miterlimit="10" d="M122.129,241.069c0,1.962-1.605,3.567-3.567,3.567
				s-3.567-1.605-3.567-3.567s1.605-3.567,3.567-3.567C120.524,237.591,122.129,239.107,122.129,241.069z"/>
			<path fill="#004B68" stroke="#FFFFFF" stroke-miterlimit="10" d="M114.994,241.069c0,1.962-1.604,3.567-3.567,3.567
				c-1.961,0-3.566-1.605-3.566-3.567s1.605-3.567,3.566-3.567C113.39,237.591,114.994,239.107,114.994,241.069z"/>
			<path fill="#004B68" stroke="#FFFFFF" stroke-miterlimit="10" d="M122.129,248.204c0,1.962-1.605,3.567-3.567,3.567
				s-3.567-1.605-3.567-3.567s1.605-3.567,3.567-3.567S122.129,246.242,122.129,248.204z"/>
			<path fill="#004B68" stroke="#FFFFFF" stroke-miterlimit="10" d="M114.994,248.204c0,1.962-1.604,3.567-3.567,3.567
				c-1.961,0-3.566-1.605-3.566-3.567s1.605-3.567,3.566-3.567C113.39,244.636,114.994,246.242,114.994,248.204z"/>
			<path fill="#004B68" stroke="#FFFFFF" stroke-miterlimit="10" d="M107.949,255.249c0,1.962-1.605,3.567-3.567,3.567
				s-3.566-1.605-3.566-3.567s1.604-3.567,3.566-3.567S107.949,253.287,107.949,255.249z"/>
			<path fill="#004B68" stroke="#FFFFFF" stroke-miterlimit="10" d="M100.816,255.249c0,1.962-1.605,3.567-3.567,3.567
				s-3.567-1.605-3.567-3.567s1.605-3.567,3.567-3.567S100.816,253.287,100.816,255.249z"/>
			<path fill="#004B68" stroke="#FFFFFF" stroke-miterlimit="10" d="M100.816,262.383c0,1.962-1.605,3.566-3.567,3.566
				s-3.567-1.604-3.567-3.566s1.605-3.567,3.567-3.567S100.816,260.421,100.816,262.383z"/>
			<path fill="#004B68" stroke="#FFFFFF" stroke-miterlimit="10" d="M122.129,255.249c0,1.962-1.605,3.567-3.567,3.567
				s-3.567-1.605-3.567-3.567s1.605-3.567,3.567-3.567S122.129,253.287,122.129,255.249z"/>
			<path fill="#004B68" stroke="#FFFFFF" stroke-miterlimit="10" d="M114.994,255.249c0,1.962-1.604,3.567-3.567,3.567
				c-1.961,0-3.566-1.605-3.566-3.567s1.605-3.567,3.566-3.567C113.39,251.681,114.994,253.287,114.994,255.249z"/>
			<path fill="#004B68" stroke="#FFFFFF" stroke-miterlimit="10" d="M107.949,276.473c0,1.962-1.605,3.567-3.567,3.567
				s-3.566-1.605-3.566-3.567s1.604-3.567,3.566-3.567C106.344,272.996,107.949,274.6,107.949,276.473z"/>
			<path fill="#004B68" stroke="#FFFFFF" stroke-miterlimit="10" d="M122.129,269.428c0,1.962-1.605,3.567-3.567,3.567
				s-3.567-1.605-3.567-3.567s1.605-3.567,3.567-3.567S122.129,267.466,122.129,269.428z"/>
			<path fill="#004B68" stroke="#FFFFFF" stroke-miterlimit="10" d="M114.994,269.428c0,1.962-1.604,3.567-3.567,3.567
				c-1.961,0-3.566-1.605-3.566-3.567s1.605-3.567,3.566-3.567C113.39,265.861,114.994,267.466,114.994,269.428z"/>
			<path fill="#004B68" stroke="#FFFFFF" stroke-miterlimit="10" d="M122.129,276.473c0,1.962-1.605,3.567-3.567,3.567
				s-3.567-1.605-3.567-3.567s1.605-3.567,3.567-3.567C120.524,272.996,122.129,274.6,122.129,276.473z"/>
			<path fill="#004B68" stroke="#FFFFFF" stroke-miterlimit="10" d="M114.994,276.473c0,1.962-1.604,3.567-3.567,3.567
				c-1.961,0-3.566-1.605-3.566-3.567s1.605-3.567,3.566-3.567C113.39,272.996,114.994,274.6,114.994,276.473z"/>
			<path fill="#004B68" stroke="#FFFFFF" stroke-miterlimit="10" d="M100.816,283.608c0,1.962-1.605,3.567-3.567,3.567
				s-3.567-1.605-3.567-3.567s1.605-3.567,3.567-3.567S100.816,281.646,100.816,283.608z"/>
			<path fill="#004B68" stroke="#FFFFFF" stroke-miterlimit="10" d="M114.994,283.608c0,1.962-1.604,3.567-3.567,3.567
				c-1.961,0-3.566-1.605-3.566-3.567s1.605-3.567,3.566-3.567C113.39,280.041,114.994,281.646,114.994,283.608z"/>
			<path fill="#004B68" stroke="#FFFFFF" stroke-miterlimit="10" d="M136.309,234.024c0,1.962-1.605,3.567-3.567,3.567
				s-3.567-1.605-3.567-3.567s1.605-3.567,3.567-3.567S136.309,232.062,136.309,234.024z"/>
			<path fill="#004B68" stroke="#FFFFFF" stroke-miterlimit="10" d="M129.174,234.024c0,1.962-1.604,3.567-3.567,3.567
				c-1.961,0-3.566-1.605-3.566-3.567s1.605-3.567,3.566-3.567C127.57,230.457,129.174,232.062,129.174,234.024z"/>
			<path fill="#004B68" stroke="#FFFFFF" stroke-miterlimit="10" d="M150.489,234.024c0,1.962-1.605,3.567-3.567,3.567
				s-3.567-1.605-3.567-3.567s1.605-3.567,3.567-3.567S150.489,232.062,150.489,234.024z"/>
			<path fill="#004B68" stroke="#FFFFFF" stroke-miterlimit="10" d="M143.354,234.024c0,1.962-1.605,3.567-3.567,3.567
				s-3.566-1.605-3.566-3.567s1.604-3.567,3.566-3.567S143.354,232.062,143.354,234.024z"/>
			<path fill="#004B68" stroke="#FFFFFF" stroke-miterlimit="10" d="M164.668,234.024c0,1.962-1.605,3.567-3.567,3.567
				s-3.567-1.605-3.567-3.567s1.605-3.567,3.567-3.567S164.668,232.062,164.668,234.024z"/>
			<path fill="#004B68" stroke="#FFFFFF" stroke-miterlimit="10" d="M157.533,234.024c0,1.962-1.605,3.567-3.567,3.567
				s-3.567-1.605-3.567-3.567s1.605-3.567,3.567-3.567S157.533,232.062,157.533,234.024z"/>
			<path fill="#004B68" stroke="#FFFFFF" stroke-miterlimit="10" d="M178.847,212.709c0,1.962-1.604,3.567-3.566,3.567
				s-3.567-1.605-3.567-3.567s1.605-3.566,3.567-3.566C177.242,209.232,178.847,210.837,178.847,212.709z"/>
			<path fill="#004B68" stroke="#FFFFFF" stroke-miterlimit="10" d="M178.847,219.844c0,1.962-1.604,3.567-3.566,3.567
				s-3.567-1.605-3.567-3.567s1.605-3.567,3.567-3.567S178.847,217.882,178.847,219.844z"/>
			<path fill="#004B68" stroke="#FFFFFF" stroke-miterlimit="10" d="M171.713,219.844c0,1.962-1.605,3.567-3.567,3.567
				s-3.567-1.605-3.567-3.567s1.605-3.567,3.567-3.567S171.713,217.882,171.713,219.844z"/>
			<path fill="#004B68" stroke="#FFFFFF" stroke-miterlimit="10" d="M192.938,212.709c0,1.962-1.605,3.567-3.567,3.567
				s-3.566-1.605-3.566-3.567s1.604-3.566,3.566-3.566C191.422,209.232,192.938,210.837,192.938,212.709z"/>
			<path fill="#004B68" stroke="#FFFFFF" stroke-miterlimit="10" d="M185.893,212.709c0,1.962-1.605,3.567-3.567,3.567
				s-3.567-1.605-3.567-3.567s1.605-3.566,3.567-3.566C184.287,209.232,185.893,210.837,185.893,212.709z"/>
			<path fill="#004B68" stroke="#FFFFFF" stroke-miterlimit="10" d="M192.938,219.844c0,1.962-1.605,3.567-3.567,3.567
				s-3.566-1.605-3.566-3.567s1.604-3.567,3.566-3.567C191.422,216.277,192.938,217.882,192.938,219.844z"/>
			<path fill="#004B68" stroke="#FFFFFF" stroke-miterlimit="10" d="M185.893,219.844c0,1.962-1.605,3.567-3.567,3.567
				s-3.567-1.605-3.567-3.567s1.605-3.567,3.567-3.567S185.893,217.882,185.893,219.844z"/>
			<path fill="#004B68" stroke="#FFFFFF" stroke-miterlimit="10" d="M178.847,226.889c0,1.962-1.604,3.567-3.566,3.567
				s-3.567-1.605-3.567-3.567s1.605-3.567,3.567-3.567C177.242,223.412,178.847,224.927,178.847,226.889z"/>
			<path fill="#004B68" stroke="#FFFFFF" stroke-miterlimit="10" d="M171.713,226.889c0,1.962-1.605,3.567-3.567,3.567
				s-3.567-1.605-3.567-3.567s1.605-3.567,3.567-3.567C170.108,223.412,171.713,224.927,171.713,226.889z"/>
			<path fill="#004B68" stroke="#FFFFFF" stroke-miterlimit="10" d="M178.847,234.024c0,1.962-1.604,3.567-3.566,3.567
				s-3.567-1.605-3.567-3.567s1.605-3.567,3.567-3.567S178.847,232.062,178.847,234.024z"/>
			<path fill="#004B68" stroke="#FFFFFF" stroke-miterlimit="10" d="M171.713,234.024c0,1.962-1.605,3.567-3.567,3.567
				s-3.567-1.605-3.567-3.567s1.605-3.567,3.567-3.567S171.713,232.062,171.713,234.024z"/>
			<path fill="#004B68" stroke="#FFFFFF" stroke-miterlimit="10" d="M192.938,226.889c0,1.962-1.605,3.567-3.567,3.567
				s-3.566-1.605-3.566-3.567s1.604-3.567,3.566-3.567C191.422,223.412,192.938,224.927,192.938,226.889z"/>
			<path fill="#004B68" stroke="#FFFFFF" stroke-miterlimit="10" d="M185.893,226.889c0,1.962-1.605,3.567-3.567,3.567
				s-3.567-1.605-3.567-3.567s1.605-3.567,3.567-3.567C184.287,223.412,185.893,224.927,185.893,226.889z"/>
			<path fill="#004B68" stroke="#FFFFFF" stroke-miterlimit="10" d="M192.938,234.024c0,1.962-1.605,3.567-3.567,3.567
				s-3.566-1.605-3.566-3.567s1.604-3.567,3.566-3.567C191.422,230.457,192.938,232.062,192.938,234.024z"/>
			<path fill="#004B68" stroke="#FFFFFF" stroke-miterlimit="10" d="M185.893,234.024c0,1.962-1.605,3.567-3.567,3.567
				s-3.567-1.605-3.567-3.567s1.605-3.567,3.567-3.567S185.893,232.062,185.893,234.024z"/>
			<path fill="#004B68" stroke="#FFFFFF" stroke-miterlimit="10" d="M207.117,212.709c0,1.962-1.605,3.567-3.567,3.567
				s-3.567-1.605-3.567-3.567s1.605-3.566,3.567-3.566C205.601,209.232,207.117,210.837,207.117,212.709z"/>
			<path fill="#004B68" stroke="#FFFFFF" stroke-miterlimit="10" d="M200.073,212.709c0,1.962-1.605,3.567-3.567,3.567
				s-3.567-1.605-3.567-3.567s1.605-3.566,3.567-3.566C198.467,209.232,200.073,210.837,200.073,212.709z"/>
			<path fill="#004B68" stroke="#FFFFFF" stroke-miterlimit="10" d="M207.117,219.844c0,1.962-1.605,3.567-3.567,3.567
				s-3.567-1.605-3.567-3.567s1.605-3.567,3.567-3.567C205.601,216.277,207.117,217.882,207.117,219.844z"/>
			<path fill="#004B68" stroke="#FFFFFF" stroke-miterlimit="10" d="M200.073,219.844c0,1.962-1.605,3.567-3.567,3.567
				s-3.567-1.605-3.567-3.567s1.605-3.567,3.567-3.567S200.073,217.882,200.073,219.844z"/>
			<path fill="#004B68" stroke="#FFFFFF" stroke-miterlimit="10" d="M221.297,212.709c0,1.962-1.605,3.567-3.567,3.567
				s-3.567-1.605-3.567-3.567s1.605-3.566,3.567-3.566S221.297,210.837,221.297,212.709z"/>
			<path fill="#004B68" stroke="#FFFFFF" stroke-miterlimit="10" d="M214.251,212.709c0,1.962-1.604,3.567-3.566,3.567
				s-3.567-1.605-3.567-3.567s1.605-3.566,3.567-3.566C212.647,209.232,214.251,210.837,214.251,212.709z"/>
			<path fill="#004B68" stroke="#FFFFFF" stroke-miterlimit="10" d="M221.297,219.844c0,1.962-1.605,3.567-3.567,3.567
				s-3.567-1.605-3.567-3.567s1.605-3.567,3.567-3.567S221.297,217.882,221.297,219.844z"/>
			<path fill="#004B68" stroke="#FFFFFF" stroke-miterlimit="10" d="M214.251,219.844c0,1.962-1.604,3.567-3.566,3.567
				s-3.567-1.605-3.567-3.567s1.605-3.567,3.567-3.567S214.251,217.882,214.251,219.844z"/>
			<path fill="#004B68" stroke="#FFFFFF" stroke-miterlimit="10" d="M207.117,226.889c0,1.962-1.605,3.567-3.567,3.567
				s-3.567-1.605-3.567-3.567s1.605-3.567,3.567-3.567C205.601,223.412,207.117,224.927,207.117,226.889z"/>
			<path fill="#004B68" stroke="#FFFFFF" stroke-miterlimit="10" d="M200.073,226.889c0,1.962-1.605,3.567-3.567,3.567
				s-3.567-1.605-3.567-3.567s1.605-3.567,3.567-3.567C198.467,223.412,200.073,224.927,200.073,226.889z"/>
			<path fill="#004B68" stroke="#FFFFFF" stroke-miterlimit="10" d="M207.117,234.024c0,1.962-1.605,3.567-3.567,3.567
				s-3.567-1.605-3.567-3.567s1.605-3.567,3.567-3.567C205.601,230.457,207.117,232.062,207.117,234.024z"/>
			<path fill="#004B68" stroke="#FFFFFF" stroke-miterlimit="10" d="M200.073,234.024c0,1.962-1.605,3.567-3.567,3.567
				s-3.567-1.605-3.567-3.567s1.605-3.567,3.567-3.567S200.073,232.062,200.073,234.024z"/>
			<path fill="#004B68" stroke="#FFFFFF" stroke-miterlimit="10" d="M221.297,226.889c0,1.962-1.605,3.567-3.567,3.567
				s-3.567-1.605-3.567-3.567s1.605-3.567,3.567-3.567S221.297,224.927,221.297,226.889z"/>
			<path fill="#004B68" stroke="#FFFFFF" stroke-miterlimit="10" d="M214.251,226.889c0,1.962-1.604,3.567-3.566,3.567
				s-3.567-1.605-3.567-3.567s1.605-3.567,3.567-3.567C212.647,223.412,214.251,224.927,214.251,226.889z"/>
			<path fill="#004B68" stroke="#FFFFFF" stroke-miterlimit="10" d="M221.297,234.024c0,1.962-1.605,3.567-3.567,3.567
				s-3.567-1.605-3.567-3.567s1.605-3.567,3.567-3.567S221.297,232.062,221.297,234.024z"/>
			<path fill="#004B68" stroke="#FFFFFF" stroke-miterlimit="10" d="M214.251,234.024c0,1.962-1.604,3.567-3.566,3.567
				s-3.567-1.605-3.567-3.567s1.605-3.567,3.567-3.567S214.251,232.062,214.251,234.024z"/>
			<path fill="#004B68" stroke="#FFFFFF" stroke-miterlimit="10" d="M136.309,241.069c0,1.962-1.605,3.567-3.567,3.567
				s-3.567-1.605-3.567-3.567s1.605-3.567,3.567-3.567C134.703,237.591,136.309,239.107,136.309,241.069z"/>
			<path fill="#004B68" stroke="#FFFFFF" stroke-miterlimit="10" d="M129.174,241.069c0,1.962-1.604,3.567-3.567,3.567
				c-1.961,0-3.566-1.605-3.566-3.567s1.605-3.567,3.566-3.567C127.57,237.591,129.174,239.107,129.174,241.069z"/>
			<path fill="#004B68" stroke="#FFFFFF" stroke-miterlimit="10" d="M136.309,248.204c0,1.962-1.605,3.567-3.567,3.567
				s-3.567-1.605-3.567-3.567s1.605-3.567,3.567-3.567S136.309,246.242,136.309,248.204z"/>
			<path fill="#004B68" stroke="#FFFFFF" stroke-miterlimit="10" d="M129.174,248.204c0,1.962-1.604,3.567-3.567,3.567
				c-1.961,0-3.566-1.605-3.566-3.567s1.605-3.567,3.566-3.567C127.57,244.636,129.174,246.242,129.174,248.204z"/>
			<path fill="#004B68" stroke="#FFFFFF" stroke-miterlimit="10" d="M136.309,262.383c0,1.962-1.605,3.566-3.567,3.566
				s-3.567-1.604-3.567-3.566s1.605-3.567,3.567-3.567S136.309,260.421,136.309,262.383z"/>
			<path fill="#004B68" stroke="#FFFFFF" stroke-miterlimit="10" d="M129.174,262.383c0,1.962-1.604,3.566-3.567,3.566
				c-1.961,0-3.566-1.604-3.566-3.566s1.605-3.567,3.566-3.567C127.57,258.816,129.174,260.421,129.174,262.383z"/>
			<path fill="#004B68" stroke="#FFFFFF" stroke-miterlimit="10" d="M136.309,269.428c0,1.962-1.605,3.567-3.567,3.567
				s-3.567-1.605-3.567-3.567s1.605-3.567,3.567-3.567S136.309,267.466,136.309,269.428z"/>
			<path fill="#004B68" stroke="#FFFFFF" stroke-miterlimit="10" d="M129.174,269.428c0,1.962-1.604,3.567-3.567,3.567
				c-1.961,0-3.566-1.605-3.566-3.567s1.605-3.567,3.566-3.567C127.57,265.861,129.174,267.466,129.174,269.428z"/>
			<path fill="#004B68" stroke="#FFFFFF" stroke-miterlimit="10" d="M136.309,276.473c0,1.962-1.605,3.567-3.567,3.567
				s-3.567-1.605-3.567-3.567s1.605-3.567,3.567-3.567C134.703,272.996,136.309,274.6,136.309,276.473z"/>
			<path fill="#004B68" stroke="#FFFFFF" stroke-miterlimit="10" d="M150.489,241.069c0,1.962-1.605,3.567-3.567,3.567
				s-3.567-1.605-3.567-3.567s1.605-3.567,3.567-3.567C148.883,237.591,150.489,239.107,150.489,241.069z"/>
			<path fill="#004B68" stroke="#FFFFFF" stroke-miterlimit="10" d="M143.354,241.069c0,1.962-1.605,3.567-3.567,3.567
				s-3.566-1.605-3.566-3.567s1.604-3.567,3.566-3.567C141.748,237.591,143.354,239.107,143.354,241.069z"/>
			<path fill="#004B68" stroke="#FFFFFF" stroke-miterlimit="10" d="M150.489,248.204c0,1.962-1.605,3.567-3.567,3.567
				s-3.567-1.605-3.567-3.567s1.605-3.567,3.567-3.567S150.489,246.242,150.489,248.204z"/>
			<path fill="#004B68" stroke="#FFFFFF" stroke-miterlimit="10" d="M143.354,248.204c0,1.962-1.605,3.567-3.567,3.567
				s-3.566-1.605-3.566-3.567s1.604-3.567,3.566-3.567S143.354,246.242,143.354,248.204z"/>
			<path fill="#004B68" stroke="#FFFFFF" stroke-miterlimit="10" d="M164.668,241.069c0,1.962-1.605,3.567-3.567,3.567
				s-3.567-1.605-3.567-3.567s1.605-3.567,3.567-3.567C163.063,237.591,164.668,239.107,164.668,241.069z"/>
			<path fill="#004B68" stroke="#FFFFFF" stroke-miterlimit="10" d="M157.533,241.069c0,1.962-1.605,3.567-3.567,3.567
				s-3.567-1.605-3.567-3.567s1.605-3.567,3.567-3.567C155.928,237.591,157.533,239.107,157.533,241.069z"/>
			<path fill="#004B68" stroke="#FFFFFF" stroke-miterlimit="10" d="M164.668,248.204c0,1.962-1.605,3.567-3.567,3.567
				s-3.567-1.605-3.567-3.567s1.605-3.567,3.567-3.567S164.668,246.242,164.668,248.204z"/>
			<path fill="#004B68" stroke="#FFFFFF" stroke-miterlimit="10" d="M157.533,248.204c0,1.962-1.605,3.567-3.567,3.567
				s-3.567-1.605-3.567-3.567s1.605-3.567,3.567-3.567S157.533,246.242,157.533,248.204z"/>
			<path fill="#004B68" stroke="#FFFFFF" stroke-miterlimit="10" d="M150.489,255.249c0,1.962-1.605,3.567-3.567,3.567
				s-3.567-1.605-3.567-3.567s1.605-3.567,3.567-3.567S150.489,253.287,150.489,255.249z"/>
			<path fill="#004B68" stroke="#FFFFFF" stroke-miterlimit="10" d="M143.354,262.383c0,1.962-1.605,3.566-3.567,3.566
				s-3.566-1.604-3.566-3.566s1.604-3.567,3.566-3.567S143.354,260.421,143.354,262.383z"/>
			<path fill="#004B68" stroke="#FFFFFF" stroke-miterlimit="10" d="M164.668,255.249c0,1.962-1.605,3.567-3.567,3.567
				s-3.567-1.605-3.567-3.567s1.605-3.567,3.567-3.567S164.668,253.287,164.668,255.249z"/>
			<path fill="#004B68" stroke="#FFFFFF" stroke-miterlimit="10" d="M164.668,262.383c0,1.962-1.605,3.566-3.567,3.566
				s-3.567-1.604-3.567-3.566s1.605-3.567,3.567-3.567S164.668,260.421,164.668,262.383z"/>
			<path fill="#004B68" stroke="#FFFFFF" stroke-miterlimit="10" d="M157.533,262.383c0,1.962-1.605,3.566-3.567,3.566
				s-3.567-1.604-3.567-3.566s1.605-3.567,3.567-3.567S157.533,260.421,157.533,262.383z"/>
			<path fill="#004B68" stroke="#FFFFFF" stroke-miterlimit="10" d="M178.847,241.069c0,1.962-1.604,3.567-3.566,3.567
				s-3.567-1.605-3.567-3.567s1.605-3.567,3.567-3.567C177.242,237.591,178.847,239.107,178.847,241.069z"/>
			<path fill="#004B68" stroke="#FFFFFF" stroke-miterlimit="10" d="M171.713,241.069c0,1.962-1.605,3.567-3.567,3.567
				s-3.567-1.605-3.567-3.567s1.605-3.567,3.567-3.567C170.108,237.591,171.713,239.107,171.713,241.069z"/>
			<path fill="#004B68" stroke="#FFFFFF" stroke-miterlimit="10" d="M178.847,248.204c0,1.962-1.604,3.567-3.566,3.567
				s-3.567-1.605-3.567-3.567s1.605-3.567,3.567-3.567S178.847,246.242,178.847,248.204z"/>
			<path fill="#004B68" stroke="#FFFFFF" stroke-miterlimit="10" d="M171.713,248.204c0,1.962-1.605,3.567-3.567,3.567
				s-3.567-1.605-3.567-3.567s1.605-3.567,3.567-3.567S171.713,246.242,171.713,248.204z"/>
			<path fill="#004B68" stroke="#FFFFFF" stroke-miterlimit="10" d="M192.938,241.069c0,1.962-1.605,3.567-3.567,3.567
				s-3.566-1.605-3.566-3.567s1.604-3.567,3.566-3.567C191.422,237.591,192.938,239.107,192.938,241.069z"/>
			<path fill="#004B68" stroke="#FFFFFF" stroke-miterlimit="10" d="M185.893,241.069c0,1.962-1.605,3.567-3.567,3.567
				s-3.567-1.605-3.567-3.567s1.605-3.567,3.567-3.567C184.287,237.591,185.893,239.107,185.893,241.069z"/>
			<path fill="#004B68" stroke="#FFFFFF" stroke-miterlimit="10" d="M192.938,248.204c0,1.962-1.605,3.567-3.567,3.567
				s-3.566-1.605-3.566-3.567s1.604-3.567,3.566-3.567C191.422,244.636,192.938,246.242,192.938,248.204z"/>
			<path fill="#004B68" stroke="#FFFFFF" stroke-miterlimit="10" d="M178.847,255.249c0,1.962-1.604,3.567-3.566,3.567
				s-3.567-1.605-3.567-3.567s1.605-3.567,3.567-3.567S178.847,253.287,178.847,255.249z"/>
			<path fill="#004B68" stroke="#FFFFFF" stroke-miterlimit="10" d="M171.713,255.249c0,1.962-1.605,3.567-3.567,3.567
				s-3.567-1.605-3.567-3.567s1.605-3.567,3.567-3.567S171.713,253.287,171.713,255.249z"/>
			<path fill="#004B68" stroke="#FFFFFF" stroke-miterlimit="10" d="M171.713,262.383c0,1.962-1.605,3.566-3.567,3.566
				s-3.567-1.604-3.567-3.566s1.605-3.567,3.567-3.567S171.713,260.421,171.713,262.383z"/>
			<path fill="#004B68" stroke="#FFFFFF" stroke-miterlimit="10" d="M143.354,269.428c0,1.962-1.605,3.567-3.567,3.567
				s-3.566-1.605-3.566-3.567s1.604-3.567,3.566-3.567S143.354,267.466,143.354,269.428z"/>
			<path fill="#004B68" stroke="#FFFFFF" stroke-miterlimit="10" d="M164.668,269.428c0,1.962-1.605,3.567-3.567,3.567
				s-3.567-1.605-3.567-3.567s1.605-3.567,3.567-3.567S164.668,267.466,164.668,269.428z"/>
			<path fill="#004B68" stroke="#FFFFFF" stroke-miterlimit="10" d="M157.533,269.428c0,1.962-1.605,3.567-3.567,3.567
				s-3.567-1.605-3.567-3.567s1.605-3.567,3.567-3.567S157.533,267.466,157.533,269.428z"/>
			<path fill="#004B68" stroke="#FFFFFF" stroke-miterlimit="10" d="M164.668,276.473c0,1.962-1.605,3.567-3.567,3.567
				s-3.567-1.605-3.567-3.567s1.605-3.567,3.567-3.567C163.063,272.996,164.668,274.6,164.668,276.473z"/>
			<path fill="#004B68" stroke="#FFFFFF" stroke-miterlimit="10" d="M171.713,269.428c0,1.962-1.605,3.567-3.567,3.567
				s-3.567-1.605-3.567-3.567s1.605-3.567,3.567-3.567S171.713,267.466,171.713,269.428z"/>
			<path fill="#004B68" stroke="#FFFFFF" stroke-miterlimit="10" d="M207.117,241.069c0,1.962-1.605,3.567-3.567,3.567
				s-3.567-1.605-3.567-3.567s1.605-3.567,3.567-3.567C205.601,237.591,207.117,239.107,207.117,241.069z"/>
			<path fill="#004B68" stroke="#FFFFFF" stroke-miterlimit="10" d="M200.073,241.069c0,1.962-1.605,3.567-3.567,3.567
				s-3.567-1.605-3.567-3.567s1.605-3.567,3.567-3.567C198.467,237.591,200.073,239.107,200.073,241.069z"/>
			<path fill="#004B68" stroke="#FFFFFF" stroke-miterlimit="10" d="M207.117,248.204c0,1.962-1.605,3.567-3.567,3.567
				s-3.567-1.605-3.567-3.567s1.605-3.567,3.567-3.567C205.601,244.636,207.117,246.242,207.117,248.204z"/>
			<path fill="#004B68" stroke="#FFFFFF" stroke-miterlimit="10" d="M200.073,248.204c0,1.962-1.605,3.567-3.567,3.567
				s-3.567-1.605-3.567-3.567s1.605-3.567,3.567-3.567S200.073,246.242,200.073,248.204z"/>
			<path fill="#004B68" stroke="#FFFFFF" stroke-miterlimit="10" d="M221.297,241.069c0,1.962-1.605,3.567-3.567,3.567
				s-3.567-1.605-3.567-3.567s1.605-3.567,3.567-3.567S221.297,239.107,221.297,241.069z"/>
			<path fill="#004B68" stroke="#FFFFFF" stroke-miterlimit="10" d="M214.251,241.069c0,1.962-1.604,3.567-3.566,3.567
				s-3.567-1.605-3.567-3.567s1.605-3.567,3.567-3.567C212.647,237.591,214.251,239.107,214.251,241.069z"/>
			<path fill="#004B68" stroke="#FFFFFF" stroke-miterlimit="10" d="M221.297,248.204c0,1.962-1.605,3.567-3.567,3.567
				s-3.567-1.605-3.567-3.567s1.605-3.567,3.567-3.567S221.297,246.242,221.297,248.204z"/>
			<path fill="#004B68" stroke="#FFFFFF" stroke-miterlimit="10" d="M79.59,311.967c0,1.962-1.604,3.566-3.567,3.566
				c-1.961,0-3.566-1.604-3.566-3.566s1.605-3.567,3.566-3.567C77.986,308.4,79.59,310.005,79.59,311.967z"/>
			<path fill="#004B68" stroke="#FFFFFF" stroke-miterlimit="10" d="M72.545,311.967c0,1.962-1.605,3.566-3.567,3.566
				s-3.567-1.604-3.567-3.566s1.605-3.567,3.567-3.567S72.545,310.005,72.545,311.967z"/>
			<path fill="#004B68" stroke="#FFFFFF" stroke-miterlimit="10" d="M79.59,319.012c0,1.962-1.604,3.567-3.567,3.567
				c-1.961,0-3.566-1.605-3.566-3.567s1.605-3.567,3.566-3.567C77.986,315.445,79.59,317.05,79.59,319.012z"/>
			<path fill="#004B68" stroke="#FFFFFF" stroke-miterlimit="10" d="M72.545,319.012c0,1.962-1.605,3.567-3.567,3.567
				s-3.567-1.605-3.567-3.567s1.605-3.567,3.567-3.567S72.545,317.05,72.545,319.012z"/>
			<path fill="#004B68" stroke="#FFFFFF" stroke-miterlimit="10" d="M86.636,311.967c0,1.962-1.605,3.566-3.567,3.566
				s-3.567-1.604-3.567-3.566s1.605-3.567,3.567-3.567S86.636,310.005,86.636,311.967z"/>
			<path fill="#004B68" stroke="#FFFFFF" stroke-miterlimit="10" d="M79.59,333.192c0,1.962-1.604,3.567-3.567,3.567
				c-1.961,0-3.566-1.605-3.566-3.567s1.605-3.567,3.566-3.567C77.986,329.625,79.59,331.23,79.59,333.192z"/>
			<path fill="#004B68" stroke="#FFFFFF" stroke-miterlimit="10" d="M37.052,389.91c0,1.962-1.605,3.567-3.567,3.567
				s-3.567-1.605-3.567-3.567s1.605-3.566,3.567-3.566S37.052,387.948,37.052,389.91z"/>
			<path fill="#004B68" stroke="#FFFFFF" stroke-miterlimit="10" d="M72.545,340.326c0,1.962-1.605,3.567-3.567,3.567
				s-3.567-1.605-3.567-3.567s1.605-3.566,3.567-3.566S72.545,338.364,72.545,340.326z"/>
			<path fill="#004B68" stroke="#FFFFFF" stroke-miterlimit="10" d="M51.232,375.73c0,1.963-1.605,3.567-3.567,3.567
				s-3.567-1.604-3.567-3.567c0-1.962,1.605-3.566,3.567-3.566S51.232,373.768,51.232,375.73z"/>
			<path fill="#004B68" stroke="#FFFFFF" stroke-miterlimit="10" d="M44.186,382.776c0,1.962-1.604,3.567-3.567,3.567
				c-1.962,0-3.566-1.605-3.566-3.567s1.604-3.567,3.566-3.567C42.581,379.208,44.186,380.814,44.186,382.776z"/>
			<path fill="#004B68" stroke="#FFFFFF" stroke-miterlimit="10" d="M22.872,411.134c0,1.963-1.605,3.567-3.567,3.567
				s-3.567-1.604-3.567-3.567c0-1.962,1.605-3.566,3.567-3.566S22.872,409.172,22.872,411.134z"/>
			<path fill="#004B68" stroke="#FFFFFF" stroke-miterlimit="10" d="M15.827,418.269c0,1.962-1.605,3.567-3.567,3.567
				s-3.567-1.605-3.567-3.567s1.605-3.567,3.567-3.567S15.827,416.307,15.827,418.269z"/>
			<path fill="#004B68" stroke="#FFFFFF" stroke-miterlimit="10" d="M228.431,212.709c0,1.962-1.604,3.567-3.566,3.567
				s-3.567-1.605-3.567-3.567s1.605-3.566,3.567-3.566S228.431,210.837,228.431,212.709z"/>
			<path fill="#004B68" stroke="#FFFFFF" stroke-miterlimit="10" d="M228.431,219.844c0,1.962-1.604,3.567-3.566,3.567
				s-3.567-1.605-3.567-3.567s1.605-3.567,3.567-3.567S228.431,217.882,228.431,219.844z"/>
			<path fill="#004B68" stroke="#FFFFFF" stroke-miterlimit="10" d="M228.431,226.889c0,1.962-1.604,3.567-3.566,3.567
				s-3.567-1.605-3.567-3.567s1.605-3.567,3.567-3.567S228.431,224.927,228.431,226.889z"/>
			<path fill="#004B68" stroke="#FFFFFF" stroke-miterlimit="10" d="M242.611,212.709c0,1.962-1.604,3.567-3.566,3.567
				s-3.567-1.605-3.567-3.567s1.605-3.566,3.567-3.566C241.006,209.232,242.611,210.837,242.611,212.709z"/>
			<path fill="#004B68" stroke="#FFFFFF" stroke-miterlimit="10" d="M235.477,212.709c0,1.962-1.605,3.567-3.567,3.567
				s-3.567-1.605-3.567-3.567s1.605-3.566,3.567-3.566C233.871,209.232,235.477,210.837,235.477,212.709z"/>
			<path fill="#004B68" stroke="#FFFFFF" stroke-miterlimit="10" d="M242.611,219.844c0,1.962-1.604,3.567-3.566,3.567
				s-3.567-1.605-3.567-3.567s1.605-3.567,3.567-3.567S242.611,217.882,242.611,219.844z"/>
			<path fill="#004B68" stroke="#FFFFFF" stroke-miterlimit="10" d="M235.477,219.844c0,1.962-1.605,3.567-3.567,3.567
				s-3.567-1.605-3.567-3.567s1.605-3.567,3.567-3.567S235.477,217.882,235.477,219.844z"/>
			<path fill="#004B68" stroke="#FFFFFF" stroke-miterlimit="10" d="M242.611,226.889c0,1.962-1.604,3.567-3.566,3.567
				s-3.567-1.605-3.567-3.567s1.605-3.567,3.567-3.567C241.006,223.412,242.611,224.927,242.611,226.889z"/>
			<path fill="#004B68" stroke="#FFFFFF" stroke-miterlimit="10" d="M235.477,226.889c0,1.962-1.605,3.567-3.567,3.567
				s-3.567-1.605-3.567-3.567s1.605-3.567,3.567-3.567C233.871,223.412,235.477,224.927,235.477,226.889z"/>
			<path fill="#004B68" stroke="#FFFFFF" stroke-miterlimit="10" d="M242.611,234.024c0,1.962-1.604,3.567-3.566,3.567
				s-3.567-1.605-3.567-3.567s1.605-3.567,3.567-3.567S242.611,232.062,242.611,234.024z"/>
			<path fill="#004B68" stroke="#FFFFFF" stroke-miterlimit="10" d="M249.656,226.889c0,1.962-1.605,3.567-3.567,3.567
				s-3.567-1.605-3.567-3.567s1.605-3.567,3.567-3.567C248.051,223.412,249.656,224.927,249.656,226.889z"/>
			<path fill="#004B68" stroke="#FFFFFF" stroke-miterlimit="10" d="M235.477,241.069c0,1.962-1.605,3.567-3.567,3.567
				s-3.567-1.605-3.567-3.567s1.605-3.567,3.567-3.567C233.871,237.591,235.477,239.107,235.477,241.069z"/>
		</g>
	</g>
</g>
</svg>
