<?xml version="1.0" encoding="utf-8"?>
<!-- Generator: Adobe Illustrator 17.1.0, SVG Export Plug-In . SVG Version: 6.00 Build 0)  -->
<!DOCTYPE svg PUBLIC "-//W3C//DTD SVG 1.1//EN" "http://www.w3.org/Graphics/SVG/1.1/DTD/svg11.dtd">
<svg version="1.1" xmlns="http://www.w3.org/2000/svg" xmlns:xlink="http://www.w3.org/1999/xlink" x="0px" y="0px"
	 viewBox="0 0 33.8 34" enable-background="new 0 0 33.8 34" xml:space="preserve">
<g id="レイヤー_2">
</g>
<g id="レイヤー_3">
</g>
<g id="レイヤー_1">
	<path d="M30.6,11.2c0-0.1-0.6-1.1-1.8-2.1c-1.2-1-3-2.1-5.3-2.1c-2.4,0-4.2,1.1-5.3,2.1c-0.4,0.3-0.6,0.6-0.9,0.9
		c-0.3-0.3-0.6-0.6-0.9-0.9c-1.2-1-3-2.1-5.3-2.1C8.6,7,6.8,8.1,5.7,9.1c-1.1,1-1.7,2.1-1.7,2.1l-0.1,0.5v15.3l1.8,0.5l0,0
		c0-0.1,0.5-0.9,1.4-1.7C8,25,9.3,24.3,11,24.3c1.8,0,3.1,0.8,4,1.6c0.5,0.4,0.8,0.8,1.1,1.1c0.1,0.2,0.2,0.3,0.3,0.4
		c0,0,0,0.1,0.1,0.1c0,0,0,0,0,0l0,0l0,0h0c0.2,0.3,0.5,0.5,0.8,0.5c0.4,0,0.7-0.2,0.9-0.5l0,0c0,0,0,0,0,0l0,0
		c0-0.1,0.5-0.9,1.4-1.7c0.9-0.8,2.2-1.5,3.9-1.5c1.8,0,3.1,0.8,4,1.6c0.5,0.4,0.8,0.8,1.1,1.1c0.1,0.2,0.2,0.3,0.3,0.4
		c0,0,0,0.1,0.1,0.1c0,0,0,0,0,0h0l0,0l1.8-0.5V11.7L30.6,11.2z M11,22.3L11,22.3c-2.3,0-4.1,1-5.2,2V12c0.2-0.3,0.6-0.9,1.3-1.5
		C8,9.7,9.3,9,11,9c1.8,0,3.1,0.8,4,1.6c0.5,0.4,0.8,0.8,1.1,1.1c0.1,0.1,0.1,0.2,0.2,0.3v12.4C15.1,23.4,13.3,22.3,11,22.3z
		 M28.7,24.4c-1.2-1-2.9-2.1-5.3-2.1c-2.3,0-4.1,1-5.2,2V12c0.2-0.3,0.6-0.9,1.3-1.5C20.5,9.7,21.7,9,23.4,9c1.8,0,3.1,0.8,4,1.6
		c0.5,0.4,0.8,0.8,1.1,1.1c0.1,0.1,0.2,0.2,0.2,0.3V24.4z"/>
</g>
</svg>
