<?xml version="1.0" encoding="utf-8"?>
<!-- Generator: Adobe Illustrator 17.1.0, SVG Export Plug-In . SVG Version: 6.00 Build 0)  -->
<!DOCTYPE svg PUBLIC "-//W3C//DTD SVG 1.1//EN" "http://www.w3.org/Graphics/SVG/1.1/DTD/svg11.dtd">
<svg version="1.1" xmlns="http://www.w3.org/2000/svg" xmlns:xlink="http://www.w3.org/1999/xlink" x="0px" y="0px"
	 viewBox="0 0 33.8 34" enable-background="new 0 0 33.8 34" xml:space="preserve">
<g id="レイヤー_2">
</g>
<g id="レイヤー_3">
</g>
<g id="レイヤー_1">
	<path d="M16.6,6.6l-0.4-0.4H4.8V30h17V11.8l-0.4-0.4L16.6,6.6z M20.4,28.6H6.3v-21h8.1c2.1,0,1.1,5,1.1,5s4.9-1.2,5,1.1V28.6z
		 M29.4,9.7L24.8,5h-7.2L19,6.4H23c0,0,0,0,0,0c0,0,0,0,0,0c0.6,0,1,0.5,1.1,1.2C24.4,9,24,10.9,24,10.9s0,0,0,0c0,0,0,0.1,0,0.1
		s3.8-0.9,4.3,0.6c0,0,0,0,0,0.1c0,0,0,0,0,0.1c0,0.1,0,0.1,0,0.2v13.1h-5v1.4h6.5V10.1L29.4,9.7z"/>
</g>
</svg>
