<?xml version="1.0" encoding="utf-8"?>
<!-- Generator: Adobe Illustrator 17.1.0, SVG Export Plug-In . SVG Version: 6.00 Build 0)  -->
<!DOCTYPE svg PUBLIC "-//W3C//DTD SVG 1.1//EN" "http://www.w3.org/Graphics/SVG/1.1/DTD/svg11.dtd">
<svg version="1.1" xmlns="http://www.w3.org/2000/svg" xmlns:xlink="http://www.w3.org/1999/xlink" x="0px" y="0px"
	 viewBox="0 0 33.8 34" enable-background="new 0 0 33.8 34" xml:space="preserve">
<g id="レイヤー_2">
</g>
<g id="レイヤー_3">
</g>
<g id="レイヤー_1">
	<g>
		<circle fill="none" cx="12.8" cy="10.5" r="1.6"/>
		<path fill="none" d="M13.5,16.9l3.3,3.3l5.3-4.7l4.3,3.9V9.8h-5v-5h-13v16.7L13.5,16.9z M12.8,7.3c1.7,0,3.1,1.4,3.1,3.1
			s-1.4,3.1-3.1,3.1s-3.1-1.4-3.1-3.1S11,7.3,12.8,7.3z"/>
		<polygon fill="none" points="23.1,6 23.1,8.1 25.2,8.1 		"/>
		<polygon fill="none" points="22.1,17.6 12.6,26.1 11.5,24.9 15.6,21.3 13.4,19 8.5,23.6 8.5,23.6 8.5,29.3 26.4,29.3 26.4,21.5 		
			"/>
		<path d="M22.5,3.1H6.8V31h21.2V8.6L22.5,3.1z M21.4,4.8c0,0-0.2,3.4-1.6,5.2c0,0,5-1,6.6-0.2l0,9.7l-4.3-3.9l-5.3,4.7l-3.3-3.3
			l-5,4.6V4.8H21.4z M8.5,29.3v-5.8l0,0l4.9-4.6l2.2,2.2l-4.1,3.6l1,1.2l9.5-8.4l4.3,3.9v7.8H8.5z"/>
		<path d="M12.8,13.6c1.7,0,3.1-1.4,3.1-3.1s-1.4-3.1-3.1-3.1s-3.1,1.4-3.1,3.1S11,13.6,12.8,13.6z M12.8,8.9c0.9,0,1.6,0.7,1.6,1.6
			S13.6,12,12.8,12s-1.6-0.7-1.6-1.6S11.9,8.9,12.8,8.9z"/>
	</g>
</g>
</svg>
