<?xml version="1.0" encoding="utf-8"?>
<!-- Generator: Adobe Illustrator 17.1.0, SVG Export Plug-In . SVG Version: 6.00 Build 0)  -->
<!DOCTYPE svg PUBLIC "-//W3C//DTD SVG 1.1//EN" "http://www.w3.org/Graphics/SVG/1.1/DTD/svg11.dtd">
<svg version="1.1" id="レイヤー_1" xmlns="http://www.w3.org/2000/svg" xmlns:xlink="http://www.w3.org/1999/xlink" x="0px"
	 y="0px" viewBox="0 248 873 232" enable-background="new 0 248 873 232" xml:space="preserve">
<g id="レイヤー_2">
</g>
<g id="レイヤー_3">
</g>
<g id="レイヤー_1_1_">
	<g>
		<g>
			<path fill="#054B68" d="M14.6,430.4c-4.1,0-7.8,0.1-10.5,0.3c-0.8,0-1.1-0.4-1.2-1.3c-0.1-0.8-0.3-2.6-0.4-4.2
				c-0.1-1.2,0.9-2.1,2-2c2.5,0.1,5.4,0.3,10.1,0.3h22.6c1.9,0,2.6-0.1,3.4-0.7c0.3-0.1,0.7-0.3,0.9-0.3c0.4,0,0.8,0.1,1.2,0.3
				c1.7,1.1,3.4,2.6,4.6,4.2c0.3,0.4,0.4,0.7,0.4,1.1c0,0.5-0.3,1.1-0.9,1.6c-0.5,0.5-0.9,1.2-1.5,2.5c-3.2,7.5-7,14.4-12.3,20.6
				c-5.4,6.2-11.6,11.5-18,15.1c-0.5,0.4-1.2,0.5-1.7,0.5s-1.1-0.1-1.6-0.7c-0.8-0.7-1.6-1.3-2.6-2c-1.3-0.8-1.3-2.5,0-3.3
				c7.4-4.1,12.4-8.2,17.5-14.2c4.4-4.9,7.3-9.7,9.8-15.5c0.5-1.2-0.4-2.6-1.7-2.6H14.6V430.4z"/>
			<path fill="#054B68" d="M71.8,438.6c-3.7,0-5.8,0.1-8.6,0.3c-0.7,0-1.3-0.1-1.5-0.8c-0.1-0.8-0.4-2.1-0.5-3.6
				c-0.1-1.2,0.8-2.2,2-2.1c2.5,0.1,4.5,0.3,8.1,0.3h21.3c1.7,0,2.6-0.1,3.3-0.5c0.3-0.1,0.7-0.3,0.9-0.3c0.3,0,0.7,0.1,1.1,0.5
				c1.2,1.1,2.5,2.4,3.7,4.1c0.3,0.4,0.3,0.7,0.3,0.9c0,0.4-0.3,0.7-0.7,0.9c-0.9,0.4-1.3,0.9-1.6,1.3c-2.5,3.7-5.8,7.7-8.2,9.9
				c-0.4,0.4-0.8,0.5-1.1,0.5c-0.5,0-0.9-0.1-1.5-0.5c-0.7-0.4-1.2-0.8-1.7-1.2c-1.1-0.7-1.3-2.1-0.4-2.9c1.2-1.2,2.2-2.4,3.3-3.6
				c1.1-1.2,0.1-3-1.5-3H71.8V438.6z M82.7,442.3c0.8,0.1,1.1,0.5,1.1,1.1c0,0.3,0,0.5-0.3,0.9c-0.3,0.7-0.4,1.6-0.4,2.4
				c0,9.5-3.6,17.9-12,23c-0.7,0.4-1.1,0.7-1.6,0.7c-0.4,0-0.8-0.1-1.2-0.5c-0.5-0.4-1.2-0.8-1.9-1.2c-1.2-0.7-1.3-2.4-0.1-3.2
				c6.6-4.5,9.9-10.2,9.9-18.8c0-1.2,0-2-0.1-2.8c-0.1-1.2,0.8-2.2,2.1-2.1C80,441.8,81.6,441.9,82.7,442.3z"/>
			<path fill="#054B68" d="M126.6,431.7c-4.1,0-7.8,0.1-10.5,0.3c-0.8,0-1.1-0.4-1.2-1.3c-0.1-0.8-0.3-2.6-0.4-4.2
				c-0.1-1.2,0.9-2.1,2-2c2.5,0.1,5.4,0.3,10.1,0.3h22.6c1.9,0,2.6-0.1,3.4-0.7c0.3-0.1,0.7-0.3,0.9-0.3c0.4,0,0.8,0.1,1.2,0.3
				c1.7,1.1,3.4,2.6,4.6,4.2c0.3,0.4,0.4,0.7,0.4,1.1c0,0.5-0.3,1.1-0.9,1.6c-0.5,0.5-0.9,1.2-1.5,2.5c-3.2,7.5-7,14.4-12.3,20.6
				c-5.4,6.2-11.6,11.5-18,15.1c-0.5,0.4-1.2,0.5-1.7,0.5s-1.1-0.1-1.6-0.7c-0.8-0.7-1.6-1.3-2.6-2c-1.3-0.8-1.3-2.5,0-3.3
				c7.4-4.1,12.4-8.2,17.5-14.2c4.4-4.9,7.3-9.7,9.8-15.5c0.5-1.2-0.4-2.6-1.7-2.6h-20.1V431.7z M157.6,416.8
				c0.3-0.3,0.5-0.1,0.9,0.1c2,1.6,4.2,4.1,6.1,6.7c0.3,0.4,0.3,0.7-0.1,1.1l-2.4,1.7c-0.4,0.3-0.8,0.3-1.1-0.1
				c-1.5-2.2-2.9-4.1-4.8-5.8c-0.8-0.8-0.8-2.2,0.3-2.9L157.6,416.8z M162.9,412.9c0.4-0.3,0.5-0.1,0.9,0.1c2.4,1.7,4.6,4.4,6.1,6.5
				c0.3,0.4,0.3,0.7-0.1,1.2l-2.1,1.7c-0.1,0.1-0.4,0.3-0.5,0.3c-0.3,0-0.4-0.1-0.5-0.4c-1.3-2.1-2.9-4.1-4.8-5.8
				c-0.8-0.8-0.8-2.1,0.1-2.8L162.9,412.9z"/>
			<path fill="#054B68" d="M195.4,451.4c0.3-0.1,0.5-0.3,0.7-0.4c1.2-0.5,2.6,0.3,2.6,1.6c0,0.3,0,0.7,0,0.9c0.1,2.1,0.1,2-1.6,2.9
				c-4,2-8.5,3.8-12.7,5.4c-1.1,0.4-1.9,0.8-2.1,1.1c-0.3,0.3-0.7,0.4-1.1,0.4s-0.7-0.1-0.9-0.8c-0.4-1.2-0.8-2.4-1.2-3.7
				c-0.3-1.1,0.4-2.1,1.5-2.4c1.3-0.3,2.8-0.7,4.4-1.2l1.5-0.4v-18H186c-4.1,0-5.4,0.1-5.8,0.1c-0.7,0-0.7,0-0.7-0.7v-4.8
				c0-0.7,0-0.7,0.7-0.7c0.4,0,1.6,0.1,5.8,0.1h0.5v-6.1c0-3,0-5.3-0.3-7.1c-0.1-1.2,0.8-2.1,2-2.1c1.5,0.1,2.9,0.1,4.2,0.4
				c0.7,0,1.1,0.4,1.1,0.8s-0.1,0.8-0.4,1.3c-0.3,0.8-0.4,2.4-0.4,6.1v4.9c0,1.1,0.9,1.9,1.9,1.9c2.1,0,3-0.1,3.3-0.1
				c0.5,0,0.7,0,0.7,0.7v4.8c0,0.7,0,0.7-0.7,0.7c-0.3,0-1.2-0.1-3.3-0.1c-1.1,0-1.9,0.8-1.9,1.9v11
				C192.8,451,194.2,452,195.4,451.4z M208.8,461.5c0,1.6,0.3,2.4,1.2,2.9s2.9,0.7,9.1,0.7c6.9,0,9-0.3,10.2-1.3
				c0.8-0.7,1.2-1.6,1.3-4.4c0.1-1.3,1.5-2.1,2.6-1.6c0.7,0.3,1.3,0.5,2.1,0.8c1.6,0.4,1.6,0.4,1.5,2.1c-0.5,5.6-1.3,7.3-3.4,8.6
				c-2.1,1.5-5.2,2.1-15.1,2.1c-8.6,0-11.8-0.8-13.4-1.7c-1.6-0.9-2.4-2.9-2.4-6.4v-17.2c0-1.3-1.3-2.2-2.5-1.7
				c-1.5,0.5-2.2,0.8-2.5,0.9c-0.7,0.1-0.7,0.1-0.8-0.5l-0.8-4.9c-0.1-0.7,0-0.7,0.5-0.8c0.4-0.1,1.9-0.4,4.9-1.5
				c0.8-0.3,1.3-0.9,1.3-1.9v-5.6c0-2.5,0-4.9-0.1-6.9c-0.1-1.2,0.8-2.1,2-2c1.3,0.1,2.6,0.1,3.8,0.3c0.9,0.1,1.3,0.4,1.3,0.7
				c0,0.5-0.1,0.8-0.4,1.3c-0.3,0.7-0.4,2-0.4,6.1v2.9c0,1.3,1.2,2.2,2.5,1.7l2.4-0.8c0.8-0.3,1.3-0.9,1.3-1.7v-7.6
				c0-2.9-0.1-4.8-0.3-6.9c-0.1-1.2,0.8-2.1,2-2c1.5,0.1,2.9,0.3,4.2,0.4c0.7,0,1.1,0.3,1.1,0.7s-0.1,0.8-0.4,1.3
				c-0.3,0.8-0.4,2.4-0.4,5.7v5.4c0,1.3,1.3,2.2,2.5,1.7l2.4-0.8c6-2,7.9-2.8,8.3-2.9c0.4,0,0.7,0.1,0.7,0.7l-0.1,8.1
				c-0.1,6.4-0.7,11.1-1.6,14.3c-0.9,3.7-2.8,4.8-5.4,4.8c-0.8,0-1.6,0-2.4-0.1c-1.5-0.1-1.5-0.1-1.7-2.1c-0.1-1.5-0.7-3.3-1.3-4.6
				c1.3,0.3,2.5,0.4,3.3,0.4c1.1,0,1.6-0.3,1.9-2.4c0.4-2,0.7-4.1,0.7-8.5c0-1.3-1.2-2.2-2.5-1.9l-3.6,1.2c-0.8,0.3-1.3,0.9-1.3,1.7
				v9.7c0,6.4,0.1,9.5,0.1,9.8c0,0.7,0,0.7-0.7,0.7h-5c-0.7,0-0.7,0-0.7-0.7c0-0.4,0.1-3.4,0.1-9.8v-6.4c0-1.3-1.3-2.2-2.5-1.7
				l-2.4,0.8c-0.8,0.3-1.3,0.9-1.3,1.7L208.8,461.5L208.8,461.5z"/>
			<path fill="#054B68" d="M262.5,449.1c0.4-0.1,0.7-0.4,1.1-0.5c1.2-0.7,2.6,0.3,2.6,1.6c0,0.3,0,0.7,0,0.9c0.1,2,0.1,2-1.6,2.9
				c-4.4,2.4-8.3,4.1-13.1,6c-1.1,0.4-1.7,0.7-2,0.9c-0.4,0.3-0.7,0.5-1.1,0.5c-0.3,0-0.7-0.3-0.9-0.8c-0.4-1.2-0.7-2.5-1.1-4
				c-0.3-1.1,0.4-2,1.3-2.2c1.3-0.3,2.6-0.7,4.1-1.2c0.5-0.1,1.1-0.3,1.6-0.5v-10.3c0-1.1-0.9-1.9-1.9-1.9c-2.2,0-3,0.1-3.3,0.1
				c-0.7,0-0.7,0-0.7-0.7v-4.6c0-0.7,0-0.7,0.7-0.7c0.3,0,1.1,0.1,3.3,0.1c1.1,0,1.9-0.8,1.9-1.9v-6.9c0-1.1-0.8-1.9-1.9-1.9
				c-2.6,0-3.6,0.1-4,0.1c-0.7,0-0.7,0-0.7-0.7v-4.6c0-0.7,0-0.7,0.7-0.7c0.4,0,1.6,0.1,5.8,0.1h6.4c4.2,0,5.4-0.1,5.8-0.1
				c0.7,0,0.7,0,0.7,0.7v4.6c0,0.7,0,0.7-0.7,0.7c-0.3,0-1.2-0.1-4-0.1c-1.1,0-1.9,0.8-1.9,1.9v6.9c0,1.1,0.9,1.9,2,1.9
				c1.9,0,2.5-0.1,2.8-0.1c0.7,0,0.7,0,0.7,0.7v4.6c0,0.5,0,0.7-0.7,0.7c-0.3,0-1.1-0.1-2.8-0.1c-1.1,0-2,0.8-2,1.9v5
				C259.9,448.7,261.3,449.6,262.5,449.1z M278.4,453c0.1,0.8,0.3,1.2,0.3,1.6c0,0.7-0.3,0.9-1.3,1.7c-3.4,2.6-6.6,4.8-10.5,7
				c-0.8,0.5-1.5,0.9-1.7,1.3s-0.7,0.5-0.9,0.5c-0.4,0-0.7-0.1-1.1-0.7c-0.5-1.1-1.2-2.2-1.9-3.7c-0.4-0.9,0-2.1,0.9-2.5
				c1.2-0.5,2.4-1.1,3.6-1.7c3.4-1.9,6.2-3.4,9.1-5.6c1.1-0.8,2.5-0.3,2.9,0.9C278.3,452.4,278.3,452.6,278.4,453z M274.8,432
				c-6.2,0-8.2,0.1-8.6,0.1c-0.7,0-0.8,0-0.8-0.7v-4.8c0-0.7,0-0.8,0.8-0.8c0.3,0,2.4,0.1,8.6,0.1h5.8v-2.5c0-3-0.1-4.9-0.3-6.7
				c-0.1-1.2,0.8-2.1,2-2.1c1.5,0.1,2.9,0.1,4.5,0.3c0.7,0,1.1,0.4,1.1,0.7c0,0.5-0.3,0.9-0.4,1.3c-0.3,0.8-0.4,2.1-0.4,6.4v2.6h7.1
				c6.2,0,8.3-0.1,8.7-0.1c0.7,0,0.7,0,0.7,0.8v4.8c0,0.7,0,0.7-0.7,0.7c-0.4,0-2.5-0.1-8.7-0.1h-7.1v0.7c0.7,2.9,1.7,5.8,2.9,8.5
				c0.5,1.3,2.2,1.6,3.2,0.5c1.6-1.9,2.9-3.6,3.7-4.9c0.1-0.3,0.4-0.5,0.5-0.9c0.5-0.9,1.7-1.3,2.6-0.8c1.1,0.7,2.1,1.3,3,2
				c0.5,0.4,0.7,0.7,0.7,1.1s-0.4,0.7-0.9,1.1c-0.5,0.3-1.1,0.8-1.6,1.6c-1.2,1.6-4,5-6.5,7.3c-0.3,0.3-0.5,0.5-0.8,0.7l0.1,0.3
				c2.4,3.7,5.6,7.4,9.8,10.7c0.8,0.7,1.1,1.9,0.4,2.6c-0.8,0.9-1.5,2.1-2.1,3.3c-0.4,0.9-0.7,1.3-1.1,1.3c-0.3,0-0.7-0.3-1.2-0.9
				c-4.2-4.5-7.3-8.7-9.7-13c-1.3-2.1-2.4-4.8-3.4-7.8l0.4,11c0,2.2,0,6.7,0,8.5c0,3.2-0.8,4.6-2.1,5.7c-1.6,1.2-4.6,1.6-8.7,1.6
				c-2,0-2,0-2.5-1.9c-0.3-0.8-0.4-1.5-0.7-2.1c-0.5-1.2,0.5-2.6,1.9-2.5c1.1,0,2.2,0,3.4,0c1.7,0,2.4-0.7,2.4-2.5v-29.1
				c0-1.1-0.8-1.9-1.9-1.9h-4.2V432H274.8z M270.2,435.3c0.3-0.3,0.5-0.3,0.7-0.3c0.1,0,0.4,0,0.7,0.3c2.4,2.2,4.6,4.8,6.6,7.7
				c0.4,0.5,0.3,0.8-0.3,1.3l-3.2,2.6c-0.3,0.3-0.5,0.4-0.8,0.4s-0.3-0.1-0.5-0.4c-1.7-2.8-4-5.7-6.4-7.9c-0.1-0.3-0.3-0.4-0.3-0.5
				s0.1-0.4,0.5-0.7L270.2,435.3z M293.3,415.6c0.5-0.4,0.8-0.4,1.3,0c2.2,1.7,4.1,3.7,6,6c0.4,0.5,0.4,0.8-0.3,1.2l-3.4,2.2
				c-0.7,0.4-0.9,0.4-1.3-0.1c-1.7-2.4-3.3-4.2-5.4-6.1c-0.5-0.4-0.4-0.8,0.3-1.2L293.3,415.6z"/>
			<path fill="#054B68" d="M323.4,453.4c0-1.6-1.9-2.5-3-1.5c-0.9,0.8-2,1.6-2.9,2.4c-0.7,0.5-1.1,0.8-1.3,0.8
				c-0.4,0-0.7-0.5-1.1-1.5c-0.4-1.1-0.8-2.1-1.3-3c-0.4-0.9-0.3-1.9,0.7-2.5c5.8-4,10.6-9.3,13.8-15.1c0.7-1.2-0.3-2.8-1.7-2.8
				h-4.1c-4.8,0-6.4,0.1-6.7,0.1c-0.7,0-0.7,0-0.7-0.7v-4.8c0-0.7,0-0.7,0.7-0.7c0.4,0,1.9,0.1,6.7,0.1h1.2v-2.6c0-2.4,0-4-0.1-5.6
				c-0.1-1.2,0.8-2.1,2-2.1c1.5,0.1,2.8,0.1,4.4,0.4c0.7,0,1.1,0.4,1.1,0.7c0,0.5-0.1,0.9-0.4,1.3c-0.4,0.8-0.4,1.9-0.4,5v2.9h2.6
				c0.5,0,0.9,0,1.2-0.3c0.3-0.1,0.5-0.3,0.7-0.3c0.4,0,1.1,0.4,2.4,1.6c1.2,1.2,1.7,1.9,1.7,2.2c0,0.3-0.1,0.7-0.7,1.1
				c-0.5,0.5-0.9,0.9-1.5,1.9c-1.3,2.8-2.9,5.6-4.6,8.1c-0.5,0.7-0.4,1.7,0.1,2.2c1.9,2,4.1,3.7,6.6,5.3c0.8,0.5,1.1,1.7,0.5,2.5
				s-0.9,1.7-1.5,2.6c-0.4,0.9-0.8,1.5-1.2,1.5c-0.3,0-0.7-0.3-1.3-0.8c-0.8-0.7-1.6-1.5-2.2-2.2c-1.2-1.2-3.2-0.4-3.2,1.3v12.8
				c0,4.8,0.1,7.1,0.1,7.5c0,0.7,0,0.7-0.8,0.7h-5c-0.7,0-0.8,0-0.8-0.7c0-0.4,0.1-2.8,0.1-7.5L323.4,453.4L323.4,453.4z
				 M344.5,470.1c-6.1,0-8.1,0.1-8.5,0.1c-0.7,0-0.7,0-0.7-0.7v-5c0-0.7,0-0.7,0.7-0.7c0.4,0,2.5,0.1,8.5,0.1h3.4
				c1.1,0,1.9-0.8,1.9-1.9v-20c0-1.1-0.8-1.9-1.9-1.9H347c-5.7,0-7.7,0-7.9,0c-0.5,0-0.7,0-0.7-0.7v-5c0-0.7,0-0.7,0.7-0.7
				c0.4,0,2.4,0,7.9,0h0.9c1.1,0,1.9-0.8,1.9-1.9v-8.2c0-3.3,0-5.4-0.3-7.4c-0.1-1.2,0.8-2.1,2-2.1c1.7,0.1,3.3,0.1,4.8,0.4
				c0.5,0,1.1,0.3,1.1,0.7c0,0.5,0,0.8-0.3,1.3c-0.4,0.8-0.5,2.4-0.5,7v8.5c0,1.1,0.8,1.9,1.9,1.9h2.1c5.7,0,7.7,0,7.9,0
				c0.7,0,0.7,0,0.7,0.7v5c0,0.7,0,0.7-0.7,0.7c-0.4,0-2.4,0-7.9,0h-2c-1.1,0-1.9,0.8-1.9,1.9v19.7c0,1.1,0.8,1.9,1.9,1.9h4
				c6.1,0,8.1-0.1,8.5-0.1c0.7,0,0.8,0,0.8,0.7v5c0,0.7,0,0.7-0.8,0.7c-0.4,0-2.4-0.1-8.5-0.1h-18v0.1H344.5z"/>
			<path fill="#054B68" d="M397.3,437.9c0-1.5-1.6-2.4-2.9-1.6c-2.8,1.9-5.6,3.4-8.6,4.9c-0.8,0.4-1.2,0.5-1.6,0.5s-0.7-0.4-1.2-1.6
				c-0.4-0.8-0.8-1.6-1.3-2.4c-0.7-1.1-0.4-2.4,0.8-2.8c9.9-4.4,17.3-10.7,22.1-17.5c0.8-1.1,1.2-2,1.7-2.8c0.4-0.8,1.2-1.2,2-1.1
				c2,0.3,3.8,0.7,5.4,1.2c0.8,0.1,1.2,0.4,1.2,0.9c0,0.4-0.1,0.8-0.7,1.1c-0.4,0.1-0.7,0.4-0.9,0.5c6.6,8.2,14.6,13.5,24.6,17.3
				c1.1,0.4,1.6,1.7,0.9,2.6c-0.5,0.9-1.1,1.9-1.5,2.9c-0.4,1.2-0.7,1.6-1.1,1.6c-0.3,0-0.8-0.1-1.5-0.5c-3.2-1.5-6.4-3-9.3-4.9
				c-1.2-0.8-2.8,0.1-2.8,1.6v1.2c0,0.7,0,0.7-0.7,0.7c-0.4,0-2.1-0.1-7.1-0.1H405c-5,0-6.7,0.1-7.1,0.1c-0.7,0-0.7,0-0.7-0.7v-1.3
				h0.1V437.9z M393.2,451.6c-6,0-7.9,0.1-8.3,0.1c-0.7,0-0.8,0-0.8-0.7v-4.8c0-0.7,0-0.7,0.8-0.7c0.4,0,2.4,0.1,8.3,0.1h33.9
				c6,0,7.9-0.1,8.3-0.1c0.7,0,0.8,0,0.8,0.7v4.8c0,0.7,0,0.7-0.8,0.7c-0.4,0-2.4-0.1-8.3-0.1h-18.4c-0.8,0-1.5,0.4-1.7,1.2
				c-1.1,2.6-2.2,5.2-3.6,7.8c-0.7,1.3,0.3,2.8,1.9,2.8c4.2-0.3,8.6-0.7,12.7-1.1c1.5-0.1,2.2-2,1.2-3c-0.8-0.9-1.5-1.7-2.4-2.6
				c-0.4-0.5-0.4-0.8,0.4-1.2l4.1-2.1c0.7-0.4,0.9-0.3,1.3,0.1c4.4,4.5,7.9,9.1,11.8,14.7c0.3,0.5,0.3,0.8-0.3,1.2l-4.4,2.9
				c-0.4,0.3-0.5,0.4-0.8,0.4c-0.1,0-0.3-0.1-0.5-0.4c-0.8-1.5-1.7-2.8-2.5-4c-0.4-0.5-1.1-0.9-1.7-0.8c-10.3,1.3-22.8,2.2-33.2,3
				c-1.1,0-1.9,0.3-2.2,0.5c-0.3,0.3-0.7,0.4-1.1,0.4s-0.8-0.3-0.9-0.9c-0.4-1.3-0.7-2.8-0.9-4.2c-0.3-1.2,0.7-2.2,1.9-2.2
				c1.5,0,2.9,0,4.6-0.1c0.7,0,1.3,0,2,0c1.9-3.4,3.3-6.6,4.6-9.7c0.5-1.2-0.4-2.6-1.7-2.6L393.2,451.6L393.2,451.6z M414.9,433.8
				c0.7,0,1.2,0,1.7,0c1.7,0,2.5-2.1,1.2-3.3c-2.4-2-4.5-4.2-6.5-6.6c-0.8-0.9-2.1-0.9-2.9,0c-2,2.4-4.1,4.6-6.4,6.6
				c-1.3,1.2-0.5,3.3,1.2,3.3c0.5,0,1.2,0,2,0H414.9z"/>
		</g>
		<g>
			<path fill="#054B68" d="M488,433.6c0-1.1-0.8-1.9-1.9-1.9h-20.2c-4.4,0-7.3,0.1-9.5,0.4c-0.7,0-0.9-0.3-0.9-1.1
				c-0.1-1.2-0.3-3-0.3-4.6c0-1.1,0.9-2,2-2c2.6,0.3,4.9,0.3,8.6,0.3h18.9c3.3,0,6.6-0.1,10.1-0.3c1.1,0,1.3,0.3,1.3,1.1
				c0,3.3-0.1,6.6-0.1,10.1v15.2c0,4.6,0.1,9.7,0.3,11.5c0,0.7-0.3,0.8-1.2,0.9c-1.7,0.1-3.8,0.1-5.6,0c-1.1,0-1.2-0.1-1.2-1.1v-2.5
				h-21.8c-4,0-7.4,0.1-10.5,0.3c-0.5,0-0.8-0.3-0.9-0.9c-0.1-1.2-0.3-2.8-0.3-4.6c0-1.1,0.9-2,2-2c2.6,0.1,5.7,0.3,9.7,0.3h19.8
				c1.1,0,1.9-0.8,1.9-1.9v-17.2L488,433.6L488,433.6z"/>
			<path fill="#054B68" d="M516.9,421.7c0.3-0.3,0.5-0.5,0.9-0.5c0.3,0,0.5,0.1,0.8,0.3c3.2,1.7,8.5,5.6,12.2,9
				c0.4,0.4,0.5,0.7,0.5,0.9c0,0.3-0.1,0.5-0.4,0.8c-0.9,1.3-3,3.8-4,4.8c-0.3,0.3-0.5,0.5-0.8,0.5s-0.5-0.1-0.8-0.5
				c-3.3-3.4-7.1-6.6-11.1-9.3c-0.9-0.7-1.2-2-0.4-2.8C515.1,423.8,516.2,422.6,516.9,421.7z M522.5,455.1c7.8-4,11.9-6.6,18.3-11.8
				c6.5-5.3,10.5-9,14.8-14c1.1-1.2,2.9-0.8,3.3,0.8c0.3,1.3,0.7,2.4,1.1,3.4c0.1,0.4,0.3,0.8,0.3,1.2c0,0.5-0.3,1.1-1.1,1.9
				c-3.3,4-8.9,9-14.6,13.5c-5.3,4.1-10.6,7.7-19.2,12.4c-2.9,1.7-3.7,2.4-4.2,2.9c-0.4,0.4-0.8,0.7-1.2,0.7c-0.3,0-0.7-0.3-1.1-0.7
				c-1.2-1.3-2.5-3-3.7-4.9c-0.7-1.1-0.1-2.5,1.1-2.8C518.3,457.1,520,456.5,522.5,455.1z"/>
			<path fill="#054B68" d="M577.4,421.4c0.3-0.3,0.5-0.4,0.9-0.4c0.3,0,0.5,0.1,0.8,0.4c3.6,2.8,7.4,7,10.2,11.1
				c0.3,0.3,0.3,0.5,0.3,0.8s-0.1,0.5-0.4,0.9c-1.3,1.2-3.3,2.9-4.9,3.8c-0.1,0.1-0.4,0.3-0.5,0.3c-0.3,0-0.7-0.3-0.9-0.7
				c-2.1-3.6-5.2-7.4-8.9-10.7c-0.8-0.8-0.8-2.1,0.1-2.8C575.4,422.9,576.8,421.8,577.4,421.4z M617.6,423.5
				c0.5,0.3,0.8,0.7,0.8,1.1c0,0.5-0.3,1.1-0.7,1.5c-1.1,1.2-1.6,2.8-2.1,4.1c-3.8,9.7-8.1,17.2-11.9,22c-4.8,6.1-11.1,12-16.3,15.2
				c-0.5,0.3-0.9,0.5-1.3,0.5s-0.9-0.3-1.5-0.7c-0.7-0.5-1.6-1.1-2.5-1.5c-1.3-0.7-1.5-2.4-0.3-3.3c6.4-4.4,11-8.6,15.1-13.9
				c4.4-5.4,8.5-13.1,10.8-20c0.8-2.4,1.2-4.1,1.5-6.1c0.1-1.2,1.3-2,2.5-1.6C614.2,421.7,616.3,422.6,617.6,423.5z"/>
			<path fill="#054B68" d="M644.4,446.7c-6.4,0-8.7,0.8-9.4,0.8c-0.8,0-1.3-0.4-1.5-1.3c-0.3-1.1-0.5-3-0.8-5.3
				c-0.1-1.2,0.9-2.1,2.1-2c3.2,0.4,6.2,0.4,11.4,0.4h20.6c4.8,0,9.7-0.1,14.6-0.1c0.9,0,1.2,0.1,1.2,0.9c0.1,1.9,0.1,4.1,0,6
				c0,0.8-0.3,1.1-1.2,0.9c-4.8,0-9.5-0.1-14.2-0.1h-22.9v-0.2H644.4z"/>
			<path fill="#054B68" d="M698.2,433.2c0.3-0.4,0.7-0.8,1.2-0.7c4.8,1.6,8.6,3.6,12.2,6.2c0.4,0.3,0.7,0.5,0.7,0.9
				c0,0.1-0.1,0.4-0.3,0.7c-0.7,1.7-1.7,3.3-2.8,4.8c-0.3,0.4-0.5,0.7-0.8,0.7s-0.4-0.1-0.8-0.4c-3.4-2.5-7-4.5-10.8-6.1
				c-1.1-0.4-1.5-1.7-0.8-2.6C697,435.2,697.7,434,698.2,433.2z M708.5,456.7c6.1-3.2,11.2-6.2,17.5-11c4.4-3.4,10.2-8.5,15.7-14.8
				c0.9-1.1,2.8-0.7,3.2,0.7c0.3,1.1,0.7,2.1,1.1,3.4c0.1,0.4,0.3,0.8,0.3,1.2c0,0.5-0.1,0.9-0.7,1.5c-6,6.4-9.9,9.8-16.1,14.7
				c-5.6,4.2-11.4,7.8-19.1,11.9c-1.6,0.8-3,1.6-3.7,2.1c-0.4,0.4-0.7,0.5-1.1,0.5s-0.9-0.3-1.3-0.8c-0.9-0.9-2.1-2.5-3.2-4.2
				c-0.7-1.1-0.1-2.5,1.1-2.9C704.2,458.9,706,458.1,708.5,456.7z M705.9,418.6c0.4-0.8,0.8-0.9,1.6-0.5c4.1,1.6,8.5,4,11.9,7
				c0.4,0.3,0.5,0.5,0.5,0.8s0,0.5-0.3,0.8c-0.9,1.6-2.1,3.6-3.2,4.8c-0.1,0.3-0.4,0.4-0.7,0.4s-0.7-0.1-0.9-0.4
				c-2.8-2.4-6.7-5-10.5-6.9c-0.9-0.5-1.3-1.7-0.7-2.6C704.4,420.9,705.2,419.7,705.9,418.6z"/>
			<path fill="#054B68" d="M770.9,427.4c-3.6,0-7.5,0.3-11.2,0.5c-0.8,0-1.1-0.4-1.2-0.9c-0.4-1.2-0.7-2.9-0.8-4.6
				c-0.1-1.2,0.8-2.2,2-2.1c3.3,0.3,6.5,0.3,10.6,0.3h27.3c2.6,0,3.7-0.1,4.4-0.4c0.3-0.1,0.9-0.4,1.2-0.4c0.5,0,1.1,0.4,1.5,0.9
				c1.5,1.2,2.6,2.5,3.8,4c0.3,0.4,0.5,0.8,0.5,1.2c0,0.5-0.3,0.9-0.9,1.3c-0.7,0.5-1.2,1.2-1.7,1.9c-3,4.5-6.9,8.9-11.1,12.3
				c-0.4,0.4-0.8,0.5-1.3,0.5s-1.1-0.3-1.6-0.7c-0.8-0.7-1.6-1.1-2.4-1.5c-1.2-0.7-1.3-2.2-0.3-3.2c2.5-2,4.5-3.8,6.4-6
				c1.1-1.2,0.1-3-1.5-3H771v-0.1H770.9z M774.4,452.1c2.4-4.5,3.2-8.9,3.2-15c0-1.3,0-2.5-0.1-3.6c-0.1-1.2,0.9-2.2,2.1-2.1
				c2.2,0.3,4.4,0.7,5.7,0.9c0.8,0.1,1.1,0.7,1.1,1.2c0,0.4-0.1,0.8-0.3,1.2c-0.4,0.9-0.5,1.6-0.5,2.6c-0.1,6.2-0.8,11.8-3.7,17.5
				c-2.5,4.8-6.4,9.3-11.5,12.7c-0.5,0.4-1.2,0.7-1.7,0.7c-0.4,0-0.9-0.1-1.3-0.5c-0.8-0.7-1.6-1.2-2.5-1.9
				c-1.3-0.7-1.3-2.5-0.1-3.2C769.1,459.4,772,456.3,774.4,452.1z"/>
			<path fill="#054B68" d="M843.2,419.7c0.4,0.3,0.8,0.7,0.8,1.1c0,0.3-0.1,0.8-0.7,1.3c-1.2,1.5-1.9,3.4-2.6,5.3
				c-3.2,8.7-6.2,17.2-9.8,25.8c-0.5,1.3,0.5,2.6,1.9,2.6c6.7-0.5,11.2-1.1,16.4-1.7c1.3-0.1,2.1-1.7,1.3-2.9c-1.2-2-2.6-4.1-4.1-6
				c-0.7-0.9-0.5-2.2,0.5-2.8c1.2-0.7,2.4-1.3,3.6-2c0.7-0.4,1.1-0.1,1.6,0.4c4.9,5.8,9.7,13.8,12.8,20.8c0.1,0.3,0.3,0.5,0.3,0.8
				c0,0.4-0.3,0.8-0.8,1.1c-1.6,1.1-3.2,1.9-4.8,2.6c-0.3,0.1-0.5,0.1-0.8,0.1c-0.4,0-0.7-0.3-0.9-0.9c-0.5-1.3-1.1-2.5-1.6-3.8
				c-0.4-0.8-1.2-1.2-2-1.1c-9.7,1.5-18.9,2.4-28.7,3.4c-4.2,0.4-6,0.8-7.4,1.6c-0.8,0.4-1.6,0.3-1.9-0.7c-0.4-0.8-1.1-3-1.7-5.8
				c-0.3-1.2,0.7-2.4,1.9-2.4c1.3,0,2.8,0,4.1,0c0.8,0,1.5-0.5,1.7-1.2c4.2-10.8,7.4-20,10.6-30.3c0.8-2.5,1.3-4.4,1.6-6.5
				c0.1-1.2,1.3-1.9,2.4-1.6C839.5,417.8,841.6,418.6,843.2,419.7z"/>
		</g>
	</g>
	<g>
		<g>
			<g>
				<path fill="#054B68" d="M38.4,297.4c0.4-0.3,0.7-0.3,0.9,0c0.8,0.7,2,1.9,2.9,3c0.3,0.4,0.1,0.5-0.3,0.9l-1.1,0.7
					c2.6,0,3.7-0.1,4-0.1c0.5,0,0.5,0,0.5,0.4v3c0,0.4,0,0.5-0.5,0.5c-0.3,0-1.9-0.1-6.2-0.1h-4.5c0.4,3.2,0.9,6.1,2,8.7
					c0.9-1.3,1.6-2.8,2.2-4.1c0.3-0.8,0.7-1.9,0.9-2.9c1.5,0.4,2.6,0.9,3.7,1.5c0.4,0.1,0.5,0.4,0.5,0.7c0,0.3-0.1,0.4-0.4,0.7
					c-0.3,0.3-0.5,0.5-0.9,1.3c-1.2,2.6-2.5,4.9-4.2,7.1c1.2,1.9,2.6,2.9,3.4,2.9c1.2,0,1.6-1.3,2.1-4.5c0.7,0.7,1.6,1.2,2.4,1.6
					c0.9,0.4,1.2,0.7,1.2,1.1c0,0.3-0.1,0.5-0.3,1.1c-1.2,3.8-2.6,5.6-5.3,5.6c-2.2,0-4.5-1.6-6.5-4.2c-1.1,1.1-2.2,2.1-3.6,3
					c-0.5,0.4-0.9,0.7-1.1,0.7c-0.3,0-0.5-0.3-1.1-0.9c-0.5-0.7-0.9-1.1-1.6-1.5c0,0.3-0.1,0.3-0.5,0.3c-0.3,0-1.2-0.1-4-0.1h-4.4
					c-2.8,0-3.6,0.1-4,0.1c-0.5,0-0.5,0-0.5-0.5c0-0.3,0.1-1.1,0.1-2.9v-3c0-2-0.1-2.6-0.1-2.9c0-0.4,0-0.5,0.5-0.5
					c0.3,0,1.2,0.1,4,0.1H23c2.8,0,3.6-0.1,4-0.1s0.5,0,0.5,0.5c0,0.3-0.1,1.1-0.1,2.9v3c0,1.5,0,2.1,0,2.5c2-1.2,3.7-2.6,5.2-4.1
					c-1.7-3.6-2.6-8.2-3.3-12.8H13.1v3c0,2.5-0.3,6.9-0.8,9.3c-0.7,2.9-1.5,5.4-3,8.1c-0.4,0.7-0.5,0.9-0.8,0.9
					c-0.1,0-0.4-0.3-0.9-0.7c-1.1-0.9-2-1.6-2.9-2c1.9-2.5,2.8-4.6,3.3-7.4c0.7-2.5,0.9-5.6,0.9-9.9c0-3.3-0.1-4.8-0.1-5
					c0-0.4,0-0.4,0.5-0.4c0.3,0,1.9,0.1,6.2,0.1h13.9c-0.1-1.7-0.3-3.4-0.5-4.8c1.6,0,3.3,0.1,4.6,0.3c0.4,0,0.7,0.3,0.7,0.5
					c0,0.3-0.1,0.7-0.3,0.8c-0.1,0.5-0.1,1.5,0,3h4.5c-0.7-0.9-1.6-1.9-2.1-2.4c-0.1-0.1-0.3-0.3-0.3-0.4c0-0.1,0.1-0.3,0.4-0.4
					L38.4,297.4z M5.6,336.3c-0.6-0.2-0.6-0.5-0.3-0.9c1.9-2.1,3.6-5,4.6-7.7c0.1-0.5,0.3-0.5,0.9-0.3l2.8,1.2
					c0.7,0.3,0.7,0.4,0.5,0.8c-1.2,3-2.8,5.8-4.8,8.3c-0.3,0.4-0.4,0.4-0.9,0.1L5.6,336.3z M23.8,308c2.8,0,3.8-0.1,4.2-0.1
					c0.4,0,0.4,0,0.4,0.5v2.6c0,0.5,0,0.5-0.4,0.5c-0.3,0-1.5-0.1-4.2-0.1H19c-2.8,0-3.8,0.1-4.1,0.1c-0.5,0-0.5,0-0.5-0.5v-2.6
					c0-0.5,0-0.5,0.5-0.5c0.3,0,1.3,0.1,4.1,0.1H23.8z M20.5,332.8c0,0.9,0.1,1.6,0.8,1.9c0.8,0.4,2.8,0.4,4.6,0.4
					c3.4,0,4.6,0,5.7-0.5c0.8-0.4,1.2-1.7,1.2-4c0.9,0.7,2,1.1,3.3,1.3c1.2,0.4,1.2,0.4,1.1,1.6c-0.4,2.5-1.2,3.8-2.5,4.5
					c-1.7,0.9-4.2,1.1-9.1,1.1c-4.1,0-6.6-0.3-8.1-0.9c-1.1-0.7-1.7-1.6-1.7-4v-4.1c0-1.3,0-2.1-0.3-3.6c1.6,0,3.2,0.1,4.6,0.3
					c0.5,0.1,0.8,0.3,0.8,0.4c0,0.3,0,0.4-0.3,0.8c-0.1,0.4-0.3,0.9-0.3,1.7v3.2L20.5,332.8L20.5,332.8z M23.9,317h-5.4v3.4h5.6V317
					H23.9z M25.4,325c0.5-0.3,0.7-0.3,0.9,0c1.7,1.5,2.9,2.8,4.4,4.6c0.3,0.3,0.3,0.4-0.1,0.8l-2.4,1.9c-0.3,0-0.4,0.1-0.5,0.1
					s-0.3-0.1-0.4-0.3c-1.2-1.9-2.5-3.3-4-4.8c-0.4-0.4-0.4-0.4,0.1-0.8L25.4,325z M39.7,326.8c0.3-0.1,0.4-0.3,0.5-0.3
					s0.3,0.1,0.4,0.3c2.1,2.4,4,4.9,5.4,7.7c0.3,0.4,0.3,0.5-0.4,0.9l-2.9,1.7c-0.7,0.4-0.8,0.4-0.9,0c-1.3-3-2.8-5.6-4.9-8.1
					c-0.4-0.4-0.3-0.5,0.3-0.8L39.7,326.8z"/>
				<path fill="#054B68" d="M55.7,307.5c0.7,0.1,0.7,0.3,0.7,0.8c-0.1,3.8-0.5,7.3-1.5,10.2c-0.1,0.5-0.3,0.4-0.8,0.1l-2.4-0.9
					c-0.7-0.3-0.7-0.5-0.5-0.9c0.8-2.5,1.3-5.7,1.5-9.4c0-0.5,0.1-0.4,0.8-0.3L55.7,307.5z M57.6,304.3c0-3.3,0-4.8-0.4-7
					c1.7,0,3.3,0.1,4.9,0.3c0.4,0,0.8,0.3,0.8,0.5c0,0.3-0.1,0.5-0.3,0.9c-0.3,0.7-0.3,1.7-0.3,5.2v26.9c0,5.3,0.1,7.9,0.1,8.1
					c0,0.5,0,0.5-0.5,0.5h-3.8c-0.5,0-0.5,0-0.5-0.5c0-0.3,0.1-2.9,0.1-8.1L57.6,304.3L57.6,304.3L57.6,304.3z M64.7,305.1
					c0.5-0.1,0.7-0.1,0.8,0.3c0.7,1.7,1.3,3.8,1.9,5.7c0.9-2.5,1.7-5.2,2.1-7.5c0.1-0.8,0.3-2,0.3-3.3c1.6,0.3,3.6,0.8,4.5,1.2
					c0.7,0.3,0.8,0.4,0.8,0.7c0,0.3-0.1,0.4-0.3,0.7c-0.3,0.4-0.4,0.9-0.5,1.5c-0.3,1.1-0.5,2.2-0.8,3.4h4.2v-3.3
					c0-3.3-0.1-4.8-0.4-7c1.7,0,3.4,0.1,5,0.3c0.5,0,0.8,0.3,0.8,0.5c0,0.3-0.1,0.7-0.3,0.9c-0.3,0.7-0.3,1.7-0.3,5.2v3.4h3.8
					c4.1,0,5.6-0.1,5.8-0.1c0.5,0,0.5,0,0.5,0.5v3.6c0,0.5,0,0.5-0.5,0.5c-0.3,0-1.7-0.1-5.8-0.1h-3.8v8.1H85c4.2,0,5.6-0.1,5.8-0.1
					c0.4,0,0.5,0,0.5,0.5v3.6c0,0.5,0,0.5-0.5,0.5c-0.3,0-1.7-0.1-5.8-0.1h-2.5v9.3h4.6c4.5,0,6.1-0.1,6.4-0.1c0.5,0,0.5,0,0.5,0.5
					v3.6c0,0.5,0,0.5-0.5,0.5c-0.3,0-1.9-0.1-6.4-0.1H71.8c-4.5,0-6.1,0.1-6.4,0.1c-0.5,0-0.5,0-0.5-0.5v-3.9c0-0.5,0-0.5,0.5-0.5
					c0.3,0,1.9,0.1,6.4,0.1h5.8v-9.1h-2.8c-4.2,0-5.6,0.1-5.8,0.1c-0.5,0-0.5,0-0.5-0.5v-3.6c0-0.5,0-0.5,0.5-0.5
					c0.3,0,1.7,0.1,5.8,0.1h2.8v-8.1H72c-0.7,1.9-1.5,3.7-2.2,5.3c-0.4,0.7-0.5,0.9-0.8,0.9c-0.1,0-0.4-0.1-0.9-0.4
					c-1.1-0.7-2.4-1.2-3.3-1.6c0.8-1.2,1.6-2.6,2.1-4.2l-2,0.7c-0.7,0.3-0.8,0.3-0.8-0.3c-0.4-2.1-0.9-4.2-1.7-6.1
					c-0.1-0.5-0.1-0.7,0.4-0.8L64.7,305.1z"/>
			</g>
		</g>
		<g>
			<g>
				<path fill="#054B68" d="M132.7,324.2c-0.3,1.9-0.7,3.6-1.1,5c-0.7,2.6-1.9,5.2-3.2,7.3c-0.3,0.5-0.5,0.8-0.8,0.8
					s-0.5-0.3-0.9-0.8c-0.9-1.1-1.7-2-2.6-2.5c2-2.8,3-5.3,3.7-8.1c0.7-2.4,1.1-5.6,1.1-9.5c0-3.4,0-4.6,0-5.2c0-0.4,0-0.5,0.4-0.5
					c0.3,0,1.6,0.1,5.3,0.1h7.5c3.7,0,5-0.1,5.3-0.1c0.5,0,0.5,0,0.5,0.5c0,0.3-0.1,1.2-0.1,3.7v5c0,2.5,0.1,3.4,0.1,3.7
					c0,0.5,0,0.5-0.5,0.5c-0.3,0-1.6-0.1-5.3-0.1h-9.4V324.2z M133.6,306.8c-1.9,1.7-3.8,3.2-5.8,4.2c-0.5,0.3-0.8,0.4-1.1,0.4
					c-0.3,0-0.5-0.4-0.8-1.1c-0.5-1.3-1.1-2.1-1.7-2.9c4.8-2.2,8.5-5.3,10.8-8.6c0.7-0.8,1.1-1.6,1.3-2.4c1.6,0.3,2.8,0.5,4.2,0.8
					c0.4,0.1,0.7,0.3,0.7,0.7c0,0.3-0.1,0.4-0.4,0.7c3,3.4,5.8,5,10.1,6.9c-0.7,0.9-1.2,1.9-1.6,2.9c-0.3,0.8-0.4,1.1-0.7,1.1
					s-0.5-0.1-1.1-0.4c-1.3-0.8-2.6-1.6-3.8-2.5v2.2c0,0.4,0,0.5-0.5,0.5c-0.3,0-0.8-0.1-3.2-0.1h-2.6c-2.2,0-2.9,0.1-3.2,0.1
					c-0.5,0-0.5,0-0.5-0.5L133.6,306.8L133.6,306.8L133.6,306.8z M148.9,332.9c0,4,0.1,5.2,0.1,5.4c0,0.4,0,0.4-0.5,0.4H145
					c-0.5,0-0.5,0-0.5-0.4v-1.1H137v1.3c0,0.5,0,0.5-0.5,0.5h-3.3c-0.5,0-0.5,0-0.5-0.5c0-0.3,0.1-1.3,0.1-5.4v-2.6
					c0-2.1-0.1-3-0.1-3.4c0-0.5,0-0.5,0.5-0.5c0.3,0,1.3,0.1,4.9,0.1h5.6c3.4,0,4.5-0.1,4.9-0.1s0.5,0,0.5,0.5
					c0,0.3-0.1,1.2-0.1,2.9L148.9,332.9L148.9,332.9z M143.6,319h-10.3l-0.1,1.9h10.5L143.6,319L143.6,319z M133.4,314.1v1.9h10.2
					v-1.9H133.4z M140,305.6c1.5,0,2.1,0,2.6,0c-1.5-1.2-2.8-2.6-4.1-4.2c-1.1,1.5-2.4,2.9-3.7,4.2c0.4,0,1.2,0,2.5,0H140z
					 M136.9,330v3.8h7.5V330H136.9z M151.9,307.6c0-3,0-4.6-0.3-6.9c1.7,0,3,0.1,4.8,0.3c0.4,0,0.7,0.3,0.7,0.5
					c0,0.2-0.1,0.7-0.3,1.1c-0.1,0.7-0.1,1.6-0.1,4.9v12.8c0,4,0,5.8,0,6.1c0,0.5,0,0.5-0.4,0.5h-3.8c-0.4,0-0.5,0-0.5-0.5
					c0-0.3,0.1-2.1,0.1-6.1v-12.7L151.9,307.6L151.9,307.6z M165.3,323.5c0,3.2,0.1,6.9,0.1,9.3c0,2.2-0.3,3.6-1.7,4.5
					c-1.3,0.8-2.6,1.2-7,1.2c-1.5,0-1.5,0-1.7-1.5c-0.3-1.3-0.8-2.6-1.5-3.6c1.9,0.1,3.2,0.3,5,0.3c1.5,0,2-0.4,2-1.9V304
					c0-3,0-4.5-0.4-6.6c1.7,0,3.3,0.1,4.9,0.3c0.4,0,0.7,0.3,0.7,0.5c0,0.4-0.1,0.7-0.3,1.1c-0.3,0.5-0.3,1.6-0.3,4.6v19.6
					L165.3,323.5L165.3,323.5z"/>
				<path fill="#054B68" d="M183,328.9c0.9,1.9,1.9,3,3.8,3.8c1.6,0.7,4.5,0.9,8.6,0.9c6,0,13.1-0.3,20-0.9
					c-0.7,0.9-1.1,2.2-1.2,3.6c-0.3,1.5-0.3,1.5-1.7,1.6c-5.8,0.3-11.5,0.4-16.3,0.4s-8.6-0.4-10.8-1.3c-2.1-0.9-3.4-2.1-4.5-4.1
					c-1.5,1.5-3,2.8-4.6,4.1c-0.5,0.4-0.8,0.7-0.9,0.9c-0.3,0.3-0.4,0.4-0.7,0.4c-0.1,0-0.4-0.1-0.7-0.5c-0.7-1.2-1.2-2.6-1.9-4.4
					c1.2-0.5,1.9-0.9,2.8-1.5c1.3-0.8,2.6-1.9,3.8-2.9v-10.3h-2.2c-2.5,0-3,0.1-3.3,0.1c-0.5,0-0.5,0-0.5-0.5v-3.6
					c0-0.5,0-0.5,0.5-0.5c0.3,0,0.9,0.1,3.3,0.1h2.9c2.5,0,3.2-0.1,3.4-0.1c0.4,0,0.5,0,0.5,0.5c0,0.3-0.1,1.6-0.1,4.4v9.8H183z
					 M176.2,298.4c0.3-0.1,0.4-0.3,0.5-0.3s0.3,0.1,0.4,0.3c2.1,2,4.1,4.2,5.8,6.9c0.3,0.4,0.3,0.5-0.3,0.9l-2.6,2
					c-0.3,0.3-0.4,0.3-0.5,0.3s-0.3-0.1-0.4-0.4c-1.7-2.8-3.7-5.3-5.7-7.1c-0.3-0.4-0.3-0.4,0.3-0.8L176.2,298.4z M191.6,315.4
					c-4.5,0-6.1,0.1-6.4,0.1c-0.5,0-0.5,0-0.5-0.4v-3.3c0-0.5,0-0.5,0.5-0.5c0.3,0,1.9,0.1,6.4,0.1h5.2v-4.6h-6
					c-0.5,0.9-1.2,2-1.9,2.9c-0.4,0.7-0.7,0.9-0.9,0.9s-0.5-0.3-1.1-0.7c-0.9-0.8-2-1.5-2.8-1.7c2.4-2.6,3.7-5.3,4.6-7.3
					c0.4-0.9,0.7-2,0.8-2.9c1.6,0.3,2.9,0.8,4.1,1.2c0.4,0.1,0.7,0.3,0.7,0.7c0,0.3-0.1,0.4-0.4,0.7c-0.3,0.3-0.5,0.8-0.9,1.6
					l-0.3,0.7h4v-0.8c0-2.1,0-3.2-0.3-4.9c1.7,0,3.3,0.1,4.8,0.3c0.4,0,0.7,0.3,0.7,0.5c0,0.3,0,0.5-0.3,0.8
					c-0.1,0.4-0.3,1.2-0.3,3.2v1.1h3.7c4.1,0,5.4-0.1,5.7-0.1c0.4,0,0.5,0,0.5,0.5v3.2c0,0.4,0,0.5-0.5,0.5c-0.3,0-1.6-0.1-5.7-0.1
					h-3.7v4.6h5.4c4.5,0,6.1-0.1,6.4-0.1c0.5,0,0.5,0,0.5,0.5v3.3c0,0.4,0,0.4-0.5,0.4c-0.3,0-1.9-0.1-6.4-0.1h-15.2L191.6,315.4
					L191.6,315.4z M203.8,318.2c4.1,0,5.6-0.1,5.8-0.1c0.4,0,0.5,0,0.5,0.5c0,0.3-0.1,1.2-0.1,3.6v4.5c0,2.4,0.1,3.3,0.1,3.6
					c0,0.4,0,0.5-0.5,0.5c-0.3,0-1.7-0.1-5.8-0.1h-9.1c-4.1,0-5.6,0.1-5.8,0.1c-0.4,0-0.5,0-0.5-0.5c0-0.3,0.1-1.2,0.1-3.6v-4.5
					c0-2.4-0.1-3.3-0.1-3.6c0-0.4,0-0.5,0.5-0.5c0.3,0,1.7,0.1,5.8,0.1H203.8z M205.3,322.2H193v4.5h12.3V322.2z"/>
				<path fill="#054B68" d="M223.3,307c0.7,0.1,0.7,0.3,0.7,0.8c-0.1,3.8-0.5,7.3-1.5,10.2c-0.1,0.5-0.3,0.4-0.8,0.1l-2.4-0.9
					c-0.7-0.3-0.7-0.5-0.5-0.9c0.8-2.5,1.3-5.7,1.5-9.4c0-0.4,0.1-0.4,0.8-0.3L223.3,307z M225.2,303.6c0-3.3,0-4.8-0.4-7
					c1.7,0,3.3,0.1,4.9,0.3c0.4,0,0.8,0.3,0.8,0.5c0,0.3-0.1,0.5-0.3,0.9c-0.3,0.7-0.3,1.7-0.3,5.2v26.9c0,5.3,0.1,7.9,0.1,8.1
					c0,0.5,0,0.5-0.5,0.5h-3.8c-0.5,0-0.5,0-0.5-0.5c0-0.3,0.1-2.9,0.1-8.1v-26.7h-0.1V303.6z M232.3,304.6c0.5-0.1,0.7-0.1,0.8,0.3
					c0.7,1.7,1.3,3.8,1.9,5.7c0.9-2.5,1.7-5.2,2.1-7.5c0.1-0.8,0.3-2,0.3-3.3c1.6,0.3,3.6,0.8,4.5,1.2c0.7,0.3,0.8,0.4,0.8,0.7
					c0,0.3-0.1,0.4-0.3,0.7c-0.3,0.4-0.4,0.9-0.5,1.5c-0.3,1.1-0.5,2.2-0.8,3.4h4.2V304c0-3.3-0.1-4.8-0.4-7c1.7,0,3.4,0.1,5,0.3
					c0.5,0,0.8,0.3,0.8,0.5c0,0.3-0.1,0.7-0.3,0.9c-0.3,0.7-0.3,1.7-0.3,5.2v3.4h3.8c4.1,0,5.6-0.1,5.8-0.1c0.4,0,0.5,0,0.5,0.5v3.6
					c0,0.4,0,0.5-0.5,0.5c-0.3,0-1.7-0.1-5.8-0.1h-3.8v8.1h2.5c4.2,0,5.6-0.1,5.8-0.1c0.4,0,0.5,0,0.5,0.5v3.6c0,0.4,0,0.5-0.5,0.5
					c-0.3,0-1.7-0.1-5.8-0.1h-2.5v9.1h4.6c4.5,0,6.1-0.1,6.4-0.1c0.5,0,0.5,0,0.5,0.5v3.6c0,0.5,0,0.5-0.5,0.5
					c-0.3,0-1.9-0.1-6.4-0.1h-15.3c-4.5,0-6.1,0.1-6.4,0.1c-0.4,0-0.5,0-0.5-0.5v-3.6c0-0.4,0-0.5,0.5-0.5c0.3,0,1.9,0.1,6.4,0.1
					h5.8v-9.1h-2.8c-4.2,0-5.6,0.1-5.8,0.1c-0.4,0-0.5,0-0.5-0.5v-3.6c0-0.5,0-0.5,0.5-0.5c0.3,0,1.7,0.1,5.8,0.1h2.8v-8.1h-5.7
					c-0.7,1.9-1.5,3.7-2.2,5.3c-0.4,0.7-0.5,0.9-0.8,0.9c-0.1,0-0.4-0.1-0.9-0.5c-1.1-0.7-2.4-1.2-3.3-1.6c0.8-1.2,1.6-2.6,2.1-4.2
					l-2,0.7c-0.7,0.3-0.8,0.3-0.8-0.3c-0.4-2.1-0.9-4.2-1.7-6c-0.1-0.5-0.1-0.7,0.4-0.8L232.3,304.6z"/>
			</g>
		</g>
		<g>
			<g>
				<path fill="#054B68" d="M293.6,353.1v2.5h-11.8v37.8H279v-40.3H293.6z"/>
				<path fill="#054B68" d="M317.4,356.3c0.5,0.1,0.8,0.5,0.8,0.8c0,0.3,0,0.5-0.3,0.8c-0.4,0.5-0.5,1.2-0.7,1.7
					c-0.1,0.8-0.3,1.6-0.4,2.4c4.2-0.4,7.5-0.9,12-2c0.5-0.1,0.7,0,0.8,0.4c0.3,0.9,0.4,2.1,0.4,3.2c0,0.7-0.4,0.8-0.9,0.9
					c-6.1,1.2-9,1.6-13.1,2c-0.1,2-0.3,3-0.3,4.6c1.9-0.7,4.8-0.9,7.1-1.1c0.3-0.8,0.8-2.1,0.8-3.4c1.7,0.5,3.4,1.2,4.1,1.7
					c0.5,0.4,0.8,0.8,0.8,1.1c0,0.1-0.1,0.4-0.3,0.5c-0.3,0.3-0.4,0.5-0.7,0.9c6,1.6,9.5,5.6,9.5,11.2c0,6.7-5.6,11.1-12.8,13.1
					c-1.1,0.3-1.6,0.1-2-0.9c-0.3-0.7-1.2-1.6-2.8-2.9c3.3-0.7,6.9-2.1,8.6-3.4c2.2-1.6,3.7-3.6,3.7-7c0-3.7-2.6-6-5.7-6.7
					c-2.6,5.2-5.4,8.7-8.7,12.2c0.3,0.8,0.5,1.3,0.8,2.1c0.3,0.7,0.1,0.8-0.4,1.2c-1.1,0.8-2.1,1.3-2.8,1.6
					c-0.5,0.3-0.7,0.3-0.9-0.3c-0.3-0.5-0.5-1.1-0.8-1.9c-3.3,2.2-5.7,3.3-8.1,3.3c-3.2,0-5.2-2.1-5.2-5.7c0-6,5.2-11.6,10.8-14.4
					c0-2,0.1-4,0.3-5.8c-2.8,0.1-4,0-4.8,0c-1.3,0-2.1,0-2.6-0.1c-0.5,0-0.8-0.3-0.8-1.1c-0.1-1.1-0.1-2.2-0.3-3.6
					c2.9,0.3,5.6,0.3,9,0.1c0.1-1.7,0.4-3.7,0.4-5c0-0.7,0-1.3-0.1-2.1C314.6,355.5,316.2,355.9,317.4,356.3z M305.1,386.1
					c0,1.1,0.7,1.7,1.6,1.7c1.3,0,3-0.8,5.4-2.6c-0.4-2.8-0.8-5.3-0.9-7.9C307.5,379.7,305.1,383,305.1,386.1z M321.5,374
					c-1.7,0-3.8,0.4-6,1.1c0,2.4,0.1,4.6,0.5,7C318.1,379.9,320.2,376.6,321.5,374z"/>
				<path fill="#054B68" d="M359,373.5c2.6-1.5,4.8-2.1,7.4-2.1c6.7,0,11.5,4.5,11.5,11.1c0,7.7-6.2,12.7-16.1,12.7
					c-5.8,0-9.4-2.5-9.4-6.7c0-3,2.9-5.7,6.5-5.7c4.4,0,7.5,2.4,8.7,6.7c3.3-1.5,4.8-3.6,4.8-7c0-4.2-2.9-7-7.3-7
					c-3.8,0-8.1,1.7-11.9,4.9c-1.3,1.2-2.6,2.5-4,4c-0.3,0.3-0.5,0.5-0.8,0.5c-0.1,0-0.4-0.1-0.7-0.4c-0.9-0.8-2-2-2.8-3
					c-0.3-0.4-0.1-0.7,0.3-1.1c3.6-2.9,6.7-5.8,11-10.2c2.9-2.9,5-5.3,7.1-7.9c-2.8,0.5-6.1,1.2-9,1.7c-0.7,0.1-1.2,0.3-2,0.5
					c-0.3,0.1-0.7,0.3-0.9,0.3c-0.5,0-0.8-0.3-1.1-0.8c-0.5-1.1-0.9-2.4-1.6-5c1.5,0.1,2.9,0.1,4.4,0.1c2.8-0.3,6.9-0.9,10.5-1.6
					c1.2-0.3,2.1-0.4,2.5-0.7c0.3-0.1,0.7-0.4,0.9-0.4c0.5,0,0.8,0.1,1.1,0.4c1.3,1.1,2.4,2,3,2.9c0.4,0.4,0.5,0.8,0.5,1.1
					c0,0.5-0.3,0.9-0.8,1.1c-0.8,0.4-1.2,0.7-2,1.5c-3.4,3.3-6.5,6.5-10.1,9.9L359,373.5z M359.1,386.7c-1.3,0-2.2,0.8-2.2,1.7
					c0,1.5,1.2,2.4,4,2.4c0.8,0,1.5,0,2.1-0.1C362.4,388.1,360.9,386.7,359.1,386.7z"/>
				<path fill="#054B68" d="M388.6,374.7c1.6-1.2,4.9-4.1,8.3-7.1c1.6-1.3,2.6-2,4-2c1.6,0,2.5,0.4,4,1.7c3.4,2.8,5.4,4.6,10.1,7.9
					c4.1,2.9,7.3,4.8,11,6.7c0.5,0.1,0.7,0.5,0.5,0.9c-0.5,1.5-1.5,3.2-2.2,4.4c-0.3,0.3-0.4,0.4-0.7,0.4c-0.1,0-0.4,0-0.7-0.3
					c-2.2-1.3-7.3-5-10.1-7.1c-3.3-2.5-6.6-5.4-9.8-8.2c-0.9-0.8-1.5-1.1-2-1.1s-0.9,0.4-1.6,0.9c-2.2,2.2-5.6,5.4-7.8,7.7
					c-0.9,0.9-1.3,1.5-1.7,2c-0.3,0.4-0.5,0.5-0.8,0.5s-0.7-0.1-0.9-0.4c-0.9-0.9-2.6-3.2-3.8-4.8
					C386,376.6,387.1,375.9,388.6,374.7z M414.4,361.6c0.3-0.1,0.4-0.1,0.7,0.1c1.5,1.1,3,2.9,4.4,4.9c0.1,0.3,0.1,0.5-0.1,0.8
					l-2,1.5c-0.3,0.3-0.5,0.1-0.8-0.1c-1.3-2.1-2.9-3.8-4.6-5.4L414.4,361.6z M418.6,358.6c0.3-0.1,0.4-0.1,0.7,0.1
					c1.7,1.3,3.4,3.2,4.4,4.8c0.1,0.3,0.3,0.5-0.1,0.8l-1.9,1.5c-0.4,0.3-0.7,0.1-0.8-0.1c-1.2-2-2.8-3.7-4.6-5.3L418.6,358.6z"/>
				<path fill="#054B68" d="M444.4,359.1c-0.4-1.1-0.8-2-1.6-2.9c1.9-0.3,3.7-0.5,5.6-0.5c0.7,0,1.1,0.4,1.1,0.8
					c0,0.3-0.1,0.7-0.1,0.9c0,0.4,0.1,0.9,0.1,1.3c0.3,1.2,0.4,1.6,0.8,2.4c3.6-0.7,6.2-1.5,9.4-2.5c0.4-0.1,0.7-0.1,0.8,0.3
					c0.3,0.9,0.7,2.1,0.8,3c0.1,0.5-0.3,0.8-0.5,0.8c-3,0.9-6,1.7-9.1,2.4c0.4,1.2,1.1,2.6,1.6,3.8c3.7-0.8,6.2-1.6,8.5-2.4
					c0.5-0.3,0.7-0.1,0.8,0.3c0.4,1.1,0.7,2,0.8,3c0.1,0.4,0.1,0.7-0.4,0.8c-2.4,0.9-5.3,1.7-7.8,2.2c2,3.3,3.8,6,6.1,8.1
					c0.4,0.4,0.4,0.7,0.3,1.1c-0.5,1.1-1.2,2-1.9,2.9c-0.3,0.3-0.4,0.5-0.8,0.5c-0.1,0-0.4-0.1-0.7-0.3c-0.8-0.7-1.7-1.1-2.8-1.5
					c-2.4-1.1-5.4-1.5-8.7-1.5c-4.4,0-6.9,1.3-6.9,3.6c0,3,4,4,11,4c1.7,0,3.4-0.1,5-0.3c0.5,0,0.7,0.3,0.5,0.7
					c-0.1,1.2-0.5,2.9-0.9,4.2c-0.1,0.4-0.3,0.7-0.9,0.7c-1.1,0.1-2.1,0.1-3.3,0.1c-10.7,0-16.3-3-16.3-8.7c0-4.9,4.2-8.1,11.5-8.1
					c3.4,0,6.1,0.4,7.9,1.2c-1.1-1.2-2.6-3.4-3.8-5.4c-4.8,0.8-9.3,1.3-12.7,1.5c-0.5,0-0.7-0.1-0.8-0.7c-0.3-0.9-0.7-2.5-0.8-3.8
					c4.6-0.1,8.3-0.4,12.4-1.2c-0.5-0.9-1.2-2.5-1.7-3.8c-4.2,0.7-7.7,1.1-11.2,1.1c-0.5,0-0.8-0.1-0.9-0.7
					c-0.1-0.6-0.4-2.2-0.8-3.7c4.5,0,8.2-0.3,11.5-0.8C445.1,361.1,444.8,360.3,444.4,359.1z"/>
				<path fill="#054B68" d="M484.7,395.2c-4.5,0-6.1,0.1-6.4,0.1c-0.5,0-0.5,0-0.5-0.5v-3.2c0-0.4,0-0.5,0.5-0.5
					c0.3,0,1.9,0.1,6.4,0.1h7.7v-4h-2.5c-4.2,0-5.7,0.1-6,0.1c-0.4,0-0.5,0-0.5-0.5v-3c0-0.4,0-0.5,0.5-0.5c0.3,0,1.7,0.1,6,0.1h2.5
					v-3.6h-7.5c-0.9,1.6-2,3-3.2,4.6c-0.4,0.5-0.7,0.8-0.8,0.8s-0.4-0.3-0.7-0.7c-0.8-1.1-1.6-1.7-2.4-2.2l-0.4,2.9
					c-0.5,3.3-1.6,6.9-3.3,10.1c-0.4,0.7-0.5,0.9-0.8,0.9c-0.1,0-0.4-0.1-0.8-0.5c-0.9-1.2-2.1-2.4-3-2.8c1.7-2.6,2.9-6,3.4-9.1
					c0.5-3,0.7-6.5,0.7-10.5c0-4.2-0.1-6.1-0.1-6.4c0-0.4,0-0.5,0.5-0.5c0.3,0,1.9,0.1,6.2,0.1h3.4c-0.7-1.6-1.5-2.9-2.1-4.1h-1.3
					c-4.5,0-6,0.1-6.2,0.1c-0.5,0-0.5,0-0.5-0.5v-3c0-0.5,0-0.5,0.5-0.5c0.3,0,1.7,0.1,6.2,0.1h9.1v-0.4c0-1.7-0.1-2.9-0.3-4
					c1.7,0,3.3,0.1,4.8,0.3c0.4,0,0.8,0.3,0.8,0.4c0,0.3-0.1,0.5-0.3,0.9c-0.1,0.4-0.3,0.9-0.3,2.4v0.5h9.3c4.5,0,6-0.1,6.2-0.1
					c0.4,0,0.5,0,0.5,0.5v3c0,0.4,0,0.5-0.5,0.5c-0.3,0-1.9-0.1-6.4-0.1h-0.8c-0.1,0.3-0.3,0.4-0.5,0.8c-0.5,1.2-1.2,2.2-1.9,3.3
					h4.9c4.4,0,5.8-0.1,6.1-0.1c0.4,0,0.4,0,0.4,0.5v3c0,0.5,0,0.5-0.4,0.5c-0.3,0-1.9-0.1-6.2-0.1H478v2.9c0,2.9-0.1,6-0.5,8.7
					c2.6-2.5,4-5,5.3-8.2c0.3-0.7,0.4-1.5,0.7-2.4c1.5,0.3,3,0.7,4,0.9c0.5,0.1,0.7,0.4,0.7,0.5c0,0.3-0.1,0.4-0.3,0.5
					c-0.3,0.3-0.7,0.9-0.9,1.7l-0.3,0.7h5.6v-0.5c0-1.9-0.1-2.6-0.4-4.1c1.7,0,3.3,0.1,4.8,0.3c0.5,0,0.8,0.3,0.8,0.5
					c0,0.3-0.1,0.7-0.3,0.9c-0.1,0.4-0.3,0.9-0.3,2.4v0.5h4.9c4.4,0,5.7-0.1,6-0.1c0.5,0,0.5,0,0.5,0.5v3.2c0,0.5,0,0.5-0.5,0.5
					c-0.3,0-1.7-0.1-6-0.1h-4.9v3.6h3.3c4.2,0,5.7-0.1,6-0.1c0.5,0,0.5,0,0.5,0.5v3c0,0.4,0,0.5-0.5,0.5c-0.3,0-1.7-0.1-6-0.1h-3.3
					v4h7.5c4.5,0,6.1-0.1,6.4-0.1c0.5,0,0.5,0,0.5,0.5v3.2c0,0.5,0,0.5-0.5,0.5c-0.3,0-1.9-0.1-6.4-0.1h-19.7L484.7,395.2
					L484.7,395.2z M486.6,362.4c0.7,1.2,1.2,2.6,1.9,4.1h7c0.8-1.5,1.5-2.8,2-4.1H486.6z"/>
				<path fill="#054B68" d="M524.5,385.2c-4.2,0-5.6,0.1-5.8,0.1c-0.5,0-0.5,0-0.5-0.5V382c0-0.5,0-0.5,0.5-0.5
					c0.3,0,1.7,0.1,5.8,0.1h11.4v-2.5h-6.5c-4.5,0-6.1,0.1-6.4,0.1c-0.5,0-0.5,0-0.5-0.5v-2.6c0-0.5,0-0.5,0.5-0.5
					c0.3,0,1.9,0.1,6.4,0.1h6.5v-2.6h-8.7c-4.5,0-6,0.1-6.2,0.1c-0.5,0-0.5,0-0.5-0.5v-2.8c0-0.4,0-0.5,0.5-0.5
					c0.3,0,1.7,0.1,6.2,0.1h2.8c-0.5-1.1-0.9-2-1.5-2.9c-0.3-0.4-0.3-0.7,0.3-0.8l3-0.8h-7.4c-4.2,0-5.6,0.1-5.8,0.1
					c-0.5,0-0.5,0-0.5-0.5v-2.9c0-0.5,0-0.5,0.5-0.5c0.3,0,1.7,0.1,5.8,0.1h0.3c-0.8-1.5-1.6-2.6-2.6-4c-0.3-0.3-0.1-0.5,0.4-0.8
					l2.6-1.2c0.4-0.3,0.7-0.1,0.9,0.1c1.1,1.3,2.2,2.9,3,4.5c0.3,0.4,0.3,0.4-0.4,0.8l-1.1,0.5h4.4v-3c0-1.6,0-2.8-0.3-4
					c1.5,0,3.3,0.1,4.5,0.3c0.4,0,0.5,0.1,0.5,0.4s-0.1,0.5-0.1,0.8c-0.1,0.3-0.3,1.1-0.3,2.5v3h3.7v-3c0-1.7,0-2.8-0.3-4.1
					c1.3,0,3.2,0.1,4.5,0.3c0.4,0,0.7,0.1,0.7,0.4s-0.1,0.5-0.1,0.8c-0.1,0.3-0.3,1.1-0.3,2.5v3h2.9c0.8-1.3,1.5-2.5,2.1-3.8
					c0.3-0.7,0.7-1.3,0.8-2.5c1.6,0.3,3.3,0.8,4.5,1.2c0.4,0.1,0.7,0.4,0.7,0.7c0,0.4-0.1,0.5-0.5,0.8c-0.3,0.3-0.5,0.5-0.8,0.9
					c-0.7,0.9-1.2,1.9-1.9,2.8h0.7c4.2,0,5.6-0.1,5.8-0.1c0.5,0,0.5,0,0.5,0.5v2.9c0,0.5,0,0.5-0.5,0.5c-0.3,0-1.7-0.1-5.8-0.1h-8.1
					c1.2,0.3,2.2,0.5,3.7,0.8c0.4,0.1,0.7,0.3,0.7,0.5c0,0.3-0.3,0.5-0.5,0.7c-0.3,0.1-0.5,0.7-0.7,0.9l-0.8,1.5h3
					c4.5,0,6-0.1,6.2-0.1c0.4,0,0.5,0,0.5,0.5v2.8c0,0.4,0,0.5-0.5,0.5c-0.3,0-1.7-0.1-6.2-0.1h-9.4v2.5h7.4c4.5,0,6.1-0.1,6.4-0.1
					c0.4,0,0.5,0,0.5,0.5v2.6c0,0.5,0,0.5-0.5,0.5c-0.3,0-1.9-0.1-6.4-0.1h-7.4v2.5H553c4.2,0,5.6-0.1,5.8-0.1c0.5,0,0.5,0,0.5,0.5
					v2.8c0,0.5,0,0.5-0.5,0.5c-0.3,0-1.7-0.1-5.8-0.1h-8.2c3.8,2.8,8.7,4.5,15.5,6.1c-0.7,0.8-1.2,1.7-1.9,2.9
					c-0.4,0.9-0.5,1.2-1.1,1.2c-0.3,0-0.5-0.1-1.1-0.3c-6.2-1.9-11.8-4.9-15.6-8.3c0,5.6,0.3,8.3,0.3,9.1c0,0.5,0,0.5-0.5,0.5h-4
					c-0.4,0-0.5,0-0.5-0.5c0-0.8,0.1-3.4,0.1-9c-3.8,3.7-8.7,6.4-14.8,8.3c-0.5,0.1-0.8,0.3-1.1,0.3c-0.4,0-0.7-0.3-1.1-1.2
					c-0.7-1.2-1.2-2.1-1.9-2.8c6.2-1.6,10.8-3.4,14.8-6.5h-7.7v0.5H524.5z M542.4,369.5c0.4-0.8,0.8-1.6,1.2-2.6
					c0.3-0.5,0.3-0.9,0.5-1.9h-11.8c0.1,0,0.3,0.1,0.4,0.4c0.7,1.2,1.5,2.5,2.1,4.2h7.5L542.4,369.5L542.4,369.5z"/>
				<path fill="#054B68" d="M573.7,369.4c0,4.4-0.3,9.8-1.1,13.8c-0.8,4.8-2,8.2-4.2,11.8c-0.4,0.7-0.5,0.9-0.8,0.9
					c-0.1,0-0.4-0.3-0.8-0.8c-0.9-1.2-2.1-2.1-3-2.8c2.4-3.2,3.6-6.6,4.2-10.8c0.7-3.8,0.9-8.7,0.9-15.5c0-6.6-0.1-9.5-0.1-9.8
					c0-0.5,0-0.5,0.5-0.5c0.3,0,1.9,0.1,6.4,0.1h21.4c4.5,0,6.1-0.1,6.4-0.1c0.5,0,0.5,0,0.5,0.5c0,0.3-0.1,1.1-0.1,3.3v3.4
					c0,2.1,0.1,3,0.1,3.3c0,0.5,0,0.5-0.5,0.5c-0.3,0-1.9-0.1-6.4-0.1h-23.4L573.7,369.4L573.7,369.4z M581.5,378.9v-3.7
					c-3.8,0-5.3,0.1-5.6,0.1c-0.4,0-0.5,0-0.5-0.5v-2.9c0-0.4,0-0.5,0.5-0.5c0.3,0,1.7,0.1,5.6,0.1c0-1.5,0-2.5-0.3-3.8
					c1.7,0,2.8,0.1,4.4,0.3c0.4,0,0.8,0.3,0.8,0.5c0,0.3-0.1,0.4-0.3,0.8c-0.1,0.4-0.3,1.2-0.3,2.1h6.4c0-1.5,0-2.6-0.3-3.8
					c1.7,0,2.8,0.1,4.4,0.3c0.4,0,0.8,0.3,0.8,0.5c0,0.3-0.1,0.5-0.3,0.8c-0.3,0.4-0.3,1.1-0.3,2.1c4.2,0,5.6-0.1,5.8-0.1
					c0.4,0,0.5,0,0.5,0.5v2.9c0,0.5,0,0.5-0.5,0.5c-0.3,0-1.6-0.1-5.8-0.1v3.7h2.8c4.5,0,6.1-0.1,6.4-0.1c0.5,0,0.5,0,0.5,0.5v3
					c0,0.4,0,0.5-0.5,0.5c-0.3,0-1.7-0.1-5.7-0.1c0.9,0.5,2,1.1,2.6,1.6c0.3,0.3,0.4,0.4,0.4,0.7s-0.3,0.4-0.5,0.5
					c-0.4,0.1-0.8,0.4-1.3,1.1c-1.1,0.9-1.9,1.6-2.9,2.5c2.5,1.3,5.4,2.2,9.1,2.8c-0.7,0.7-1.3,1.9-1.9,3c-0.5,1.5-0.5,1.5-2,1.2
					c-7.9-2.1-13-6.5-16.3-13.2h-3.8v7.7c2.5-0.4,5.3-0.9,7.7-1.5c-0.1,0.8-0.3,1.7-0.4,2.6c-0.1,1.6-0.3,1.6-1.6,1.9
					c-4,0.9-8.2,1.7-11.8,2.4c-0.8,0.1-1.2,0.3-1.5,0.4c-0.4,0.1-0.7,0.3-0.8,0.3c-0.3,0-0.5-0.1-0.7-0.7l-0.9-4.4
					c1.5,0,2.8-0.1,4.5-0.3l0.9-0.1v-8.3c-2.8,0-4,0.1-4.2,0.1c-0.4,0-0.4,0-0.4-0.5v-3c0-0.4,0-0.5,0.4-0.5c0.3,0,1.9,0.1,6.1,0.1
					H581.5L581.5,378.9L581.5,378.9z M599.1,359.9h-25.4v3.2h25.4V359.9z M592.1,378.9v-3.7h-6.4v3.7H592.1z M591.6,382.9
					c0.9,1.6,1.9,2.9,3.2,4c1.1-0.8,2-1.6,2.9-2.8c0.4-0.4,0.7-0.8,1.1-1.3h-7.1v0.1H591.6z"/>
				<path fill="#054B68" d="M626.1,355.4c3,0,4.4-0.1,4.6-0.1c0.4,0,0.4,0,0.4,0.5c0,0.3-0.1,1.6-0.1,4.5v5.4c0,2.8,0.1,4.1,0.1,4.4
					c0,0.4,0,0.5-0.4,0.5c-0.3,0-1.6-0.1-4.6-0.1h-7.5V386c0,6.5,0.1,9.7,0.1,10.1c0,0.5,0,0.5-0.5,0.5h-4c-0.5,0-0.5,0-0.5-0.5
					c0-0.3,0.1-3.6,0.1-10.1v-20.1c0-6.5-0.1-9.8-0.1-10.1c0-0.4,0-0.5,0.5-0.5c0.3,0,2.1,0.1,5.6,0.1L626.1,355.4L626.1,355.4z
					 M618.4,358.8v2.6h8.1v-2.6H618.4z M626.6,364.5h-8.1v2.6h8.1V364.5z M630.5,385.2c-0.1,0.8-0.1,1.3-0.3,2
					c-0.7,3-2.1,5.7-4.4,7.8c-0.5,0.4-0.7,0.7-0.9,0.7s-0.5-0.3-1.1-0.8c-0.8-0.8-1.9-1.5-2.8-2c2.5-1.6,4.2-3.8,4.9-6.7l0.1-0.8
					c-3.6,0-4.8,0.1-5,0.1c-0.4,0-0.5,0-0.5-0.5v-2.9c0-0.4,0-0.5,0.5-0.5c0.3,0,1.6,0.1,5.3,0.1c0-1.2,0.1-2.6,0.1-4.2
					c-2.8,0-3.8,0.1-4.1,0.1c-0.5,0-0.5,0-0.5-0.5v-2.8c0-0.4,0-0.5,0.5-0.5c0.3,0,1.7,0.1,5.8,0.1h9.9c4.1,0,5.6-0.1,5.8-0.1
					c0.5,0,0.5,0,0.5,0.5v2.8c0,0.5,0,0.5-0.5,0.5c-0.3,0-1.3,0-4.2-0.1v4.2c3.7,0,5-0.1,5.3-0.1c0.4,0,0.5,0,0.5,0.5v2.8
					c0,0.5,0,0.5-0.5,0.5c-0.3,0-1.6-0.1-5.3-0.1v4.4c0,3.2,0.1,4.8,0.1,5c0,0.5,0,0.5-0.5,0.5h-3.4c-0.5,0-0.5,0-0.5-0.5
					c0-0.3,0.1-1.9,0.1-5v-4.4h-5v-0.1H630.5z M635.4,381.6v-4.2h-4.5c0,1.6,0,3-0.1,4.2H635.4z M652.4,382c0,3.3,0.1,6.2,0.1,8.5
					c0,2.2-0.3,3.3-1.3,4.2c-1.1,0.9-2.4,1.2-6.1,1.2c-1.5,0-1.5,0-1.7-1.5c-0.3-1.5-0.7-2.5-1.1-3.4c1.3,0.1,2.4,0.3,3.4,0.3
					c1.6,0,1.9-0.4,1.9-1.9v-18.9h-7.5c-3.6,0-4.8,0.1-5.2,0.1c-0.5,0-0.5,0-0.5-0.5c0-0.3,0.1-1.3,0.1-4v-6.2
					c0-2.6-0.1-3.7-0.1-4.1s0-0.5,0.5-0.5c0.3,0,1.5,0.1,5.2,0.1h6.7c3.6,0,4.9-0.1,5.2-0.1c0.4,0,0.5,0,0.5,0.5
					c0,0.3-0.1,2.2-0.1,6.4L652.4,382L652.4,382z M639.1,358.8v2.6h8.6v-2.6H639.1z M647.7,364.5h-8.6v2.6h8.6V364.5z"/>
				<path fill="#054B68" d="M658.9,397.5V395h11.8v-37.9h2.8v40.5h-14.6V397.5z"/>
			</g>
		</g>
		<g>
			<g>
				<path fill="#054B68" d="M429,311.3c-0.4,6.4-1.2,10.2-3.3,14.6c-2.2,4.5-6.4,8.6-10.1,10.7c-0.7,0.4-1.2,0.7-1.7,0.7
					c-0.4,0-0.8-0.1-1.2-0.5c-1.2-1.2-3-2.2-5-3c5.6-3,9-5.8,11.4-10.2c2.1-3.7,2.6-6.9,2.9-12.2h-10.8c-2.8,0-5.7,0.1-8.6,0.4
					c-0.5,0-0.7-0.4-0.8-1.1c-0.3-1.6-0.4-3.7-0.4-5.4c3.2,0.3,6.4,0.3,9.7,0.3h25.5c4.5,0,7.7-0.1,11.1-0.4c0.5,0,0.7,0.4,0.7,1.2
					c0,0.8,0,3.7,0,4.4c0,0.8-0.4,0.9-0.8,0.9c-2.9-0.1-6.9-0.3-10.8-0.3L429,311.3L429,311.3z M417.7,298.1c-2.6,0-4.9,0.1-8.1,0.3
					c-0.8,0-0.9-0.3-0.9-0.9c-0.1-1.3-0.3-3.4-0.4-5.4c4,0.3,6.9,0.3,9.4,0.3h10.5c3.2,0,6.7,0,9.7-0.3c0.5,0,0.7,0.4,0.7,1.1
					c0.1,1.3,0.1,2.8,0,4.1c0,0.8-0.1,1.1-0.8,1.1c-3-0.1-6.5-0.1-9.5-0.1h-10.6V298.1z M442.2,288.2c0.3-0.1,0.5-0.1,0.8,0.1
					c1.6,1.6,3.4,4.1,4.9,6.6c0.1,0.4,0.1,0.7-0.3,0.9l-2.5,1.6c-0.4,0.3-0.7,0.1-0.9-0.3c-1.5-2.8-3-5.2-5.2-7.1L442.2,288.2z
					 M447.6,285c0.4-0.3,0.5-0.1,0.8,0.1c2,1.9,3.7,4.2,4.9,6.4c0.1,0.4,0.3,0.7-0.3,1.1l-2.4,1.6c-0.5,0.3-0.8,0-0.9-0.3
					c-1.3-2.5-2.9-4.9-5-7L447.6,285z"/>
				<path fill="#054B68" d="M457.5,305.2c0.3-0.4,0.5-0.7,1.1-0.5c4.2,1.5,7.7,3.3,11,5.6c0.4,0.3,0.7,0.5,0.7,0.8
					c0,0.1-0.1,0.4-0.3,0.7c-0.7,1.6-1.6,3-2.5,4.4c-0.3,0.4-0.5,0.5-0.8,0.5s-0.4-0.1-0.7-0.4c-3.7-2.6-7.3-4.5-11.5-6.2
					C455.9,307.8,456.9,306.2,457.5,305.2z M466.8,326.4c5.4-2.8,10.1-5.6,15.6-9.8c4.5-3.4,10.6-9,16.4-15.9c0.4,2.5,0.8,4,1.6,6.4
					c0.1,0.4,0.3,0.8,0.3,1.1c0,0.4-0.1,0.8-0.7,1.3c-5.3,5.7-8.9,8.9-14.4,13.1c-4.9,3.7-10.2,7-17.1,10.7c-1.3,0.8-2.8,1.3-3.3,2
					c-0.4,0.4-0.7,0.4-0.9,0.4c-0.4,0-0.8-0.3-1.2-0.7c-1.2-1.2-2.8-3.4-4.2-5.8C461.5,328.7,463.5,328.1,466.8,326.4z M464.4,292.1
					c0.4-0.7,0.8-0.8,1.5-0.4c3.7,1.5,7.5,3.6,10.7,6.4c0.4,0.3,0.4,0.5,0.4,0.8c0,0.3,0,0.4-0.3,0.8c-0.8,1.5-2,3.3-2.9,4.2
					c-0.1,0.3-0.4,0.4-0.5,0.4c-0.3,0-0.5-0.1-0.8-0.4c-2.9-2.4-7.4-5.3-11-7C462.4,295.2,463.5,293.6,464.4,292.1z M490.5,290.4
					c0.3-0.3,0.5-0.1,0.8,0.1c1.7,1.3,3.8,3.7,5.4,6.1c0.3,0.4,0.3,0.7-0.1,0.9l-2.4,1.7c-0.4,0.3-0.7,0.3-0.9-0.1
					c-1.7-2.6-3.6-4.8-5.7-6.6L490.5,290.4z M495.6,286.7c0.4-0.3,0.5-0.1,0.8,0.1c2.1,1.6,4.1,3.8,5.4,5.8c0.3,0.4,0.3,0.7-0.1,1.1
					l-2.2,1.7c-0.4,0.4-0.8,0.1-0.9-0.1c-1.6-2.4-3.3-4.6-5.7-6.5L495.6,286.7z"/>
				<path fill="#054B68" d="M537.2,296.4c1.6,0,2.4-0.4,3.2-0.8c0.4-0.3,0.7-0.4,0.9-0.4s0.7,0.1,1.1,0.4c1.2,0.8,2.8,2.2,3.8,3.4
					c0.4,0.4,0.4,0.7,0.4,1.1c0,0.4-0.1,0.7-0.7,1.1c-0.5,0.5-1.2,1.1-1.7,2.1c-2.4,4.9-5.2,9.5-8.3,13.8c2.4,1.9,4.5,3.8,6.1,5.7
					c0.3,0.3,0.4,0.5,0.4,0.8c0,0.3-0.1,0.5-0.4,0.8c-0.8,0.9-2.5,2.8-3.6,3.6c-0.3,0.1-0.4,0.3-0.7,0.3c-0.1,0-0.4-0.1-0.7-0.4
					c-1.3-1.6-3.7-3.8-5.6-5.6c-5.8,6.2-11.6,10.7-18.1,14.3c-0.5,0.3-0.9,0.5-1.5,0.5c-0.4,0-0.7-0.1-1.1-0.5
					c-1.9-1.5-3.4-2.2-5.4-2.9c8.9-4.5,14.6-8.6,20.9-15.5c-2.1-1.7-4.8-3.6-8.2-5.3c1.2-1.3,2.4-2.9,3.7-4.1
					c0.3-0.3,0.4-0.4,0.8-0.4c0.1,0,0.4,0.1,0.5,0.3c2,0.9,4.5,2.6,7.3,4.5c2.8-3.6,4.9-7.3,6.6-11.2l-14.2,0.3
					c-4.6,6-8.3,9.9-12.2,12.8c-0.4,0.3-0.8,0.5-1.2,0.5c-0.3,0-0.7-0.1-0.9-0.4c-1.5-1.1-2.9-1.9-4.8-2.6
					c7.9-6.4,12.2-11.5,16.1-17.9c1.9-3,2.5-4.6,3-7c2,0.7,4.9,1.6,6.6,2.8c0.4,0.3,0.7,0.5,0.7,0.9s-0.3,0.8-0.7,1.2
					c-0.5,0.4-0.9,0.8-1.2,1.2c-0.4,0.8-0.8,1.3-1.7,2.8h10.8V296.4z"/>
				<path fill="#054B68" d="M568.7,298.2c0.9,0.3,1.1,0.9,0.8,1.7c-0.7,1.2-0.7,2.5-0.7,3.8c-0.1,7.1-1.2,12.6-3,16.7
					c-1.5,3.4-4,7.1-8.1,10.7c-0.5,0.4-1.1,0.8-1.5,0.8s-0.7-0.1-1.1-0.4c-1.5-0.9-2.8-1.6-4.9-2.4c4.5-3.3,7.4-6.9,9.4-11.4
					c1.6-3.8,2.4-7,2.4-16.1c0-2.1-0.1-3-0.5-4.8C564.7,297.3,567.4,297.7,568.7,298.2z M581.4,322.3c2.8-1.5,5.4-3.3,8.1-5.3
					c3.4-2.6,6.7-5.7,9.9-9.7c0.3,2,0.8,3.8,1.7,5.7c0.1,0.4,0.4,0.7,0.4,0.9c0,0.4-0.3,0.8-0.8,1.5c-2.8,2.9-5.4,5.3-8.5,7.4
					c-2.9,2.2-6.1,4.5-10.2,6.9c-1.1,0.7-1.2,0.8-1.6,1.2c-0.4,0.3-0.8,0.4-1.2,0.4s-0.8-0.1-1.2-0.4c-1.2-0.8-2.5-2.4-3.4-3.4
					c-0.4-0.5-0.5-0.8-0.5-1.2c0-0.3,0-0.5,0.3-0.8c0.4-0.8,0.4-1.5,0.4-4.4v-17.9c0-4.9,0-7.3-0.5-9.9c2.2,0.3,5.4,0.7,7.1,1.2
					c0.8,0.1,1.1,0.5,1.1,0.9s-0.1,0.8-0.4,1.5c-0.5,1.1-0.5,2.2-0.5,6.4v19.1L581.4,322.3L581.4,322.3z"/>
				<path fill="#054B68" d="M621.2,324c0,5.3,2.2,7.3,7.5,7.3c6.6,0,10.3-2.5,10.3-7.7c0-3.2-0.8-5.8-5.2-10.3
					c2.2,0.3,3.6,0,5.8-0.4c0.4-0.1,0.8,0,1.2,0.3c3.2,2.9,4.9,6.9,4.9,10.7c0,8.1-6.6,13.4-16.4,13.4c-10.1,0-14.3-4.5-14.3-12.8
					c0-1.2,0.1-2.8,0.4-5.3c-3.4-0.5-5.7-1.1-7.7-1.7c-0.4-0.1-0.5-0.4-0.7-1.1c-0.1-1.7-0.3-3.6-0.1-5.3c3.4,1.2,6,1.9,9.3,2.2
					c0.3-2.1,0.8-5.8,0.9-8.1c-4-0.5-6.1-0.8-8.2-1.6c-0.7-0.1-0.9-0.4-0.9-0.9c0-1.3-0.1-3.3-0.1-5.3c3.8,1.2,6.6,1.7,10.3,2.1
					c0.4-3.3,0.7-4.9,0.8-6.5s0.1-3.3,0-4.8c2.6,0.4,5.6,1.1,6.9,1.6c0.8,0.3,1.2,0.8,1.2,1.3c0,0.4-0.1,0.8-0.4,1.1
					c-0.4,0.4-0.7,1.2-1.1,2.4c-0.3,1.3-0.7,3.3-0.9,5.3c2.2,0.1,4.6,0,7-0.4c0.4,0,0.5,0.3,0.5,0.7c0,1.3,0,2.9-0.1,4.2
					c0,0.7-0.3,0.8-0.9,0.8c-2.5,0.3-5,0.4-7.5,0.3c-0.4,2-0.9,5.8-1.2,8.1c3,0,5.3,0,8.1-0.1c0.8-0.1,0.9,0.1,0.9,0.7
					c0,1.1-0.1,3-0.3,4.2c0,0.7-0.3,0.9-0.8,0.9c-2.9,0.3-5.8,0.3-8.7,0.1C621.3,321.6,621.2,323.1,621.2,324z"/>
				<path fill="#054B68" d="M679.8,299.4c-1.3,9.7-3.7,18.5-7.1,24.5c-2.4,4.2-5.4,6.5-9.7,6.5c-5,0-10.1-5.3-10.1-14.7
					c0-5.4,2.4-10.7,6.5-14.8c4.8-4.8,10.8-7.3,18.5-7.3c13.6,0,21.7,8.5,21.7,19.7c0,10.6-6,17.2-17.5,20.8
					c-1.2,0.4-1.7,0.1-2.4-1.1c-0.7-0.9-1.9-2.2-4-3.6c9.7-2.2,17.2-6.2,17.2-17.1c0-6.7-5.2-13.2-12.7-13.2h-0.5L679.8,299.4
					L679.8,299.4z M663.4,305c-2.8,3-4.5,6.9-4.5,10.6c0,5.3,2.1,8.1,3.8,8.1c1.5,0,2.8-0.8,4.2-3.4c2.5-4.6,5-12.8,6.1-20.4
					C669.2,300.5,666.1,302.1,663.4,305z"/>
				<path fill="#054B68" d="M715.3,303.1c8.7-2.9,15.9-4.8,20.5-4.8c10.2,0,16.7,6.1,16.7,15.1c0,7.4-3.3,12.2-10.1,15.9
					c-4.8,2.6-9.3,3.6-14.4,4.8c-1.2,0.3-1.6,0.1-2-0.9c-0.7-1.6-2.1-3.3-4-4.5c7.5-1.2,11.5-2.4,15.5-4.2c4.9-2.4,7.8-6.1,7.8-11.4
					s-3.4-8.6-9.8-8.6c-5.2,0-11.9,2-20.5,5.8c-1.9,0.9-3.3,1.6-4,2c-0.8,0.7-1.2,0.8-1.6,0.8c-0.5,0-1.1-0.4-1.6-1.2
					c-1.1-1.2-2.4-3.4-3.7-6C706.8,305.8,708.9,305.4,715.3,303.1z M746.2,291.1c0.3-0.3,0.5-0.1,0.8,0.1c1.7,1.3,3.8,3.7,5.4,6.1
					c0.3,0.4,0.3,0.7-0.1,0.9l-2.4,1.7c-0.4,0.3-0.7,0.3-0.9-0.1c-1.7-2.6-3.6-4.8-5.7-6.6L746.2,291.1z M751.3,287.4
					c0.4-0.3,0.5-0.1,0.8,0.1c2.1,1.6,4.1,3.8,5.4,5.8c0.3,0.4,0.3,0.7-0.1,1.1l-2.2,1.7c-0.4,0.4-0.8,0.1-0.9-0.1
					c-1.6-2.4-3.3-4.6-5.7-6.5L751.3,287.4z"/>
				<path fill="#054B68" d="M790,292.4c0.3,0.3,0.4,0.7,0.4,0.9c0,0.5-0.3,0.8-0.8,1.1c-0.7,0.4-1.6,0.8-2.8,2
					c-4.9,4.4-11.1,10.2-15.5,14.8c-0.5,0.7-0.8,0.9-0.8,1.2c0,0.4,0.3,0.7,0.8,1.1c7.4,5.3,15.1,11.5,21.2,17.9
					c0.3,0.3,0.4,0.5,0.4,0.8c0,0.3-0.1,0.4-0.4,0.7c-1.3,1.5-2.9,3-4,4c-0.4,0.3-0.5,0.4-0.8,0.4s-0.4-0.1-0.7-0.5
					c-6.6-7.4-13-13.4-20.8-19.2c-2.1-1.6-3-2.9-3-4.8s1.1-3.2,2.8-5c4.9-5.3,9.5-9.9,14.4-15.3c1.6-1.6,2.4-2.8,3-4.2
					C786.3,289.5,788.5,291.1,790,292.4z"/>
				<path fill="#054B68" d="M811.6,290.5c0.8,0.3,1.1,0.7,1.1,1.2c0,0.4-0.1,0.5-0.4,0.9c-0.4,0.4-0.7,1.2-1.1,2.6
					c-0.8,3.8-1.2,7.9-1.6,10.8c-0.1,2-0.3,4.2-0.1,6.2c1.2-2.2,2.4-4.4,4-7.3c0.5,1.7,1.1,2.8,1.7,3.7c0.3,0.4,0.4,0.7,0.4,0.9
					c0,0.4-0.3,0.9-0.5,1.5c-1.2,2.4-2.5,4.8-3.3,7.3c-0.1,0.5-0.3,1.1-0.3,1.7c0,0.5-0.3,0.8-0.8,0.9c-0.7,0.1-3.2,0.5-4.5,0.7
					c-0.4,0-0.7-0.4-0.8-0.8c-0.9-2.4-1.7-6.9-1.7-11.5c0-3.8,0.7-8.5,1.3-14.2c0.3-2,0.4-4,0.4-6.5
					C808,289.2,810.2,289.9,811.6,290.5z M830.1,289.5c1.2,0.3,1.2,0.5,1.2,1.6c-0.1,0.8-0.1,1.9-0.1,2.6c0.4,5.4,0.8,10.6,0.8,14.7
					c0,8.1-1.3,15.1-4.4,19.7c-2.2,3.6-5.8,6.9-9.4,9.1c-0.4,0.3-0.8,0.4-1.2,0.4s-0.8-0.1-1.2-0.7c-1.2-1.1-3-2.1-4.9-2.6
					c4.6-2.5,7.4-4.6,9.7-7.7c3.3-4.5,4.8-9.1,4.8-18.1c0-4.1-0.3-9.9-0.7-13.6c-0.3-2.8-0.5-4.2-1.2-6.2
					C826.2,289,828.5,289.1,830.1,289.5z"/>
			</g>
		</g>
		<g>
			<path fill="#054B68" d="M107.2,312.2c0.4,0.1,0.5,0.3,0.5,0.5c0,0.4-0.3,0.8-0.3,1.3c0,0.7,0.1,1.3,0.1,2.1
				c0.3,2.1,0.5,3.7,0.9,5.3c1.6-0.8,2.6-1.5,4.4-2.4c0.9-0.5,1.6-1.1,2.1-1.6c0.9,1.1,1.7,2.1,2.2,2.9c0.1,0.1,0.3,0.4,0.3,0.7
				c0,0.3-0.1,0.5-0.7,0.7c-0.9,0.1-2,0.5-2.9,0.9c-2.6,1.1-5,2.2-7.1,3.6c-2.6,1.7-3.6,3.2-3.6,4.6c0,1.9,1.3,2.5,4.9,2.5
				c3.8,0,7-0.3,9.4-0.7c0.4,0,0.5,0,0.5,0.4c0.1,0.8,0.3,2,0.3,2.9c0,0.4-0.1,0.5-0.5,0.5c-2.8,0.4-5.3,0.4-9.1,0.4
				c-5.8,0-8.9-1.9-8.9-5.8c0-3.4,2.2-5.7,5.8-7.9c-0.8-2.4-1.3-5.2-1.6-7.4c-0.3-1.6-0.4-2.6-0.8-3.6
				C104.7,311.9,106,312,107.2,312.2z"/>
		</g>
		<g>
			<path fill="#054B68" d="M847.9,313c0.1-0.9,0.3-2.1,0.3-3.4c1.6,0.4,2.5,0.5,3.7,1.1c0.3,0.1,0.5,0.4,0.5,0.7
				c0,0.1,0,0.3-0.3,0.4c-0.3,0.4-0.4,0.8-0.7,1.2c-0.4,1.2-0.7,2.4-1.1,3.7c0.8-0.1,1.7-0.1,2.5-0.1c2.9,0,4.4,2,4.4,6
				c0,3.3-0.7,7.4-1.6,9.5c-0.9,2-2.4,2.9-4.1,2.9c-1.5,0-2.5-0.1-3.2-0.4c-0.4-0.1-0.5-0.4-0.5-0.8c-0.1-0.9-0.1-1.9-0.5-2.9
				c1.3,0.7,2.5,0.8,3.6,0.8s1.5-0.4,2-1.6c0.7-1.7,1.2-4.6,1.2-7.7c0-2.1-0.4-2.8-1.7-2.8c-0.8,0-1.7,0.1-2.5,0.3
				c-2,5.8-3.7,10.1-6.2,14.4c-0.1,0.4-0.4,0.4-0.8,0.3c-0.5-0.3-1.7-1.1-2.1-1.3c-0.1-0.1-0.3-0.3-0.3-0.4s0-0.3,0.1-0.4
				c2.5-4.2,4.1-7.5,5.6-12c-1.2,0.1-2.1,0.4-3,0.5c-0.8,0.1-1.3,0.4-1.7,0.5s-0.8,0.1-0.9-0.4c-0.3-0.7-0.7-1.9-0.9-3.2
				c1.3,0,2.6-0.1,4.1-0.3c1.3-0.1,2.4-0.3,3.6-0.4C847.5,315.2,847.7,314.1,847.9,313z M860,315.2c0.3-0.1,0.4,0,0.5,0.1
				c2.1,2,4,4.5,5,7.4c0.1,0.3,0.1,0.4-0.1,0.7c-0.5,0.5-1.7,1.2-2.2,1.6c-0.3,0.1-0.7,0.1-0.7-0.3c-1.2-3.2-2.8-5.8-5-7.9
				C858.3,316.2,859.2,315.6,860,315.2z M860.8,310.8c0.1-0.1,0.3-0.1,0.4,0c0.9,0.8,2.1,2,2.9,3.3c0.1,0.1,0.1,0.4-0.1,0.5
				l-1.3,0.9c-0.3,0.1-0.4,0.1-0.5-0.1c-0.9-1.5-1.9-2.5-3-3.6L860.8,310.8z M863.6,308.8c0.1-0.1,0.3-0.1,0.4,0
				c1.2,0.8,2.2,2.1,2.9,3.2c0.1,0.1,0.1,0.4-0.1,0.5l-1.2,0.9c-0.3,0.1-0.4,0.1-0.5-0.1c-0.8-1.3-1.9-2.5-3-3.6L863.6,308.8z"/>
		</g>
		<g>
			<path fill="#054B68" d="M272.6,314c0.5,0.3,0.7,0.4,0.7,0.8c0,0.3,0,0.3-0.4,0.9c-0.3,0.5-0.4,0.9-0.8,2.1
				c-0.8,3.8-1.3,7.5-1.3,9.9c0,1.5,0,2.5,0.1,3.6c0.7-1.5,1.2-2.4,2.1-4.5c0.3,0.8,0.7,1.2,1.1,2c0.1,0.1,0.3,0.4,0.3,0.4
				c0,0.3,0,0.4-0.1,0.5c-0.7,1.6-1.3,2.9-1.7,4.6c0,0.1-0.1,0.5-0.1,0.9s0,0.7,0,0.8c0,0.3-0.1,0.4-0.4,0.4
				c-0.8,0.3-1.6,0.4-2.5,0.5c-0.3,0-0.4-0.1-0.4-0.4c-0.8-2.1-1.5-6.1-1.5-9.1c0-2.8,0.4-6.1,1.1-10.1c0.4-2.2,0.5-3.3,0.5-4.5
				C270.7,313.2,271.8,313.4,272.6,314z M279.2,328.4c0.3,0,0.3,0.1,0.3,0.4c0.1,2.1,1.6,2.9,5,2.9c2.2,0,3.8-0.1,5.8-0.4
				c0.3,0,0.4,0,0.4,0.4c0.1,0.7,0.1,1.9,0.1,2.6c0,0.4,0,0.4-0.5,0.4c-2.1,0.3-3.6,0.4-5,0.4c-4.5,0-6.6-0.8-7.9-2.5
				c-0.8-0.9-1.1-2.5-1.1-4L279.2,328.4z M277.5,317c0-0.4,0.1-0.4,0.4-0.5c1.9-0.4,5.3-0.5,6.6-0.5c1.9,0,3.3,0,4.5,0.1
				c0.7,0,0.7,0.1,0.7,0.4c0,0.9,0,1.7,0,2.6c0,0.3-0.1,0.4-0.4,0.4c-1.9-0.1-3.4-0.1-5-0.1c-2.1,0-4.1,0.1-7,0.7
				C277.5,318.2,277.5,317.5,277.5,317z"/>
			<path fill="#054B68" d="M303.5,330.8c0,2.8,1.2,4,4.1,4c3.6,0,5.6-1.3,5.6-4.1c0-1.7-0.4-3.2-2.8-5.6c1.2,0.1,1.9,0,3.2-0.1
				c0.3,0,0.4,0,0.7,0.1c1.7,1.6,2.6,3.7,2.6,5.8c0,4.4-3.6,7.1-8.9,7.1c-5.4,0-7.7-2.5-7.7-6.9c0-0.7,0.1-1.5,0.3-2.9
				c-1.9-0.3-3-0.5-4.1-0.9c-0.3,0-0.3-0.3-0.4-0.5c-0.1-0.9-0.1-1.9,0-2.9c1.9,0.7,3.2,1.1,5,1.2c0.1-1.2,0.4-3.2,0.5-4.4
				c-2.1-0.3-3.3-0.4-4.4-0.8c-0.4-0.1-0.5-0.3-0.5-0.5c0-0.8-0.1-1.7-0.1-2.9c2.1,0.7,3.6,0.9,5.6,1.2c0.3-1.7,0.4-2.6,0.4-3.6
				c0-0.8,0-1.7,0-2.5c1.5,0.1,3,0.5,3.7,0.8c0.4,0.1,0.7,0.4,0.7,0.7c0,0.3-0.1,0.4-0.3,0.5c-0.3,0.3-0.4,0.7-0.5,1.3
				c-0.1,0.7-0.4,1.7-0.5,2.9c1.2,0.1,2.5,0,3.7-0.1c0.3,0,0.3,0.1,0.3,0.4c0,0.8,0,1.6,0,2.2c0,0.4-0.1,0.4-0.5,0.4
				c-1.3,0.1-2.8,0.1-4.1,0.1c-0.1,1.1-0.5,3.2-0.7,4.4c1.6,0,2.9,0,4.4-0.1c0.4,0,0.5,0,0.5,0.4c0,0.5,0,1.6-0.1,2.2
				c0,0.4-0.1,0.5-0.4,0.5c-1.6,0.1-3.2,0.1-4.6,0.1C303.5,329.4,303.5,330.1,303.5,330.8z"/>
			<path fill="#054B68" d="M330.8,312.2c0.4,0.1,0.5,0.3,0.5,0.5c0,0.4-0.3,0.8-0.3,1.3c0,0.7,0.1,1.3,0.1,2.1
				c0.3,2.1,0.5,3.7,0.9,5.3c1.6-0.8,2.6-1.5,4.4-2.4c0.9-0.5,1.6-1.1,2.1-1.6c0.9,1.1,1.7,2.1,2.2,2.9c0.1,0.1,0.3,0.4,0.3,0.7
				c0,0.3-0.1,0.5-0.7,0.7c-0.9,0.1-2,0.5-2.9,0.9c-2.6,1.1-5,2.2-7.1,3.6c-2.6,1.7-3.6,3.2-3.6,4.6c0,1.9,1.3,2.5,4.9,2.5
				c3.8,0,7-0.3,9.4-0.7c0.4,0,0.5,0,0.5,0.4c0.1,0.8,0.3,2,0.3,2.9c0,0.4-0.1,0.5-0.5,0.5c-2.8,0.4-5.3,0.4-9.1,0.4
				c-5.8,0-8.9-1.9-8.9-5.8c0-3.4,2.2-5.7,5.8-7.9c-0.8-2.4-1.3-5.2-1.6-7.4c-0.3-1.6-0.4-2.6-0.8-3.6
				C328.1,311.9,329.6,312,330.8,312.2z"/>
			<path fill="#054B68" d="M352.2,319.4c4.8-1.6,8.6-2.5,11-2.5c5.4,0,9,3.3,9,8.1c0,4-1.7,6.6-5.4,8.5c-2.5,1.5-5,2-7.8,2.5
				c-0.7,0.1-0.8,0.1-1.1-0.5c-0.4-0.8-1.2-1.7-2.1-2.4c4.1-0.7,6.2-1.2,8.3-2.2c2.6-1.3,4.2-3.3,4.2-6.1c0-2.9-1.9-4.6-5.3-4.6
				c-2.8,0-6.4,1.1-11.1,3.2c-0.9,0.5-1.7,0.8-2.1,1.1c-0.4,0.4-0.7,0.4-0.8,0.4c-0.3,0-0.5-0.1-0.9-0.7c-0.5-0.7-1.3-1.9-2-3.2
				C347.6,320.8,348.8,320.6,352.2,319.4z M368.9,312.9c0.1-0.1,0.3-0.1,0.4,0c0.9,0.8,2.1,2,2.9,3.3c0.1,0.1,0.1,0.4-0.1,0.5
				l-1.3,0.9c-0.3,0.1-0.4,0.1-0.5-0.1c-0.9-1.5-1.9-2.5-3-3.6L368.9,312.9z M371.5,310.9c0.1-0.1,0.3-0.1,0.4,0
				c1.2,0.8,2.2,2.1,2.9,3.2c0.1,0.1,0.1,0.4-0.1,0.5l-1.2,0.9c-0.3,0.1-0.4,0.1-0.5-0.1c-0.8-1.3-1.9-2.5-3-3.6L371.5,310.9z"/>
			<path fill="#054B68" d="M394.3,313.7c0.1,0.1,0.3,0.4,0.3,0.5c0,0.3-0.1,0.4-0.4,0.5c-0.4,0.1-0.8,0.4-1.5,1.1
				c-2.6,2.4-6,5.6-8.3,7.9c-0.3,0.4-0.4,0.5-0.4,0.7c0,0.2,0.1,0.4,0.4,0.5c4,2.9,8.1,6.2,11.4,9.7c0.1,0.1,0.3,0.3,0.3,0.4
				c0,0.1,0,0.3-0.3,0.4c-0.7,0.8-1.6,1.6-2.1,2.1c-0.1,0.1-0.3,0.3-0.4,0.3s-0.3-0.1-0.4-0.3c-3.6-4-7-7.1-11.1-10.3
				c-1.2-0.9-1.6-1.6-1.6-2.5c0-1.1,0.5-1.7,1.5-2.6c2.6-2.8,5.2-5.4,7.8-8.2c0.8-0.9,1.3-1.6,1.6-2.2
				C392.3,312.1,393.4,312.9,394.3,313.7z"/>
		</g>
		<g>
			<g>
				<path fill="#054B68" d="M9.9,377.7c0,3.6-0.3,6.9-0.8,9.8c-0.5,2.5-1.2,4.6-2.5,6.7c-0.3,0.4-0.4,0.5-0.5,0.5s-0.3-0.1-0.7-0.5
					c-0.7-0.7-1.5-1.3-2.1-1.7c1.3-2,2-3.8,2.5-6.4c0.7-2.4,0.8-5.6,0.8-9.1c0-3.8,0-5.6,0-5.8c0-0.3,0-0.4,0.4-0.4
					c0.1,0,1.2,0,4.1,0h6.1v-1.3c0-0.9,0-1.7-0.1-2.5c1.2,0,2.1,0.1,3.3,0.1c0.3,0,0.5,0.1,0.5,0.3c0,0.3,0,0.4-0.1,0.5
					s-0.3,0.7-0.3,1.3v1.5h6.2c2.9,0,4,0,4.1,0c0.3,0,0.3,0,0.3,0.4v2.4c0,0.4,0,0.4-0.3,0.4c-0.1,0-1.2,0-4.1,0H9.9V377.7z
					 M24.1,382.6c0.4-0.1,0.4-0.3,0.7,0c2.2,3.2,4.4,7,5.8,10.2c0.1,0.3,0.1,0.4-0.3,0.7l-2.2,1.2c-0.4,0.1-0.5,0.1-0.7-0.3
					c-0.4-0.9-0.8-1.9-1.2-2.8c-4,0.7-9.3,1.5-14.3,2.1c-0.5,0-0.9,0.1-1.2,0.4c-0.1,0.1-0.4,0.1-0.5,0.1c-0.3,0-0.4-0.1-0.4-0.4
					c-0.3-0.8-0.5-2-0.8-3.2c1.1,0,2.1,0,3.4,0c1.7-4.4,2.8-7.9,3.8-12.2c0.3-0.8,0.4-1.7,0.4-2.9c1.2,0.3,2.5,0.7,3.4,0.9
					c0.4,0.1,0.5,0.3,0.5,0.5c0,0.3-0.1,0.4-0.3,0.7c-0.3,0.4-0.5,0.8-0.8,1.7c-1.1,3.7-2.1,7.1-3.7,10.8c3-0.4,6.1-0.8,8.7-1.2
					c-0.9-1.7-1.9-3.3-3-4.9c-0.1-0.3-0.1-0.4,0.3-0.5L24.1,382.6z"/>
				<path fill="#054B68" d="M44.2,371.9c0.1-0.9,0.3-2.1,0.3-3.4c1.6,0.4,2.5,0.5,3.7,1.1c0.3,0.1,0.5,0.4,0.5,0.7
					c0,0.1,0,0.3-0.3,0.4c-0.3,0.4-0.4,0.8-0.7,1.2c-0.4,1.2-0.7,2.4-1.1,3.7c0.8-0.1,1.7-0.1,2.5-0.1c2.9,0,4.4,2,4.4,6
					c0,3.3-0.7,7.4-1.6,9.5c-0.9,2-2.4,2.9-4.1,2.9c-1.5,0-2.5-0.1-3.2-0.4c-0.4-0.1-0.5-0.4-0.5-0.8c-0.1-0.9-0.1-1.9-0.5-2.9
					c1.3,0.7,2.5,0.8,3.6,0.8s1.5-0.4,2-1.6c0.7-1.7,1.2-4.6,1.2-7.7c0-2.1-0.4-2.8-1.7-2.8c-0.8,0-1.7,0.1-2.5,0.3
					c-2,5.8-3.7,10.1-6.2,14.4c-0.1,0.4-0.4,0.4-0.8,0.3c-0.5-0.3-1.7-1.1-2.1-1.3c-0.1-0.1-0.3-0.3-0.3-0.4s0-0.3,0.1-0.4
					c2.5-4.2,4.1-7.5,5.6-12c-1.2,0.1-2.1,0.4-3,0.5c-0.8,0.1-1.3,0.4-1.7,0.5s-0.8,0.1-0.9-0.4c-0.3-0.7-0.7-1.9-0.9-3.2
					c1.3,0,2.6-0.1,4.1-0.3c1.3-0.1,2.4-0.3,3.6-0.4C43.8,374,44.1,373,44.2,371.9z M56.4,374c0.3-0.1,0.4,0,0.5,0.1
					c2.1,2,4,4.5,5,7.4c0.1,0.3,0.1,0.4-0.1,0.7c-0.5,0.5-1.7,1.2-2.2,1.6c-0.3,0.1-0.7,0.1-0.7-0.3c-1.2-3.2-2.8-5.8-5-7.9
					C54.6,375,55.6,374.4,56.4,374z M57.2,369.7c0.1-0.1,0.3-0.1,0.4,0c0.9,0.8,2.1,2,2.9,3.3c0.1,0.1,0.1,0.4-0.1,0.5l-1.3,0.9
					c-0.3,0.1-0.4,0.1-0.5-0.1c-0.9-1.5-1.9-2.5-3-3.6L57.2,369.7z M59.9,367.7c0.1-0.1,0.3-0.1,0.4,0c1.2,0.8,2.2,2.1,2.9,3.2
					c0.1,0.1,0.1,0.4-0.1,0.5l-1.2,0.9c-0.3,0.1-0.4,0.1-0.5-0.1c-0.8-1.3-1.9-2.5-3-3.6L59.9,367.7z"/>
				<path fill="#054B68" d="M76.3,380.1c1.7-0.9,3.2-1.3,4.9-1.3c4.5,0,7.5,2.9,7.5,7.4c0,5.2-4.1,8.3-10.7,8.3
					c-3.8,0-6.2-1.6-6.2-4.5c0-2.1,2-3.7,4.4-3.7c2.9,0,5,1.6,5.8,4.5c2.1-0.9,3.2-2.4,3.2-4.6c0-2.8-2-4.6-4.8-4.6
					c-2.5,0-5.4,1.2-7.8,3.3c-0.9,0.8-1.7,1.7-2.6,2.6c-0.3,0.3-0.4,0.4-0.5,0.4s-0.3-0.1-0.4-0.3c-0.7-0.5-1.3-1.3-1.9-2
					c-0.1-0.3-0.1-0.4,0.1-0.7c2.4-2,4.5-3.8,7.3-6.7c1.9-2,3.3-3.4,4.8-5.3c-1.9,0.4-4,0.8-6,1.2c-0.4,0.1-0.8,0.1-1.3,0.4
					c-0.1,0-0.4,0.1-0.7,0.1s-0.5-0.1-0.7-0.5c-0.4-0.7-0.7-1.6-1.1-3.3c0.9,0.1,2,0.1,2.9,0c1.9-0.1,4.5-0.5,7-1.1
					c0.8-0.1,1.3-0.3,1.7-0.4c0.1-0.1,0.4-0.3,0.5-0.3c0.3,0,0.5,0.1,0.7,0.3c0.9,0.7,1.6,1.3,2.1,2c0.3,0.3,0.4,0.5,0.4,0.8
					c0,0.3-0.1,0.5-0.5,0.8c-0.5,0.3-0.8,0.4-1.3,0.9C80.7,375.6,78.7,377.7,76.3,380.1L76.3,380.1z M76.5,388.9
					c-0.9,0-1.5,0.5-1.5,1.2c0,0.9,0.8,1.6,2.6,1.6c0.5,0,0.9,0,1.5-0.1C78.6,389.8,77.7,388.9,76.5,388.9z"/>
				<path fill="#054B68" d="M98,384.1c-0.9,0.9-1.9,1.7-2.9,2.5c-0.3,0.3-0.5,0.4-0.7,0.4c-0.1,0-0.3-0.3-0.5-0.7
					c-0.3-0.8-0.7-1.6-1.1-2.1c3.6-2.2,6.5-5.6,7.9-9.1h-3.4c-2.4,0-3,0-3.3,0s-0.4,0-0.4-0.4v-2.2c0-0.3,0-0.4,0.4-0.4
					c0.1,0,0.9,0,3.3,0h0.5v-1.2c0-1.6,0-2.6-0.3-3.7c1.2,0,2.1,0.1,3.2,0.3c0.3,0,0.5,0.1,0.5,0.3c0,0.3-0.1,0.4-0.1,0.7
					c-0.1,0.4-0.1,0.9-0.1,2.5v1.3h1.3c0.3,0,0.4,0,0.5-0.1c0.1,0,0.3-0.1,0.4-0.1s0.5,0.1,1.2,0.8c0.5,0.5,0.8,0.9,0.8,1.1
					c0,0.1,0,0.3-0.3,0.5c-0.3,0.3-0.4,0.4-0.7,0.9c-0.8,1.6-1.6,3-2.6,4.5c1.2,1.3,2.6,2.5,4.5,3.6c-0.4,0.5-0.9,1.2-1.2,2
					c-0.3,0.4-0.4,0.7-0.5,0.7s-0.4-0.1-0.7-0.4c-0.9-0.9-1.9-1.9-2.6-2.9v8.6c0,2.2,0,3.4,0,3.6c0,0.3,0,0.4-0.4,0.4h-2.5
					c-0.4,0-0.4,0-0.4-0.4c0-0.1,0-1.3,0-3.6v-7.4H98z M108.2,394.2c-2.9,0-4,0-4.1,0c-0.3,0-0.4,0-0.4-0.4v-2.4
					c0-0.3,0-0.4,0.4-0.4c0.1,0,1.2,0,4.1,0h2.5v-11.5h-1.3c-2.8,0-3.7,0-3.8,0c-0.3,0-0.3,0-0.3-0.3v-2.4c0-0.3,0-0.3,0.3-0.3
					c0.1,0,1.2,0,3.8,0h1.3v-4.9c0-2.1,0-3.2-0.3-4.6c1.2,0,2.4,0.1,3.4,0.3c0.3,0,0.5,0.1,0.5,0.3c0,0.3,0,0.4-0.1,0.7
					c-0.1,0.4-0.3,1.2-0.3,3.3v5h2c2.8,0,3.7,0,3.8,0c0.3,0,0.4,0,0.4,0.3v2.4c0,0.3,0,0.3-0.4,0.3c-0.1,0-1.2,0-3.8,0h-2v11.5h2.8
					c2.9,0,3.8,0,4.1,0c0.4,0,0.4,0,0.4,0.4v2.4c0,0.3,0,0.4-0.4,0.4c-0.1,0-1.2,0-4.1,0h-8.5V394.2z"/>
				<path fill="#054B68" d="M132.4,376.9c-1.7,1.2-3.6,2.4-5.6,3.3c-0.4,0.1-0.5,0.3-0.8,0.3s-0.3-0.3-0.5-0.8
					c-0.4-0.8-0.8-1.5-1.3-2c5.3-2.1,9.3-5.4,11.8-8.9c0.5-0.8,0.8-1.3,1.1-2c1.2,0.1,2.4,0.4,3.3,0.7c0.4,0.1,0.5,0.3,0.5,0.4
					s0,0.4-0.3,0.5c-0.1,0.1-0.3,0.1-0.4,0.3c3.4,4.2,7.5,6.9,13,8.7c-0.5,0.8-0.9,1.5-1.3,2.2c-0.3,0.5-0.3,0.8-0.5,0.8
					c-0.1,0-0.4-0.1-0.7-0.3c-2.1-0.9-4.1-2-5.8-3.3v2.2c0,0.3,0,0.4-0.4,0.4c-0.1,0-1.1,0-3.4,0h-4.8c-2.5,0-3.3,0-3.4,0
					c-0.3,0-0.4,0-0.4-0.4v-2.1H132.4z M130.5,385.3c-2.9,0-3.8,0-4.1,0c-0.4,0-0.4,0-0.4-0.4v-2.2c0-0.3,0-0.4,0.4-0.4
					c0.1,0,1.2,0,4.1,0h16.3c2.9,0,3.8,0,4.1,0c0.4,0,0.4,0,0.4,0.4v2.2c0,0.3,0,0.4-0.4,0.4c-0.1,0-1.2,0-4.1,0h-9.5
					c-0.8,1.9-1.7,3.8-2.8,5.8c3.2-0.1,6.5-0.4,9.4-0.8c-0.7-0.8-1.5-1.7-2.2-2.6c-0.3-0.3-0.1-0.4,0.1-0.5l2-1.1
					c0.4-0.1,0.4-0.1,0.7,0c2.1,2.1,3.8,4.4,5.7,7.1c0.1,0.3,0.1,0.4-0.1,0.5L148,395c-0.1,0.1-0.3,0.1-0.4,0.1s-0.1,0-0.3-0.3
					c-0.5-0.8-1.1-1.6-1.6-2.4c-5,0.7-11.4,1.2-16.5,1.6c-0.5,0-0.9,0.1-1.1,0.3c-0.1,0.1-0.3,0.1-0.5,0.1c-0.3,0-0.4-0.1-0.4-0.4
					c-0.3-1.1-0.4-2.1-0.7-3.2c1.2,0.1,2.1,0,3.3,0c0.3,0,0.7,0,0.9,0c1.1-2.1,2-4.1,2.6-6h-2.8L130.5,385.3L130.5,385.3z
					 M140.9,376.7c2.1,0,2.9,0,3.3,0c-2.2-1.6-4.1-3.4-5.8-5.6c-1.6,2.1-3.4,4-5.6,5.6c0.3,0,1.2,0,3.3,0H140.9z"/>
				<path fill="#054B68" d="M162.7,370.7c0.5,0.3,0.7,0.4,0.7,0.8c0,0.3,0,0.3-0.4,0.9c-0.3,0.5-0.4,0.9-0.8,2.1
					c-0.8,3.8-1.3,7.5-1.3,9.9c0,1.5,0,2.5,0.1,3.6c0.7-1.5,1.2-2.4,2.1-4.5c0.3,0.8,0.7,1.2,1.1,2c0.1,0.1,0.3,0.4,0.3,0.4
					c0,0.3,0,0.4-0.1,0.5c-0.7,1.6-1.3,2.9-1.7,4.6c0,0.1-0.1,0.5-0.1,0.9s0,0.7,0,0.8c0,0.3-0.1,0.4-0.4,0.4
					c-0.8,0.3-1.6,0.4-2.5,0.5c-0.3,0-0.4-0.1-0.4-0.4c-0.8-2.1-1.5-6.1-1.5-9.1c0-2.8,0.4-6.1,1.1-10.1c0.4-2.2,0.5-3.3,0.5-4.5
					C160.8,369.9,161.8,370.2,162.7,370.7z M169.2,385.2c0.3,0,0.3,0.1,0.3,0.4c0.1,2.1,1.6,2.9,5,2.9c2.2,0,3.8-0.1,5.8-0.4
					c0.3,0,0.4,0,0.4,0.4c0.1,0.7,0.1,1.9,0.1,2.6c0,0.4,0,0.4-0.5,0.4c-2.1,0.3-3.6,0.4-5,0.4c-4.5,0-6.6-0.8-7.9-2.5
					c-0.8-0.9-1.1-2.5-1.1-4L169.2,385.2z M167.5,373.6c0-0.4,0.1-0.4,0.4-0.5c1.9-0.4,5.3-0.5,6.6-0.5c1.9,0,3.3,0,4.5,0.1
					c0.7,0,0.7,0.1,0.7,0.4c0,0.9,0,1.7,0,2.6c0,0.3-0.1,0.4-0.4,0.4c-1.9-0.1-3.4-0.1-5-0.1c-2.1,0-4.1,0.1-7,0.7
					C167.5,375,167.5,374.2,167.5,373.6z"/>
				<path fill="#054B68" d="M193.7,378c-1.6,0.1-3,0.3-5.2,0.3c-0.5,0-0.7-0.1-0.8-0.7c-0.1-0.5-0.3-1.6-0.4-2.6
					c0.8,0.1,1.6,0.1,2.4,0.1c1.3,0,2.6-0.1,3.8-0.3c0-1.1,0-2.1,0-3.4c0-0.8,0-1.7-0.3-2.5c1.6,0.1,2.8,0.3,3.7,0.5
					c0.4,0.1,0.7,0.3,0.7,0.5c0,0.1,0,0.3-0.1,0.5c-0.3,0.4-0.4,0.8-0.4,1.2c-0.1,0.8-0.1,1.6-0.1,2.5c1.3-0.3,2.6-0.7,4-1.2
					c0.3-0.1,0.5,0,0.5,0.3c0.1,0.8,0.1,1.6,0.1,2.4c0,0.3-0.1,0.4-0.4,0.5c-2,0.7-2.5,0.8-4.4,1.2c0,1.5,0,2.9,0,4.5
					c2.9-1.2,5.6-1.7,7.5-1.7c3.8,0,6.5,2.5,6.5,6.1c0,4-2.5,6.2-6.6,6.2c-0.9,0-1.9-0.1-2.5-0.3c-0.5-0.1-0.7-0.4-0.7-0.9
					c0-0.7-0.3-1.7-0.9-2.6c1.5,0.5,2.6,0.5,3.8,0.5c1.7,0,3.3-0.9,3.3-3.2c0-2-1.2-3-3.3-3c-1.7,0-3.8,0.4-7,2.1
					c0,1.3,0,2.4,0.1,3.7c0.1,1.3,0.3,3.3,0.3,4c0,0.4,0,0.9-0.4,1.1c-0.7,0.1-1.6,0.4-2.2,0.4c-0.4,0-0.4-0.3-0.8-0.7
					c-0.8-1.2-2.4-2.6-4.4-4c-0.4,0.1-0.7,0.4-0.9,0.7c-0.1,0.1-0.4,0.3-0.5,0.3c-0.3,0-0.5-0.1-0.7-0.5c-0.4-0.5-0.9-1.9-1.5-2.9
					c0.8-0.1,1.9-0.5,2.8-1.1c1.3-0.8,2.8-1.6,5-2.9v-5h0V378z M190.9,388.6c0.8,0.4,1.9,0.9,2.9,1.3c0.3,0,0.4,0,0.3-0.3
					c0-0.8-0.1-2.2-0.1-3.2C193,387.1,192,387.8,190.9,388.6z M205.5,372.5c0.3-0.4,0.3-0.4,0.5-0.4c2.8,0.8,4.9,2.1,6.5,3.7
					c0.1,0.1,0.1,0.3,0.1,0.3c0,0.1,0,0.1-0.1,0.3c-0.4,0.7-1.2,1.6-1.6,2.1c-0.1,0.1-0.5,0.1-0.7,0c-1.6-1.9-3.7-2.9-6.2-3.7
					C204.6,374,205,373.2,205.5,372.5z"/>
				<path fill="#054B68" d="M223.5,392c0,0.3-0.1,0.3-0.4,0.4c-0.9,0.4-1.5,0.5-2.1,0.7c-0.4,0-0.5,0-0.7-0.4
					c-0.9-2-1.9-6.4-1.9-9.5c0-2.5,0.3-5.3,0.9-9.8c0.1-1.5,0.4-2.8,0.4-4.5c1.5,0.4,2.4,0.7,3.2,1.1c0.5,0.3,0.7,0.4,0.7,0.7
					c0,0.1,0,0.3-0.1,0.7s-0.4,1.2-0.5,2.2c-0.5,3.3-1.2,6.5-1.2,9.1c0,2,0,3.7,0.3,4.9c0.8-1.6,1.3-2.6,2.1-4.4
					c0.4,1.2,0.7,1.6,1.1,2.1c0.1,0.3,0.3,0.4,0.3,0.5c0,0.3,0,0.4-0.4,1.1c-0.8,1.9-1.1,2.6-1.3,3.7c0,0.3-0.1,0.5-0.1,0.8v0.7
					h-0.3V392z M234.1,378.1c-1.6,0.1-2.8,0.1-3.7,0.1c-0.7,0-1.5,0-2.5,0c-0.4,0-0.7-0.1-0.7-0.5c-0.1-0.7-0.1-1.5-0.4-2.8
					c1.2,0.1,2.6,0.1,3.8,0.1c0.8,0,2.2,0,3.4-0.1c0-1.6,0-2.9-0.1-4.1c-0.1-1.1-0.3-1.7-0.5-2.5c1.9,0,3.3,0.3,4,0.4
					c0.4,0.1,0.5,0.3,0.5,0.5c0,0.3-0.1,0.4-0.3,0.7c-0.1,0.1-0.1,0.7-0.1,1.3v3.4c1.3-0.1,2.6-0.4,4-0.7c0.4-0.1,0.5,0,0.5,0.3
					c0.1,0.8,0.1,1.5,0.3,2.2c0,0.4-0.1,0.5-0.4,0.5c-1.5,0.3-2.8,0.4-4.2,0.7v4.8c0,2.9-0.4,5.3-1.3,7.1c-0.9,2-2.5,3.7-4.4,4.8
					c-0.4,0.3-0.5,0.3-0.8,0.3s-0.4,0-0.7-0.3c-0.5-0.5-1.3-1.1-2.4-1.5c2.9-1.6,4.2-2.9,5.2-5c0.7-1.6,0.9-3.7,0.9-6.9L234.1,378.1
					z"/>
				<path fill="#054B68" d="M255.5,380.1c1.7-0.9,3.2-1.3,4.9-1.3c4.5,0,7.5,2.9,7.5,7.4c0,5.2-4.1,8.3-10.7,8.3
					c-3.8,0-6.2-1.6-6.2-4.5c0-2.1,2-3.7,4.4-3.7c2.9,0,5,1.6,5.8,4.5c2.1-0.9,3.2-2.4,3.2-4.6c0-2.8-2-4.6-4.8-4.6
					c-2.5,0-5.4,1.2-7.8,3.3c-0.9,0.8-1.7,1.7-2.6,2.6c-0.3,0.3-0.4,0.4-0.5,0.4s-0.3-0.1-0.4-0.3c-0.7-0.5-1.3-1.3-1.9-2
					c-0.1-0.3-0.1-0.4,0.1-0.7c2.4-2,4.5-3.8,7.3-6.7c1.9-2,3.3-3.4,4.8-5.3c-1.9,0.4-4,0.8-6,1.2c-0.4,0.1-0.8,0.1-1.3,0.4
					c-0.1,0-0.4,0.1-0.7,0.1s-0.5-0.1-0.7-0.5c-0.4-0.7-0.7-1.6-1.1-3.3c0.9,0.1,2,0.1,2.9,0c1.9-0.1,4.5-0.5,7-1.1
					c0.8-0.1,1.3-0.3,1.7-0.4c0.1-0.1,0.4-0.3,0.5-0.3c0.3,0,0.5,0.1,0.7,0.3c0.9,0.7,1.6,1.3,2.1,2c0.3,0.3,0.4,0.5,0.4,0.8
					c0,0.3-0.1,0.5-0.5,0.8c-0.5,0.3-0.8,0.4-1.3,0.9C259.9,375.6,257.9,377.7,255.5,380.1L255.5,380.1z M255.6,388.9
					c-0.9,0-1.5,0.5-1.5,1.2c0,0.9,0.8,1.6,2.6,1.6c0.5,0,0.9,0,1.5-0.1C257.7,389.8,256.8,388.9,255.6,388.9z"/>
			</g>
		</g>
		<g>
			<g>
				<path fill="#054B68" d="M705,388.5c0,0.4-0.1,0.5-0.5,0.5s-1.3,0.1-2.1,0.1c-0.3,0-0.4-0.1-0.4-0.5c0-1.1,0-2.6,0-3.7
					c-2.8,1.5-3.7,2.6-3.7,4.1c0,1.3,1.1,2.1,4.2,2.1c2.8,0,5.3-0.3,7.7-0.7c0.3,0,0.4,0,0.4,0.4c0.1,0.7,0.3,1.7,0.3,2.5
					c0,0.4-0.1,0.5-0.4,0.5c-2.6,0.4-4.6,0.4-7.5,0.4c-5,0-7.7-1.5-7.7-5c0-2.9,1.9-5,6.5-7.4c-0.1-1.6-0.4-2.1-1.9-2.1
					s-2.8,0.9-4.2,2.2c-1.3,1.3-2.1,2.1-3,3.3c-0.1,0.1-0.3,0.3-0.4,0.3s-0.3-0.1-0.4-0.3c-0.4-0.4-1.3-1.3-1.7-2
					c-0.1-0.1-0.1-0.3-0.1-0.3c0-0.1,0-0.3,0.3-0.4c2.4-2.1,4.6-4.5,6.4-7.5c-1.5,0-3,0.1-4.9,0.1c-0.3,0-0.4-0.1-0.4-0.5
					c-0.1-0.5-0.3-1.6-0.3-2.5c2.4,0.1,4.8,0.1,7,0c0.4-0.8,0.7-1.6,0.9-2.6c0.1-0.5,0.3-1.1,0.3-1.9c1.3,0.3,2.6,0.5,3.4,0.8
					c0.3,0.1,0.4,0.3,0.4,0.5c0,0.1,0,0.4-0.3,0.4c-0.1,0.1-0.4,0.4-0.5,0.8s-0.4,0.8-0.7,1.6c1.9-0.3,3.7-0.5,5.6-0.9
					c0.4,0,0.4,0,0.5,0.3c0.1,0.7,0.3,1.3,0.3,2.2c0,0.3-0.1,0.4-0.5,0.5c-2.2,0.4-4.9,0.7-7.1,0.9c-0.7,1.2-1.3,2.2-2.2,3.4l0,0
					c0.9-0.7,2.2-0.9,3-0.9c2,0,3.4,0.9,3.7,3.3c1.2-0.5,2.9-1.3,4.5-2.1c0.5-0.3,1.6-0.8,2.4-1.6c1.1,1.1,1.9,2.1,2.1,2.6
					c0.1,0.3,0.3,0.5,0.3,0.7c0,0.3-0.1,0.4-0.4,0.4c-0.7,0.1-1.2,0.3-1.9,0.4c-2,0.7-4,1.3-6.6,2.5v4.9H705V388.5z"/>
				<path fill="#054B68" d="M723.5,372.6c2.4,0,3,0,3.3,0s0.4,0,0.4,0.4v2.1c0,0.4,0,0.4-0.4,0.4c-0.1,0-0.9,0-3.3,0h-2.4
					c-2.4,0-3,0-3.3,0s-0.4,0-0.4-0.4V373c0-0.3,0-0.4,0.4-0.4c0.1,0,0.9,0,3.3,0H723.5z M726.3,390c0,3.6,0,4.2,0,4.4
					c0,0.3,0,0.4-0.4,0.4h-2.1c-0.3,0-0.4,0-0.4-0.4v-0.7h-2.2v1.2c0,0.3,0,0.4-0.4,0.4h-2.1c-0.4,0-0.4,0-0.4-0.4
					c0-0.1,0-0.9,0-4.6v-2c0-2,0-2.6,0-2.9s0-0.4,0.4-0.4c0.1,0,0.8,0,2.8,0h1.5c2,0,2.6,0,2.8,0c0.3,0,0.4,0,0.4,0.4
					c0,0.1,0,0.9,0,2.4v2.2H726.3z M723.4,368.5c2,0,2.5,0,2.8,0c0.4,0,0.4,0,0.4,0.4v1.9c0,0.3,0,0.4-0.4,0.4c-0.1,0-0.8,0-2.8,0
					h-1.6c-2,0-2.6,0-2.8,0c-0.3,0-0.4,0-0.4-0.4v-2c0-0.3,0-0.4,0.4-0.4c0.1,0,0.8,0,2.8,0h1.6V368.5z M723.1,376.9
					c1.9,0,2.4,0,2.5,0c0.4,0,0.4,0,0.4,0.4v2c0,0.3,0,0.4-0.4,0.4c-0.1,0-0.8,0-2.5,0h-1.2c-1.9,0-2.4,0-2.6,0
					c-0.3,0-0.4,0-0.4-0.4v-2c0-0.3,0-0.4,0.4-0.4c0.1,0,0.8,0,2.6,0H723.1z M723.1,381.1c1.9,0,2.4,0,2.5,0c0.4,0,0.4,0,0.4,0.4v2
					c0,0.3,0,0.4-0.4,0.4c-0.1,0-0.8,0-2.5,0h-1.2c-1.9,0-2.4,0-2.6,0c-0.3,0-0.4,0-0.4-0.4v-2c0-0.3,0-0.4,0.4-0.4
					c0.1,0,0.8,0,2.6,0H723.1z M721.4,387.8v3.4h2.2v-3.4H721.4z M739.9,385.8c0.1,1.1,0.4,1.9,0.7,2.8c0.3-0.3,0.5-0.5,0.8-0.8
					c0.3-0.4,0.7-0.9,0.9-1.6c0.7,0.3,1.3,0.7,1.9,1.1c0.3,0.1,0.4,0.3,0.4,0.5s-0.1,0.3-0.4,0.4c-0.3,0.1-0.5,0.5-0.9,0.9
					c-0.4,0.5-0.9,1.1-1.5,1.6c0.8,1.2,1.3,1.6,1.7,1.6s0.8-0.7,0.9-2.8c0.3,0.3,0.8,0.7,1.2,0.8c0.8,0.4,0.8,0.4,0.7,1.3
					c-0.4,2.4-1.2,3.2-2.6,3.2s-2.8-0.8-4-2.5c-1.1,0.8-2.1,1.5-3.4,2c-0.4,0.1-0.5,0.3-0.8,0.3s-0.4-0.3-0.7-0.8s-0.7-0.9-1.1-1.3
					c1.9-0.5,3.4-1.3,4.8-2.2c-0.5-1.3-1.1-2.8-1.2-4.5h-3.6v1.5l2.6-0.5c-0.1,0.4-0.1,1.1-0.3,1.7c0,0.5,0,0.7-0.5,0.7l-2,0.4
					c0,0.8,0.1,1.6,0.1,2.5c0,1.6-0.3,2.1-0.8,2.5c-0.7,0.4-1.3,0.5-3,0.5c-0.9,0-0.9,0-1.2-0.9c-0.1-0.5-0.4-1.2-0.5-1.6
					c0.7,0.1,1.3,0.1,2,0.1c0.8,0,1.1-0.3,1.1-1.1V390l-2,0.3c-0.7,0.1-0.9,0.1-1.1,0.3c-0.1,0.1-0.3,0.1-0.4,0.1s-0.3-0.1-0.4-0.4
					c-0.1-0.7-0.3-1.6-0.4-2.2c0.9,0,1.7,0,2.4-0.1c0.7,0,1.2-0.1,1.9-0.3V386c-2.4,0-3.3,0.1-3.6,0.1s-0.3,0-0.3-0.4v-1.6
					c0-0.3,0-0.3,0.4-0.3c0.3,0,1.2,0,3.6,0v-1.2l-1.9,0.3c-0.7,0.1-0.7,0.1-0.8-0.4s-0.4-1.2-0.7-1.5c2.4-0.3,4-0.5,5.6-0.9
					c0.5-0.1,0.8-0.3,1.2-0.5c0.5,0.4,1.1,0.9,1.5,1.3c0.1,0.1,0.1,0.3,0.1,0.4s-0.1,0.3-0.4,0.3s-0.5,0.1-0.9,0.1
					c-0.4,0.1-0.8,0.3-1.2,0.4v1.7h3.3l-0.1-2c0-0.7-0.1-1.3-0.3-2c0.9,0,1.9,0.1,2.5,0.1c0.4,0,0.7,0.1,0.7,0.4
					c0,0.1-0.1,0.4-0.1,0.5c-0.1,0.3-0.1,0.8-0.1,1.5c0,0.5,0,1.1,0,1.5h1.6c2.8,0,3.8-0.1,4.1-0.1s0.3,0,0.3,0.4v1.6
					c0,0.3,0,0.3-0.3,0.3s-1.5,0-4.2,0h-1.3V385.8z M731.8,379.1c-2.9,0-4,0-4.1,0c-0.3,0-0.3,0-0.3-0.4v-1.6c0-0.3,0-0.4,0.3-0.4
					c0.1,0,1.2,0,4.1,0h2.9v-1.3h-1.5c-2.8,0-3.6,0-3.8,0c-0.4,0-0.4,0-0.4-0.4v-1.6c0-0.3,0-0.3,0.4-0.3c0.1,0,1.1,0,3.8,0h1.5
					v-1.3h-2.1c-2.9,0-3.8,0-4.1,0s-0.4,0-0.4-0.4v-1.6c0-0.3,0-0.4,0.4-0.4c0.1,0,1.1,0,3.3,0c-0.3-0.5-0.7-1.2-1.2-1.9
					c-0.1-0.3-0.1-0.4,0.3-0.4l1.6-0.4c0.4-0.1,0.4-0.1,0.7,0.1c0.5,0.8,1.2,1.7,1.6,2.6h2.5c0.4-0.5,0.7-1.1,0.9-1.6
					c0.3-0.4,0.4-0.8,0.5-1.3c0.9,0.1,1.9,0.3,2.6,0.5c0.3,0.1,0.4,0.1,0.4,0.4c0,0.3-0.1,0.3-0.3,0.4c-0.1,0.1-0.4,0.3-0.5,0.5
					c-0.3,0.4-0.5,0.8-0.8,1.1h0.1c2.9,0,3.8,0,4.1,0s0.4,0,0.4,0.4v1.6c0,0.3,0,0.4-0.4,0.4c-0.1,0-1.2,0-4.1,0h-3v1.3h2.1
					c2.8,0,3.6,0,3.8,0s0.4,0,0.4,0.3v1.6c0,0.3,0,0.4-0.4,0.4c-0.1,0-1.1,0-3.8,0h-2.1v1.3h3.7c2.9,0,4,0,4.1,0
					c0.3,0,0.3,0,0.3,0.4v1.6c0,0.3,0,0.4-0.3,0.4c-0.1,0-1.2,0-4.1,0L731.8,379.1L731.8,379.1L731.8,379.1z M741.7,379.7
					c0.3-0.1,0.4-0.3,0.7,0c0.8,0.5,1.6,1.2,2.2,2c0.3,0.3,0.3,0.3-0.1,0.5l-1.3,0.9c-0.1,0.1-0.3,0.1-0.4,0.1c0,0-0.1,0-0.3-0.3
					c-0.7-0.8-1.5-1.6-2.1-2.1c-0.3-0.1-0.3-0.3,0-0.5L741.7,379.7z"/>
				<path fill="#054B68" d="M754.8,372.7c2.4,0,3,0,3.3,0s0.4,0,0.4,0.4v2.1c0,0.4,0,0.4-0.4,0.4c-0.1,0-0.9,0-3.3,0h-2.4
					c-2.4,0-3,0-3.3,0s-0.4,0-0.4-0.4v-2.1c0-0.3,0-0.4,0.4-0.4c0.1,0,0.9,0,3.3,0H754.8z M757.8,390c0,3.6,0,4.2,0,4.4
					c0,0.3,0,0.4-0.4,0.4h-1.9c-0.3,0-0.4,0-0.4-0.4v-0.8h-2.5v1.3c0,0.3,0,0.4-0.4,0.4h-2c-0.4,0-0.4,0-0.4-0.4c0-0.1,0-0.9,0-4.6
					v-2c0-2,0-2.6,0-2.9s0-0.4,0.4-0.4c0.1,0,0.8,0,2.8,0h1.6c2,0,2.6,0,2.8,0c0.3,0,0.4,0,0.4,0.4c0,0.1,0,0.9,0,2.4L757.8,390
					L757.8,390z M754.8,368.5c2,0,2.5,0,2.8,0c0.4,0,0.4,0,0.4,0.4v1.9c0,0.3,0,0.4-0.4,0.4c-0.1,0-0.8,0-2.8,0h-1.7
					c-2,0-2.6,0-2.8,0c-0.3,0-0.4,0-0.4-0.4v-2c0-0.3,0-0.4,0.4-0.4c0.1,0,0.8,0,2.8,0h1.7V368.5z M754.7,376.9c1.9,0,2.4,0,2.5,0
					c0.4,0,0.4,0,0.4,0.4v2c0,0.3,0,0.4-0.4,0.4c-0.1,0-0.8,0-2.5,0h-1.5c-1.9,0-2.4,0-2.6,0s-0.4,0-0.4-0.4v-2c0-0.3,0-0.4,0.4-0.4
					c0.1,0,0.8,0,2.6,0H754.7z M754.7,381.2c1.9,0,2.4,0,2.5,0c0.4,0,0.4,0,0.4,0.4v2c0,0.3,0,0.4-0.4,0.4c-0.1,0-0.8,0-2.5,0h-1.5
					c-1.9,0-2.4,0-2.6,0s-0.4,0-0.4-0.4v-2c0-0.3,0-0.4,0.4-0.4c0.1,0,0.8,0,2.6,0H754.7z M752.7,387.8v3.3h2.5v-3.3H752.7z
					 M762.9,376c-0.9,0.8-1.9,1.6-2.8,2.2c-0.4,0.3-0.5,0.4-0.7,0.4c-0.1,0-0.3-0.3-0.5-0.8c-0.4-0.8-0.9-1.3-1.3-1.7
					c3.4-1.9,5.8-4.5,7.5-7.3c0.4-0.7,0.7-1.1,0.8-1.9c1.2,0.1,2.5,0.3,3.2,0.4c0.3,0,0.4,0.1,0.4,0.4c0,0.1-0.1,0.3-0.3,0.4
					l-0.1,0.1c2.4,3.2,4.9,5.4,9,7.3c-0.5,0.7-0.8,1.3-1.2,2.1c-0.3,0.5-0.3,0.8-0.5,0.8c-0.1,0-0.4-0.1-0.7-0.3
					c-1.2-0.7-2.2-1.5-3.3-2.2v1.7c0,0.3,0,0.4-0.4,0.4c-0.1,0-0.8,0-2.8,0H766c-2,0-2.5,0-2.8,0s-0.4,0-0.4-0.4L762.9,376
					L762.9,376z M775.9,388.1c0,1.7,0,2.9,0,4c0,1.3-0.1,2.1-0.8,2.6c-0.5,0.4-1.2,0.7-2.6,0.7c-0.5,0-0.5-0.1-0.7-0.8
					c-0.1-0.8-0.3-1.6-0.7-2.2c0.5,0,0.9,0,1.3,0s0.5-0.3,0.5-0.8v-3.3h-2.1v2.5c0,2.1,0,3.2,0,3.3c0,0.3,0,0.4-0.4,0.4h-1.7
					c-0.3,0-0.4,0-0.4-0.4c0-0.1,0-1.2,0-3.3v-2.5h-1.9v2.5c0,2.1,0,3.2,0,3.3c0,0.3,0,0.4-0.4,0.4h-2c-0.4,0-0.4,0-0.4-0.4
					c0-0.1,0-1.2,0-3.3v-2.5h-1.9v3.3c0,2.2,0,3.3,0,3.4c0,0.3,0,0.4-0.4,0.4h-2.1c-0.3,0-0.4,0-0.4-0.4c0-0.1,0-1.2,0-3.4v-7.7
					c0-2.2,0-3.3,0-3.6c0-0.3,0-0.4,0.4-0.4c0.1,0,1.2,0,4.1,0h7.7c2.9,0,3.8,0,4.1,0s0.4,0,0.4,0.4c0,0.1,0,1.5,0,3.7v4.1
					L775.9,388.1L775.9,388.1z M764.1,385.8v-3.3h-1.9v3.3H764.1z M769.1,375.2c1.3,0,2,0,2.4,0c-1.6-1.3-2.9-2.9-4.1-4.5
					c-1.1,1.7-2.4,3.2-3.7,4.5c0.4,0,1.1,0,2.2,0H769.1z M768.5,385.8v-3.3h-1.9v3.3H768.5z M771.1,382.4v3.3h2.1v-3.3H771.1z"/>
				<path fill="#054B68" d="M793.9,370.3c0-0.9-0.1-1.3-0.4-2.2c1.3,0.1,2.9,0.3,3.6,0.4c0.5,0.1,0.8,0.3,0.8,0.5
					c0,0.2-0.1,0.4-0.3,0.7c-0.1,0.1-0.1,0.5-0.3,0.9c0,0.4,0,0.8,0,2c3.3-0.1,6.5-0.1,9.4-0.1c0.4,0,0.4,0,0.4,0.4
					c0,0.8,0,1.6,0,2.4c0,0.4-0.1,0.4-0.5,0.4c-3.2-0.1-6.2-0.1-9.4,0c0,1.9,0,3.8,0,5.7c0.3,0.8,0.4,2,0.4,3c0,3.6-1.5,7.3-5.4,9.9
					c-0.5,0.4-0.9,0.5-1.2,0.5s-0.7-0.3-0.9-0.4c-0.7-0.5-1.6-0.9-2.4-1.2c3.6-1.6,5.7-4.1,6.2-6.7c-0.7,0.9-1.9,1.2-2.9,1.2
					c-2.4,0-4.2-1.7-4.2-4.6s2.1-4.6,4.6-4.6c0.9,0,1.9,0.1,2.4,0.7c0-1.1,0-2.1,0-3.2c-3.8,0.3-8.2,0.5-10.6,0.9
					c-0.7,0.1-1.2,0.4-1.5,0.4s-0.4-0.1-0.5-0.4c-0.3-0.7-0.5-1.9-0.8-3c1.2,0.1,2.1,0,3.7-0.1c1.9-0.1,5.8-0.4,9.5-0.7
					C793.9,371.9,793.9,371.1,793.9,370.3z M789.9,382.6c0,1.3,0.8,2.1,2,2.1s2.1-0.7,2.1-2.1c0-1.2-0.8-2-2-2
					C791,380.7,789.9,381.3,789.9,382.6z"/>
				<path fill="#054B68" d="M819.7,380.1c1.7-0.9,3.2-1.3,4.9-1.3c4.5,0,7.5,2.9,7.5,7.4c0,5.2-4.1,8.3-10.7,8.3
					c-3.8,0-6.2-1.6-6.2-4.5c0-2.1,2-3.7,4.4-3.7c2.9,0,5,1.6,5.8,4.5c2.1-0.9,3.2-2.4,3.2-4.6c0-2.8-2-4.6-4.8-4.6
					c-2.5,0-5.4,1.2-7.8,3.3c-0.9,0.8-1.7,1.7-2.6,2.6c-0.3,0.3-0.4,0.4-0.5,0.4s-0.3-0.1-0.4-0.3c-0.7-0.5-1.3-1.3-1.9-2
					c-0.1-0.3-0.1-0.4,0.1-0.7c2.4-2,4.5-3.8,7.3-6.7c1.9-2,3.3-3.4,4.8-5.3c-1.9,0.4-4,0.8-6,1.2c-0.4,0.1-0.8,0.1-1.3,0.4
					c-0.1,0-0.4,0.1-0.7,0.1s-0.5-0.1-0.7-0.5c-0.4-0.7-0.7-1.6-1.1-3.3c0.9,0.1,2,0.1,2.9,0c1.9-0.1,4.5-0.5,7-1.1
					c0.8-0.1,1.3-0.3,1.7-0.4c0.1-0.1,0.4-0.3,0.5-0.3c0.3,0,0.5,0.1,0.7,0.3c0.9,0.7,1.6,1.3,2.1,2c0.3,0.3,0.4,0.5,0.4,0.8
					c0,0.3-0.1,0.5-0.5,0.8c-0.5,0.3-0.8,0.4-1.3,0.9C824,375.6,821.9,377.7,819.7,380.1L819.7,380.1z M819.7,388.9
					c-0.9,0-1.5,0.5-1.5,1.2c0,0.9,0.8,1.6,2.6,1.6c0.5,0,0.9,0,1.5-0.1C821.9,389.8,821,388.9,819.7,388.9z"/>
				<path fill="#054B68" d="M843.2,384.2c0.8-0.4,1.7-0.8,2.5-1.2c0,0.5,0,1.2,0,1.9c0,1.1,0,0.9-0.8,1.5c-1.7,0.9-3.7,1.9-5.7,2.6
					c-0.5,0.1-0.8,0.4-0.9,0.4c-0.1,0.1-0.4,0.3-0.5,0.3s-0.3-0.1-0.4-0.4c-0.3-0.8-0.5-1.6-0.8-2.8c1.1-0.1,2-0.4,3-0.8
					c0.3-0.1,0.4-0.1,0.7-0.3v-7.5H840c-2,0-2.6,0-2.8,0c-0.3,0-0.3,0-0.3-0.4v-2.4c0-0.3,0-0.4,0.3-0.4c0.1,0,0.8,0,2.8,0h0.3v-2.6
					c0-2.1,0-3.2-0.3-4.6c1.2,0,2.1,0.1,3.2,0.1c0.3,0,0.5,0.1,0.5,0.4c0,0.3-0.1,0.4-0.1,0.7c-0.1,0.4-0.1,1.2-0.1,3.4v2.8
					c1.6,0,2.2,0,2.4,0c0.3,0,0.4,0,0.4,0.4v2.4c0,0.3,0,0.4-0.4,0.4c-0.1,0-0.8,0-2.4,0v6.2L843.2,384.2L843.2,384.2z M859.5,385.8
					c-1.6,3.6-4,6.5-7.5,8.9c-0.4,0.3-0.5,0.4-0.8,0.4s-0.4-0.1-0.8-0.5c-0.4-0.5-0.9-0.9-1.3-1.2c3.7-2,6.1-4.5,7.5-7.4H855
					c-1.9,2.9-4.4,5.2-7.1,6.7c-0.4,0.3-0.5,0.4-0.8,0.4s-0.4-0.1-0.8-0.5c-0.4-0.4-0.8-0.8-1.3-1.1c2.9-1.3,5.2-3.2,6.9-5.4h-2
					c-1.2,1.5-2.5,2.6-4.1,3.6c-0.4,0.3-0.5,0.4-0.8,0.4c-0.1,0-0.4-0.1-0.7-0.5c-0.4-0.5-0.9-0.9-1.5-1.3c2.4-1.3,4.4-3,5.7-5
					c0.3-0.4,0.4-0.8,0.7-1.3c-2.5,0-3.4,0-3.6,0c-0.3,0-0.4,0-0.4-0.4v-2c0-0.3,0-0.4,0.4-0.4c0.1,0,1.2,0,4.1,0H860
					c2.9,0,4,0,4.1,0c0.3,0,0.4,0,0.4,0.4v2c0,0.4,0,0.4-0.4,0.4c-0.1,0-1.2,0-4.1,0h-9.1l1.1,0.3c0.3,0.1,0.4,0.3,0.4,0.4
					c0,0.3-0.1,0.3-0.3,0.4c-0.1,0.1-0.3,0.3-0.5,0.5h7.9c2.6,0,3.4,0,3.7,0c0.4,0,0.4,0,0.4,0.4l-0.3,3c-0.1,2.6-0.4,4.5-0.9,5.8
					c-0.7,1.6-1.6,2.4-3.4,2.4c-0.5,0-1.1,0-1.6,0c-0.7,0-0.7,0-0.9-1.1c-0.3-0.8-0.5-1.5-0.8-2c1.2,0.1,2.1,0.1,2.8,0.1
					s0.9-0.1,1.2-0.9s0.5-2.1,0.8-5.3h-0.9v-0.2H859.5z M857.8,368.3c2.6,0,3.4,0,3.7,0s0.4,0,0.4,0.4c0,0.1,0,0.9,0,2.6v3.7
					c0,1.7,0,2.5,0,2.6c0,0.3,0,0.4-0.4,0.4c-0.3,0-1.1,0-3.7,0H852c-2.6,0-3.6,0-3.7,0c-0.3,0-0.4,0-0.4-0.4c0-0.3,0-0.9,0-2.6
					v-3.7c0-1.7,0-2.4,0-2.6c0-0.3,0-0.4,0.4-0.4c0.3,0,1.1,0,3.7,0H857.8z M850.8,370.6v1.5h8.1v-1.5H850.8z M858.8,374.2h-8.1v1.5
					h8.1V374.2z"/>
			</g>
		</g>
		<g>
			<path fill="#A90E24" d="M615.1,262.2c-1.6,0-3,0.1-4.1,0.1c-0.3,0-0.4-0.1-0.5-0.5c-0.1-0.5-0.1-1.9-0.3-2.5
				c1.2,0.1,2.5,0.1,4.8,0.1h9c0.8,0,1.1,0,1.3-0.3c0.1-0.1,0.3-0.1,0.4-0.1c0.1,0,0.3,0,0.5,0.1c0.7,0.4,1.3,1.1,1.9,1.7
				c0.1,0.1,0.1,0.3,0.1,0.4c0,0.3-0.1,0.4-0.4,0.7c-0.3,0.3-0.4,0.5-0.5,0.9c-1.2,2.9-2.8,5.7-4.9,8.2c-2.1,2.5-4.6,4.5-7.1,6
				c-0.3,0.1-0.4,0.3-0.7,0.3s-0.4-0.1-0.7-0.3c-0.5-0.5-1.5-1.1-2.4-1.3c3.7-1.9,6-3.6,8.2-6.4c2-2.2,3.3-4.4,4.2-7.1
				C624,262.2,615.1,262.2,615.1,262.2z"/>
			<path fill="#A90E24" d="M640.3,265.4c-1.5,0-2.2,0.1-3.4,0.1c-0.3,0-0.5-0.1-0.5-0.3c-0.1-0.5-0.3-1.5-0.4-2.4
				c1.5,0.1,2.2,0.1,4.1,0.1h8.5c0.7,0,1.1,0,1.3-0.3c0.1-0.1,0.3-0.1,0.4-0.1c0.1,0,0.3,0.1,0.4,0.3c0.5,0.4,0.9,0.9,1.5,1.6
				c0.1,0.1,0.1,0.3,0.1,0.4c0,0.1-0.1,0.3-0.3,0.4c-0.4,0.1-0.5,0.4-0.7,0.5c-1.1,1.5-2.2,3-3.3,4c-0.1,0.1-0.3,0.3-0.4,0.3
				c-0.3,0-0.4-0.1-0.5-0.3c-0.5-0.4-0.9-0.7-1.7-0.9c1.3-1.1,2.2-2.2,3-3.4C648.3,265.4,640.3,265.4,640.3,265.4z M644.6,266.9
				c0.3,0.1,0.4,0.3,0.4,0.4s0,0.3-0.1,0.4c-0.1,0.3-0.1,0.7-0.1,0.9c0,3.7-1.5,7-4.8,9.1c-0.3,0.1-0.4,0.3-0.7,0.3
				c-0.1,0-0.3-0.1-0.5-0.3c-0.5-0.4-1.2-0.8-2-1.1c3.4-1.9,5.2-4.2,5.2-8.2c0-0.8,0-1.2-0.3-2.1C642.9,266.6,644,266.7,644.6,266.9
				z"/>
			<path fill="#A90E24" d="M664.5,262.8c-1.6,0-3,0.1-4.1,0.1c-0.3,0-0.4-0.1-0.5-0.5c-0.1-0.5-0.1-1.9-0.3-2.5
				c1.2,0.1,2.5,0.1,4.8,0.1h9c0.8,0,1.1,0,1.3-0.3c0.1-0.1,0.3-0.1,0.4-0.1c0.1,0,0.3,0,0.5,0.1c0.7,0.4,1.3,1.1,1.9,1.7
				c0.1,0.1,0.1,0.3,0.1,0.4c0,0.3-0.1,0.4-0.4,0.7c-0.3,0.3-0.4,0.5-0.5,0.9c-1.2,2.9-2.8,5.7-4.9,8.2c-2.1,2.5-4.6,4.5-7.1,6
				c-0.3,0.1-0.4,0.3-0.7,0.3s-0.4-0.1-0.7-0.3c-0.5-0.5-1.5-1.1-2.4-1.3c3.7-1.9,6-3.6,8.2-6.2c2-2.2,3.3-4.4,4.2-7.1h-8.9v-0.2
				H664.5z M676.8,256.8c0.1-0.1,0.3-0.1,0.4,0c0.8,0.7,1.7,1.6,2.4,2.6c0.1,0.1,0.1,0.3-0.1,0.4l-0.9,0.7c-0.1,0.1-0.3,0.1-0.4-0.1
				c-0.8-1.2-1.6-2.1-2.5-2.9L676.8,256.8z M678.9,255.2c0.1-0.1,0.3-0.1,0.4,0c0.9,0.7,1.9,1.7,2.4,2.6c0.1,0.1,0.1,0.3-0.1,0.4
				l-0.8,0.7c-0.1,0.1-0.1,0.1-0.3,0.1c-0.1,0-0.1-0.1-0.3-0.1c-0.7-1.1-1.5-2-2.5-2.9L678.9,255.2z"/>
			<path fill="#A90E24" d="M689.3,261c0-1.7-0.1-2.6-0.3-3.7c1.1,0.1,2.4,0.3,3.2,0.5c0.3,0.1,0.4,0.3,0.4,0.4c0,0.1,0,0.3-0.1,0.4
				c-0.3,0.5-0.3,1.1-0.3,2.4v5.2c0,1.3,0,2.2,0.1,3.2c0,0.4-0.1,0.5-0.5,0.5h-2c-0.4,0-0.5-0.1-0.5-0.4c0-0.9,0.1-2.4,0.1-3.4v-5
				h-0.1V261z M701.1,265.8c0,3.7-0.5,6.2-2,8.2c-1.2,1.6-3.4,3.2-5.6,4c-0.3,0.1-0.4,0.1-0.5,0.1c-0.3,0-0.4-0.1-0.7-0.3
				c-0.7-0.7-1.2-1.1-2.1-1.6c2.6-0.8,4.8-2,6.1-3.7c1.2-1.5,1.7-3.6,1.7-6.7V261c0-2.1,0-2.9-0.3-4.1c1.2,0.1,2.4,0.3,3.3,0.5
				c0.3,0.1,0.4,0.3,0.4,0.4c0,0.1,0,0.3-0.1,0.4c-0.3,0.5-0.3,1.2-0.3,2.8L701.1,265.8L701.1,265.8z"/>
			<path fill="#A90E24" d="M725.3,264.7c-0.3,3.3-0.8,5.4-2,7.7c-1.2,2.2-2.9,4.1-5,5.4c-0.1,0.1-0.4,0.3-0.5,0.3s-0.3,0-0.4-0.1
				c-0.8-0.5-1.7-0.8-2.6-1.1c2.9-1.7,4.5-3.3,5.7-5.4c1.1-2,1.6-3.8,1.7-6.6H717c-1.1,1.7-2.4,3.2-3.4,4.4
				c-0.1,0.1-0.3,0.3-0.4,0.3c-0.1,0-0.3,0-0.4-0.1c-0.7-0.4-1.6-0.8-2.4-0.9c2.8-2.8,4.5-5.3,6-8.2c0.5-1.3,0.8-2.1,1.1-3.4
				c0.9,0.3,2.2,0.8,3,1.2c0.3,0.1,0.3,0.3,0.3,0.4s-0.1,0.4-0.3,0.5c-0.4,0.3-0.7,0.7-0.8,1.1c-0.4,0.9-0.8,1.7-1.2,2.4h8.1
				c1.6,0,3.3-0.1,4.8-0.1c0.3,0,0.4,0.1,0.4,0.4c0,0.7,0,1.3,0,2c0,0.3-0.1,0.4-0.4,0.4c-1.1,0-3-0.1-4.6-0.1h-1.3v-0.5H725.3z"/>
			<path fill="#A90E24" d="M743.5,269.1c-2.5,0-3.4,0.3-3.7,0.3s-0.5-0.1-0.5-0.5c-0.1-0.5-0.3-1.7-0.4-3c1.6,0.3,2.9,0.3,5.4,0.3
				h8.1c1.9,0,3.8,0,5.8-0.1c0.4,0,0.4,0,0.4,0.4c0,0.8,0,1.6,0,2.4c0,0.3-0.1,0.4-0.4,0.4c-1.9,0-3.7,0-5.6,0h-9.1V269.1z"/>
			<path fill="#A90E24" d="M767.4,263.8c0.1-0.1,0.3-0.3,0.5-0.3c1.9,0.7,3.4,1.5,4.8,2.5c0.1,0.1,0.3,0.3,0.3,0.4
				c0,0.1,0,0.1-0.1,0.3c-0.3,0.7-0.7,1.3-1.1,1.9c-0.1,0.1-0.3,0.3-0.3,0.3s-0.1,0-0.3-0.1c-1.6-1.2-3.3-2-5-2.8
				C766.6,264.9,767,264.2,767.4,263.8z M771.4,273.1c2.4-1.3,4.5-2.4,6.9-4.4c2-1.6,4.8-4,7.3-7c0.1,1.1,0.4,1.7,0.8,2.8
				c0.1,0.1,0.1,0.3,0.1,0.5c0,0.3-0.1,0.4-0.3,0.5c-2.4,2.5-4,3.8-6.4,5.8c-2.2,1.7-4.5,3-7.5,4.8c-0.7,0.3-1.2,0.7-1.5,0.8
				c-0.1,0.1-0.3,0.3-0.4,0.3c-0.1,0-0.4-0.1-0.5-0.3c-0.5-0.5-1.2-1.5-1.9-2.5C769.1,274.1,769.9,273.9,771.4,273.1z M770.5,258
				c0.1-0.3,0.3-0.4,0.7-0.3c1.6,0.7,3.3,1.6,4.8,2.8c0.1,0.1,0.3,0.3,0.3,0.3c0,0.1,0,0.3-0.1,0.3c-0.4,0.7-0.8,1.5-1.3,1.9
				c-0.1,0.1-0.1,0.1-0.3,0.1c-0.1,0-0.3-0.1-0.4-0.1c-1.3-1.1-3.3-2.4-4.9-3C769.5,259.3,769.9,258.7,770.5,258z"/>
			<path fill="#A90E24" d="M804.5,266.3h-5.8c-1.2,0-2.4,0.1-3.6,0.1c-0.3,0-0.4-0.1-0.4-0.5c0-0.7-0.1-1.1-0.1-2.1
				c1.5,0.1,2.2,0.1,4,0.1h4.4c1.2,0,2.6,0,3.7,0c0.3,0,0.4,0.1,0.4,0.4c0,1.2,0,2.2,0,3.3v5.8c0,1.2,0,2.2,0.1,3.6
				c0,0.4-0.1,0.4-0.5,0.5c-0.4,0-1.2,0-1.7,0c-0.4,0-0.4-0.1-0.4-0.4v-0.8h-6c-1.2,0-2.2,0-3.4,0.1c-0.3,0-0.3-0.1-0.4-0.5
				c-0.1-0.5-0.1-1.2-0.1-2.1c1.3,0.1,2.6,0.1,4.1,0.1h5.8v-2.8h-5.3c-1.2,0-2.4,0-3.4,0.1c-0.3,0-0.4-0.1-0.4-0.5
				c-0.1-0.5-0.1-1.2-0.1-2c1.3,0.1,2.2,0.1,4,0.1h5.4v-2.6L804.5,266.3L804.5,266.3z"/>
			<path fill="#A90E24" d="M818.1,259.2c0.1-0.1,0.3-0.3,0.4-0.3c0.1,0,0.3,0,0.3,0.1c1.3,0.7,3.3,2.2,4.8,3.6
				c0.1,0.1,0.3,0.3,0.3,0.4s0,0.3-0.1,0.3c-0.4,0.5-1.2,1.5-1.6,1.9c-0.1,0.1-0.3,0.3-0.3,0.3s-0.3-0.1-0.3-0.3
				c-1.5-1.6-3.3-3-5.2-4.1C816.9,260.5,817.6,259.7,818.1,259.2z M820.2,272.4c3-1.6,4.8-2.6,7.3-4.6c3-2.5,4.8-4.1,6.9-6.9
				c0.1,1.2,0.4,2.1,0.7,2.9c0.1,0.1,0.1,0.3,0.1,0.5c0,0.3-0.1,0.4-0.4,0.8c-1.3,1.6-3.4,3.6-5.8,5.3c-2.1,1.6-4.2,3-7.5,4.9
				c-1.2,0.7-1.5,0.9-1.7,1.2c-0.1,0.1-0.3,0.3-0.4,0.3s-0.3-0.1-0.4-0.3c-0.7-0.7-1.5-1.7-2-2.8
				C818.1,273.3,818.9,273.1,820.2,272.4z"/>
		</g>
	</g>
</g>
</svg>
