<?xml version="1.0" encoding="utf-8"?>
<!-- Generator: Adobe Illustrator 17.1.0, SVG Export Plug-In . SVG Version: 6.00 Build 0)  -->
<!DOCTYPE svg PUBLIC "-//W3C//DTD SVG 1.1//EN" "http://www.w3.org/Graphics/SVG/1.1/DTD/svg11.dtd">
<svg version="1.1" xmlns="http://www.w3.org/2000/svg" xmlns:xlink="http://www.w3.org/1999/xlink" x="0px" y="0px"
	 viewBox="0 0 628 179" enable-background="new 0 0 628 179" xml:space="preserve">
<g id="レイヤー_2">
</g>
<g id="レイヤー_3">
</g>
<g id="レイヤー_1">
	<g>
		<g>
			<g>
				<path fill="#FFFFFF" d="M32.7,31.8c0.3-0.2,0.5-0.2,0.7,0c0.6,0.5,1.5,1.4,2.2,2.3c0.2,0.3,0.1,0.4-0.2,0.7l-0.8,0.5
					c2,0,2.8-0.1,3-0.1c0.4,0,0.4,0,0.4,0.4v2.3c0,0.4,0,0.4-0.4,0.4c-0.2,0-1.4-0.1-4.7-0.1h-3.4c0.3,2.4,0.7,4.6,1.5,6.6
					c0.7-1,1.2-2.1,1.7-3.1c0.2-0.6,0.5-1.4,0.7-2.2c1.1,0.3,2,0.7,2.8,1.1c0.3,0.1,0.4,0.3,0.4,0.5c0,0.2-0.1,0.3-0.3,0.5
					c-0.2,0.2-0.4,0.4-0.7,1.1c-0.8,1.8-1.8,3.5-3.1,5.2c0.9,1.4,2,2.2,2.6,2.2c0.9,0,1.2-1,1.6-3.4c0.5,0.5,1.2,0.9,1.8,1.2
					c0.7,0.3,0.9,0.5,0.9,0.8c0,0.2-0.1,0.4-0.2,0.8c-0.9,2.9-2,4.2-4,4.2c-1.7,0-3.4-1.2-4.9-3.2c-0.8,0.8-1.7,1.6-2.7,2.3
					c-0.4,0.3-0.7,0.5-0.8,0.5c-0.2,0-0.4-0.2-0.8-0.7c-0.4-0.5-0.7-0.8-1.2-1.1c0,0.2-0.1,0.2-0.4,0.2c-0.2,0-0.9-0.1-3-0.1h-3.3
					c-2.1,0-2.7,0.1-3,0.1c-0.4,0-0.4,0-0.4-0.4c0-0.2,0.1-0.8,0.1-2.2v-2.3c0-1.5-0.1-2-0.1-2.2c0-0.4,0-0.4,0.4-0.4
					c0.2,0,0.9,0.1,3,0.1h3.3c2.1,0,2.7-0.1,3-0.1c0.3,0,0.4,0,0.4,0.4c0,0.2-0.1,0.8-0.1,2.2v2.3c0,1.1,0,1.6,0,1.9
					c1.5-0.9,2.8-2,3.9-3.1c-1.3-2.7-2-6.2-2.5-9.7H13.6v2.3c0,1.9-0.2,5.3-0.6,7c-0.5,2.2-1.1,4.1-2.3,6.1
					c-0.3,0.5-0.4,0.7-0.6,0.7c-0.1,0-0.3-0.2-0.7-0.5c-0.8-0.7-1.5-1.2-2.2-1.5c1.4-1.9,2.1-3.5,2.5-5.6c0.5-1.9,0.7-4.2,0.7-7.5
					c0-2.5-0.1-3.6-0.1-3.8c0-0.3,0-0.4,0.4-0.4c0.2,0,1.4,0.1,4.7,0.1h10.5c-0.1-1.3-0.2-2.6-0.4-3.6c1.2,0,2.5,0.1,3.5,0.2
					c0.3,0,0.5,0.2,0.5,0.4c0,0.2-0.1,0.5-0.2,0.6c-0.1,0.4-0.1,1.1,0,2.3h3.4c-0.5-0.7-1.2-1.4-1.6-1.8c-0.1-0.1-0.2-0.2-0.2-0.3
					c0-0.1,0.1-0.2,0.3-0.3L32.7,31.8z M7.8,61.2c-0.4-0.2-0.4-0.4-0.2-0.7c1.4-1.6,2.7-3.8,3.5-5.8c0.1-0.4,0.2-0.4,0.7-0.2
					l2.1,0.9c0.5,0.2,0.5,0.3,0.4,0.6c-0.9,2.3-2.1,4.4-3.6,6.3c-0.2,0.3-0.3,0.3-0.7,0.1L7.8,61.2z M21.7,39.9
					c2.1,0,2.9-0.1,3.2-0.1c0.3,0,0.3,0,0.3,0.4v2c0,0.3,0,0.4-0.3,0.4c-0.2,0-1.1-0.1-3.2-0.1h-3.6c-2.1,0-2.9,0.1-3.1,0.1
					c-0.4,0-0.4,0-0.4-0.4v-2c0-0.4,0-0.4,0.4-0.4c0.2,0,1,0.1,3.1,0.1H21.7z M19.2,58.5c0,0.7,0.1,1.2,0.6,1.4
					c0.6,0.3,2.1,0.3,3.5,0.3c2.6,0,3.5,0,4.3-0.4c0.6-0.3,0.9-1.3,0.9-3c0.7,0.5,1.5,0.8,2.5,1c0.9,0.3,0.9,0.3,0.8,1.2
					c-0.3,1.9-0.9,2.9-1.9,3.4c-1.3,0.7-3.2,0.8-6.9,0.8c-3.1,0-5-0.2-6.1-0.7c-0.8-0.5-1.3-1.2-1.3-3v-3.1c0-1,0-1.6-0.2-2.7
					c1.2,0,2.4,0.1,3.5,0.2c0.4,0.1,0.6,0.2,0.6,0.3c0,0.2,0,0.3-0.2,0.6c-0.1,0.3-0.2,0.7-0.2,1.3V58.5z M21.8,46.6h-4.2v2.6h4.2
					V46.6z M22.9,52.6c0.4-0.2,0.5-0.2,0.7,0c1.3,1.1,2.2,2.1,3.3,3.5c0.2,0.2,0.2,0.3-0.1,0.6L25,58c-0.2,0.2-0.4,0.2-0.5,0.2
					s-0.2-0.1-0.3-0.2c-0.9-1.4-1.9-2.5-3-3.6c-0.3-0.3-0.3-0.3,0.1-0.6L22.9,52.6z M33.7,54c0.2-0.1,0.3-0.2,0.4-0.2
					s0.2,0.1,0.3,0.2c1.6,1.8,3,3.7,4.1,5.8c0.2,0.3,0.2,0.4-0.3,0.7l-2.2,1.3c-0.5,0.3-0.6,0.3-0.7,0c-1-2.3-2.1-4.2-3.7-6.1
					c-0.3-0.3-0.2-0.4,0.2-0.6L33.7,54z"/>
				<path fill="#FFFFFF" d="M45.8,39.5c0.5,0.1,0.5,0.2,0.5,0.6c-0.1,2.9-0.4,5.5-1.1,7.7C45,48,44.9,48,44.6,47.8l-1.8-0.7
					c-0.5-0.2-0.5-0.3-0.4-0.7c0.6-1.9,1-4.3,1.1-7.1c0-0.4,0.1-0.3,0.6-0.2L45.8,39.5z M47.2,37c0-2.5,0-3.6-0.3-5.3
					c1.3,0,2.5,0.1,3.7,0.2c0.3,0,0.6,0.2,0.6,0.4c0,0.2-0.1,0.4-0.2,0.7c-0.2,0.5-0.2,1.3-0.2,3.9v20.3c0,4,0.1,6,0.1,6.1
					c0,0.4,0,0.4-0.4,0.4h-2.9c-0.4,0-0.4,0-0.4-0.4c0-0.2,0.1-2.2,0.1-6.1V37z M52.6,37.7c0.4-0.1,0.5-0.1,0.6,0.2
					c0.5,1.3,1,2.9,1.4,4.3c0.7-1.9,1.3-3.9,1.6-5.7c0.1-0.6,0.2-1.5,0.2-2.5c1.2,0.2,2.7,0.6,3.4,0.9c0.5,0.2,0.6,0.3,0.6,0.5
					c0,0.2-0.1,0.3-0.2,0.5c-0.2,0.3-0.3,0.7-0.4,1.1c-0.2,0.8-0.4,1.7-0.6,2.6h3.2V37c0-2.5-0.1-3.6-0.3-5.3c1.3,0,2.6,0.1,3.8,0.2
					c0.4,0,0.6,0.2,0.6,0.3c0,0.2-0.1,0.5-0.2,0.7c-0.2,0.5-0.2,1.3-0.2,3.9v2.6H69c3.1,0,4.2-0.1,4.4-0.1c0.4,0,0.4,0,0.4,0.4v2.7
					c0,0.4,0,0.4-0.4,0.4c-0.2,0-1.3-0.1-4.4-0.1h-2.9V49H68c3.2,0,4.2-0.1,4.4-0.1c0.3,0,0.4,0,0.4,0.4V52c0,0.4,0,0.4-0.4,0.4
					c-0.2,0-1.3-0.1-4.4-0.1h-1.9v6.9h3.5c3.4,0,4.6-0.1,4.8-0.1c0.4,0,0.4,0,0.4,0.4v2.7c0,0.4,0,0.4-0.4,0.4
					c-0.2,0-1.4-0.1-4.8-0.1H58c-3.4,0-4.6,0.1-4.8,0.1c-0.4,0-0.4,0-0.4-0.4v-2.7c0-0.4,0-0.4,0.4-0.4c0.2,0,1.4,0.1,4.8,0.1h4.4
					v-6.9h-2.1c-3.2,0-4.2,0.1-4.4,0.1c-0.4,0-0.4,0-0.4-0.4v-2.7c0-0.3,0-0.4,0.4-0.4c0.2,0,1.3,0.1,4.4,0.1h2.1v-6.1h-4.3
					c-0.5,1.4-1.1,2.8-1.7,4c-0.3,0.5-0.4,0.7-0.6,0.7c-0.1,0-0.3-0.1-0.7-0.4c-0.8-0.5-1.8-0.9-2.5-1.2c0.6-0.9,1.2-2,1.6-3.2
					l-1.5,0.5c-0.5,0.2-0.6,0.2-0.6-0.2c-0.3-1.6-0.7-3.2-1.3-4.5c-0.1-0.4-0.1-0.5,0.3-0.6L52.6,37.7z"/>
			</g>
		</g>
		<g>
			<g>
				<path fill="#FFFFFF" d="M104,52.1c-0.2,1.4-0.5,2.7-0.8,3.8c-0.5,2-1.4,3.9-2.4,5.5c-0.2,0.4-0.4,0.6-0.6,0.6
					c-0.2,0-0.4-0.2-0.7-0.6c-0.7-0.8-1.3-1.5-2-1.9c1.5-2.1,2.3-4,2.8-6.1c0.5-1.8,0.8-4.2,0.8-7.2c0-2.6,0-3.5,0-3.9
					c0-0.3,0-0.4,0.3-0.4c0.2,0,1.2,0.1,4,0.1h5.7c2.8,0,3.8-0.1,4-0.1c0.4,0,0.4,0,0.4,0.4c0,0.2-0.1,0.9-0.1,2.8v3.8
					c0,1.9,0.1,2.6,0.1,2.8c0,0.3,0,0.4-0.4,0.4c-0.2,0-1.2-0.1-4-0.1H104z M104.7,38.9c-1.4,1.3-2.9,2.4-4.4,3.2
					c-0.4,0.2-0.6,0.3-0.8,0.3c-0.2,0-0.4-0.3-0.6-0.8c-0.4-1-0.8-1.6-1.3-2.2c3.6-1.7,6.4-4,8.2-6.5c0.5-0.6,0.8-1.2,1-1.8
					c1.2,0.2,2.1,0.3,3.2,0.6c0.3,0.1,0.5,0.2,0.5,0.5c0,0.2-0.1,0.3-0.3,0.5c2.3,2.6,4.4,3.8,7.6,5.2c-0.5,0.7-0.9,1.4-1.2,2.2
					c-0.2,0.6-0.3,0.8-0.5,0.8c-0.2,0-0.4-0.1-0.8-0.3c-1-0.6-2-1.2-2.9-1.9v1.7c0,0.3,0,0.4-0.4,0.4c-0.2,0-0.6-0.1-2.4-0.1h-2
					c-1.7,0-2.2,0.1-2.4,0.1c-0.4,0-0.4,0-0.4-0.4V38.9z M116.1,58.6c0,3,0.1,3.9,0.1,4.1c0,0.3,0,0.3-0.4,0.3h-2.6
					c-0.4,0-0.4,0-0.4-0.3v-0.8h-5.7v1c0,0.3,0,0.4-0.4,0.4h-2.5c-0.4,0-0.4,0-0.4-0.4c0-0.2,0.1-1,0.1-4.1v-2
					c0-1.6-0.1-2.3-0.1-2.6c0-0.4,0-0.4,0.4-0.4c0.2,0,1,0.1,3.7,0.1h4.2c2.6,0,3.4-0.1,3.7-0.1c0.3,0,0.4,0,0.4,0.4
					c0,0.2-0.1,0.9-0.1,2.2V58.6z M112.2,48.2h-7.8l-0.1,1.4h7.9V48.2z M104.4,44.5v1.4h7.7v-1.4H104.4z M109.5,38.1
					c1.1,0,1.6,0,2,0c-1.1-0.9-2.1-2-3.1-3.2c-0.8,1.1-1.8,2.2-2.8,3.2c0.3,0,0.9,0,1.9,0H109.5z M107.1,56.5v2.9h5.7v-2.9H107.1z
					 M118.4,39.5c0-2.3,0-3.5-0.2-5.2c1.3,0,2.3,0.1,3.6,0.2c0.3,0,0.5,0.2,0.5,0.4c0,0.2-0.1,0.5-0.2,0.8c-0.1,0.5-0.1,1.2-0.1,3.7
					v9.7c0,3,0,4.4,0,4.6c0,0.4,0,0.4-0.3,0.4h-2.9c-0.3,0-0.4,0-0.4-0.4c0-0.2,0.1-1.6,0.1-4.6V39.5z M128.6,51.5
					c0,2.5,0.1,5.2,0.1,7c0,1.7-0.2,2.7-1.3,3.4c-1,0.6-2,0.9-5.3,0.9c-1.1,0-1.1,0-1.3-1.1c-0.2-1-0.6-2-1.1-2.7
					c1.4,0.1,2.4,0.2,3.8,0.2c1.1,0,1.5-0.3,1.5-1.4v-21c0-2.3,0-3.4-0.3-5c1.3,0,2.5,0.1,3.7,0.2c0.3,0,0.5,0.2,0.5,0.4
					c0,0.3-0.1,0.5-0.2,0.8c-0.2,0.4-0.2,1.2-0.2,3.5V51.5z"/>
				<path fill="#FFFFFF" d="M142,55.6c0.7,1.4,1.4,2.3,2.9,2.9c1.2,0.5,3.4,0.7,6.5,0.7c4.5,0,9.9-0.2,15.1-0.7
					c-0.5,0.7-0.8,1.7-0.9,2.7c-0.2,1.1-0.2,1.1-1.3,1.2c-4.4,0.2-8.7,0.3-12.3,0.3c-3.6,0-6.5-0.3-8.2-1c-1.6-0.7-2.6-1.6-3.4-3.1
					c-1.1,1.1-2.3,2.1-3.5,3.1c-0.4,0.3-0.6,0.5-0.7,0.7c-0.2,0.2-0.3,0.3-0.5,0.3c-0.1,0-0.3-0.1-0.5-0.4c-0.5-0.9-0.9-2-1.4-3.3
					c0.9-0.4,1.4-0.7,2.1-1.1c1-0.6,2-1.4,2.9-2.2v-7.8h-1.7c-1.9,0-2.3,0.1-2.5,0.1c-0.4,0-0.4,0-0.4-0.4v-2.7c0-0.4,0-0.4,0.4-0.4
					c0.2,0,0.7,0.1,2.5,0.1h2.2c1.9,0,2.4-0.1,2.6-0.1c0.3,0,0.4,0,0.4,0.4c0,0.2-0.1,1.2-0.1,3.3V55.6z M136.9,32.5
					c0.2-0.1,0.3-0.2,0.4-0.2s0.2,0.1,0.3,0.2c1.6,1.5,3.1,3.2,4.4,5.2c0.2,0.3,0.2,0.4-0.2,0.7l-2,1.5c-0.2,0.2-0.3,0.2-0.4,0.2
					c-0.1,0-0.2-0.1-0.3-0.3c-1.3-2.1-2.8-4-4.3-5.4c-0.2-0.3-0.2-0.3,0.2-0.6L136.9,32.5z M148.5,45.4c-3.4,0-4.6,0.1-4.8,0.1
					c-0.4,0-0.4,0-0.4-0.4v-2.5c0-0.3,0-0.4,0.4-0.4c0.2,0,1.4,0.1,4.8,0.1h3.9v-3.5h-4.5c-0.4,0.7-0.9,1.5-1.4,2.2
					c-0.3,0.5-0.5,0.7-0.7,0.7c-0.2,0-0.4-0.2-0.8-0.5c-0.7-0.6-1.5-1.1-2.1-1.3c1.8-2,2.8-4,3.5-5.5c0.3-0.7,0.5-1.5,0.6-2.2
					c1.2,0.2,2.2,0.6,3.1,0.9c0.3,0.1,0.5,0.2,0.5,0.5s-0.1,0.3-0.3,0.5c-0.2,0.2-0.4,0.6-0.7,1.2l-0.2,0.5h3v-0.6
					c0-1.6,0-2.4-0.2-3.7c1.3,0,2.5,0.1,3.6,0.2c0.3,0,0.5,0.2,0.5,0.4s0,0.3-0.2,0.6c-0.1,0.3-0.2,0.9-0.2,2.4v0.8h2.8
					c3.1,0,4.1-0.1,4.3-0.1c0.3,0,0.4,0,0.4,0.4v2.4c0,0.3,0,0.4-0.4,0.4c-0.2,0-1.2-0.1-4.3-0.1h-2.8v3.5h4.1
					c3.4,0,4.6-0.1,4.8-0.1c0.4,0,0.4,0,0.4,0.4v2.5c0,0.3,0,0.4-0.4,0.4c-0.2,0-1.4-0.1-4.8-0.1H148.5z M157.7,47.6
					c3.1,0,4.2-0.1,4.4-0.1c0.3,0,0.4,0,0.4,0.4c0,0.2-0.1,0.9-0.1,2.7V54c0,1.8,0.1,2.5,0.1,2.7c0,0.3,0,0.4-0.4,0.4
					c-0.2,0-1.3-0.1-4.4-0.1h-6.9c-3.1,0-4.2,0.1-4.4,0.1c-0.3,0-0.4,0-0.4-0.4c0-0.2,0.1-0.9,0.1-2.7v-3.4c0-1.8-0.1-2.5-0.1-2.7
					c0-0.3,0-0.4,0.4-0.4c0.2,0,1.3,0.1,4.4,0.1H157.7z M158.8,50.6h-9.3V54h9.3V50.6z"/>
				<path fill="#FFFFFF" d="M172.5,39c0.5,0.1,0.5,0.2,0.5,0.6c-0.1,2.9-0.4,5.5-1.1,7.7c-0.1,0.4-0.2,0.3-0.6,0.1l-1.8-0.7
					c-0.5-0.2-0.5-0.4-0.4-0.7c0.6-1.9,1-4.3,1.1-7.1c0-0.3,0.1-0.3,0.6-0.2L172.5,39z M173.9,36.6c0-2.5,0-3.6-0.3-5.3
					c1.3,0,2.5,0.1,3.7,0.2c0.3,0,0.6,0.2,0.6,0.4c0,0.2-0.1,0.4-0.2,0.7c-0.2,0.5-0.2,1.3-0.2,3.9v20.3c0,4,0.1,6,0.1,6.1
					c0,0.4,0,0.4-0.4,0.4h-2.9c-0.4,0-0.4,0-0.4-0.4c0-0.2,0.1-2.2,0.1-6.1V36.6z M179.3,37.2c0.4-0.1,0.5-0.1,0.6,0.2
					c0.5,1.3,1,2.9,1.4,4.3c0.7-1.9,1.3-3.9,1.6-5.7c0.1-0.6,0.2-1.5,0.2-2.5c1.2,0.2,2.7,0.6,3.4,0.9c0.5,0.2,0.6,0.3,0.6,0.5
					c0,0.2-0.1,0.3-0.2,0.5c-0.2,0.3-0.3,0.7-0.4,1.1c-0.2,0.8-0.4,1.7-0.6,2.6h3.2v-2.5c0-2.5-0.1-3.6-0.3-5.3
					c1.3,0,2.6,0.1,3.8,0.2c0.4,0,0.6,0.2,0.6,0.4c0,0.2-0.1,0.5-0.2,0.7c-0.2,0.5-0.2,1.3-0.2,3.9v2.6h2.9c3.1,0,4.2-0.1,4.4-0.1
					c0.3,0,0.4,0,0.4,0.4v2.7c0,0.3,0,0.4-0.4,0.4c-0.2,0-1.3-0.1-4.4-0.1h-2.9v6.1h1.9c3.2,0,4.2-0.1,4.4-0.1c0.3,0,0.4,0,0.4,0.4
					v2.7c0,0.3,0,0.4-0.4,0.4c-0.2,0-1.3-0.1-4.4-0.1h-1.9v6.9h3.5c3.4,0,4.6-0.1,4.8-0.1c0.4,0,0.4,0,0.4,0.4v2.7
					c0,0.4,0,0.4-0.4,0.4c-0.2,0-1.4-0.1-4.8-0.1h-11.6c-3.4,0-4.6,0.1-4.8,0.1c-0.3,0-0.4,0-0.4-0.4v-2.7c0-0.3,0-0.4,0.4-0.4
					c0.2,0,1.4,0.1,4.8,0.1h4.4v-6.9H187c-3.2,0-4.2,0.1-4.4,0.1c-0.3,0-0.4,0-0.4-0.4v-2.7c0-0.4,0-0.4,0.4-0.4
					c0.2,0,1.3,0.1,4.4,0.1h2.1v-6.1h-4.3c-0.5,1.4-1.1,2.8-1.7,4c-0.3,0.5-0.4,0.7-0.6,0.7c-0.1,0-0.3-0.1-0.7-0.3
					c-0.8-0.5-1.8-0.9-2.5-1.2c0.6-0.9,1.2-2,1.6-3.2l-1.5,0.5c-0.5,0.2-0.6,0.2-0.6-0.2c-0.3-1.6-0.7-3.2-1.3-4.6
					c-0.1-0.4-0.1-0.5,0.3-0.6L179.3,37.2z"/>
			</g>
		</g>
		<g>
			<g>
				<path fill="#FFFFFF" d="M216.7,72.3v2.5h-11.4v36.8h-2.7V72.3H216.7z"/>
				<path fill="#FFFFFF" d="M230.5,84.8c-2.9,0-5.5,0.1-7.4,0.2c-0.6,0-0.8-0.3-0.9-0.9c-0.1-0.9-0.3-3.2-0.4-4.5
					c2,0.2,4.4,0.3,8.6,0.3h16.1c1.4,0,1.8-0.1,2.5-0.5c0.2-0.1,0.4-0.2,0.7-0.2c0.3,0,0.5,0.1,0.9,0.2c1.2,0.8,2.4,1.9,3.3,3
					c0.2,0.3,0.3,0.5,0.3,0.8c0,0.4-0.2,0.8-0.6,1.1c-0.4,0.4-0.6,0.9-1,1.8c-2.2,5.3-5,10.3-8.7,14.6c-3.9,4.4-8.2,8.1-12.8,10.7
					c-0.4,0.3-0.8,0.4-1.2,0.4c-0.4,0-0.8-0.1-1.1-0.5c-1-1-2.5-1.8-4.2-2.5c6.6-3.3,10.6-6.4,14.7-11.2c3.5-4,5.8-7.8,7.6-12.8
					H230.5z"/>
				<path fill="#FFFFFF" d="M268.4,90.6c-2.7,0-4.1,0.1-6.1,0.2c-0.5,0-0.9-0.1-1-0.6c-0.2-0.9-0.5-2.7-0.6-4.2
					c2.7,0.2,4.1,0.3,7.3,0.3h15.1c1.3,0,1.9-0.1,2.4-0.4c0.2-0.1,0.5-0.2,0.6-0.2c0.2,0,0.5,0.1,0.7,0.4c0.9,0.7,1.8,1.7,2.6,2.9
					c0.2,0.3,0.2,0.5,0.2,0.7c0,0.3-0.2,0.5-0.4,0.6c-0.6,0.3-0.9,0.6-1.2,0.9c-1.8,2.6-4.1,5.4-5.9,7c-0.3,0.3-0.5,0.4-0.8,0.4
					c-0.4,0-0.7-0.1-1-0.4c-0.9-0.7-1.8-1.2-3-1.6c2.3-2,4.1-4,5.4-6.1H268.4z M276.1,93.2c0.5,0.1,0.8,0.4,0.8,0.7
					c0,0.2,0,0.4-0.2,0.6c-0.2,0.4-0.3,1.1-0.3,1.7c0,6.7-2.6,12.6-8.5,16.3c-0.5,0.3-0.8,0.5-1.1,0.5c-0.3,0-0.5-0.1-0.9-0.4
					c-0.9-0.7-2.2-1.4-3.5-1.8c6.2-3.4,9.1-7.6,9.1-14.6c0-1.5,0-2.1-0.5-3.7C273.2,92.7,275,92.9,276.1,93.2z"/>
				<path fill="#FFFFFF" d="M304.5,85.8c-2.9,0-5.5,0.1-7.4,0.2c-0.6,0-0.8-0.3-0.9-0.9c-0.1-0.9-0.3-3.2-0.4-4.5
					c2,0.2,4.4,0.3,8.6,0.3h16.1c1.3,0,1.8-0.1,2.5-0.4c0.2-0.1,0.5-0.2,0.7-0.2c0.3,0,0.5,0.1,0.9,0.2c1.2,0.8,2.4,1.9,3.3,3
					c0.2,0.3,0.3,0.5,0.3,0.8c0,0.4-0.2,0.8-0.6,1.1c-0.4,0.4-0.6,0.9-1,1.8c-2.2,5.3-5,10.3-8.7,14.6c-3.9,4.4-8.2,8.1-12.8,10.7
					c-0.4,0.3-0.8,0.4-1.2,0.4c-0.4,0-0.8-0.1-1.1-0.5c-1-1-2.5-1.8-4.2-2.5c6.6-3.3,10.6-6.4,14.7-11.2c3.5-4,5.8-7.8,7.6-12.8
					H304.5z M326.5,75.1c0.2-0.2,0.4-0.1,0.7,0.1c1.4,1.1,3,2.9,4.3,4.8c0.2,0.3,0.2,0.5-0.1,0.7l-1.7,1.2c-0.3,0.2-0.5,0.2-0.8-0.1
					c-1.3-2.1-2.8-3.8-4.5-5.2L326.5,75.1z M330.2,72.4c0.3-0.2,0.4-0.1,0.7,0.1c1.7,1.3,3.3,3.1,4.3,4.6c0.2,0.3,0.2,0.5-0.1,0.8
					l-1.5,1.2c-0.1,0.1-0.3,0.2-0.4,0.2c-0.2,0-0.3-0.1-0.4-0.3c-1.2-1.9-2.7-3.6-4.5-5.2L330.2,72.4z"/>
				<path fill="#FFFFFF" d="M348.7,100.5c1.4-0.6,2.8-1.3,4.4-2.1c-0.1,0.8-0.1,1.8,0,2.8c0.1,1.5,0.1,1.4-1.2,2.1
					c-2.8,1.4-6,2.7-9,3.8c-0.8,0.3-1.3,0.5-1.5,0.7s-0.5,0.3-0.8,0.3c-0.3,0-0.5-0.1-0.7-0.5c-0.4-1.2-0.8-2.5-1.2-4
					c1.4-0.3,2.8-0.6,4.5-1.1l1-0.3V89.4h-0.4c-2.9,0-3.8,0.1-4.1,0.1c-0.5,0-0.5,0-0.5-0.5v-3.4c0-0.5,0-0.5,0.5-0.5
					c0.3,0,1.2,0.1,4.1,0.1h0.4v-4.2c0-3,0-4.8-0.4-6.6c1.8,0,3.2,0.1,4.6,0.3c0.5,0,0.7,0.3,0.7,0.5c0,0.3-0.1,0.5-0.3,0.9
					c-0.2,0.5-0.3,1.7-0.3,4.3v4.8c2.6,0,3.4-0.1,3.7-0.1c0.4,0,0.5,0,0.5,0.5V89c0,0.4,0,0.5-0.5,0.5c-0.3,0-1.1-0.1-3.7-0.1V100.5
					z M360,106.8c0,1.2,0.2,1.7,0.9,2c0.6,0.4,2,0.5,6.5,0.5c4.9,0,6.3-0.2,7.2-0.9c0.7-0.6,0.9-1.5,1.1-5.1
					c0.9,0.5,1.9,1.1,3.2,1.4c1.1,0.3,1.1,0.3,1,1.5c-0.4,3.9-0.9,5.1-2.4,6.1c-1.5,1-3.7,1.5-10.7,1.5c-6.1,0-8.4-0.5-9.5-1.3
					c-1.1-0.7-1.7-2-1.7-4.5V94c-2.3,0.8-3.2,1.2-3.6,1.3c-0.5,0.1-0.5,0.1-0.6-0.4l-0.6-3.5c-0.1-0.5,0-0.5,0.4-0.6
					c0.4-0.1,1.5-0.4,4.4-1.3v-4.9c0-2.5,0-4.6-0.3-6.4c1.5,0,3,0.1,4.3,0.3c0.6,0.1,0.9,0.3,0.9,0.5c0,0.4-0.1,0.5-0.3,0.9
					c-0.2,0.5-0.3,1.4-0.3,4.3v3.9l4.3-1.4v-6.5c0-2.7-0.1-4.1-0.4-6.4c1.7,0,3.1,0.1,4.6,0.4c0.5,0,0.7,0.2,0.7,0.5
					c0,0.3-0.1,0.5-0.3,0.9c-0.2,0.5-0.3,1.7-0.3,4v5.7l3.5-1.2c4.2-1.4,5.6-2,5.9-2c0.3,0,0.5,0.1,0.5,0.5l-0.1,5.8
					c-0.1,4.5-0.5,7.9-1.1,10.2c-0.7,2.6-1.9,3.4-3.9,3.4c-0.5,0-1.1,0-1.7-0.1c-1-0.1-1-0.1-1.2-1.5c-0.1-1-0.5-2.3-0.9-3.2
					c0.9,0.2,1.8,0.3,2.4,0.3c0.8,0,1.1-0.2,1.3-1.7c0.3-1.7,0.5-3.5,0.5-7.9l-5.2,1.8v7.8c0,4.5,0.1,6.7,0.1,7c0,0.4,0,0.5-0.5,0.5
					h-3.6c-0.4,0-0.5,0-0.5-0.5c0-0.3,0.1-2.5,0.1-7V91l-4.3,1.5V106.8z"/>
				<path fill="#FFFFFF" d="M393.5,98.9c1.5-0.7,3-1.4,4.6-2.2c0,0.9,0,1.8,0,2.8c0.1,1.4,0.1,1.4-1.1,2.1c-3.1,1.7-5.9,2.9-9.3,4.2
					c-0.7,0.3-1.2,0.4-1.4,0.6c-0.3,0.2-0.5,0.4-0.7,0.4c-0.2,0-0.5-0.2-0.6-0.6c-0.4-1.2-0.7-2.5-1.1-4.1c1.3-0.3,2.7-0.6,4.2-1.1
					c0.4-0.1,0.7-0.2,1.1-0.4v-8.6c-2.6,0-3.4,0.1-3.7,0.1c-0.5,0-0.5,0-0.5-0.5v-3.2c0-0.4,0-0.5,0.5-0.5c0.3,0,1.1,0.1,3.7,0.1
					v-7.5c-3,0-3.9,0.1-4.1,0.1c-0.5,0-0.5,0-0.5-0.5v-3.3c0-0.5,0-0.5,0.5-0.5c0.3,0,1.2,0.1,4.1,0.1h4.5c3,0,3.9-0.1,4.1-0.1
					c0.5,0,0.5,0,0.5,0.5V80c0,0.5,0,0.5-0.5,0.5c-0.3,0-1.2-0.1-4.1-0.1v7.5c2.3,0,3.1-0.1,3.4-0.1c0.5,0,0.5,0,0.5,0.5v3.2
					c0,0.4,0,0.5-0.5,0.5c-0.3,0-1.1-0.1-3.4-0.1V98.9z M406.6,100.8c0.1,0.5,0.2,0.9,0.2,1.1c0,0.5-0.2,0.6-0.9,1.2
					c-2.4,1.8-4.7,3.3-7.4,4.9c-0.5,0.4-1,0.7-1.2,0.9c-0.2,0.3-0.5,0.4-0.7,0.4c-0.3,0-0.5-0.1-0.7-0.5c-0.6-1-1.3-2.4-1.9-4
					c1.3-0.4,2.6-1,3.9-1.7c3.1-1.7,5.3-3,8.1-5.2C406.1,98.9,406.4,100,406.6,100.8z M404.1,85.9c-4.4,0-5.9,0.1-6.1,0.1
					c-0.5,0-0.5,0-0.5-0.5v-3.4c0-0.5,0-0.5,0.5-0.5c0.2,0,1.7,0.1,6.1,0.1h4.1v-1.8c0-2.9-0.1-4.3-0.4-6.3c1.7,0,3.2,0.1,4.7,0.3
					c0.5,0,0.7,0.3,0.7,0.5c0,0.4-0.2,0.6-0.3,0.9c-0.2,0.5-0.3,1.5-0.3,4.5v1.9h5c4.4,0,5.9-0.1,6.2-0.1c0.5,0,0.5,0,0.5,0.5v3.4
					c0,0.5,0,0.5-0.5,0.5c-0.3,0-1.8-0.1-6.2-0.1h-5v0.4c0.6,2.7,1.7,5.4,2.9,7.9c1.7-1.8,3.1-3.6,4-5c0.4-0.5,0.6-1.1,0.9-1.9
					c1.3,0.7,2.5,1.5,3.5,2.2c0.4,0.3,0.5,0.5,0.5,0.7c0,0.3-0.3,0.5-0.6,0.7c-0.4,0.2-0.7,0.5-1.1,1.1c-0.9,1.2-2.8,3.6-4.6,5.2
					c-0.2,0.2-0.4,0.4-0.6,0.5l0.1,0.2c1.9,2.9,4.5,5.9,8.1,8.5c-0.9,0.9-1.8,2.1-2.4,3.3c-0.3,0.6-0.5,0.9-0.7,0.9
					c-0.2,0-0.5-0.2-0.9-0.6c-3-3.2-5.2-6.2-6.8-9.2c-0.9-1.5-1.7-3.4-2.4-5.5l0.3,7.8c0,1.6,0,4.8,0,6c0,2.2-0.5,3.3-1.5,4
					c-1.2,0.8-3.2,1.1-6.2,1.1c-1.4,0-1.4,0-1.8-1.3c-0.4-1.4-0.9-2.6-1.5-3.4c1.5,0.1,3,0.2,4.7,0.1c1.3,0,1.7-0.4,1.7-1.8v-22
					H404.1z M400.8,88.3c0.2-0.2,0.4-0.2,0.5-0.2c0.1,0,0.3,0,0.4,0.2c1.7,1.6,3.3,3.4,4.7,5.4c0.3,0.4,0.2,0.5-0.2,0.9l-2.2,1.9
					c-0.2,0.2-0.4,0.3-0.5,0.3c-0.1,0-0.2-0.1-0.4-0.3c-1.2-2-2.8-4-4.5-5.7c-0.1-0.2-0.2-0.3-0.2-0.4c0-0.1,0.1-0.3,0.4-0.5
					L400.8,88.3z M417.2,74.3c0.4-0.3,0.6-0.3,0.9,0c1.6,1.3,2.9,2.6,4.2,4.2c0.3,0.4,0.3,0.5-0.2,0.8l-2.4,1.6
					c-0.5,0.3-0.7,0.3-0.9-0.1c-1.2-1.7-2.4-3-3.9-4.3c-0.4-0.3-0.3-0.5,0.2-0.8L417.2,74.3z"/>
				<path fill="#FFFFFF" d="M435.8,98c-1.4,1.4-2.8,2.6-4.3,3.7c-0.5,0.4-0.7,0.6-0.9,0.6c-0.3,0-0.4-0.4-0.7-1
					c-0.5-1.3-1-2.4-1.6-3.2c5.3-3.3,9.5-8.2,11.7-13.3h-5.1c-3.4,0-4.5,0.1-4.8,0.1c-0.5,0-0.5,0-0.5-0.5v-3.3c0-0.4,0-0.5,0.5-0.5
					c0.3,0,1.3,0.1,4.8,0.1h0.9v-1.8c0-2.4,0-3.8-0.4-5.5c1.7,0,3.1,0.1,4.7,0.3c0.5,0,0.7,0.3,0.7,0.5c0,0.4-0.1,0.6-0.3,0.9
					c-0.3,0.5-0.3,1.3-0.3,3.6v2h1.9c0.4,0,0.6,0,0.9-0.2c0.2-0.1,0.4-0.2,0.5-0.2c0.3,0,0.7,0.3,1.7,1.2c0.9,0.9,1.2,1.3,1.2,1.6
					c0,0.2-0.1,0.5-0.5,0.7c-0.4,0.4-0.7,0.6-1,1.3c-1.1,2.3-2.4,4.5-3.8,6.6c1.8,2,3.9,3.6,6.6,5.3c-0.7,0.7-1.3,1.8-1.8,2.9
					c-0.3,0.7-0.5,1-0.9,1c-0.2,0-0.5-0.2-0.9-0.5c-1.4-1.3-2.7-2.7-3.9-4.2v12.6c0,3.3,0.1,5.1,0.1,5.3c0,0.4,0,0.5-0.5,0.5h-3.6
					c-0.5,0-0.5,0-0.5-0.5c0-0.3,0.1-2,0.1-5.3V98z M450.8,112.9c-4.3,0-5.8,0.1-6,0.1c-0.5,0-0.5,0-0.5-0.5v-3.6
					c0-0.5,0-0.5,0.5-0.5c0.3,0,1.8,0.1,6,0.1h3.8V91.7h-2c-4,0-5.4,0-5.7,0c-0.4,0-0.5,0-0.5-0.4v-3.6c0-0.4,0-0.4,0.5-0.4
					c0.3,0,1.7,0,5.7,0h2v-7.2c0-3.2,0-4.7-0.4-6.8c1.7,0,3.4,0.1,5,0.3c0.4,0,0.7,0.2,0.7,0.5c0,0.4,0,0.6-0.2,0.9
					c-0.3,0.5-0.4,1.7-0.4,4.9v7.3h2.8c4,0,5.4,0,5.7,0c0.5,0,0.5,0,0.5,0.4v3.6c0,0.4,0,0.4-0.5,0.4c-0.3,0-1.7,0-5.7,0h-2.8v16.8
					h4.1c4.3,0,5.7-0.1,6-0.1c0.5,0,0.5,0,0.5,0.5v3.6c0,0.5,0,0.5-0.5,0.5c-0.3,0-1.7-0.1-6-0.1H450.8z"/>
				<path fill="#FFFFFF" d="M485.4,87.6c-2.5,1.8-5.3,3.5-8.1,4.9c-0.5,0.3-0.9,0.4-1.1,0.4c-0.3,0-0.5-0.3-0.8-1.1
					c-0.5-1.1-1.2-2.1-2-3c7.8-3.1,13.7-7.9,17.3-13.1c0.8-1.1,1.2-1.9,1.6-2.9c1.8,0.2,3.4,0.5,4.9,0.9c0.5,0.1,0.8,0.3,0.8,0.6
					c0,0.3-0.1,0.5-0.5,0.7c-0.3,0.1-0.4,0.3-0.6,0.4c5.1,6.2,11.2,10.1,19,12.9c-0.9,1.1-1.4,2.2-1.9,3.4c-0.3,0.8-0.5,1.1-0.8,1.1
					c-0.2,0-0.5-0.1-1-0.4c-3.1-1.4-6-2.9-8.6-4.8V91c0,0.4,0,0.5-0.5,0.5c-0.3,0-1.5-0.1-5.1-0.1H491c-3.6,0-4.8,0.1-5.1,0.1
					c-0.4,0-0.5,0-0.5-0.5V87.6z M482.6,99.8c-4.2,0-5.7,0.1-5.9,0.1c-0.5,0-0.5,0-0.5-0.5V96c0-0.5,0-0.5,0.5-0.5
					c0.3,0,1.7,0.1,5.9,0.1h24c4.2,0,5.7-0.1,5.9-0.1c0.5,0,0.5,0,0.5,0.5v3.4c0,0.4,0,0.5-0.5,0.5c-0.3,0-1.7-0.1-5.9-0.1h-13.9
					c-1.1,2.8-2.5,5.6-4,8.5c4.7-0.3,9.6-0.7,13.9-1.1c-1-1.3-2.1-2.5-3.3-3.8c-0.3-0.4-0.3-0.5,0.3-0.8l2.9-1.5
					c0.5-0.3,0.6-0.2,0.9,0.1c3.1,3.2,5.6,6.4,8.4,10.4c0.2,0.4,0.2,0.5-0.2,0.9l-3.1,2c-0.3,0.2-0.4,0.3-0.5,0.3
					c-0.1,0-0.2-0.1-0.4-0.3c-0.8-1.3-1.5-2.4-2.2-3.5c-7.5,0.9-16.6,1.7-24.3,2.3c-0.7,0-1.3,0.2-1.6,0.4c-0.2,0.2-0.5,0.3-0.8,0.3
					c-0.3,0-0.5-0.2-0.6-0.6c-0.4-1.5-0.7-3.1-0.9-4.6c1.7,0.1,3.1,0.1,4.9,0c0.5,0,0.9,0,1.4,0c1.6-3.1,2.9-5.9,4-8.7H482.6z
					 M497.9,87.2c3,0,4.4,0,4.9-0.1c-3.2-2.3-6.1-5.1-8.5-8.2c-2.4,3.1-5.1,5.9-8.2,8.2c0.4,0,1.7,0.1,4.9,0.1H497.9z"/>
				<path fill="#FFFFFF" d="M518.7,115.5V113h11.4V76.2h2.7v39.3H518.7z"/>
			</g>
		</g>
		<g>
			<g>
				<path fill="#FFFFFF" d="M323.5,45.5c-0.2,3.9-0.7,6.3-2.1,8.9c-1.4,2.7-3.9,5.3-6.2,6.6c-0.4,0.2-0.7,0.4-1.1,0.4
					c-0.2,0-0.5-0.1-0.7-0.4c-0.7-0.7-1.9-1.4-3.1-1.9c3.4-1.9,5.5-3.6,7-6.2c1.3-2.3,1.6-4.2,1.8-7.5h-6.7c-1.8,0-3.5,0.1-5.2,0.2
					c-0.3,0-0.4-0.2-0.5-0.7c-0.2-1-0.3-2.3-0.3-3.4c2,0.2,3.9,0.2,6,0.2h15.7c2.7,0,4.8-0.1,6.8-0.2c0.3,0,0.4,0.2,0.4,0.7
					c0,0.5,0,2.2,0,2.7c0,0.5-0.2,0.6-0.5,0.6c-1.8-0.1-4.2-0.1-6.7-0.1H323.5z M316.6,37.4c-1.6,0-3,0.1-5,0.1
					c-0.5,0-0.6-0.2-0.6-0.6c-0.1-0.8-0.1-2.1-0.2-3.4c2.5,0.1,4.2,0.2,5.8,0.2h6.4c2,0,4.2,0,5.9-0.1c0.4,0,0.4,0.2,0.4,0.7
					c0.1,0.8,0.1,1.7,0,2.6c0,0.5-0.1,0.7-0.5,0.7c-1.9-0.1-4-0.1-5.9-0.1H316.6z M331.7,31.3c0.2-0.1,0.3-0.1,0.5,0.1
					c1,0.9,2.1,2.5,3,4.1c0.1,0.2,0.1,0.4-0.2,0.6l-1.6,0.9c-0.2,0.1-0.4,0.1-0.6-0.2c-0.9-1.7-1.9-3.2-3.2-4.4L331.7,31.3z
					 M335,29.4c0.2-0.1,0.3-0.1,0.5,0.1c1.2,1.1,2.3,2.6,3,3.9c0.1,0.2,0.1,0.4-0.2,0.6l-1.5,0.9c-0.3,0.2-0.5,0-0.6-0.2
					c-0.8-1.6-1.8-3-3.1-4.3L335,29.4z"/>
				<path fill="#FFFFFF" d="M343.2,41.8c0.2-0.2,0.4-0.4,0.7-0.3c2.6,0.9,4.7,2,6.7,3.4c0.2,0.2,0.4,0.3,0.4,0.5
					c0,0.1-0.1,0.2-0.1,0.4c-0.4,0.9-1,1.9-1.5,2.7c-0.2,0.2-0.3,0.3-0.5,0.3s-0.2-0.1-0.4-0.2c-2.2-1.6-4.5-2.8-7.1-3.8
					C342.3,43.4,342.8,42.4,343.2,41.8z M348.9,54.8c3.3-1.8,6.2-3.4,9.6-6.1c2.8-2.1,6.5-5.5,10.1-9.8c0.2,1.5,0.5,2.4,1,3.9
					c0.1,0.2,0.2,0.5,0.2,0.7c0,0.3-0.1,0.5-0.4,0.8c-3.3,3.5-5.5,5.4-8.9,8.1c-3,2.3-6.3,4.3-10.5,6.6c-0.8,0.5-1.7,0.8-2,1.2
					c-0.2,0.2-0.4,0.3-0.6,0.3c-0.2,0-0.5-0.1-0.7-0.4c-0.7-0.7-1.7-2.1-2.6-3.6C345.6,56.3,346.9,55.9,348.9,54.8z M347.5,33.8
					c0.2-0.4,0.5-0.5,0.9-0.3c2.2,0.9,4.7,2.2,6.6,3.9c0.2,0.1,0.3,0.3,0.3,0.5c0,0.1,0,0.3-0.1,0.5c-0.5,0.9-1.2,2-1.8,2.6
					c-0.1,0.2-0.2,0.2-0.3,0.2c-0.2,0-0.3-0.1-0.5-0.2c-1.8-1.5-4.6-3.3-6.8-4.3C346.2,35.7,346.9,34.7,347.5,33.8z M363.5,32.7
					c0.2-0.1,0.3-0.1,0.5,0.1c1.1,0.8,2.3,2.2,3.3,3.7c0.1,0.2,0.1,0.4-0.1,0.6l-1.5,1.1c-0.2,0.2-0.4,0.1-0.6-0.1
					c-1.1-1.6-2.2-2.9-3.5-4.1L363.5,32.7z M366.6,30.4c0.2-0.1,0.3-0.1,0.5,0.1c1.3,1,2.6,2.4,3.3,3.6c0.1,0.2,0.2,0.4-0.1,0.6
					l-1.4,1.1c-0.3,0.2-0.5,0.1-0.6-0.1c-0.9-1.5-2.1-2.8-3.5-4L366.6,30.4z"/>
				<path fill="#FFFFFF" d="M394.3,36.4c1,0,1.5-0.2,1.9-0.5c0.2-0.2,0.4-0.2,0.6-0.2s0.4,0.1,0.6,0.3c0.8,0.5,1.8,1.4,2.4,2.1
					c0.2,0.2,0.3,0.4,0.3,0.6c0,0.2-0.1,0.4-0.4,0.7c-0.3,0.3-0.7,0.7-1,1.3c-1.5,3-3.2,5.8-5.1,8.5c1.4,1.2,2.8,2.4,3.8,3.5
					c0.1,0.1,0.2,0.3,0.2,0.5c0,0.1-0.1,0.3-0.2,0.5c-0.5,0.6-1.6,1.7-2.2,2.2c-0.1,0.1-0.3,0.2-0.4,0.2c-0.1,0-0.2-0.1-0.4-0.2
					c-0.8-1-2.2-2.4-3.4-3.4c-3.6,3.9-7.2,6.6-11.2,8.8c-0.3,0.2-0.6,0.3-0.9,0.3c-0.2,0-0.4-0.1-0.7-0.3c-1.1-0.9-2.1-1.4-3.3-1.8
					c5.4-2.8,8.9-5.3,12.9-9.5c-1.3-1.1-2.9-2.2-5-3.3c0.8-0.8,1.5-1.8,2.3-2.5c0.1-0.1,0.3-0.2,0.5-0.2c0.1,0,0.2,0.1,0.3,0.1
					c1.3,0.6,2.8,1.6,4.5,2.8c1.7-2.2,3-4.4,4.1-6.9l-8.7,0.2c-2.9,3.7-5.1,6.1-7.5,7.9c-0.2,0.2-0.5,0.3-0.7,0.3
					c-0.2,0-0.4-0.1-0.6-0.2c-0.9-0.6-1.8-1.1-2.9-1.6c4.9-3.9,7.5-7.1,9.9-11c1.1-1.9,1.6-2.8,1.9-4.3c1.2,0.4,3,1,4.1,1.7
					c0.3,0.1,0.4,0.3,0.4,0.6c0,0.2-0.2,0.5-0.4,0.7c-0.3,0.2-0.6,0.5-0.7,0.7c-0.3,0.5-0.5,0.8-1.1,1.8L394.3,36.4z"/>
				<path fill="#FFFFFF" d="M415.8,37.5c0.6,0.2,0.7,0.6,0.5,1.1c-0.4,0.8-0.4,1.5-0.4,2.4c-0.1,4.4-0.7,7.7-1.9,10.3
					c-0.9,2.1-2.5,4.4-5,6.6c-0.3,0.3-0.6,0.5-0.9,0.5c-0.2,0-0.4-0.1-0.7-0.3c-0.9-0.6-1.7-1-3-1.5c2.7-2.1,4.6-4.2,5.8-7
					c1-2.4,1.4-4.3,1.5-9.9c0-1.3-0.1-1.9-0.4-2.9C413.4,37,415,37.2,415.8,37.5z M423.6,52.3c1.7-0.9,3.3-2,5-3.3
					c2.1-1.6,4.2-3.5,6.1-6c0.1,1.2,0.5,2.4,1.1,3.5c0.1,0.2,0.2,0.4,0.2,0.6c0,0.2-0.1,0.5-0.5,0.9c-1.8,1.8-3.4,3.2-5.2,4.6
					c-1.8,1.4-3.8,2.8-6.2,4.2c-0.6,0.4-0.7,0.5-1,0.7c-0.2,0.2-0.5,0.3-0.7,0.3c-0.2,0-0.5-0.1-0.7-0.3c-0.8-0.5-1.6-1.4-2.1-2.1
					c-0.2-0.3-0.3-0.5-0.3-0.7c0-0.2,0-0.3,0.1-0.5c0.2-0.5,0.2-0.9,0.2-2.7v-11c0-3,0-4.5-0.3-6.1c1.4,0.2,3.3,0.4,4.4,0.7
					c0.5,0.1,0.6,0.3,0.6,0.6c0,0.2-0.1,0.5-0.3,0.9c-0.3,0.7-0.3,1.4-0.3,3.9V52.3z"/>
				<path fill="#FFFFFF" d="M450.2,53.4c0,3.2,1.4,4.5,4.7,4.5c4.1,0,6.4-1.6,6.4-4.7c0-2-0.5-3.6-3.2-6.4c1.4,0.2,2.2,0,3.6-0.2
					c0.2-0.1,0.5,0,0.7,0.1c1.9,1.8,3,4.2,3,6.6c0,5-4.1,8.2-10.1,8.2c-6.2,0-8.8-2.8-8.8-7.9c0-0.7,0.1-1.7,0.2-3.3
					c-2.1-0.3-3.5-0.6-4.8-1.1c-0.2-0.1-0.3-0.2-0.4-0.7c-0.1-1.1-0.1-2.2-0.1-3.3c2.1,0.8,3.7,1.2,5.7,1.4c0.2-1.3,0.5-3.6,0.6-5
					c-2.5-0.3-3.7-0.5-5-1c-0.4-0.1-0.6-0.3-0.6-0.6c0-0.8-0.1-2-0.1-3.3c2.4,0.8,4.1,1.1,6.3,1.3c0.3-2,0.4-3,0.5-4
					c0.1-1,0.1-2,0-2.9c1.6,0.2,3.4,0.7,4.2,1c0.5,0.2,0.8,0.5,0.8,0.8c0,0.2-0.1,0.5-0.3,0.7c-0.2,0.2-0.4,0.7-0.6,1.5
					c-0.2,0.8-0.4,2-0.6,3.3c1.4,0.1,2.8,0,4.3-0.2c0.2,0,0.3,0.2,0.3,0.4c0,0.8,0,1.8-0.1,2.6c0,0.4-0.1,0.5-0.6,0.5
					c-1.5,0.2-3.1,0.2-4.7,0.2c-0.2,1.2-0.6,3.6-0.8,5c1.9,0,3.3,0,5-0.1c0.5-0.1,0.6,0.1,0.6,0.4c0,0.6-0.1,1.9-0.2,2.6
					c0,0.4-0.1,0.6-0.5,0.6c-1.8,0.1-3.6,0.1-5.4,0.1C450.2,52,450.2,52.8,450.2,53.4z"/>
				<path fill="#FFFFFF" d="M488.3,38.2c-0.8,6-2.3,11.4-4.4,15.1c-1.5,2.6-3.3,4-6,4c-3.1,0-6.2-3.3-6.2-9c0-3.4,1.4-6.6,4-9.1
					c2.9-2.9,6.7-4.5,11.4-4.5c8.4,0,13.3,5.2,13.3,12.1c0,6.5-3.7,10.6-10.8,12.7c-0.7,0.2-1.1,0.1-1.5-0.6
					c-0.4-0.6-1.1-1.4-2.5-2.2c5.9-1.4,10.6-3.9,10.6-10.5c0-4.2-3.2-8.1-7.8-8.1H488.3z M478.3,41.6c-1.7,1.9-2.7,4.2-2.7,6.5
					c0,3.2,1.3,5,2.4,5c0.9,0,1.7-0.5,2.6-2.1c1.5-2.8,3.1-7.9,3.7-12.5C481.8,38.9,479.9,39.9,478.3,41.6z"/>
				<path fill="#FFFFFF" d="M512.3,40.5c5.4-1.8,9.8-2.9,12.6-2.9c6.3,0,10.3,3.8,10.3,9.3c0,4.6-2,7.5-6.2,9.7
					c-2.9,1.6-5.7,2.2-8.9,2.9c-0.7,0.1-1,0.1-1.2-0.6c-0.4-1-1.3-2-2.5-2.8c4.6-0.8,7.1-1.4,9.5-2.6c3-1.5,4.8-3.7,4.8-7
					c0-3.3-2.1-5.3-6-5.3c-3.2,0-7.3,1.3-12.6,3.6c-1.1,0.6-2,0.9-2.4,1.3c-0.5,0.4-0.8,0.5-0.9,0.5c-0.4,0-0.6-0.2-1-0.7
					c-0.6-0.8-1.5-2.1-2.2-3.6C507,42.2,508.3,41.9,512.3,40.5z M531.3,33.1c0.2-0.1,0.3-0.1,0.5,0.1c1.1,0.8,2.3,2.2,3.3,3.7
					c0.1,0.2,0.1,0.4-0.1,0.6l-1.5,1.1c-0.2,0.2-0.4,0.1-0.6-0.1c-1.1-1.6-2.2-2.9-3.5-4.1L531.3,33.1z M534.4,30.8
					c0.2-0.1,0.3-0.1,0.5,0.1c1.3,1,2.6,2.4,3.3,3.6c0.1,0.2,0.2,0.4-0.1,0.6l-1.4,1.1c-0.3,0.2-0.5,0.1-0.6-0.1
					c-0.9-1.5-2.1-2.8-3.5-4L534.4,30.8z"/>
				<path fill="#FFFFFF" d="M560.4,33.9c0.2,0.1,0.3,0.4,0.3,0.6c0,0.3-0.2,0.5-0.5,0.7c-0.4,0.2-0.9,0.5-1.7,1.2
					c-3,2.7-6.9,6.3-9.6,9.1c-0.3,0.4-0.5,0.6-0.5,0.8c0,0.2,0.1,0.4,0.5,0.6c4.6,3.3,9.3,7.1,13,11c0.1,0.2,0.2,0.3,0.2,0.5
					c0,0.1-0.1,0.2-0.2,0.4c-0.8,0.9-1.8,1.9-2.4,2.4c-0.2,0.2-0.3,0.3-0.5,0.3c-0.1,0-0.2-0.1-0.4-0.3c-4.1-4.5-8-8.2-12.7-11.8
					c-1.3-1-1.9-1.8-1.9-2.9s0.6-1.9,1.7-3.1c3-3.2,5.9-6.1,8.9-9.4c0.9-1,1.5-1.8,1.9-2.6C558.1,32.2,559.4,33.1,560.4,33.9z"/>
				<path fill="#FFFFFF" d="M575.8,32.8c0.5,0.2,0.7,0.4,0.7,0.7c0,0.2-0.1,0.3-0.2,0.6c-0.2,0.3-0.4,0.8-0.6,1.6
					c-0.5,2.4-0.8,4.9-1,6.7c-0.1,1.3-0.2,2.6-0.1,3.9c0.8-1.4,1.5-2.7,2.5-4.5c0.3,1,0.7,1.7,1.1,2.3c0.2,0.2,0.2,0.4,0.2,0.6
					c0,0.3-0.1,0.6-0.4,0.9c-0.8,1.5-1.6,2.9-2.1,4.5c-0.1,0.3-0.1,0.6-0.2,1.1c0,0.3-0.1,0.5-0.5,0.6c-0.4,0.1-1.9,0.3-2.8,0.4
					c-0.2,0-0.4-0.2-0.5-0.5c-0.6-1.5-1-4.2-1-7.1c0-2.3,0.4-5.2,0.8-8.7c0.1-1.2,0.3-2.4,0.3-4C573.5,32,574.8,32.4,575.8,32.8z
					 M587.1,32.2c0.7,0.2,0.8,0.3,0.7,0.9c-0.1,0.5-0.1,1.1-0.1,1.6c0.2,3.3,0.5,6.5,0.5,9c0,5-0.8,9.3-2.7,12.1
					c-1.4,2.2-3.6,4.2-5.8,5.6c-0.2,0.2-0.5,0.2-0.7,0.2c-0.2,0-0.5-0.1-0.7-0.4c-0.8-0.7-1.9-1.3-3-1.6c2.8-1.6,4.6-2.8,6-4.7
					c2-2.8,2.9-5.6,2.9-11.2c0-2.5-0.2-6.1-0.4-8.4c-0.2-1.7-0.4-2.6-0.7-3.8C584.7,31.8,586.1,31.9,587.1,32.2z"/>
			</g>
		</g>
		<g>
			<path fill="#FFFFFF" d="M84.7,43.1c0.3,0.1,0.4,0.2,0.4,0.4c0,0.3-0.2,0.6-0.2,1c0,0.5,0.1,1,0.1,1.6c0.2,1.6,0.4,2.8,0.7,4
				c1.2-0.6,2-1.1,3.3-1.8c0.7-0.4,1.2-0.8,1.6-1.2c0.7,0.8,1.3,1.6,1.7,2.2c0.1,0.1,0.2,0.3,0.2,0.5c0,0.2-0.1,0.4-0.5,0.5
				c-0.7,0.1-1.5,0.4-2.2,0.7c-2,0.8-3.8,1.7-5.4,2.7c-2,1.3-2.7,2.4-2.7,3.5c0,1.4,1,1.9,3.7,1.9c2.9,0,5.3-0.2,7.1-0.5
				c0.3,0,0.4,0,0.4,0.3c0.1,0.6,0.2,1.5,0.2,2.2c0,0.3-0.1,0.4-0.4,0.4c-2.1,0.3-4,0.3-6.9,0.3c-4.4,0-6.7-1.4-6.7-4.4
				c0-2.6,1.7-4.3,4.4-6c-0.6-1.8-1-3.9-1.2-5.6c-0.2-1.2-0.3-2-0.6-2.7C82.8,42.8,83.8,42.9,84.7,43.1z"/>
		</g>
		<g>
			<path fill="#FFFFFF" d="M603,43.7c0.1-0.7,0.2-1.6,0.2-2.6c1.2,0.3,1.9,0.4,2.8,0.8c0.2,0.1,0.4,0.3,0.4,0.5c0,0.1,0,0.2-0.2,0.3
				c-0.2,0.3-0.3,0.6-0.5,0.9c-0.3,0.9-0.5,1.8-0.8,2.8c0.6-0.1,1.3-0.1,1.9-0.1c2.2,0,3.3,1.5,3.3,4.5c0,2.5-0.5,5.6-1.2,7.2
				c-0.7,1.5-1.8,2.2-3.1,2.2c-1.1,0-1.9-0.1-2.4-0.3c-0.3-0.1-0.4-0.3-0.4-0.6c-0.1-0.7-0.1-1.4-0.4-2.2c1,0.5,1.9,0.6,2.7,0.6
				c0.8,0,1.1-0.3,1.5-1.2c0.5-1.3,0.9-3.5,0.9-5.8c0-1.6-0.3-2.1-1.3-2.1c-0.6,0-1.3,0.1-1.9,0.2c-1.5,4.4-2.8,7.6-4.7,10.9
				c-0.1,0.3-0.3,0.3-0.6,0.2c-0.4-0.2-1.3-0.8-1.6-1c-0.1-0.1-0.2-0.2-0.2-0.3c0-0.1,0-0.2,0.1-0.3c1.9-3.2,3.1-5.7,4.2-9.1
				c-0.9,0.1-1.6,0.3-2.3,0.4c-0.6,0.1-1,0.3-1.3,0.4c-0.3,0.1-0.6,0.1-0.7-0.3c-0.2-0.5-0.5-1.4-0.7-2.4c1,0,2-0.1,3.1-0.2
				c1-0.1,1.8-0.2,2.7-0.3C602.7,45.3,602.8,44.5,603,43.7z M612.2,45.2c0.2-0.1,0.3,0,0.4,0.1c1.6,1.5,3,3.4,3.8,5.6
				c0.1,0.2,0.1,0.3-0.1,0.5c-0.4,0.4-1.3,0.9-1.7,1.2c-0.2,0.1-0.5,0.1-0.5-0.2c-0.9-2.4-2.1-4.4-3.8-6
				C610.9,46,611.6,45.6,612.2,45.2z M612.8,42c0.1-0.1,0.2-0.1,0.3,0c0.7,0.6,1.6,1.5,2.2,2.5c0.1,0.1,0.1,0.3-0.1,0.4l-1,0.7
				c-0.2,0.1-0.3,0.1-0.4-0.1c-0.7-1.1-1.4-1.9-2.3-2.7L612.8,42z M614.9,40.5c0.1-0.1,0.2-0.1,0.3,0c0.9,0.6,1.7,1.6,2.2,2.4
				c0.1,0.1,0.1,0.3-0.1,0.4l-0.9,0.7c-0.2,0.1-0.3,0.1-0.4-0.1c-0.6-1-1.4-1.9-2.3-2.7L614.9,40.5z"/>
		</g>
		<g>
			<path fill="#FFFFFF" d="M209.7,44.4c0.4,0.2,0.5,0.3,0.5,0.6c0,0.2,0,0.2-0.3,0.7c-0.2,0.4-0.3,0.7-0.6,1.6c-0.6,2.9-1,5.7-1,7.5
				c0,1.1,0,1.9,0.1,2.7c0.5-1.1,0.9-1.8,1.6-3.4c0.2,0.6,0.5,0.9,0.8,1.5c0.1,0.1,0.2,0.3,0.2,0.3c0,0.2,0,0.3-0.1,0.4
				c-0.5,1.2-1,2.2-1.3,3.5c0,0.1-0.1,0.4-0.1,0.7c0,0.3,0,0.5,0,0.6c0,0.2-0.1,0.3-0.3,0.3c-0.6,0.2-1.2,0.3-1.9,0.4
				c-0.2,0-0.3-0.1-0.3-0.3c-0.6-1.6-1.1-4.6-1.1-6.9c0-2.1,0.3-4.6,0.8-7.6c0.3-1.7,0.4-2.5,0.4-3.4C208.3,43.8,209,44,209.7,44.4z
				 M214.7,55.3c0.2,0,0.2,0.1,0.2,0.3c0.1,1.6,1.2,2.2,3.8,2.2c1.7,0,2.9-0.1,4.4-0.3c0.2,0,0.3,0,0.3,0.3c0.1,0.5,0.1,1.4,0.1,2
				c0,0.3,0,0.3-0.4,0.3c-1.6,0.2-2.7,0.3-3.8,0.3c-3.4,0-5-0.6-6-1.9c-0.6-0.7-0.8-1.9-0.8-3L214.7,55.3z M213.4,46.6
				c0-0.3,0.1-0.3,0.3-0.4c1.4-0.3,4-0.4,5-0.4c1.4,0,2.5,0,3.4,0.1c0.5,0,0.5,0.1,0.5,0.3c0,0.7,0,1.3,0,2c0,0.2-0.1,0.3-0.3,0.3
				c-1.4-0.1-2.6-0.1-3.8-0.1c-1.6,0-3.1,0.1-5.3,0.5C213.3,47.6,213.3,47,213.4,46.6z"/>
			<path fill="#FFFFFF" d="M233.1,57c0,2.1,0.9,3,3.1,3c2.7,0,4.2-1,4.2-3.1c0-1.3-0.3-2.4-2.1-4.2c0.9,0.1,1.4,0,2.4-0.1
				c0.2,0,0.3,0,0.5,0.1c1.3,1.2,2,2.8,2,4.4c0,3.3-2.7,5.4-6.7,5.4c-4.1,0-5.8-1.9-5.8-5.2c0-0.5,0.1-1.1,0.2-2.2
				c-1.4-0.2-2.3-0.4-3.1-0.7c-0.2,0-0.2-0.2-0.3-0.4c-0.1-0.7-0.1-1.4,0-2.2c1.4,0.5,2.4,0.8,3.8,0.9c0.1-0.9,0.3-2.4,0.4-3.3
				c-1.6-0.2-2.5-0.3-3.3-0.6c-0.3-0.1-0.4-0.2-0.4-0.4c0-0.6-0.1-1.3-0.1-2.2c1.6,0.5,2.7,0.7,4.2,0.9c0.2-1.3,0.3-2,0.3-2.7
				c0-0.6,0-1.3,0-1.9c1.1,0.1,2.3,0.4,2.8,0.6c0.3,0.1,0.5,0.3,0.5,0.5c0,0.2-0.1,0.3-0.2,0.4c-0.2,0.2-0.3,0.5-0.4,1
				c-0.1,0.5-0.3,1.3-0.4,2.2c0.9,0.1,1.9,0,2.8-0.1c0.2,0,0.2,0.1,0.2,0.3c0,0.6,0,1.2,0,1.7c0,0.3-0.1,0.3-0.4,0.3
				c-1,0.1-2.1,0.1-3.1,0.1c-0.1,0.8-0.4,2.4-0.5,3.3c1.2,0,2.2,0,3.3-0.1c0.3,0,0.4,0,0.4,0.3c0,0.4,0,1.2-0.1,1.7
				c0,0.3-0.1,0.4-0.3,0.4c-1.2,0.1-2.4,0.1-3.5,0.1C233.1,56,233.1,56.6,233.1,57z"/>
			<path fill="#FFFFFF" d="M253.6,43.1c0.3,0.1,0.4,0.2,0.4,0.4c0,0.3-0.2,0.6-0.2,1c0,0.5,0.1,1,0.1,1.6c0.2,1.6,0.4,2.8,0.7,4
				c1.2-0.6,2-1.1,3.3-1.8c0.7-0.4,1.2-0.8,1.6-1.2c0.7,0.8,1.3,1.6,1.7,2.2c0.1,0.1,0.2,0.3,0.2,0.5c0,0.2-0.1,0.4-0.5,0.5
				c-0.7,0.1-1.5,0.4-2.2,0.7c-2,0.8-3.8,1.7-5.4,2.7c-2,1.3-2.7,2.4-2.7,3.5c0,1.4,1,1.9,3.7,1.9c2.9,0,5.3-0.2,7.1-0.5
				c0.3,0,0.4,0,0.4,0.3c0.1,0.6,0.2,1.5,0.2,2.2c0,0.3-0.1,0.4-0.4,0.4c-2.1,0.3-4,0.3-6.9,0.3c-4.4,0-6.7-1.4-6.7-4.4
				c0-2.6,1.7-4.3,4.4-6c-0.6-1.8-1-3.9-1.2-5.6c-0.2-1.2-0.3-2-0.6-2.7C251.7,42.8,252.8,42.9,253.6,43.1z"/>
			<path fill="#FFFFFF" d="M269.9,48.5c3.6-1.2,6.5-1.9,8.3-1.9c4.1,0,6.8,2.5,6.8,6.1c0,3-1.3,5-4.1,6.4c-1.9,1.1-3.8,1.5-5.9,1.9
				c-0.5,0.1-0.6,0.1-0.8-0.4c-0.3-0.6-0.9-1.3-1.6-1.8c3.1-0.5,4.7-0.9,6.3-1.7c2-1,3.2-2.5,3.2-4.6c0-2.2-1.4-3.5-4-3.5
				c-2.1,0-4.8,0.8-8.4,2.4c-0.7,0.4-1.3,0.6-1.6,0.8c-0.3,0.3-0.5,0.3-0.6,0.3c-0.2,0-0.4-0.1-0.7-0.5c-0.4-0.5-1-1.4-1.5-2.4
				C266.4,49.6,267.3,49.4,269.9,48.5z M282.4,43.6c0.1-0.1,0.2-0.1,0.3,0c0.7,0.6,1.6,1.5,2.2,2.5c0.1,0.1,0.1,0.3-0.1,0.4l-1,0.7
				c-0.2,0.1-0.3,0.1-0.4-0.1c-0.7-1.1-1.4-1.9-2.3-2.7L282.4,43.6z M284.5,42.1c0.1-0.1,0.2-0.1,0.3,0c0.9,0.6,1.7,1.6,2.2,2.4
				c0.1,0.1,0.1,0.3-0.1,0.4l-0.9,0.7c-0.2,0.1-0.3,0.1-0.4-0.1c-0.6-1-1.4-1.9-2.3-2.7L284.5,42.1z"/>
			<path fill="#FFFFFF" d="M301.7,44.1c0.1,0.1,0.2,0.3,0.2,0.4c0,0.2-0.1,0.3-0.3,0.4c-0.3,0.1-0.6,0.3-1.1,0.8
				c-2,1.8-4.5,4.2-6.3,6c-0.2,0.3-0.3,0.4-0.3,0.5c0,0.1,0.1,0.3,0.3,0.4c3,2.2,6.1,4.7,8.6,7.3c0.1,0.1,0.2,0.2,0.2,0.3
				s0,0.2-0.2,0.3c-0.5,0.6-1.2,1.2-1.6,1.6c-0.1,0.1-0.2,0.2-0.3,0.2c-0.1,0-0.2-0.1-0.3-0.2c-2.7-3-5.3-5.4-8.4-7.8
				c-0.9-0.7-1.2-1.2-1.2-1.9c0-0.8,0.4-1.3,1.1-2c2-2.1,3.9-4.1,5.9-6.2c0.6-0.7,1-1.2,1.2-1.7C300.1,42.9,301,43.5,301.7,44.1z"/>
		</g>
		<g>
			<g>
				<path fill="#FFFFFF" d="M12.9,109.3c-2.1,0-2.8,0-2.9,0c-0.2,0-0.3,0-0.3-0.3v-1.5c0-0.2,0-0.3,0.3-0.3c0.1,0,0.9,0,2.9,0h14.2
					c2.1,0,2.8,0,2.9,0c0.2,0,0.3,0,0.3,0.3v1.5c0,0.3,0,0.3-0.3,0.3c-0.1,0-0.9,0-2.9,0h-3.7c1.6,1,3.8,1.6,6.6,1.9
					c-0.3,0.4-0.6,1-0.9,1.5c-0.2,0.5-0.3,0.6-0.6,0.6c-0.1,0-0.3,0-0.5,0c-2.3-0.4-4.8-1.4-6.6-2.5c-0.2-0.1-0.2-0.2,0.1-0.4
					l1.2-0.9h-6c0.4,0.3,0.8,0.6,1.2,0.8c0.2,0.2,0.3,0.3,0.3,0.4c0,0.1-0.1,0.3-0.3,0.3c-0.3,0.1-0.5,0.2-0.9,0.4
					c-1.3,0.7-3.3,1.4-5.4,1.9c-0.3,0-0.4,0.1-0.5,0.1c-0.2,0-0.3-0.2-0.5-0.6c-0.3-0.5-0.6-1-0.9-1.4c2.1-0.2,4.5-0.8,5.8-1.5
					c0.2-0.1,0.5-0.3,0.7-0.4H12.9z M13.4,96c-2.1,0-2.8,0-3,0c-0.2,0-0.3,0-0.3-0.3v-1.5c0-0.2,0-0.3,0.3-0.3c0.1,0,0.9,0,3,0h5.2
					V94c0-0.8,0-1.4-0.2-2.1c0.8,0,1.7,0.1,2.5,0.2c0.2,0,0.4,0.1,0.4,0.3c0,0.1-0.1,0.3-0.1,0.4c-0.1,0.2-0.1,0.5-0.1,1.2v0.1h5.7
					c2.1,0,2.8,0,3,0c0.2,0,0.3,0,0.3,0.3v1.5c0,0.3,0,0.3-0.3,0.3c-0.1,0-0.9,0-3,0H21v1.2h2.5c2.2,0,3,0,3.2,0
					c0.2,0,0.3,0,0.3,0.3c0,0.1,0,0.8,0,2.3v4.1c0,1.5,0,2.2,0,2.3c0,0.2,0,0.2-0.3,0.2c-0.2,0-0.9,0-3.2,0h-7.2c-2.2,0-3,0-3.2,0
					c-0.3,0-0.3,0-0.3-0.2c0-0.1,0-0.8,0-2.3v-4.1c0-1.5,0-2.1,0-2.3c0-0.2,0-0.3,0.3-0.3c0.1,0,0.9,0,3.2,0h2.2V96H13.4z
					 M15.2,98.8v1h9.4v-1H15.2z M24.7,102.3v-1h-9.4v1H24.7z M24.7,103.8h-9.4v1.1h9.4V103.8z"/>
				<path fill="#FFFFFF" d="M38.8,94.6c0.4,0.2,0.5,0.3,0.5,0.6c0,0.2,0,0.2-0.3,0.7c-0.2,0.4-0.3,0.7-0.6,1.6c-0.6,2.9-1,5.7-1,7.5
					c0,1.1,0,1.9,0.1,2.7c0.5-1.1,0.9-1.8,1.6-3.4c0.2,0.6,0.5,0.9,0.8,1.5c0.1,0.1,0.2,0.3,0.2,0.3c0,0.2,0,0.3-0.1,0.4
					c-0.5,1.2-1,2.2-1.3,3.5c0,0.1-0.1,0.4-0.1,0.7c0,0.3,0,0.5,0,0.6c0,0.2-0.1,0.3-0.3,0.3c-0.6,0.2-1.2,0.3-1.9,0.4
					c-0.2,0-0.3-0.1-0.3-0.3c-0.6-1.6-1.1-4.6-1.1-6.9c0-2.1,0.3-4.6,0.8-7.6c0.3-1.7,0.4-2.5,0.4-3.4C37.4,94,38.1,94.2,38.8,94.6z
					 M43.8,105.5c0.2,0,0.2,0.1,0.2,0.3c0.1,1.6,1.2,2.2,3.8,2.2c1.7,0,2.9-0.1,4.4-0.3c0.2,0,0.3,0,0.3,0.3c0.1,0.5,0.1,1.4,0.1,2
					c0,0.3,0,0.3-0.4,0.3c-1.6,0.2-2.7,0.3-3.8,0.3c-3.4,0-5-0.6-6-1.9c-0.6-0.7-0.8-1.9-0.8-3L43.8,105.5z M42.5,96.8
					c0-0.3,0.1-0.3,0.3-0.4c1.4-0.3,4-0.4,5-0.4c1.4,0,2.5,0,3.4,0.1c0.5,0,0.5,0.1,0.5,0.3c0,0.7,0,1.3,0,2c0,0.2-0.1,0.3-0.3,0.3
					c-1.4-0.1-2.6-0.1-3.8-0.1c-1.6,0-3.1,0.1-5.3,0.5C42.4,97.8,42.4,97.2,42.5,96.8z"/>
				<path fill="#FFFFFF" d="M59.3,100.8c-2,0-2.7,0-2.8,0c-0.2,0-0.3,0-0.3-0.3v-1.7c0-0.2,0-0.3,0.3-0.3c0.1,0,0.8,0,2.8,0h1.5
					v-2.8c-0.9,0.2-1.8,0.4-2.7,0.6c-0.7,0.1-0.7,0.1-0.9-0.6c-0.2-0.5-0.5-0.9-0.8-1.3c2.8-0.3,5.6-1.2,7.2-1.8
					c0.6-0.2,0.8-0.4,1.2-0.6c0.7,0.5,1.1,0.9,1.6,1.4c0.2,0.2,0.2,0.3,0.2,0.4c0,0.2-0.2,0.3-0.4,0.3c-0.3,0-0.6,0.2-1,0.3
					c-0.6,0.2-1.3,0.4-2,0.6v3.4h0.6c2,0,2.7,0,2.8,0c0.2,0,0.3,0,0.3,0.3v1.7c0,0.2,0,0.3-0.3,0.3c-0.1,0-0.8,0-2.8,0h-0.2
					c0.9,1.6,2.2,3.2,3.5,4.2c-0.3,0.4-0.7,1-0.9,1.6c-0.1,0.3-0.2,0.4-0.3,0.4c-0.1,0-0.2-0.1-0.4-0.3c-0.9-1.1-1.7-2.2-2.3-3.5
					c0,5.6,0.1,9.4,0.1,9.8c0,0.2,0,0.2-0.3,0.2H61c-0.2,0-0.3,0-0.3-0.2c0-0.4,0.1-4.2,0.1-9.4c-0.8,2.2-2,4.1-3.4,5.7
					c-0.2,0.2-0.3,0.3-0.4,0.3c-0.1,0-0.2-0.1-0.3-0.4c-0.2-0.6-0.6-1.4-0.9-1.9c1.7-1.6,3.4-3.7,4.5-6.6H59.3z M68.1,97.5
					c0-1.5,0-2.4-0.2-3.4c0.9,0,1.6,0.1,2.4,0.2c0.2,0,0.3,0.1,0.3,0.3c0,0.2-0.1,0.3-0.1,0.5c-0.1,0.3-0.1,0.8-0.1,2.5v6.4
					c0,2,0,2.9,0,3.1c0,0.2,0,0.3-0.3,0.3h-1.9c-0.2,0-0.3,0-0.3-0.3c0-0.1,0-1.1,0-3.1V97.5z M75.9,105.4c0,1.6,0,3.4,0,4.6
					c0,1.1-0.2,1.8-0.8,2.2c-0.6,0.4-1.4,0.6-3.6,0.6c-0.7,0-0.7,0-0.9-0.7c-0.2-0.7-0.4-1.3-0.7-1.8c0.9,0.1,1.8,0.2,2.6,0.2
					c0.7,0,1-0.2,1-0.9V95.7c0-1.5,0-2.2-0.2-3.3c0.9,0,1.7,0.1,2.5,0.2c0.2,0,0.4,0.1,0.4,0.3c0,0.2-0.1,0.3-0.1,0.5
					c-0.1,0.3-0.1,0.8-0.1,2.4V105.4z"/>
				<path fill="#FFFFFF" d="M81.4,98.3c0.2-0.2,0.3-0.2,0.5-0.1c1.1,0.6,2.2,1.4,3.3,2.4c0.1,0.1,0.1,0.1,0.1,0.2
					c0,0.1,0,0.1-0.1,0.3l-1,1.5c-0.1,0.1-0.1,0.2-0.2,0.2c0,0-0.1,0-0.2-0.1c-1-1-2.1-1.8-3.3-2.5c-0.1-0.1-0.2-0.1-0.2-0.2
					c0-0.1,0-0.2,0.1-0.3L81.4,98.3z M81.7,109.7c0.6-1.3,1.5-3.1,2.3-5.3c0.3,0.4,0.8,0.8,1.2,1.2c0.4,0.3,0.5,0.4,0.5,0.6
					c0,0.1-0.1,0.3-0.2,0.6c-0.7,1.8-1.5,3.6-2.2,5.1c-0.2,0.3-0.3,0.6-0.4,0.9c0,0.2-0.1,0.3-0.3,0.3c-0.1,0-0.3-0.1-0.4-0.2
					c-0.5-0.3-1.1-0.7-1.8-1.3C80.9,110.9,81.3,110.4,81.7,109.7z M82.4,92.4c0.2-0.2,0.3-0.2,0.4-0.1C84,93,85,93.8,86,94.7
					c0.1,0.1,0.1,0.1,0.1,0.2s0,0.1-0.1,0.3l-1,1.5c-0.1,0.1-0.2,0.2-0.2,0.2c-0.1,0-0.1,0-0.2-0.1c-1-1-2.2-1.9-3.3-2.6
					c-0.1-0.1-0.2-0.1-0.2-0.2c0-0.1,0-0.1,0.2-0.3L82.4,92.4z M89.6,101.3c-2.3,0-3.1,0-3.2,0c-0.2,0-0.3,0-0.3-0.3v-1.8
					c0-0.2,0-0.2,0.3-0.2c0.1,0,0.9,0,3.2,0h2.7v-3c-1.3,0.2-2.7,0.4-4,0.5c-0.7,0.1-0.8,0-0.9-0.6c-0.2-0.6-0.4-1.2-0.6-1.5
					c3.8-0.2,7.8-0.9,10.2-1.6c0.6-0.2,1-0.4,1.5-0.6c0.6,0.5,1.1,1,1.5,1.5c0.1,0.2,0.2,0.3,0.2,0.5c0,0.1-0.1,0.3-0.3,0.3
					c-0.3,0-0.6,0-1.2,0.3c-1.1,0.4-2.4,0.7-3.8,0.9v3.5h3c2.3,0,3.1,0,3.2,0c0.2,0,0.2,0,0.2,0.2v1.8c0,0.2,0,0.3-0.2,0.3
					c-0.1,0-0.9,0-3.2,0h-3v3h1.7c2.1,0,2.8,0,3,0c0.2,0,0.3,0,0.3,0.3c0,0.1,0,0.8,0,2.3v2.1c0,3.2,0,3.8,0,3.9
					c0,0.2,0,0.2-0.3,0.2h-2c-0.2,0-0.3,0-0.3-0.2V112H90v0.9c0,0.2,0,0.2-0.3,0.2h-1.9c-0.3,0-0.3,0-0.3-0.2c0-0.2,0-0.8,0-4v-1.8
					c0-1.8,0-2.5,0-2.6c0-0.2,0-0.3,0.3-0.3c0.1,0,0.9,0,3,0h1.4v-3H89.6z M90,110h7.2v-3.6H90V110z"/>
				<path fill="#FFFFFF" d="M124,107.3c0,1.1,0,2.2,0,3.2c0,0.9-0.2,1.4-0.8,1.9c-0.4,0.4-1.1,0.6-3.1,0.6c-0.7,0-0.7,0-0.9-0.7
					c-0.2-0.7-0.4-1.3-0.6-1.8c0.9,0.1,1.4,0.1,2.2,0.1c0.5,0,0.7-0.2,0.7-0.8V106h-5.4v2.8c0,2.2,0,3.3,0,3.4c0,0.2,0,0.3-0.3,0.3
					h-2c-0.2,0-0.3,0-0.3-0.3c0-0.2,0-1.2,0-3.4V106h-5.3c-0.3,2.9-0.9,4.7-2,6.4c-0.2,0.3-0.3,0.5-0.4,0.5c-0.1,0-0.2-0.1-0.5-0.4
					c-0.6-0.6-1.1-0.9-1.6-1.2c1.7-2.2,2.4-4.9,2.4-10.5V97c0-2.4,0-3.7,0-3.8c0-0.3,0-0.3,0.3-0.3c0.1,0,0.9,0,3.2,0h10.9
					c2.2,0,3,0,3.2,0c0.2,0,0.3,0,0.3,0.3c0,0.1,0,1.4,0,3.8V107.3z M113.8,103.9v-3.3h-5v0.3c0,1.1,0,2.1-0.1,3H113.8z M113.8,98.5
					v-3.2h-5v3.2H113.8z M116.2,95.2v3.2h5.4v-3.2H116.2z M121.6,103.9v-3.3h-5.4v3.3H121.6z"/>
				<path fill="#FFFFFF" d="M134.9,94.9c-0.3-0.7-0.6-1.2-1.2-1.9c1.1-0.2,2.1-0.4,2.8-0.4c0.6,0,0.8,0.2,0.8,0.5c0,0.2,0,0.4,0,0.6
					c0.1,0.3,0.2,0.6,0.4,1.2c0.3,0.7,0.5,1.2,0.8,1.9c2.1-0.5,3.6-1,4.8-1.4c0.2-0.1,0.3-0.1,0.4,0.2c0.2,0.4,0.4,1.2,0.6,1.8
					c0.1,0.2,0,0.3-0.2,0.4c-1.1,0.4-2.5,0.8-4.6,1.3c0.9,1.7,2.1,3.3,3.5,4.9c0.2,0.2,0.4,0.3,0.6,0.5c0.1,0.1,0.2,0.2,0.2,0.3
					c0,0.2-0.1,0.3-0.1,0.4c-0.2,0.4-0.6,1.1-0.9,1.5c-0.2,0.3-0.3,0.3-0.5,0.3c-0.1,0-0.2,0-0.4-0.2c-0.3-0.2-0.5-0.4-0.9-0.6
					c-1.5-0.8-3.2-1.2-4.9-1.2c-2.4,0-3.9,0.7-3.9,2.2c0,1.7,2.1,2.5,5.7,2.5c1.1,0,2.5-0.1,3.7-0.3c-0.1,0.9-0.3,2-0.5,2.5
					c-0.1,0.2-0.2,0.3-0.4,0.3c-0.4,0.1-1.6,0.2-2.6,0.2c-5.5,0-8.4-1.7-8.4-4.8c0-2.6,2.3-4.5,6.1-4.5c1.9,0,3.2,0.3,4.1,0.6
					c-1.1-1.1-2.1-2.3-3-4.1c-1.5,0.3-2.8,0.4-4.5,0.6c-0.6,0-1.7,0.1-2.3,0.1c-0.2,0-0.3-0.1-0.4-0.4c-0.2-0.7-0.3-1.2-0.5-2.1
					c1.2,0,2.1,0,2.9,0c1,0,2.1-0.2,3.7-0.4C135.6,96.4,135.2,95.7,134.9,94.9z"/>
				<path fill="#FFFFFF" d="M153.3,94.9c0-0.9,0-1.6-0.2-2.2c1,0.1,1.9,0.2,2.6,0.4c0.4,0.1,0.5,0.2,0.5,0.5c0,0.1-0.1,0.3-0.2,0.4
					c-0.1,0.2-0.2,0.5-0.2,1.1c0,0.8-0.1,1.2-0.1,2.3c0.3,0.2,0.6,0.3,0.9,0.5c0.1,0.1,0.2,0.2,0.2,0.3c0,0.1,0,0.2-0.1,0.3
					c-0.4,0.7-0.8,1.4-1.2,2.2v0.1c0.7-0.8,1.2-1.4,2.2-2.2c1.8-1.7,3.1-2.3,4.2-2.3c1.7,0,2.8,1.2,2.8,3.1c0,0.7,0,2.1-0.2,4.2
					c-0.1,2.1-0.2,3.2-0.2,3.9c0,1.2,0.3,1.3,0.9,1.3c0.5,0,1.1-0.3,1.7-0.8c0.3-0.3,0.8-0.8,1.4-1.9c0.3,0.8,0.5,1.2,0.9,1.7
					c0.2,0.2,0.3,0.3,0.3,0.5c0,0.1,0,0.2-0.2,0.4c-1,1.4-2.5,2.7-4.4,2.7s-3-1.1-3-3.5c0-0.6,0.1-1.9,0.2-3.9
					c0.1-2,0.2-2.8,0.2-3.8c0-1-0.3-1.5-0.7-1.5c-0.7,0-1.5,0.5-2.6,1.5c-0.9,0.9-2,2-3.2,3.4c0,2.9,0.1,6.2,0.1,8.8
					c0,0.2-0.1,0.3-0.3,0.3c-0.3,0-1.2,0.1-1.8,0.1c-0.2,0-0.3-0.1-0.3-0.4c0-2.1,0-4.5,0.1-6.6c-0.9,1.4-1.8,2.8-2.7,4.2
					c-0.1,0.2-0.2,0.2-0.3,0.2c-0.1,0-0.2,0-0.3-0.1c-0.4-0.2-1.1-0.9-1.4-1.3c-0.1-0.1-0.1-0.2-0.1-0.3c0-0.1,0.1-0.3,0.2-0.4
					c1.9-2.5,3.1-4.1,4.5-6.1c0-0.6,0-1,0-1.6c-0.8,0.2-1.9,0.6-2.8,0.9c-0.2,0.1-0.4,0.3-0.7,0.3c-0.2,0-0.3-0.1-0.5-0.4
					c-0.3-0.5-0.6-1.2-0.9-2.1c0.6,0,1-0.1,1.7-0.2c0.8-0.2,2.1-0.5,3.3-0.9V94.9z"/>
				<path fill="#FFFFFF" d="M179.6,101.6c1.3-0.7,2.4-1,3.7-1c3.4,0,5.7,2.2,5.7,5.6c0,3.9-3.1,6.3-8.1,6.3c-2.9,0-4.7-1.2-4.7-3.4
					c0-1.6,1.5-2.8,3.3-2.8c2.2,0,3.8,1.2,4.4,3.4c1.6-0.7,2.4-1.8,2.4-3.5c0-2.1-1.5-3.5-3.6-3.5c-1.9,0-4.1,0.9-5.9,2.5
					c-0.7,0.6-1.3,1.3-2,2c-0.2,0.2-0.3,0.3-0.4,0.3c-0.1,0-0.2-0.1-0.3-0.2c-0.5-0.4-1-1-1.4-1.5c-0.1-0.2-0.1-0.3,0.1-0.5
					c1.8-1.5,3.4-2.9,5.5-5.1c1.4-1.5,2.5-2.6,3.6-4c-1.4,0.3-3,0.6-4.5,0.9c-0.3,0.1-0.6,0.1-1,0.3c-0.1,0-0.3,0.1-0.5,0.1
					c-0.2,0-0.4-0.1-0.5-0.4c-0.3-0.5-0.5-1.2-0.8-2.5c0.7,0.1,1.5,0.1,2.2,0c1.4-0.1,3.4-0.4,5.3-0.8c0.6-0.1,1-0.2,1.3-0.3
					c0.1-0.1,0.3-0.2,0.4-0.2c0.2,0,0.4,0.1,0.5,0.2c0.7,0.5,1.2,1,1.6,1.5c0.2,0.2,0.3,0.4,0.3,0.6c0,0.2-0.1,0.4-0.4,0.6
					c-0.4,0.2-0.6,0.3-1,0.7C182.9,98.3,181.4,99.9,179.6,101.6L179.6,101.6z M179.7,108.2c-0.7,0-1.1,0.4-1.1,0.9
					c0,0.7,0.6,1.2,2,1.2c0.4,0,0.7,0,1.1-0.1C181.3,109,180.6,108.2,179.7,108.2z"/>
			</g>
		</g>
		<g>
			<g>
				<path fill="#FFFFFF" d="M558.8,98.2c-0.5,3.9-1.5,7.5-2.9,10c-1,1.7-2.2,2.7-3.9,2.7c-2,0-4.1-2.2-4.1-5.9c0-2.2,0.9-4.4,2.6-6
					c1.9-1.9,4.4-3,7.5-3c5.6,0,8.8,3.4,8.8,8c0,4.3-2.4,7-7.1,8.4c-0.5,0.1-0.7,0-1-0.4c-0.3-0.4-0.7-0.9-1.6-1.5
					c3.9-0.9,7-2.5,7-6.9C564.1,100.8,562,98.2,558.8,98.2L558.8,98.2z M552.2,100.4c-1.1,1.2-1.8,2.8-1.8,4.3
					c0,2.1,0.9,3.3,1.6,3.3c0.6,0,1.1-0.3,1.7-1.4c1-1.9,2.1-5.2,2.5-8.3C554.5,98.6,553.2,99.3,552.2,100.4z"/>
				<path fill="#FFFFFF" d="M575.1,107.9c-2.1,0-2.8,0-3,0c-0.2,0-0.3,0-0.3-0.3v-1.5c0-0.3,0-0.3,0.3-0.3c0.1,0,0.9,0,3,0h5
					c0.1-0.4,0.1-0.9,0.2-1.4h-2.2c-2.2,0-3,0-3.1,0c-0.2,0-0.3,0-0.3-0.3v-1.5c0-0.3,0-0.3,0.3-0.3c0.1,0,0.9,0,3.1,0h2.3v-1.4
					h-2.1c-2.2,0-2.9,0-3.1,0c-0.2,0-0.3,0-0.3-0.3v-1.4c0-0.3,0-0.3,0.3-0.3c0.1,0,0.9,0,3.1,0h2.1c0-0.7-0.1-1.3-0.1-1.7
					c0.8,0,1.7,0,2.4,0.1c0.3,0,0.4,0.1,0.4,0.3c0,0.1-0.1,0.3-0.1,0.5c-0.1,0.2-0.1,0.3-0.1,0.8h2.4c2.1,0,2.9,0,3,0
					c0.3,0,0.3,0,0.3,0.3v1.4c0,0.3,0,0.3-0.3,0.3c-0.1,0-0.9,0-3,0h-2.4v1.4h2.5c2.2,0,3,0,3.1,0c0.3,0,0.3,0,0.3,0.3v1.5
					c0,0.2,0,0.3-0.3,0.3c-0.1,0-0.9,0-3.1,0h-2.5c0,0.5-0.1,1-0.1,1.4h5.8c2.1,0,2.8,0,3,0c0.3,0,0.3,0,0.3,0.3v1.5
					c0,0.2,0,0.3-0.3,0.3c-0.1,0-0.9,0-3,0h-4.8c1.9,2.2,4.9,3.3,8.8,3.7c-0.3,0.4-0.7,1.1-0.9,1.7c-0.1,0.5-0.2,0.6-0.5,0.6
					c-0.1,0-0.3,0-0.5,0c-3.7-0.6-6.7-2.2-8.8-5.1c-0.2,0.3-0.3,0.6-0.6,0.8c-1.6,2.1-4.2,3.4-7.9,4.2c-0.2,0-0.4,0.1-0.5,0.1
					c-0.2,0-0.3-0.2-0.4-0.6c-0.2-0.6-0.6-1.2-0.9-1.6c3.9-0.6,6.8-1.9,8-3.5l0.2-0.3H575.1z M588.2,95.2c2.2,0,2.9,0,3.1,0
					c0.2,0,0.3,0,0.3,0.3c0,0.1,0,0.5,0,1.2v1c0,2,0,2.4,0,2.5c0,0.2,0,0.3-0.3,0.3h-1.9c-0.2,0-0.3,0-0.3-0.3v-2.8h-14.7v2.8
					c0,0.2,0,0.3-0.3,0.3h-1.9c-0.2,0-0.3,0-0.3-0.3c0-0.1,0-0.5,0-2.5v-0.8c0-0.8,0-1.2,0-1.3c0-0.2,0-0.3,0.3-0.3
					c0.2,0,0.9,0,3.1,0h5v-0.1c0-1,0-1.6-0.2-2.2c0.9,0,1.7,0.1,2.5,0.1c0.3,0,0.4,0.1,0.4,0.2c0,0.2-0.1,0.3-0.1,0.5
					c-0.1,0.2-0.1,0.5-0.1,1.4v0.1H588.2z"/>
				<path fill="#FFFFFF" d="M600.9,96.6v4.1c1.4,0,1.9,0,2,0c0.2,0,0.3,0,0.3,0.3v1.7c0,0.2,0,0.3-0.3,0.3c-0.1,0-0.6,0-2,0v3.8
					c0.9-0.4,1.8-0.8,2.6-1.3c0,0.5,0,1,0,1.5c0,0.7,0,0.7-0.6,1.1c-1.6,0.9-3.6,1.7-5.3,2.4c-0.4,0.1-0.6,0.3-0.7,0.3
					c-0.2,0.1-0.2,0.2-0.4,0.2c-0.1,0-0.2-0.1-0.3-0.3c-0.2-0.6-0.4-1.3-0.6-2.2c0.7-0.1,1.4-0.3,2.2-0.6c0.3-0.1,0.5-0.2,0.8-0.3
					v-4.7c-1.5,0-2,0-2.1,0c-0.2,0-0.3,0-0.3-0.3v-1.7c0-0.2,0-0.3,0.3-0.3c0.1,0,0.6,0,2.1,0v-4.1h-0.1c-1.6,0-2.1,0-2.3,0
					c-0.2,0-0.2,0-0.2-0.3v-1.7c0-0.2,0-0.3,0.2-0.3c0.1,0,0.6,0,2.3,0h2.6c1.6,0,2.1,0,2.2,0c0.2,0,0.3,0,0.3,0.3v1.7
					c0,0.3,0,0.3-0.3,0.3C603.1,96.7,602.6,96.6,600.9,96.6L600.9,96.6z M612.3,110.8c0,0.5,0,0.6,0.3,0.7c0.2,0.1,0.4,0.1,0.8,0.1
					c0.6,0,0.9,0,1.2-0.3c0.3-0.3,0.4-1,0.5-2.7c0.5,0.4,1.1,0.6,1.5,0.7c0.5,0.2,0.6,0.2,0.5,0.8c-0.1,1.6-0.4,2.5-0.9,2.9
					s-1.4,0.7-2.9,0.7c-1.2,0-2-0.1-2.5-0.3c-0.5-0.2-0.7-0.7-0.7-1.5v-5.3h-1.3c-0.3,4.2-2.3,6.2-6.4,7.3c-0.2,0.1-0.4,0.1-0.5,0.1
					c-0.2,0-0.3-0.1-0.6-0.6c-0.3-0.6-0.7-1-1.1-1.3c4-0.9,6-1.9,6.2-5.6c-1.3,0-1.8,0-1.9,0c-0.2,0-0.3,0-0.3-0.3c0-0.2,0-1,0-2.8
					V97c0-1.8,0-2.7,0-2.8c0-0.3,0-0.3,0.3-0.3c0.1,0,0.8,0,2.9,0h4.8c2.1,0,2.7,0,2.9,0c0.2,0,0.3,0,0.3,0.3c0,0.1,0,1,0,2.8v6.6
					c0,1.8,0,2.7,0,2.8c0,0.2,0,0.3-0.3,0.3c-0.2,0-0.8,0-2.8,0V110.8z M606.5,96v1.6h6.4V96H606.5z M612.9,101.1v-1.6h-6.4v1.6
					H612.9z M612.9,103h-6.4v1.6h6.4V103z"/>
			</g>
		</g>
		<g>
			<path fill="#E5381A" d="M446.8,12.5c-1.2,0-2.2,0.1-3,0.1c-0.2,0-0.3-0.1-0.3-0.4c-0.1-0.4-0.1-1.3-0.2-1.8
				c0.8,0.1,1.8,0.1,3.5,0.1h6.4c0.5,0,0.7,0,1-0.2c0.1-0.1,0.2-0.1,0.3-0.1c0.1,0,0.2,0,0.3,0.1c0.5,0.3,1,0.8,1.3,1.2
				c0.1,0.1,0.1,0.2,0.1,0.3c0,0.2-0.1,0.3-0.3,0.5c-0.2,0.2-0.3,0.3-0.4,0.7c-0.9,2.1-2,4.1-3.5,5.9c-1.5,1.8-3.3,3.3-5.1,4.3
				c-0.2,0.1-0.3,0.2-0.5,0.2c-0.1,0-0.3-0.1-0.5-0.2c-0.4-0.4-1-0.7-1.7-1c2.6-1.3,4.2-2.6,5.9-4.5c1.4-1.6,2.3-3.1,3-5.1H446.8z"
				/>
			<path fill="#E5381A" d="M463.4,14.8c-1.1,0-1.6,0.1-2.4,0.1c-0.2,0-0.4-0.1-0.4-0.2c-0.1-0.3-0.2-1.1-0.3-1.7
				c1.1,0.1,1.6,0.1,2.9,0.1h6c0.5,0,0.8,0,1-0.1c0.1-0.1,0.2-0.1,0.3-0.1c0.1,0,0.2,0.1,0.3,0.1c0.3,0.3,0.7,0.7,1,1.2
				c0.1,0.1,0.1,0.2,0.1,0.3c0,0.1-0.1,0.2-0.2,0.3c-0.3,0.1-0.4,0.3-0.5,0.4c-0.7,1-1.7,2.2-2.3,2.8c-0.1,0.1-0.2,0.1-0.3,0.1
				c-0.1,0-0.3-0.1-0.4-0.2c-0.4-0.3-0.7-0.5-1.2-0.6c0.9-0.8,1.6-1.6,2.2-2.4H463.4z M466.5,15.9c0.2,0.1,0.3,0.1,0.3,0.3
				c0,0.1,0,0.2-0.1,0.3c-0.1,0.2-0.1,0.4-0.1,0.7c0,2.7-1,5.1-3.4,6.5c-0.2,0.1-0.3,0.2-0.4,0.2c-0.1,0-0.2-0.1-0.3-0.2
				c-0.3-0.3-0.9-0.6-1.4-0.7c2.5-1.4,3.7-3,3.7-5.9c0-0.6,0-0.8-0.2-1.5C465.3,15.7,466.1,15.7,466.5,15.9z"/>
			<path fill="#E5381A" d="M479.3,12.9c-1.2,0-2.2,0.1-3,0.1c-0.2,0-0.3-0.1-0.3-0.4c-0.1-0.4-0.1-1.3-0.2-1.8
				c0.8,0.1,1.8,0.1,3.5,0.1h6.4c0.5,0,0.7,0,1-0.2c0.1-0.1,0.2-0.1,0.3-0.1c0.1,0,0.2,0,0.3,0.1c0.5,0.3,1,0.8,1.3,1.2
				c0.1,0.1,0.1,0.2,0.1,0.3c0,0.2-0.1,0.3-0.3,0.4c-0.2,0.2-0.3,0.3-0.4,0.7c-0.9,2.1-2,4.1-3.5,5.9c-1.5,1.8-3.3,3.3-5.1,4.3
				c-0.2,0.1-0.3,0.2-0.5,0.2c-0.1,0-0.3-0.1-0.5-0.2c-0.4-0.4-1-0.7-1.7-1c2.6-1.3,4.2-2.6,5.9-4.5c1.4-1.6,2.3-3.1,3-5.1H479.3z
				 M488.1,8.7c0.1-0.1,0.2-0.1,0.3,0c0.6,0.4,1.2,1.2,1.7,1.9c0.1,0.1,0.1,0.2-0.1,0.3l-0.7,0.5c-0.1,0.1-0.2,0.1-0.3-0.1
				c-0.5-0.8-1.1-1.5-1.8-2.1L488.1,8.7z M489.6,7.6c0.1-0.1,0.2-0.1,0.3,0c0.7,0.5,1.3,1.2,1.7,1.9c0.1,0.1,0.1,0.2-0.1,0.3
				l-0.6,0.5c-0.1,0.1-0.1,0.1-0.1,0.1c-0.1,0-0.1-0.1-0.2-0.1c-0.5-0.8-1.1-1.5-1.8-2.1L489.6,7.6z"/>
			<path fill="#E5381A" d="M495.6,11.7c0-1.2-0.1-1.9-0.2-2.6c0.8,0.1,1.7,0.2,2.2,0.4c0.2,0.1,0.3,0.2,0.3,0.3c0,0.1,0,0.2-0.1,0.3
				c-0.2,0.3-0.2,0.8-0.2,1.7v3.6c0,0.9,0,1.6,0.1,2.3c0,0.3-0.1,0.4-0.4,0.4h-1.4c-0.3,0-0.4-0.1-0.3-0.3c0-0.6,0.1-1.7,0.1-2.4
				V11.7z M504.1,15.1c0,2.7-0.4,4.4-1.5,5.9c-0.9,1.2-2.4,2.3-4,2.8c-0.1,0.1-0.3,0.1-0.4,0.1c-0.1,0-0.3-0.1-0.4-0.2
				c-0.4-0.4-0.9-0.8-1.5-1.1c1.9-0.6,3.4-1.4,4.4-2.6c0.8-1,1.2-2.5,1.2-4.8v-3.4c0-1.5,0-2.1-0.2-2.9c0.9,0.1,1.7,0.2,2.3,0.4
				c0.2,0.1,0.3,0.2,0.3,0.3c0,0.1,0,0.2-0.1,0.3c-0.2,0.4-0.2,0.8-0.2,2V15.1z"/>
			<path fill="#E5381A" d="M519.9,14.4c-0.2,2.4-0.6,3.9-1.5,5.5c-0.9,1.6-2.1,3-3.6,3.9c-0.1,0.1-0.3,0.1-0.4,0.1
				c-0.1,0-0.2,0-0.3-0.1c-0.5-0.4-1.2-0.6-1.9-0.8c2.1-1.2,3.2-2.3,4.1-3.9c0.8-1.4,1.2-2.8,1.2-4.7H514c-0.8,1.2-1.7,2.3-2.5,3.1
				c-0.1,0.1-0.2,0.1-0.3,0.1c-0.1,0-0.2,0-0.3-0.1c-0.5-0.3-1.1-0.5-1.7-0.6c2-2,3.3-3.7,4.2-5.9c0.4-0.9,0.6-1.5,0.7-2.5
				c0.7,0.2,1.6,0.5,2.2,0.8c0.1,0.1,0.2,0.2,0.2,0.3s-0.1,0.3-0.2,0.3c-0.3,0.2-0.4,0.5-0.5,0.7c-0.3,0.6-0.6,1.3-0.8,1.7h5.8
				c1.1,0,2.3-0.1,3.5-0.1c0.2,0,0.3,0.1,0.3,0.3c0,0.5,0,1,0,1.5c0,0.2-0.1,0.3-0.3,0.3c-0.7,0-2.2-0.1-3.3-0.1H519.9z"/>
			<path fill="#E5381A" d="M531.6,17.4c-1.8,0-2.5,0.2-2.6,0.2c-0.2,0-0.4-0.1-0.4-0.4c-0.1-0.4-0.2-1.3-0.3-2.2
				c1.2,0.2,2.1,0.2,3.9,0.2h5.8c1.4,0,2.8,0,4.1-0.1c0.3,0,0.3,0,0.3,0.3c0,0.5,0,1.2,0,1.7c0,0.2-0.1,0.3-0.3,0.3
				c-1.4,0-2.7,0-4,0H531.6z"/>
			<path fill="#E5381A" d="M547.2,13.6c0.1-0.1,0.2-0.2,0.3-0.2c1.4,0.5,2.4,1,3.5,1.8c0.1,0.1,0.2,0.2,0.2,0.3c0,0.1,0,0.1-0.1,0.2
				c-0.2,0.5-0.5,1-0.8,1.4c-0.1,0.1-0.2,0.2-0.2,0.2s-0.1,0-0.2-0.1c-1.2-0.8-2.3-1.4-3.6-2C546.7,14.4,547,13.9,547.2,13.6z
				 M550.1,20.3c1.7-0.9,3.2-1.7,4.9-3.1c1.4-1.1,3.4-2.8,5.2-5c0.1,0.8,0.3,1.2,0.5,2c0.1,0.1,0.1,0.2,0.1,0.3
				c0,0.1-0.1,0.3-0.2,0.4c-1.7,1.8-2.8,2.8-4.6,4.2c-1.6,1.2-3.2,2.2-5.4,3.4c-0.4,0.2-0.9,0.4-1,0.6c-0.1,0.1-0.2,0.1-0.3,0.1
				c-0.1,0-0.3-0.1-0.4-0.2c-0.4-0.4-0.9-1.1-1.3-1.8C548.4,21.1,549,20.9,550.1,20.3z M549.4,9.5c0.1-0.2,0.2-0.3,0.5-0.1
				c1.2,0.5,2.4,1.1,3.4,2c0.1,0.1,0.1,0.2,0.1,0.2s0,0.1-0.1,0.2c-0.3,0.5-0.6,1-0.9,1.3c-0.1,0.1-0.1,0.1-0.2,0.1
				c-0.1,0-0.2-0.1-0.3-0.1c-0.9-0.8-2.3-1.7-3.5-2.2C548.7,10.5,549,10,549.4,9.5z"/>
			<path fill="#E5381A" d="M572.3,15.5h-4.2c-0.8,0-1.7,0.1-2.5,0.1c-0.2,0-0.3-0.1-0.3-0.4c0-0.5-0.1-0.8-0.1-1.5
				c1,0.1,1.6,0.1,2.9,0.1h3.1c0.9,0,1.9,0,2.7,0c0.2,0,0.3,0.1,0.3,0.3c0,0.8,0,1.6,0,2.4v4.2c0,0.8,0,1.6,0.1,2.6
				c0,0.3-0.1,0.3-0.4,0.3c-0.3,0-0.9,0-1.2,0c-0.3,0-0.3-0.1-0.3-0.3v-0.5h-4.3c-0.8,0-1.7,0-2.5,0.1c-0.2,0-0.2-0.1-0.3-0.4
				c-0.1-0.4-0.1-0.9-0.1-1.5c1,0.1,1.9,0.1,2.9,0.1h4.2v-2h-3.8c-0.8,0-1.7,0-2.5,0.1c-0.2,0-0.3-0.1-0.3-0.4
				c-0.1-0.4-0.1-0.8-0.1-1.4c1,0.1,1.6,0.1,2.8,0.1h3.9V15.5z"/>
			<path fill="#E5381A" d="M580.6,10.4c0.1-0.1,0.2-0.1,0.3-0.1c0.1,0,0.1,0,0.2,0.1c0.9,0.5,2.4,1.6,3.4,2.6
				c0.1,0.1,0.2,0.2,0.2,0.3c0,0.1,0,0.1-0.1,0.2c-0.3,0.4-0.9,1.1-1.1,1.4c-0.1,0.1-0.1,0.1-0.2,0.1c-0.1,0-0.1-0.1-0.2-0.1
				c-1.1-1.1-2.4-2.1-3.7-2.9C579.7,11.3,580.3,10.7,580.6,10.4z M582.2,19.9c2.2-1.1,3.4-1.9,5.2-3.3c2.2-1.8,3.4-2.9,4.9-4.9
				c0.1,0.9,0.3,1.5,0.5,2.1c0.1,0.1,0.1,0.2,0.1,0.3c0,0.2-0.1,0.3-0.3,0.5c-1,1.1-2.5,2.6-4.1,3.8c-1.5,1.2-3,2.2-5.4,3.5
				c-0.8,0.5-1,0.7-1.2,0.8c-0.1,0.1-0.2,0.2-0.3,0.2c-0.1,0-0.2-0.1-0.3-0.2c-0.5-0.5-1-1.2-1.4-2
				C580.7,20.5,581.2,20.4,582.2,19.9z"/>
		</g>
	</g>
	<g>
		<g>
			<path fill="#FFFFFF" d="M18.7,144.5c-3.2,0-5.9,0.1-8,0.2c-0.6,0-0.8-0.3-0.9-1c-0.1-0.7-0.2-2.2-0.3-3.6
				c-0.1-0.7,0.5-1.3,1.2-1.2c1.9,0.2,4.3,0.2,8,0.2h17.3c1.5,0,2-0.1,2.7-0.5c0.2-0.1,0.5-0.2,0.7-0.2c0.3,0,0.6,0.1,0.9,0.2
				c1.3,0.8,2.6,2,3.5,3.2c0.2,0.3,0.3,0.5,0.3,0.8c0,0.4-0.2,0.8-0.7,1.2c-0.4,0.4-0.7,0.9-1.1,1.9c-2.4,5.7-5.3,11.1-9.4,15.8
				c-4.2,4.8-8.9,8.8-13.8,11.5c-0.4,0.3-0.9,0.4-1.3,0.4c-0.4,0-0.8-0.1-1.2-0.5c-0.7-0.6-1.5-1.2-2.5-1.7c-0.8-0.4-0.8-1.6,0-2
				c5.9-3.2,9.8-6.4,13.8-11.1c3.4-3.9,5.8-7.6,7.6-12.3c0.3-0.7-0.2-1.6-1.1-1.6H18.7z"/>
			<path fill="#FFFFFF" d="M66.9,150.7c-2.9,0-4.4,0.1-6.5,0.2c-0.5,0-1-0.1-1.1-0.6c-0.1-0.7-0.3-1.9-0.5-3.1
				c-0.1-0.7,0.5-1.3,1.2-1.3c2.1,0.1,3.6,0.2,6.5,0.2h16.3c1.4,0,2-0.1,2.6-0.4c0.2-0.1,0.5-0.2,0.7-0.2c0.2,0,0.5,0.1,0.8,0.4
				c0.9,0.8,1.9,1.8,2.8,3.2c0.2,0.3,0.2,0.5,0.2,0.7c0,0.3-0.2,0.5-0.5,0.7c-0.7,0.3-1,0.7-1.3,1c-1.9,2.8-4.5,5.8-6.3,7.6
				c-0.3,0.3-0.6,0.4-0.8,0.4c-0.4,0-0.7-0.1-1.1-0.4c-0.6-0.4-1.1-0.8-1.7-1.1c-0.7-0.3-0.8-1.3-0.2-1.8c1.2-1.2,2.3-2.3,3.2-3.5
				c0.6-0.7,0-1.8-0.9-1.8H66.9z M75.2,153.5c0.6,0.1,0.8,0.4,0.8,0.8c0,0.2,0,0.4-0.2,0.7c-0.2,0.5-0.3,1.2-0.3,1.8
				c0,7.2-2.8,13.6-9.2,17.6c-0.5,0.3-0.8,0.5-1.2,0.5c-0.3,0-0.6-0.1-0.9-0.4c-0.5-0.4-1.1-0.8-1.8-1.1c-0.8-0.4-0.8-1.5-0.1-2
				c5.3-3.5,7.9-7.8,7.9-14.6c0-1.1,0-1.7-0.2-2.5c-0.1-0.7,0.5-1.4,1.2-1.3C72.9,153.1,74.3,153.3,75.2,153.5z"/>
			<path fill="#FFFFFF" d="M113.7,145.5c-3.2,0-5.9,0.1-8,0.2c-0.6,0-0.8-0.3-0.9-1c-0.1-0.7-0.2-2.2-0.3-3.6
				c-0.1-0.7,0.5-1.3,1.2-1.2c1.9,0.2,4.3,0.2,8,0.2h17.3c1.5,0,2-0.1,2.7-0.5c0.2-0.1,0.5-0.2,0.7-0.2c0.3,0,0.6,0.1,0.9,0.2
				c1.3,0.8,2.6,2,3.5,3.2c0.2,0.3,0.3,0.5,0.3,0.8c0,0.4-0.2,0.8-0.7,1.2c-0.4,0.4-0.7,0.9-1.1,1.9c-2.4,5.7-5.3,11.1-9.4,15.8
				c-4.2,4.8-8.9,8.8-13.8,11.5c-0.4,0.3-0.9,0.4-1.3,0.4c-0.4,0-0.8-0.1-1.2-0.5c-0.7-0.6-1.5-1.2-2.5-1.7c-0.8-0.4-0.8-1.6,0-2
				c5.9-3.2,9.8-6.4,13.8-11.1c3.4-3.9,5.8-7.6,7.6-12.3c0.3-0.7-0.2-1.6-1.1-1.6H113.7z M137.3,134.1c0.2-0.2,0.4-0.1,0.7,0.1
				c1.5,1.2,3.2,3.1,4.6,5.2c0.2,0.3,0.2,0.5-0.1,0.8l-1.8,1.3c-0.3,0.2-0.6,0.2-0.8-0.1c-1.2-1.8-2.4-3.4-3.8-4.7
				c-0.5-0.5-0.5-1.3,0.1-1.8L137.3,134.1z M141.3,131.1c0.3-0.2,0.4-0.1,0.7,0.1c1.8,1.4,3.5,3.3,4.6,5c0.2,0.3,0.2,0.5-0.1,0.9
				l-1.6,1.3c-0.1,0.1-0.3,0.2-0.4,0.2c-0.2,0-0.3-0.1-0.4-0.3c-1.1-1.7-2.3-3.3-3.8-4.7c-0.5-0.5-0.5-1.3,0.1-1.7L141.3,131.1z"/>
			<path fill="#FFFFFF" d="M173.4,160.7c0.5-0.2,0.9-0.4,1.4-0.7c0.7-0.4,1.6,0.2,1.6,1c0,0.4,0,0.8,0,1.1c0.1,1.6,0.1,1.6-1.3,2.2
				c-3,1.5-6.5,2.9-9.7,4.1c-0.8,0.3-1.4,0.6-1.6,0.8c-0.2,0.2-0.5,0.3-0.8,0.3c-0.3,0-0.5-0.1-0.7-0.6c-0.4-0.9-0.7-2-1-3.1
				c-0.2-0.6,0.2-1.3,0.9-1.4c1.2-0.2,2.3-0.5,3.6-1l1.1-0.3v-13.8h-0.4c-3.2,0-4.1,0.1-4.4,0.1c-0.5,0-0.5,0-0.5-0.5v-3.7
				c0-0.5,0-0.5,0.5-0.5c0.3,0,1.3,0.1,4.4,0.1h0.4v-4.6c0-2.5,0-4.3-0.2-5.8c-0.1-0.7,0.5-1.3,1.2-1.3c1.3,0.1,2.4,0.1,3.6,0.3
				c0.5,0,0.8,0.3,0.8,0.6c0,0.3-0.1,0.6-0.3,1c-0.2,0.6-0.3,1.8-0.3,4.6l0,4c0,0.6,0.5,1.1,1.2,1.1c1.9,0,2.6-0.1,2.8-0.1
				c0.4,0,0.5,0,0.5,0.5v3.7c0,0.5,0,0.5-0.5,0.5c-0.2,0-0.9-0.1-2.8-0.1c-0.6,0-1.2,0.5-1.2,1.1v9.1
				C171.8,160.5,172.7,161.1,173.4,160.7z M184.1,168.2c0,1.3,0.2,1.8,0.9,2.2c0.7,0.4,2.2,0.5,7,0.5c5.2,0,6.8-0.2,7.8-1
				c0.6-0.6,0.9-1.3,1.1-3.7c0.1-0.8,0.9-1.3,1.6-1c0.6,0.3,1.2,0.5,1.9,0.7c1.2,0.3,1.2,0.3,1.1,1.6c-0.4,4.2-1,5.5-2.6,6.5
				c-1.7,1.1-4,1.6-11.5,1.6c-6.6,0-9-0.6-10.2-1.4c-1.2-0.7-1.8-2.2-1.8-4.8V156c0-0.8-0.8-1.3-1.5-1.1c-1.4,0.5-2.1,0.8-2.4,0.9
				c-0.5,0.1-0.5,0.1-0.6-0.4l-0.6-3.8c-0.1-0.5,0-0.5,0.4-0.6c0.4-0.1,1.4-0.3,4-1.1c0.5-0.2,0.8-0.6,0.8-1.1v-4.5
				c0-2.1,0-4-0.2-5.6c-0.1-0.7,0.5-1.3,1.2-1.2c1.2,0.1,2.3,0.1,3.3,0.2c0.7,0.1,1,0.3,1,0.5c0,0.4-0.1,0.6-0.3,1
				c-0.2,0.5-0.3,1.6-0.3,4.6v2.6c0,0.8,0.8,1.3,1.5,1.1l2.4-0.8c0.5-0.2,0.8-0.6,0.8-1.1v-6.2c0-2.4-0.1-3.8-0.2-5.6
				c-0.1-0.7,0.5-1.3,1.2-1.3c1.3,0.1,2.4,0.2,3.6,0.3c0.5,0,0.8,0.2,0.8,0.5c0,0.3-0.1,0.6-0.3,1c-0.2,0.6-0.3,1.8-0.3,4.4v4.5
				c0,0.8,0.8,1.3,1.5,1.1l2.2-0.8c4.6-1.5,6-2.1,6.4-2.2c0.3,0,0.5,0.1,0.5,0.5l-0.1,6.2c-0.1,4.9-0.5,8.5-1.2,11
				c-0.7,2.8-2.1,3.7-4.2,3.7c-0.6,0-1.2,0-1.8-0.1c-1.1-0.1-1.1-0.1-1.3-1.6c-0.1-0.5-0.2-1.2-0.4-1.7c-0.2-0.8,0.4-1.5,1.2-1.4
				c0.3,0,0.5,0,0.7,0c0.8,0,1.2-0.2,1.5-1.8c0.3-1.6,0.5-3.3,0.6-6.9c0-0.8-0.8-1.4-1.5-1.1l-3.3,1.1c-0.5,0.2-0.8,0.6-0.8,1.1v7.6
				c0,4.9,0.1,7.2,0.1,7.5c0,0.5,0,0.5-0.5,0.5h-3.9c-0.5,0-0.5,0-0.5-0.5c0-0.3,0.1-2.7,0.1-7.5v-5.2c0-0.8-0.8-1.3-1.5-1.1
				l-2.4,0.8c-0.5,0.2-0.8,0.6-0.8,1.1V168.2z"/>
			<path fill="#FFFFFF" d="M232,158.9c0.5-0.3,1.1-0.5,1.7-0.8c0.8-0.4,1.6,0.2,1.6,1c0,0.4,0,0.8,0,1.2c0.1,1.5,0.1,1.5-1.2,2.2
				c-3.3,1.8-6.4,3.1-10,4.5c-0.8,0.3-1.3,0.5-1.6,0.7c-0.3,0.2-0.5,0.4-0.8,0.4c-0.2,0-0.5-0.2-0.7-0.6c-0.3-1-0.6-2-0.9-3.3
				c-0.1-0.6,0.2-1.2,0.8-1.4c1.1-0.3,2.2-0.6,3.4-1c0.4-0.1,0.8-0.2,1.2-0.4v-8.2c0-0.6-0.5-1.1-1.2-1.1c-1.9,0-2.6,0.1-2.8,0.1
				c-0.5,0-0.5,0-0.5-0.5v-3.5c0-0.5,0-0.5,0.5-0.5c0.2,0,0.9,0.1,2.8,0.1c0.6,0,1.2-0.5,1.2-1.1v-5.8c0-0.6-0.5-1.1-1.1-1.1
				c-2.3,0-3.1,0.1-3.3,0.1c-0.5,0-0.5,0-0.5-0.5v-3.5c0-0.5,0-0.5,0.5-0.5c0.3,0,1.3,0.1,4.5,0.1h4.8c3.2,0,4.2-0.1,4.5-0.1
				c0.5,0,0.5,0,0.5,0.5v3.5c0,0.5,0,0.5-0.5,0.5c-0.3,0-1-0.1-3.3-0.1c-0.6,0-1.1,0.5-1.1,1.1v5.8c0,0.6,0.5,1.1,1.2,1.1
				c1.6,0,2.2-0.1,2.5-0.1c0.5,0,0.5,0,0.5,0.5v3.5c0,0.4,0,0.5-0.5,0.5c-0.2,0-0.9-0.1-2.5-0.1c-0.6,0-1.2,0.5-1.2,1.1v4.6
				C230.4,158.7,231.3,159.2,232,158.9z M244.6,161.8c0.1,0.6,0.2,0.9,0.2,1.2c0,0.5-0.2,0.7-1,1.3c-2.6,2-5,3.6-8,5.3
				c-0.6,0.4-1.1,0.7-1.3,1c-0.2,0.3-0.5,0.4-0.7,0.4c-0.3,0-0.5-0.1-0.8-0.5c-0.5-0.9-1-1.9-1.6-3.1c-0.3-0.6,0-1.3,0.6-1.5
				c1-0.4,2-0.9,3.1-1.5c2.8-1.5,4.9-2.8,7.3-4.5c0.6-0.5,1.6-0.2,1.8,0.6C244.3,160.9,244.5,161.4,244.6,161.8z M241.9,145.7
				c-4.7,0-6.3,0.1-6.5,0.1c-0.5,0-0.6,0-0.6-0.5v-3.6c0-0.5,0-0.6,0.6-0.6c0.2,0,1.8,0.1,6.5,0.1h3.3c0.6,0,1.1-0.5,1.1-1.1v-0.8
				c0-2.5-0.1-3.9-0.2-5.5c-0.1-0.7,0.5-1.3,1.2-1.3c1.3,0.1,2.5,0.1,3.8,0.2c0.5,0,0.8,0.3,0.8,0.5c0,0.4-0.2,0.7-0.3,1
				c-0.2,0.6-0.3,1.6-0.3,4.9v0.9c0,0.6,0.5,1.1,1.1,1.1h4.3c4.7,0,6.4-0.1,6.6-0.1c0.5,0,0.5,0,0.5,0.6v3.6c0,0.5,0,0.5-0.5,0.5
				c-0.3,0-1.9-0.1-6.6-0.1h-5.4v0.5c0.5,2.3,1.4,4.7,2.4,7c0.3,0.8,1.4,0.9,1.9,0.3c1.3-1.5,2.4-3,3.2-4.1c0.2-0.3,0.4-0.6,0.5-0.9
				c0.3-0.6,1-0.8,1.6-0.5c1,0.6,1.8,1.2,2.6,1.7c0.4,0.3,0.5,0.5,0.5,0.8c0,0.3-0.3,0.5-0.7,0.8c-0.4,0.2-0.8,0.6-1.2,1.2
				c-0.9,1.3-3.1,3.8-5,5.6c-0.2,0.2-0.4,0.4-0.6,0.5l0.1,0.2c1.9,2.9,4.3,5.8,7.7,8.4c0.5,0.4,0.6,1.1,0.2,1.6
				c-0.7,0.8-1.3,1.7-1.8,2.7c-0.3,0.7-0.5,1-0.8,1c-0.2,0-0.5-0.2-0.9-0.7c-3.3-3.4-5.6-6.6-7.3-9.9c-0.1-0.2-0.2-0.3-0.3-0.5
				c-0.6-1-2.2-0.6-2.1,0.6l0.1,2.3c0,1.7,0,5.1,0,6.5c0,2.4-0.6,3.5-1.6,4.3c-1.3,0.9-3.5,1.2-6.6,1.2c-1.6,0-1.6,0-1.9-1.4
				c-0.2-0.7-0.4-1.4-0.7-2c-0.3-0.8,0.3-1.6,1.1-1.6c1,0,2,0.1,3.1,0c1.4,0,1.8-0.5,1.8-1.9v-22.5c0-0.6-0.5-1.1-1.1-1.1H241.9z
				 M238.3,148.2c0.2-0.2,0.4-0.2,0.5-0.2c0.1,0,0.3,0,0.5,0.2c1.8,1.7,3.5,3.7,5,5.9c0.3,0.4,0.2,0.6-0.2,1l-2.4,2
				c-0.2,0.2-0.4,0.3-0.6,0.3c-0.1,0-0.2-0.1-0.4-0.3c-1.3-2.1-3.1-4.3-4.9-6.1c-0.1-0.2-0.2-0.3-0.2-0.4c0-0.1,0.1-0.3,0.4-0.5
				L238.3,148.2z M256,133.2c0.4-0.3,0.6-0.3,1,0c1.7,1.4,3.2,2.8,4.6,4.5c0.3,0.4,0.3,0.6-0.2,0.9l-2.6,1.7c-0.5,0.3-0.7,0.3-1-0.1
				c-1.3-1.8-2.6-3.2-4.2-4.7c-0.4-0.3-0.3-0.6,0.2-0.9L256,133.2z"/>
			<path fill="#FFFFFF" d="M286.9,161.4c0-1-1.2-1.5-1.9-0.8c-0.9,0.8-1.8,1.5-2.7,2.3c-0.5,0.4-0.8,0.6-1,0.6
				c-0.3,0-0.5-0.4-0.8-1.1c-0.3-0.9-0.7-1.8-1.1-2.5c-0.3-0.5-0.1-1.2,0.4-1.5c4.7-3.2,8.5-7.5,10.9-12.1c0.4-0.8-0.2-1.7-1-1.7
				h-3.7c-3.7,0-4.9,0.1-5.1,0.1c-0.5,0-0.5,0-0.5-0.5v-3.6c0-0.5,0-0.5,0.5-0.5c0.3,0,1.5,0.1,5.1,0.1h0.9v-2c0-1.9,0-3.3-0.2-4.6
				c-0.1-0.7,0.5-1.3,1.2-1.3c1.2,0.1,2.4,0.1,3.7,0.3c0.5,0,0.8,0.3,0.8,0.5c0,0.4-0.1,0.7-0.3,1c-0.3,0.6-0.3,1.4-0.3,3.9v1
				c0,0.6,0.5,1.1,1.1,1.1h0.9c0.4,0,0.7,0,0.9-0.2c0.2-0.1,0.4-0.2,0.5-0.2c0.3,0,0.8,0.3,1.8,1.3c0.9,0.9,1.3,1.4,1.3,1.7
				c0,0.2-0.1,0.5-0.5,0.8c-0.4,0.4-0.7,0.7-1.1,1.4c-1,2.2-2.3,4.3-3.6,6.3c-0.3,0.4-0.3,1,0.1,1.4c1.5,1.6,3.3,3,5.5,4.4
				c0.5,0.3,0.7,1,0.4,1.6c-0.5,0.7-0.9,1.4-1.2,2.2c-0.3,0.7-0.6,1.1-0.9,1.1c-0.2,0-0.5-0.2-1-0.6c-0.8-0.7-1.5-1.4-2.2-2.2
				c-0.7-0.8-2-0.3-2,0.8v10.5c0,3.6,0.1,5.5,0.1,5.7c0,0.5,0,0.5-0.6,0.5h-3.9c-0.5,0-0.6,0-0.6-0.5c0-0.3,0.1-2.1,0.1-5.7V161.4z
				 M303.1,174.8c-4.6,0-6.2,0.1-6.5,0.1c-0.5,0-0.5,0-0.5-0.5v-3.8c0-0.5,0-0.5,0.5-0.5c0.3,0,1.9,0.1,6.5,0.1h2.9
				c0.6,0,1.1-0.5,1.1-1.1v-15.9c0-0.6-0.5-1.1-1.1-1.1h-1c-4.3,0-5.8,0-6.1,0c-0.4,0-0.5,0-0.5-0.5v-3.8c0-0.5,0-0.5,0.5-0.5
				c0.3,0,1.8,0,6.1,0h1c0.6,0,1.1-0.5,1.1-1.1v-6.6c0-2.7,0-4.3-0.2-6c-0.1-0.7,0.5-1.3,1.2-1.3c1.4,0.1,2.8,0.1,4,0.3
				c0.4,0,0.8,0.2,0.8,0.5c0,0.4,0,0.6-0.2,1c-0.3,0.6-0.4,1.8-0.4,5.3v6.7c0,0.6,0.5,1.1,1.1,1.1h1.9c4.3,0,5.8,0,6.1,0
				c0.5,0,0.5,0,0.5,0.5v3.8c0,0.5,0,0.5-0.5,0.5c-0.3,0-1.8,0-6.1,0h-1.9c-0.6,0-1.1,0.5-1.1,1.1v15.9c0,0.6,0.5,1.1,1.1,1.1h3.3
				c4.6,0,6.2-0.1,6.5-0.1c0.5,0,0.6,0,0.6,0.5v3.8c0,0.5,0,0.5-0.6,0.5c-0.3,0-1.8-0.1-6.5-0.1H303.1z"/>
			<path fill="#FFFFFF" d="M350.6,149.7c0-0.9-1-1.5-1.8-1c-2.2,1.5-4.6,2.8-7,4c-0.6,0.3-0.9,0.4-1.2,0.4c-0.3,0-0.5-0.3-0.9-1.2
				c-0.4-0.7-0.7-1.4-1.2-2.1c-0.4-0.6-0.2-1.4,0.5-1.7c7.7-3.3,13.5-8.2,17.2-13.5c0.6-0.9,1-1.6,1.4-2.4c0.2-0.5,0.7-0.7,1.2-0.7
				c1.6,0.2,3.1,0.5,4.4,0.9c0.6,0.1,0.9,0.3,0.9,0.7c0,0.3-0.1,0.6-0.5,0.8c-0.3,0.1-0.5,0.3-0.7,0.4c5.2,6.3,11.3,10.4,19.1,13.4
				c0.7,0.3,1,1.1,0.6,1.7c-0.5,0.8-0.9,1.6-1.3,2.5c-0.3,0.9-0.5,1.2-0.8,1.2c-0.2,0-0.6-0.1-1.1-0.4c-2.6-1.2-5.2-2.5-7.5-4
				c-0.8-0.5-1.7,0.1-1.7,1v1.5c0,0.5,0,0.5-0.5,0.5c-0.3,0-1.6-0.1-5.5-0.1h-7.5c-3.9,0-5.2,0.1-5.5,0.1c-0.5,0-0.5,0-0.5-0.5
				V149.7z M347.5,160.7c-4.6,0-6.1,0.1-6.4,0.1c-0.5,0-0.6,0-0.6-0.5v-3.6c0-0.5,0-0.5,0.6-0.5c0.3,0,1.8,0.1,6.4,0.1h25.9
				c4.6,0,6.1-0.1,6.4-0.1c0.5,0,0.6,0,0.6,0.5v3.6c0,0.5,0,0.5-0.6,0.5c-0.3,0-1.8-0.1-6.4-0.1h-14.2c-0.5,0-0.9,0.3-1,0.7
				c-0.9,2.2-1.9,4.4-3.1,6.6c-0.4,0.8,0.2,1.7,1.1,1.7c3.7-0.2,7.4-0.5,10.8-0.9c0.9-0.1,1.3-1.2,0.8-1.9c-0.7-0.8-1.4-1.6-2.2-2.5
				c-0.3-0.4-0.3-0.6,0.3-0.9l3.1-1.6c0.5-0.3,0.7-0.2,1,0.1c3.3,3.4,6.1,6.9,9,11.3c0.2,0.4,0.2,0.6-0.2,0.9l-3.3,2.2
				c-0.3,0.2-0.4,0.3-0.6,0.3c-0.1,0-0.2-0.1-0.4-0.3c-0.7-1.1-1.4-2.2-2-3.2c-0.2-0.4-0.6-0.5-1.1-0.5c-7.9,1-17.5,1.8-25.5,2.4
				c-0.8,0-1.4,0.2-1.7,0.4c-0.2,0.2-0.5,0.3-0.8,0.3c-0.3,0-0.6-0.2-0.7-0.7c-0.3-1.2-0.6-2.4-0.8-3.6c-0.1-0.7,0.4-1.4,1.2-1.3
				c1.3,0,2.5,0,3.9-0.1c0.3,0,0.6,0,0.9,0c0.4,0,0.8-0.3,1-0.6c1.3-2.5,2.4-4.9,3.3-7.2c0.3-0.8-0.2-1.6-1.1-1.6H347.5z
				 M364.1,147.1c0.8,0,1.5,0,2.1,0c1.1,0,1.5-1.3,0.7-2c-2.1-1.8-4.1-3.7-5.8-5.8c-0.5-0.6-1.3-0.6-1.8,0c-1.7,2.1-3.6,4.1-5.6,5.8
				c-0.8,0.7-0.3,2,0.7,2c0.6,0,1.4,0,2.3,0H364.1z"/>
			<path fill="#FFFFFF" d="M406.9,160.9c-0.6,0-1,0.4-1.1,1c-0.3,1.5-0.6,3-0.9,4.3c-0.7,2.7-2,5.3-3.3,7.7
				c-0.3,0.6-0.6,0.9-0.8,0.9c-0.2,0-0.5-0.3-1-0.9c-0.7-0.8-1.3-1.5-2-2.1c-0.5-0.4-0.5-1-0.2-1.5c1.7-2.5,2.7-4.9,3.3-7.5
				c0.7-2.5,1.1-5.8,1.1-9.9c0-3.5,0-4.9,0-5.4c0-0.5,0-0.5,0.5-0.5c0.3,0,1.6,0.1,5.6,0.1h7.9c3.9,0,5.3-0.1,5.5-0.1
				c0.5,0,0.5,0,0.5,0.5c0,0.3-0.1,1.3-0.1,3.9v5.2c0,2.6,0.1,3.6,0.1,3.9c0,0.5,0,0.5-0.5,0.5c-0.2,0-1.6-0.1-5.5-0.1H406.9z
				 M406.8,142.6c-2,1.7-4.1,3.3-6.2,4.5c-0.5,0.3-0.9,0.5-1.1,0.5c-0.3,0-0.5-0.4-0.8-1.1c-0.3-0.8-0.7-1.5-1-2
				c-0.4-0.6-0.2-1.3,0.4-1.7c4.4-2.3,7.8-5.2,10.1-8.4c0.4-0.6,0.8-1.2,1.1-1.8c0.2-0.4,0.7-0.7,1.2-0.6c1.2,0.2,2.3,0.4,3.6,0.7
				c0.4,0.1,0.6,0.2,0.6,0.6c0,0.2-0.1,0.4-0.5,0.6c3,3.3,5.5,4.9,9.3,6.7c0.6,0.3,0.8,1,0.5,1.6c-0.4,0.6-0.7,1.3-0.9,2.1
				c-0.3,0.8-0.4,1.2-0.7,1.2c-0.2,0-0.5-0.1-1.1-0.4c-1-0.5-2-1.1-2.9-1.7c-0.5-0.4-1.2,0-1.2,0.6v0.6c0,0.4-0.4,0.8-0.8,0.8
				c-0.4,0-1.2-0.1-3-0.1h-2.8c-2.4,0-3,0.1-3.3,0.1c-0.5,0-0.6,0-0.6-0.5V142.6z M422.7,169.9c0,4.2,0.1,5.4,0.1,5.7
				c0,0.4,0,0.5-0.5,0.5h-3.6c-0.5,0-0.5,0-0.5-0.5v-1.1H411c-0.4,0-0.8,0.3-0.8,0.8v0.4c0,0.4-0.3,0.8-0.8,0.8h-3.3
				c-0.5,0-0.5,0-0.5-0.5c0-0.3,0.1-1.4,0.1-5.7v-2.8c0-2.2-0.1-3.2-0.1-3.6c0-0.5,0-0.5,0.5-0.5c0.3,0,1.5,0.1,5.1,0.1h5.9
				c3.6,0,4.8-0.1,5.1-0.1c0.5,0,0.5,0,0.5,0.5c0,0.3-0.1,1.3-0.1,3V169.9z M416.4,155.5h-9.3c-0.4,0-0.7,0.3-0.8,0.7l0,0.4
				c0,0.4,0.3,0.8,0.8,0.8h9.3c0.4,0,0.8-0.3,0.8-0.8v-0.4C417.2,155.8,416.9,155.5,416.4,155.5z M406.5,151.1v0.3
				c0,0.4,0.3,0.8,0.8,0.8h9.2c0.4,0,0.8-0.3,0.8-0.8v-0.3c0-0.4-0.3-0.8-0.8-0.8h-9.2C406.8,150.3,406.5,150.7,406.5,151.1z
				 M413.5,141.5c1.5,0,2.3,0,2.7,0c-1.2-1-2.4-2.1-3.4-3.4c-0.5-0.5-1.3-0.5-1.7,0.1c-0.4,0.5-0.8,1-1.2,1.5
				c-0.6,0.7-0.1,1.9,0.8,1.9c0,0,0,0,0,0H413.5z M410.2,168.1v1.7c0,0.6,0.5,1.1,1.1,1.1h5.6c0.6,0,1.1-0.5,1.1-1.1v-1.7
				c0-0.6-0.5-1.1-1.1-1.1h-5.6C410.7,167,410.2,167.5,410.2,168.1z M425.9,143.5c0-2.6,0-4.2-0.2-5.9c-0.1-0.7,0.5-1.3,1.2-1.3
				c1.2,0.1,2.4,0.1,3.6,0.3c0.4,0,0.6,0.2,0.6,0.5c0,0.3-0.2,0.7-0.3,1.1c-0.1,0.7-0.1,1.6-0.1,5.2v13.4c0,4.1,0,6.1,0,6.4
				c0,0.5,0,0.6-0.5,0.6h-4c-0.4,0-0.5,0-0.5-0.6c0-0.3,0.1-2.3,0.1-6.4V143.5z M439.9,160.1c0,3.4,0.1,7.2,0.1,9.7
				c0,2.4-0.3,3.8-1.7,4.8c-1.4,0.9-2.8,1.2-7.3,1.2c-1.5,0-1.5,0-1.8-1.6c-0.2-0.7-0.4-1.4-0.6-2c-0.3-0.8,0.3-1.6,1.1-1.5
				c1.3,0.1,2.5,0.1,4.2,0.1c0.6,0,1.1-0.5,1.1-1.1v-29.9c0-2.5,0-4-0.2-5.6c-0.1-0.7,0.5-1.3,1.2-1.3c1.3,0.1,2.5,0.1,3.8,0.3
				c0.5,0,0.7,0.3,0.7,0.5c0,0.4-0.1,0.7-0.2,1.1c-0.3,0.6-0.3,1.6-0.3,4.9V160.1z"/>
			<path fill="#FFFFFF" d="M466.2,165.2c0,0.3,0.1,0.7,0.2,1c0.9,1.7,1.9,2.8,3.7,3.6c1.7,0.7,4.8,1,9,1c5.3,0,11.5-0.2,17.6-0.7
				c1.4-0.1,2.5,1.2,2.2,2.5c-0.1,0.3-0.1,0.6-0.2,0.9c-0.2,1.6-0.2,1.6-1.8,1.6c-6.2,0.3-12,0.4-17.1,0.4c-5,0-9-0.4-11.4-1.4
				c-1.5-0.6-2.6-1.4-3.5-2.5c-0.7-0.9-2.1-1-2.9-0.2c-1,0.9-2.1,1.8-3.2,2.7c-0.5,0.4-0.8,0.7-1,1c-0.2,0.3-0.4,0.4-0.7,0.4
				c-0.2,0-0.5-0.2-0.7-0.6c-0.4-0.8-0.9-1.7-1.3-2.8c-0.4-1,0-2.1,1-2.6c0.4-0.2,0.8-0.4,1.2-0.7c1.1-0.7,2.3-1.6,3.3-2.5
				c0.5-0.4,0.7-1,0.7-1.6v-7.8c0-1.1-0.9-2.1-2.1-2.1h-0.3c-0.8,0-1.5,0-2,0c-1.2,0-2.1-0.9-2.1-2.1v-2.1c0-0.5,0-0.5,0.6-0.5
				c0.2,0,0.9,0.1,3.5,0.1h3c2.6,0,3.3-0.1,3.6-0.1c0.5,0,0.5,0,0.5,0.5c0,0.3-0.1,1.7-0.1,4.6V165.2z M459.2,133.8
				c0.2-0.2,0.4-0.3,0.6-0.3c0.1,0,0.3,0.1,0.5,0.3c2.2,2.1,4.3,4.5,6.1,7.2c0.3,0.4,0.2,0.5-0.3,1l-2.7,2.1
				c-0.3,0.2-0.4,0.3-0.6,0.3c-0.1,0-0.3-0.1-0.4-0.4c-1.8-2.9-3.8-5.5-6-7.5c-0.3-0.4-0.3-0.5,0.2-0.9L459.2,133.8z M475.2,151.6
				c-4.7,0-6.3,0.1-6.6,0.1c-0.5,0-0.6,0-0.6-0.5v-3.4c0-0.5,0-0.5,0.6-0.5c0.3,0,1.9,0.1,6.6,0.1h3.3c1.1,0,2.1-0.9,2.1-2.1v-0.7
				c0-1.1-0.9-2.1-2.1-2.1h-3c-0.7,0-1.4,0.4-1.8,1c-0.4,0.7-0.9,1.4-1.3,2c-0.5,0.6-0.7,1-1,1c-0.2,0-0.6-0.2-1.1-0.7
				c-0.3-0.3-0.6-0.5-0.9-0.7c-1-0.6-1.2-2-0.5-2.9c1.6-2.1,2.6-4.2,3.3-5.8c0.1-0.4,0.3-0.8,0.4-1.1c0.3-1.1,1.5-1.7,2.6-1.4
				c0.8,0.2,1.5,0.5,2.1,0.7c0.5,0.2,0.7,0.3,0.7,0.6s-0.1,0.4-0.4,0.7c-0.3,0.3-0.6,0.8-1,1.7l-0.3,0.7h4.1v-0.9
				c0-1.2,0-2.1-0.1-2.9c-0.1-1.2,0.9-2.2,2.1-2.2c0.9,0,1.7,0.1,2.5,0.2c0.4,0,0.7,0.2,0.7,0.5c0,0.3,0,0.5-0.2,0.8
				c-0.2,0.4-0.3,1.2-0.3,3.3v1.1h3.9c4.3,0,5.7-0.1,6-0.1c0.5,0,0.5,0,0.5,0.6v3.3c0,0.5,0,0.5-0.5,0.5c-0.3,0-1.7-0.1-6-0.1h-1.8
				c-1.1,0-2.1,0.9-2.1,2.1v0.7c0,1.1,0.9,2.1,2.1,2.1h3.7c4.7,0,6.4-0.1,6.6-0.1c0.5,0,0.6,0,0.6,0.5v3.4c0,0.4,0,0.5-0.6,0.5
				c-0.3,0-1.9-0.1-6.6-0.1H475.2z M488,154.6c4.3,0,5.8-0.1,6.1-0.1c0.5,0,0.5,0,0.5,0.5c0,0.3-0.1,1.3-0.1,3.7v4.7
				c0,2.5,0.1,3.4,0.1,3.7c0,0.5,0,0.5-0.5,0.5c-0.3,0-1.8-0.1-6.1-0.1h-9.6c-4.3,0-5.8,0.1-6.1,0.1c-0.5,0-0.5,0-0.5-0.5
				c0-0.3,0.1-1.3,0.1-3.7v-4.7c0-2.5-0.1-3.4-0.1-3.7c0-0.5,0-0.5,0.5-0.5c0.3,0,1.8,0.1,6.1,0.1H488z M487.5,158.8h-8.8
				c-1.1,0-2.1,0.9-2.1,2.1v0.6c0,1.1,0.9,2.1,2.1,2.1h8.8c1.1,0,2.1-0.9,2.1-2.1v-0.6C489.6,159.7,488.7,158.8,487.5,158.8z"/>
			<path fill="#FFFFFF" d="M536.4,139.9c0.5,0,0.8,0,1-0.1c0.2-0.1,0.4-0.1,0.6-0.1c0.4,0,0.6,0.1,1.7,1.2c0.9,0.9,1.1,1.3,1.1,1.6
				c0,0.3-0.1,0.6-0.3,0.9c-0.3,0.4-0.3,1-0.5,2.6c-0.5,6.2-1.7,11.7-3.8,16.9c-0.2,0.4-0.1,0.8,0.1,1.2c0.6,0.8,1.3,1.6,2,2.3
				c3.1,2.8,5.9,3.7,10.8,4.3c2.1,0.2,4.5,0.2,7.3-0.1c0.9-0.1,1.6,0.7,1.3,1.6c-0.1,0.5-0.3,1.1-0.4,1.7c-0.3,1.6-0.3,1.6-1.8,1.7
				c-2.3,0.2-4.4,0.2-7,0c-4.9-0.3-9-2.2-11.9-4.5c-0.7-0.6-1.3-1.2-1.9-1.9c-0.5-0.6-1.5-0.6-2,0.1c-1.5,2.2-3.2,4.3-5.3,6.3
				c-0.5,0.4-0.8,0.7-1,0.7c-0.3,0-0.5-0.3-0.9-0.9c-0.4-0.7-0.8-1.4-1.3-2c-0.4-0.6-0.4-1.3,0.2-1.8c2.7-2.2,4.9-4.8,6.5-7.8
				c0.2-0.3,0.2-0.7,0.1-1c-0.3-0.7-0.5-1.5-0.8-2.3c-0.3-1.1-1.8-1.2-2.3-0.2c0,0,0,0,0,0.1c-0.3,0.5-0.5,0.8-0.7,0.8
				c-0.2,0-0.5-0.2-0.8-0.7c-0.5-0.6-1-1.2-1.5-1.7c-0.5-0.4-0.6-1-0.3-1.6c0.1-0.3,0.3-0.5,0.4-0.8l-0.5,0.3l-1,0.6
				c-0.4,0.2-0.6,0.6-0.6,1.1v2.6c0,4.6,0.1,7.2,0.1,9.7c0,2.7-0.1,4-1.4,4.9c-1,0.7-2.1,1-5.1,1c-1.6,0-1.6,0-1.8-1.5
				c-0.1-0.6-0.2-1.2-0.4-1.7c-0.2-0.8,0.4-1.6,1.2-1.6c0.3,0,0.5,0,0.8,0c1.2,0,1.8-0.4,1.8-1.8v-9.8c-0.3,0.1-0.5,0.2-0.8,0.3
				c-0.9,0.4-1.3,0.7-1.6,1c-0.3,0.2-0.5,0.3-0.8,0.3c-0.3,0-0.5-0.1-0.6-0.6c-0.3-1-0.6-2.1-0.8-3.3c-0.1-0.7,0.3-1.3,0.9-1.5
				c1-0.3,2-0.6,3.2-1c0.2,0,0.4-0.1,0.6-0.2v-9.1H518c-2.8,0-3.5,0.1-3.8,0.1c-0.5,0-0.5,0-0.5-0.5v-3.4c0-0.5,0-0.5,0.5-0.5
				c0.2,0,1,0.1,3.8,0.1h0.4v-2.4c0-2.4,0-3.9-0.2-5.4c-0.1-0.8,0.5-1.4,1.3-1.4c1.2,0.1,2.2,0.1,3.4,0.3c0.5,0,0.8,0.2,0.8,0.5
				c0,0.4-0.1,0.7-0.3,1c-0.3,0.6-0.3,1.6-0.3,4.9v1.2c0,0.7,0.6,1.3,1.3,1.2c1.1,0,1.5-0.1,1.7-0.1c0.5,0,0.6,0,0.6,0.5v3.4
				c0,0.5,0,0.5-0.6,0.5c-0.2,0-0.7,0-1.7-0.1c-0.7,0-1.3,0.5-1.3,1.2v4.5c0,0.6,0.6,1,1.1,0.7c0,0,0,0,0.1,0
				c0.5-0.3,1.2,0.1,1.2,0.7c0,0.7,0,1.3,0,2c0,0.4,0,0.6,0,0.8c2.7-5.4,4.2-12.7,4.6-19.4c0.1-0.9,0.1-1.5,0.1-2.1
				c0-0.8,0.7-1.3,1.4-1.2c1.1,0.2,2.2,0.3,3,0.5c0.4,0.1,0.6,0.2,0.6,0.6c0,0.4-0.1,0.7-0.3,1c-0.2,0.5-0.3,1.2-0.5,3l-0.1,0.5
				c-0.1,0.7,0.5,1.4,1.2,1.4H536.4z M533,145.3c-0.4,1.8-0.9,3.6-1.4,5.4c-0.1,0.2-0.1,0.4,0,0.6c0.2,1,0.4,1.9,0.6,2.9
				c0.3,1.3,2.1,1.2,2.4,0c0.6-2.6,1-5.5,1.2-8.5c0.1-0.7-0.5-1.3-1.2-1.3h-0.4C533.7,144.4,533.2,144.8,533,145.3z M553.3,160.3
				c0,1.1,0,1.4,0.1,1.5c0.2,0.2,0.3,0.2,0.5,0.2c0.4,0,0.5,0,0.8-0.4c0.2-0.3,0.4-1,0.4-5.2c0-0.9,0.9-1.5,1.7-1.1
				c0.3,0.1,0.7,0.2,1,0.3c0.8,0.2,0.8,0.3,0.8,1.6c-0.2,6.3-0.5,7.4-1.3,8.3c-0.9,0.9-1.9,1-3.9,1c-1.5,0-2.7-0.2-3.3-0.7
				c-0.8-0.5-1.2-1.7-1.2-3.6v-21.6c0-0.6-0.5-1.1-1.1-1.1h-0.2c-0.6,0-1.1,0.5-1.1,1.1v2.3c0,10.1-0.5,16.6-4.1,22.5
				c-0.3,0.5-0.6,0.8-0.8,0.8c-0.2,0-0.5-0.2-0.8-0.7c-0.4-0.6-1-1.1-1.6-1.6c-0.5-0.4-0.6-1.1-0.3-1.6c3-4.7,3.3-9.9,3.3-20.2
				c0-4.4-0.1-6.5-0.1-6.7c0-0.5,0-0.6,0.5-0.6c0.3,0,0.9,0.1,3.3,0.1h3.5c2.5,0,3.2-0.1,3.4-0.1c0.5,0,0.5,0,0.5,0.6
				c0,0.3-0.1,2.3-0.1,6.5V160.3z"/>
			<path fill="#FFFFFF" d="M573.8,174.3c-0.7-0.4-0.7-0.5-0.3-0.9c2.1-2.3,4-5.3,5.2-8.2c0.2-0.5,0.3-0.5,1-0.2l2.8,1.1
				c0.6,0.2,0.7,0.3,0.5,0.8c-1.3,3.5-3,6.5-5.1,9.1c-0.1,0.2-0.2,0.3-0.4,0.3c-0.1,0-0.3,0-0.6-0.2L573.8,174.3z M591.4,138.3
				c0-1.6,0-2.8-0.1-3.9c-0.1-1.3,0.9-2.3,2.2-2.2c1,0.1,2,0.2,2.9,0.3c0.5,0,0.7,0.2,0.7,0.5c0,0.3,0,0.6-0.2,1
				c-0.2,0.5-0.3,1.2-0.3,3.4v0.4h11c4.5,0,6-0.1,6.3-0.1c0.5,0,0.5,0,0.5,0.5v3.9c0,0.4,0,0.5-0.5,0.5c-0.3,0-1.8-0.1-6.3-0.1h-8.9
				c-1.1,0-2.1,0.9-2.1,2.1v0.2c0,1.1,0.9,2.1,2.1,2.1h4.4c4.7,0,6.4-0.1,6.7-0.1c0.5,0,0.5,0,0.5,0.5c0,0.3-0.1,1.6-0.1,4.4v6.7
				c0,2.8,0.1,4,0.1,4.3c0,0.5,0,0.5-0.5,0.5c-0.3,0-2-0.1-6.7-0.1H587c-4.8,0-6.5,0.1-6.7,0.1c-0.5,0-0.5,0-0.5-0.5
				c0-0.3,0.1-1.5,0.1-4.3v-6.7c0-2.8-0.1-4-0.1-4.4c0-0.4,0-0.5,0.5-0.5c0.3,0,2,0.1,6.7,0.1h2.4c1.1,0,2.1-0.9,2.1-2.1V138.3z
				 M587,158.4h16.1c1.1,0,2.1-0.9,2.1-2.1v-2.9c0-1.1-0.9-2.1-2.1-2.1H587c-1.1,0-2.1,0.9-2.1,2.1v2.9
				C584.9,157.5,585.9,158.4,587,158.4z M590.7,165.7c0.6,0,0.7,0,0.8,0.5c0.7,2.6,1.1,5.8,1.3,8.7c0,0.5,0,0.7-0.7,0.7l-3.6,0.2
				c-0.7,0-0.8,0-0.8-0.5c0-2.9-0.4-6.1-0.9-8.8c-0.1-0.5,0-0.6,0.7-0.7L590.7,165.7z M600,165.3c0.6-0.1,0.7,0,0.9,0.4
				c1.1,2.5,2.2,5.9,2.9,8.6c0.1,0.5,0,0.6-0.6,0.8l-3.4,0.7c-0.7,0.1-0.8,0.1-0.9-0.4c-0.5-2.9-1.5-6.3-2.5-8.8
				c-0.2-0.4-0.1-0.5,0.6-0.7L600,165.3z M609.7,164.6c1.4-0.5,0.2-0.1,4.8,4.4c0.4,0.4,0.6,0.8,0.6,1.3c0.2,3.5,1.7,3.4,0.3,4
				l-3.2,1.4c-0.6,0.2-0.7,0.2-0.9-0.2c-1.2-3.2-2.8-6.3-4.7-9.1c-0.3-0.4-0.1-0.5,0.4-0.8L609.7,164.6z"/>
		</g>
	</g>
</g>
</svg>
